<svg width="800" height="800" viewBox="0 0 800 800" fill="none" xmlns="http://www.w3.org/2000/svg">
<rect width="800" height="800" fill="#5A16CA"/>
<path d="M574.188 337.613H550.649L604.571 198.736H283.153L292.888 173.712H141.811V601.412H702.953L643.895 461.731H521.015L574.188 337.613Z" fill="white"/>
<path d="M626.034 557.496C626.034 565.596 632.634 572.196 640.734 572.196C648.684 572.196 655.284 565.596 655.284 557.496C655.284 549.396 648.684 542.946 640.734 542.946C632.634 542.946 626.034 549.396 626.034 557.496Z" fill="#5A16CA"/>
<path d="M171.484 303.413H248.584L241.16 282.563H195.184V262.313H227.734V241.463H195.184V224.063H241.16L248.584 203.213H171.484V303.413Z" fill="#111111"/>
<path d="M278.446 303.413H304.096L330.796 229.013H307.246L291.346 279.713L275.446 229.013H251.896L278.446 303.413Z" fill="#111111"/>
<path d="M332.986 265.763C332.986 290.363 349.636 305.213 373.786 305.213C385.936 305.213 398.536 299.963 406.336 288.563L388.186 281.963C385.336 285.263 380.236 287.513 373.186 287.513C364.786 287.513 356.686 282.413 355.936 271.913H410.986C412.486 245.663 397.336 226.913 372.886 226.913C351.136 226.913 332.986 242.063 332.986 265.763ZM373.486 243.863C382.336 243.863 389.536 248.813 389.836 258.413H355.936C357.286 248.213 364.936 243.863 373.486 243.863Z" fill="#111111"/>
<path d="M444.647 303.413V265.913C444.647 254.063 450.647 249.263 461.747 249.263C463.847 249.263 465.497 249.413 467.897 249.713V226.913C456.497 226.313 448.547 230.663 443.897 242.663L439.847 229.013H421.847V303.413H444.647Z" fill="#111111"/>
<path d="M474.113 229.013L502.613 302.963L501.863 304.913C499.613 310.613 497.963 311.063 488.363 311.063H483.863L477.332 327.563H491.213C510.563 327.563 516.113 322.313 523.313 303.413L551.813 229.013H527.363L513.113 275.513L498.563 229.013H474.113Z" fill="#111111"/>
<path d="M523.313 303.413C523.253 303.57 523.193 303.727 523.134 303.882L524.715 303.947L553.994 227.513H526.254L513.098 270.443L499.665 227.513H471.927L501.006 302.964L502.587 303.03L502.613 302.963L474.113 229.013H498.563L513.113 275.513L527.363 229.013H551.813L523.313 303.413Z" fill="#111111"/>
<path d="M483.863 311.063H488.363C497.963 311.063 499.613 310.613 501.863 304.913L502.587 303.03L501.006 302.964L500.468 304.363L500.465 304.369C499.364 307.156 498.577 308.181 497.27 308.751C496.541 309.069 495.551 309.284 494.078 309.409C492.61 309.535 490.765 309.563 488.363 309.563H482.843L475.125 329.063H491.213C500.978 329.063 507.629 327.751 512.742 323.758C517.806 319.804 521.112 313.404 524.714 303.95L523.133 303.884C516.019 322.401 510.401 327.563 491.213 327.563H477.332L483.863 311.063Z" fill="#111111"/>
<path fill-rule="evenodd" clip-rule="evenodd" d="M452.567 228.794C449.165 230.934 446.386 234.095 444.184 238.357L440.967 227.513H420.347V304.913H446.147V265.913C446.147 260.224 447.585 256.538 450.055 254.244C452.548 251.929 456.378 250.763 461.747 250.763C463.759 250.763 465.341 250.905 467.711 251.202L469.397 251.413V225.49L467.976 225.415C462.072 225.105 456.9 226.068 452.567 228.794ZM467.897 226.913C457.216 226.351 449.563 230.135 444.816 240.485C444.496 241.181 444.19 241.907 443.897 242.663L439.847 229.013H421.847V303.413H444.647V265.913C444.647 254.063 450.647 249.263 461.747 249.263C463.381 249.263 464.743 249.354 466.397 249.536C466.869 249.588 467.365 249.647 467.897 249.713V226.913Z" fill="#111111"/>
<path fill-rule="evenodd" clip-rule="evenodd" d="M407.574 289.41L408.666 287.815L387.727 280.2L387.051 280.983C384.565 283.861 379.939 286.013 373.186 286.013C369.278 286.013 365.503 284.826 362.641 282.489C360.128 280.437 358.251 277.445 357.615 273.413H412.403L412.484 271.999C413.251 258.573 409.766 246.925 402.819 238.608C395.855 230.272 385.52 225.413 372.886 225.413C350.412 225.413 331.486 241.135 331.486 265.763C331.486 278.416 335.778 288.694 343.3 295.804C350.811 302.903 361.406 306.713 373.786 306.713C386.353 306.713 399.453 301.28 407.574 289.41ZM355.936 271.913C355.973 272.426 356.027 272.926 356.098 273.413C357.478 282.899 365.197 287.513 373.186 287.513C380.236 287.513 385.336 285.263 388.186 281.963L406.336 288.563C406.041 288.994 405.74 289.417 405.431 289.83C397.584 300.353 385.477 305.213 373.786 305.213C349.636 305.213 332.986 290.363 332.986 265.763C332.986 242.063 351.136 226.913 372.886 226.913C397.336 226.913 412.486 245.663 410.986 271.913H355.936Z" fill="#111111"/>
<path fill-rule="evenodd" clip-rule="evenodd" d="M373.486 243.863C381.863 243.863 388.762 248.298 389.73 256.913C389.785 257.4 389.82 257.9 389.836 258.413H355.936C356.004 257.899 356.089 257.399 356.188 256.913C358.061 247.785 365.368 243.863 373.486 243.863ZM383.911 248.694C381.294 246.526 377.644 245.363 373.486 245.363C369.453 245.363 365.742 246.39 362.911 248.513C360.458 250.353 358.573 253.084 357.722 256.913H388.22C387.775 253.294 386.186 250.577 383.911 248.694Z" fill="#111111"/>
<path fill-rule="evenodd" clip-rule="evenodd" d="M249.768 227.513L277.389 304.913H305.151L332.928 227.513H306.144L291.346 274.701L276.548 227.513H249.768ZM278.446 303.413H304.096L330.796 229.013H307.246L291.346 279.713L275.446 229.013H251.896L278.446 303.413Z" fill="#111111"/>
<path fill-rule="evenodd" clip-rule="evenodd" d="M196.684 239.963V225.563H242.218L250.711 201.713H169.984V304.913H250.711L242.218 281.063H196.684V263.813H229.234V239.963H196.684ZM195.184 224.063H241.16L248.584 203.213H171.484V303.413H248.584L241.16 282.563H195.184V262.313H227.734V241.463H195.184V224.063Z" fill="#111111"/>
<path d="M171.484 339.125V439.325H216.934C241.234 439.325 257.434 430.925 257.434 408.425C257.434 396.275 250.834 389.225 241.534 386.075C249.034 381.425 253.384 374.375 253.384 365.225C253.384 344.225 237.034 339.125 215.284 339.125H171.484ZM217.084 397.025C227.284 397.025 232.384 401.225 232.384 408.275C232.384 415.325 227.284 419.675 217.084 419.675H195.184V397.025H217.084ZM216.034 358.475C223.984 358.475 228.784 362.225 228.784 368.525C228.784 374.675 223.984 378.725 216.034 378.725H195.184V358.475H216.034Z" fill="#111111"/>
<path d="M265.604 401.825C265.604 428.675 284.354 441.125 305.054 441.125C325.454 441.125 344.354 428.675 344.354 401.825C344.354 374.975 325.454 362.825 305.054 362.825C284.354 362.825 265.604 374.975 265.604 401.825ZM305.054 380.525C313.904 380.525 321.104 386.075 321.104 401.825C321.104 417.425 314.204 423.425 305.054 423.425C295.754 423.425 288.854 417.425 288.854 401.825C288.854 386.075 296.054 380.525 305.054 380.525Z" fill="#111111"/>
<path d="M384.44 441.125C392.54 441.125 401.39 437.826 407.69 429.275L410.69 439.325H432.44C430.34 428.375 429.89 417.725 429.89 410.225V339.125H407.09V375.125C402.29 366.875 392.54 362.825 384.44 362.825C365.24 362.825 351.59 377.225 351.59 401.525C351.59 425.825 365.24 441.125 384.44 441.125ZM391.79 380.525C400.64 380.525 408.14 386.825 408.14 401.975C408.14 417.425 400.64 423.425 391.79 423.425C382.79 423.425 375.29 415.325 375.29 401.525C375.29 387.875 382.79 380.525 391.79 380.525Z" fill="#111111"/>
<path d="M437.345 364.925L465.845 438.875L465.095 440.825C462.845 446.525 461.195 446.975 451.595 446.975H447.095L440.245 463.475H454.445C473.795 463.475 479.345 458.225 486.545 439.325L515.045 364.925H490.595L476.345 411.425L461.795 364.925H437.345Z" fill="#111111"/>
<path d="M486.545 439.325C486.485 439.483 486.426 439.639 486.366 439.794L487.947 439.859L517.226 363.425H489.486L476.33 406.355L462.898 363.425H435.16L464.238 438.876L465.82 438.942L465.845 438.875L437.345 364.925H461.795L476.345 411.425L490.595 364.925H515.045L486.545 439.325Z" fill="#111111"/>
<path d="M447.095 446.975H451.595C461.195 446.975 462.845 446.525 465.095 440.825L465.82 438.942L464.238 438.876L463.7 440.275L463.697 440.281C462.597 443.068 461.81 444.093 460.502 444.663C459.773 444.981 458.783 445.196 457.311 445.322C455.842 445.447 453.997 445.475 451.595 445.475H446.094L437.998 464.975H454.445C464.211 464.975 470.862 463.663 475.975 459.67C481.039 455.716 484.345 449.316 487.946 439.862L486.365 439.796C479.252 458.313 473.634 463.475 454.445 463.475H440.245L447.095 446.975Z" fill="#111111"/>
<path fill-rule="evenodd" clip-rule="evenodd" d="M405.59 370.53C400.038 364.323 391.597 361.325 384.44 361.325C374.443 361.325 365.806 365.086 359.686 372.075C353.582 379.046 350.09 389.101 350.09 401.525C350.09 413.949 353.58 424.218 359.67 431.407C365.777 438.617 374.413 442.625 384.44 442.625C392.196 442.625 400.625 439.738 407.068 432.435L409.572 440.825H434.255L433.913 439.043C431.837 428.22 431.39 417.674 431.39 410.225V337.625H405.59V370.53ZM406.557 430.725C406.943 430.259 407.321 429.776 407.69 429.275L410.69 439.325H432.44C432.344 438.825 432.251 438.325 432.162 437.825C430.3 427.408 429.89 417.383 429.89 410.225V339.125H407.09V375.125C406.633 374.34 406.131 373.593 405.59 372.883C400.448 366.141 391.769 362.825 384.44 362.825C365.24 362.825 351.59 377.225 351.59 401.525C351.59 425.825 365.24 441.125 384.44 441.125C392.065 441.125 400.355 438.201 406.557 430.725Z" fill="#111111"/>
<path fill-rule="evenodd" clip-rule="evenodd" d="M408.14 401.975C408.14 386.825 400.64 380.525 391.79 380.525C382.79 380.525 375.29 387.875 375.29 401.525C375.29 415.325 382.79 423.425 391.79 423.425C400.64 423.425 408.14 417.425 408.14 401.975ZM402.146 386.547C399.49 383.456 395.843 382.025 391.79 382.025C387.721 382.025 384.018 383.676 381.31 386.876C378.589 390.09 376.79 394.969 376.79 401.525C376.79 414.827 383.913 421.925 391.79 421.925C395.863 421.925 399.505 420.556 402.151 417.51C404.819 414.44 406.64 409.475 406.64 401.975C406.64 394.633 404.823 389.661 402.146 386.547Z" fill="#111111"/>
<path fill-rule="evenodd" clip-rule="evenodd" d="M264.104 401.825C264.104 415.626 268.937 425.879 276.569 432.665C284.173 439.427 294.416 442.625 305.054 442.625C315.545 442.625 325.749 439.424 333.35 432.665C340.98 425.881 345.854 415.63 345.854 401.825C345.854 388.02 340.979 377.841 333.344 371.13C325.739 364.447 315.536 361.325 305.054 361.325C294.425 361.325 284.183 364.444 276.576 371.13C268.938 377.843 264.104 388.024 264.104 401.825ZM305.054 441.125C284.354 441.125 265.604 428.675 265.604 401.825C265.604 374.975 284.354 362.825 305.054 362.825C325.454 362.825 344.354 374.975 344.354 401.825C344.354 428.675 325.454 441.125 305.054 441.125Z" fill="#111111"/>
<path fill-rule="evenodd" clip-rule="evenodd" d="M305.054 380.525C313.904 380.525 321.104 386.075 321.104 401.825C321.104 417.425 314.204 423.425 305.054 423.425C295.754 423.425 288.854 417.425 288.854 401.825C288.854 386.075 296.054 380.525 305.054 380.525ZM315.263 386.251C312.708 383.301 309.156 382.025 305.054 382.025C300.869 382.025 297.28 383.305 294.709 386.255C292.11 389.238 290.354 394.153 290.354 401.825C290.354 409.433 292.039 414.434 294.616 417.513C297.157 420.549 300.742 421.925 305.054 421.925C309.283 421.925 312.831 420.553 315.356 417.516C317.918 414.436 319.604 409.433 319.604 401.825C319.604 394.153 317.847 389.235 315.263 386.251Z" fill="#111111"/>
<path fill-rule="evenodd" clip-rule="evenodd" d="M243.236 342.999C236.073 338.895 226.214 337.625 215.284 337.625H169.984V440.825H216.934C229.211 440.825 239.698 438.712 247.151 433.546C254.705 428.31 258.934 420.087 258.934 408.425C258.934 402.066 257.202 396.934 254.163 392.964C251.708 389.757 248.454 387.375 244.72 385.71C251.161 380.837 254.884 373.91 254.884 365.225C254.884 359.78 253.824 355.265 251.807 351.569C249.785 347.866 246.85 345.069 243.236 342.999ZM241.534 386.075C242.13 386.277 242.715 386.495 243.288 386.729C251.653 390.15 257.434 397.054 257.434 408.425C257.434 430.925 241.234 439.325 216.934 439.325H171.484V339.125H215.284C237.034 339.125 253.384 344.225 253.384 365.225C253.384 373.721 249.634 380.407 243.094 385.041C242.591 385.398 242.071 385.743 241.534 386.075Z" fill="#111111"/>
<path fill-rule="evenodd" clip-rule="evenodd" d="M216.034 358.475C223.984 358.475 228.784 362.225 228.784 368.525C228.784 374.675 223.984 378.725 216.034 378.725H195.184V358.475H216.034ZM224.463 362.317C222.616 360.865 219.795 359.975 216.034 359.975H196.684V377.225H216.034C219.77 377.225 222.59 376.273 224.445 374.767C226.268 373.288 227.284 371.176 227.284 368.525C227.284 365.795 226.265 363.734 224.463 362.317Z" fill="#111111"/>
<path fill-rule="evenodd" clip-rule="evenodd" d="M217.084 397.025C227.284 397.025 232.384 401.225 232.384 408.275C232.384 415.325 227.284 419.675 217.084 419.675H195.184V397.025H217.084ZM227.654 401.203C225.465 399.545 222.011 398.525 217.084 398.525H196.684V418.175H217.084C222.001 418.175 225.453 417.123 227.643 415.432C229.775 413.786 230.884 411.403 230.884 408.275C230.884 405.151 229.778 402.811 227.654 401.203Z" fill="#111111"/>
<path d="M171.484 470.196V570.396H194.434V491.646L218.134 570.396H237.634L261.484 491.646V570.396H284.584V470.196H249.034L227.884 542.046L207.034 470.196H171.484Z" fill="#111111"/>
<path d="M294.754 532.896C294.754 559.746 313.504 572.196 334.204 572.196C354.604 572.196 373.504 559.746 373.504 532.896C373.504 506.046 354.604 493.896 334.204 493.896C313.504 493.896 294.754 506.046 294.754 532.896ZM334.204 511.596C343.054 511.596 350.254 517.146 350.254 532.896C350.254 548.496 343.354 554.496 334.204 554.496C324.904 554.496 318.004 548.496 318.004 532.896C318.004 517.146 325.204 511.596 334.204 511.596Z" fill="#111111"/>
<path d="M403.69 570.396H429.34L456.04 495.996H432.49L416.59 546.696L400.69 495.996H377.14L403.69 570.396Z" fill="#111111"/>
<path d="M458.23 532.746C458.23 557.346 474.88 572.196 499.03 572.196C511.18 572.196 523.78 566.946 531.58 555.546L513.43 548.946C510.58 552.246 505.48 554.496 498.43 554.496C490.03 554.496 481.93 549.396 481.18 538.896H536.23C537.73 512.646 522.58 493.896 498.13 493.896C476.38 493.896 458.23 509.046 458.23 532.746ZM498.73 510.846C507.58 510.846 514.78 515.796 515.08 525.396H481.18C482.53 515.196 490.18 510.846 498.73 510.846Z" fill="#111111"/>
<path d="M579.191 572.196C599.141 572.196 615.641 563.646 615.641 546.096C615.641 533.646 607.241 528.396 589.241 525.096L575.441 522.546C568.841 521.346 566.291 519.546 566.291 516.546C566.291 512.646 570.491 510.546 578.591 510.546C585.341 510.546 591.041 512.046 592.541 517.446L611.741 510.396C606.191 498.696 592.991 493.896 578.741 493.896C560.291 493.896 544.541 501.846 544.541 517.446C544.541 529.896 554.441 537.246 568.841 539.646L582.191 541.896C590.741 543.396 593.741 545.496 593.741 548.646C593.741 553.296 586.991 555.546 579.641 555.546C571.091 555.546 564.341 552.546 562.091 546.246L542.741 553.296C548.441 565.746 561.791 572.196 579.191 572.196Z" fill="#111111"/>
<path fill-rule="evenodd" clip-rule="evenodd" d="M169.984 468.696H208.161L227.895 536.699L247.912 468.696H286.084V571.896H259.984V501.774L238.747 571.896H217.019L195.934 501.835V571.896H169.984V468.696ZM194.434 491.646L218.134 570.396H237.634L261.484 491.646V570.396H284.584V470.196H249.034L227.884 542.046L207.034 470.196H171.484V570.396H194.434V491.646ZM402.633 571.896L375.012 494.496H401.792L416.59 541.683L431.389 494.496H458.172L430.396 571.896H402.633ZM416.59 546.696L400.69 495.996H377.14L403.69 570.396H429.34L456.04 495.996H432.49L416.59 546.696ZM533.91 554.797L532.818 556.393C524.697 568.262 511.597 573.696 499.03 573.696C486.65 573.696 476.055 569.885 468.544 562.786C461.022 555.676 456.73 545.398 456.73 532.746C456.73 508.117 475.656 492.396 498.13 492.396C510.764 492.396 521.099 497.254 528.063 505.59C535.01 513.907 538.495 525.555 537.728 538.981L537.647 540.396H482.859C483.495 544.428 485.372 547.419 487.885 549.471C490.747 551.808 494.522 552.996 498.43 552.996C505.183 552.996 509.81 550.844 512.295 547.965L512.971 547.183L533.91 554.797ZM481.342 540.396C481.271 539.909 481.217 539.409 481.18 538.896H536.23C537.73 512.646 522.58 493.896 498.13 493.896C476.38 493.896 458.23 509.046 458.23 532.746C458.23 557.346 474.88 572.196 499.03 572.196C510.721 572.196 522.828 567.335 530.675 556.813C530.984 556.399 531.286 555.977 531.58 555.546L513.43 548.946C510.58 552.246 505.48 554.496 498.43 554.496C490.441 554.496 482.722 549.882 481.342 540.396ZM575.441 522.546L589.241 525.096C607.241 528.396 615.641 533.646 615.641 546.096C615.641 563.646 599.141 572.196 579.191 572.196C562.434 572.196 549.433 566.213 543.404 554.651C543.173 554.207 542.952 553.756 542.741 553.296L562.091 546.246C562.109 546.296 562.128 546.346 562.146 546.396C564.449 552.593 571.159 555.546 579.641 555.546C586.991 555.546 593.741 553.296 593.741 548.646C593.741 545.496 590.741 543.396 582.191 541.896L568.841 539.646C554.441 537.246 544.541 529.896 544.541 517.446C544.541 501.846 560.291 493.896 578.741 493.896C592.432 493.896 605.154 498.327 611.053 509.051C611.294 509.488 611.524 509.937 611.741 510.396L592.541 517.446C592.41 516.973 592.247 516.53 592.053 516.115C590.035 511.795 584.75 510.546 578.591 510.546C570.491 510.546 566.291 512.646 566.291 516.546C566.291 519.546 568.841 521.346 575.441 522.546ZM568.595 541.125C568.594 541.125 568.594 541.125 568.593 541.125C561.226 539.897 554.861 537.381 550.311 533.45C545.717 529.48 543.041 524.121 543.041 517.446C543.041 509.05 547.316 502.718 553.923 498.552C560.476 494.419 569.329 492.396 578.741 492.396C593.227 492.396 607.179 497.278 613.097 509.753L613.801 511.238L591.531 519.415L591.096 517.847C590.49 515.665 589.064 514.256 586.946 513.35C584.763 512.417 581.888 512.046 578.591 512.046C574.628 512.046 571.823 512.567 570.065 513.43C569.203 513.853 568.646 514.332 568.304 514.822C567.972 515.298 567.791 515.856 567.791 516.546C567.791 517.499 568.139 518.25 569.223 518.973C570.422 519.771 572.458 520.479 575.71 521.07L575.714 521.071L589.512 523.62C589.512 523.62 589.513 523.621 589.513 523.621C598.553 525.278 605.45 527.463 610.095 530.967C614.866 534.566 617.141 539.461 617.141 546.096C617.141 555.424 612.72 562.401 605.719 566.982C598.78 571.523 589.351 573.696 579.191 573.696C561.46 573.696 547.413 567.102 541.378 553.92L540.701 552.443L562.996 544.32L563.504 545.741C565.434 551.145 571.334 554.046 579.641 554.046C583.194 554.046 586.494 553.498 588.845 552.466C591.229 551.42 592.241 550.089 592.241 548.646C592.241 548.112 592.119 547.671 591.867 547.269C591.607 546.853 591.159 546.399 590.393 545.934C588.824 544.979 586.168 544.117 581.938 543.374C581.936 543.374 581.934 543.374 581.932 543.373L568.595 541.125ZM305.72 563.736C298.087 556.949 293.254 546.696 293.254 532.896C293.254 519.094 298.088 508.913 305.726 502.2C313.333 495.515 323.575 492.396 334.204 492.396C344.687 492.396 354.89 495.517 362.494 502.2C370.13 508.911 375.004 519.09 375.004 532.896C375.004 546.7 370.131 556.951 362.501 563.736C354.899 570.495 344.695 573.696 334.204 573.696C323.567 573.696 313.324 570.497 305.72 563.736ZM344.414 517.321C341.859 514.371 338.306 513.096 334.204 513.096C330.02 513.096 326.431 514.375 323.86 517.325C321.26 520.308 319.504 525.223 319.504 532.896C319.504 540.503 321.19 545.504 323.767 548.583C326.308 551.619 329.892 552.996 334.204 552.996C338.434 552.996 341.982 551.624 344.507 548.587C347.068 545.506 348.754 540.503 348.754 532.896C348.754 525.224 346.998 520.306 344.414 517.321ZM509.155 515.676C506.538 513.509 502.889 512.346 498.73 512.346C494.697 512.346 490.986 513.373 488.155 515.496C485.702 517.336 483.817 520.066 482.966 523.896H513.464C513.019 520.276 511.43 517.56 509.155 515.676ZM514.974 523.896C514.006 515.281 507.107 510.846 498.73 510.846C490.612 510.846 483.305 514.768 481.432 523.896C481.333 524.381 481.249 524.881 481.18 525.396H515.08C515.064 524.882 515.029 524.382 514.974 523.896ZM294.754 532.896C294.754 559.746 313.504 572.196 334.204 572.196C354.604 572.196 373.504 559.746 373.504 532.896C373.504 506.046 354.604 493.896 334.204 493.896C313.504 493.896 294.754 506.046 294.754 532.896ZM334.204 511.596C343.054 511.596 350.254 517.146 350.254 532.896C350.254 548.496 343.354 554.496 334.204 554.496C324.904 554.496 318.004 548.496 318.004 532.896C318.004 517.146 325.204 511.596 334.204 511.596Z" fill="#111111"/>
</svg>
