<svg width="601" height="131" viewBox="0 0 601 131" fill="none" xmlns="http://www.w3.org/2000/svg">
<g clip-path="url(#clip0_111_22567)">
<path d="M0.664062 80.8384V0.464722L566.022 0.464759L600.219 80.8384H0.664062Z" fill="#111111"/>
<path d="M16.2891 60.6126H50.1792L46.9157 51.4477H26.7066V42.5466H41.0143V33.3818H26.7066V25.7334H46.9157L50.1792 16.5686H16.2891V60.6126Z" fill="white"/>
<path d="M63.3052 60.6126H74.5799L86.3162 27.9093H75.9645L68.9755 50.195L61.9865 27.9093H51.6349L63.3052 60.6126Z" fill="white"/>
<path d="M87.2789 44.0631C87.2789 54.8763 94.5976 61.4038 105.213 61.4038C110.554 61.4038 116.092 59.0961 119.521 54.0851L111.543 51.184C110.29 52.6345 108.048 53.6236 104.949 53.6236C101.257 53.6236 97.6965 51.3818 97.3668 46.7664H121.565C122.224 35.2279 115.565 26.9862 104.817 26.9862C95.257 26.9862 87.2789 33.6455 87.2789 44.0631ZM105.081 34.4367C108.971 34.4367 112.136 36.6126 112.268 40.8323H97.3668C97.9602 36.3488 101.323 34.4367 105.081 34.4367Z" fill="white"/>
<path d="M136.361 60.6126V44.129C136.361 38.9203 138.998 36.8104 143.877 36.8104C144.8 36.8104 145.525 36.8763 146.58 37.0082V26.9862C141.569 26.7225 138.075 28.6345 136.031 33.9093L134.251 27.9093H126.339V60.6126H136.361Z" fill="white"/>
<path d="M149.313 27.9093L161.84 60.4148L161.51 61.2719C160.521 63.7774 159.796 63.9752 155.576 63.9752H153.598L150.727 71.228H156.829C165.335 71.228 167.774 68.9203 170.939 60.6126L183.466 27.9093H172.719L166.455 48.3488L160.06 27.9093H149.313Z" fill="white"/>
<path d="M170.938 60.6126C170.912 60.6817 170.886 60.7503 170.859 60.8185L171.554 60.8473L184.424 27.25H172.231L166.448 46.12L160.544 27.25H148.351L161.133 60.415L161.828 60.444L161.839 60.4148L149.312 27.9093H160.059L166.455 48.3489L172.718 27.9093H183.466L170.938 60.6126Z" fill="white"/>
<path d="M153.597 63.9752H155.576C159.795 63.9752 160.521 63.7774 161.51 61.2719L161.828 60.444L161.133 60.415L160.896 61.0299L160.895 61.0327C160.411 62.2577 160.065 62.7083 159.491 62.9587C159.17 63.0984 158.735 63.1931 158.088 63.2482C157.442 63.3033 156.631 63.3159 155.576 63.3159H153.149L149.757 71.8873H156.828C161.121 71.8873 164.044 71.3104 166.292 69.5554C168.518 67.8172 169.971 65.0039 171.554 60.8485L170.859 60.8196C167.732 68.9587 165.263 71.228 156.828 71.228H150.727L153.597 63.9752Z" fill="white"/>
<path fill-rule="evenodd" clip-rule="evenodd" d="M139.841 27.8128C138.346 28.7535 137.124 30.1428 136.156 32.0163L134.742 27.25H125.679V61.2719H137.019V44.1291C137.019 41.6282 137.651 40.0079 138.737 38.9996C139.833 37.9822 141.516 37.4697 143.876 37.4697C144.761 37.4697 145.456 37.5322 146.498 37.6625L147.239 37.7551V26.3607L146.614 26.3278C144.019 26.1912 141.745 26.6148 139.841 27.8128ZM146.58 26.9862C141.884 26.7391 138.521 28.4022 136.434 32.9519C136.294 33.2579 136.159 33.5769 136.03 33.9093L134.25 27.9093H126.338V60.6126H136.36V44.1291C136.36 38.9203 138.997 36.8104 143.876 36.8104C144.595 36.8104 145.193 36.8503 145.92 36.9302C146.128 36.9529 146.346 36.9789 146.58 37.0082V26.9862Z" fill="white"/>
<path fill-rule="evenodd" clip-rule="evenodd" d="M120.064 54.4575L120.544 53.756L111.34 50.409L111.043 50.7531C109.95 52.0182 107.916 52.9643 104.948 52.9643C103.231 52.9643 101.571 52.4423 100.313 51.4151C99.2085 50.513 98.3836 49.1981 98.1039 47.4258H122.187L122.222 46.8041C122.559 40.9024 121.027 35.7824 117.974 32.1267C114.913 28.4623 110.37 26.3269 104.817 26.3269C94.9377 26.3269 86.6188 33.2373 86.6188 44.0632C86.6188 49.6247 88.5051 54.1425 91.8115 57.2676C95.1132 60.3883 99.7701 62.0632 105.212 62.0632C110.736 62.0632 116.494 59.6749 120.064 54.4575ZM97.366 46.7664C97.3821 46.9919 97.4059 47.2117 97.4371 47.4258C98.0438 51.5955 101.436 53.6236 104.948 53.6236C108.047 53.6236 110.289 52.6346 111.542 51.184L119.52 54.0851C119.39 54.2746 119.258 54.4603 119.122 54.642C115.673 59.2674 110.351 61.4038 105.212 61.4038C94.5968 61.4038 87.2781 54.8763 87.2781 44.0632C87.2781 33.6456 95.2561 26.9862 104.817 26.9862C115.564 26.9862 122.223 35.228 121.564 46.7664H97.366Z" fill="white"/>
<path fill-rule="evenodd" clip-rule="evenodd" d="M105.08 34.4368C108.762 34.4368 111.795 36.3861 112.22 40.173C112.244 40.387 112.26 40.6068 112.267 40.8324H97.366C97.396 40.6061 97.433 40.3863 97.4767 40.173C98.2999 36.1607 101.512 34.4368 105.08 34.4368ZM109.663 36.56C108.512 35.6073 106.908 35.0961 105.08 35.0961C103.307 35.0961 101.676 35.5475 100.432 36.4807C99.3535 37.2896 98.5251 38.4897 98.1509 40.173H111.556C111.361 38.5821 110.662 37.3879 109.663 36.56Z" fill="white"/>
<path fill-rule="evenodd" clip-rule="evenodd" d="M50.6987 27.25L62.8396 61.2719H75.043L87.2525 27.25H75.4795L68.9747 47.9916L62.4699 27.25H50.6987ZM63.3044 60.6126H74.5791L86.3154 27.9093H75.9637L68.9747 50.195L61.9857 27.9093H51.6341L63.3044 60.6126Z" fill="white"/>
<path fill-rule="evenodd" clip-rule="evenodd" d="M27.3652 32.7225V26.3928H47.38L51.113 15.9093H15.6289V61.2719H51.113L47.38 50.7884H27.3652V43.206H41.6729V32.7225H27.3652ZM26.7058 25.7335H46.9149L50.1784 16.5686H16.2882V60.6126H50.1784L46.9149 51.4478H26.7058V42.5467H41.0135V33.3818H26.7058V25.7335Z" fill="white"/>
<path d="M198.398 16.722V60.766H218.376C229.058 60.766 236.179 57.0737 236.179 47.1836C236.179 41.8429 233.278 38.744 229.19 37.3594C232.486 35.3155 234.398 32.2166 234.398 28.1946C234.398 18.9638 227.212 16.722 217.651 16.722H198.398ZM218.442 42.1726C222.926 42.1726 225.168 44.0188 225.168 47.1177C225.168 50.2166 222.926 52.1286 218.442 52.1286H208.816V42.1726H218.442ZM217.981 25.2275C221.475 25.2275 223.585 26.8759 223.585 29.6451C223.585 32.3484 221.475 34.1286 217.981 34.1286H208.816V25.2275H217.981Z" fill="white"/>
<path d="M239.769 44.2825C239.769 56.0847 248.011 61.5572 257.11 61.5572C266.077 61.5572 274.385 56.0847 274.385 44.2825C274.385 32.4803 266.077 27.1396 257.11 27.1396C248.011 27.1396 239.769 32.4803 239.769 44.2825ZM257.11 34.9198C261 34.9198 264.165 37.3594 264.165 44.2825C264.165 51.1396 261.132 53.777 257.11 53.777C253.022 53.777 249.989 51.1396 249.989 44.2825C249.989 37.3594 253.154 34.9198 257.11 34.9198Z" fill="white"/>
<path d="M292.005 61.5572C295.566 61.5572 299.456 60.1067 302.225 56.3484L303.544 60.766H313.104C312.181 55.9528 311.983 51.2715 311.983 47.9748V16.722H301.961V32.5462C299.851 28.9199 295.566 27.1396 292.005 27.1396C283.566 27.1396 277.566 33.4693 277.566 44.1506C277.566 54.8319 283.566 61.5572 292.005 61.5572ZM295.236 34.9198C299.126 34.9198 302.423 37.6891 302.423 44.3484C302.423 51.1396 299.126 53.777 295.236 53.777C291.28 53.777 287.983 50.2166 287.983 44.1506C287.983 38.1506 291.28 34.9198 295.236 34.9198Z" fill="white"/>
<path d="M315.26 28.0627L327.788 60.5682L327.458 61.4253C326.469 63.9308 325.744 64.1286 321.524 64.1286H319.546L316.535 71.3814H322.777C331.282 71.3814 333.722 69.0737 336.887 60.766L349.414 28.0627H338.667L332.403 48.5023L326.008 28.0627H315.26Z" fill="white"/>
<path d="M336.886 60.766C336.86 60.8351 336.833 60.9037 336.807 60.9719L337.502 61.0008L350.372 27.4034H338.179L332.396 46.2734L326.491 27.4034H314.299L327.081 60.5685L327.776 60.5974L327.787 60.5682L315.26 28.0627H326.007L332.402 48.5023L338.666 28.0627H349.413L336.886 60.766Z" fill="white"/>
<path d="M319.545 64.1287H321.523C325.743 64.1287 326.468 63.9309 327.457 61.4254L327.776 60.5974L327.081 60.5685L326.844 61.1833L326.843 61.1862C326.359 62.4111 326.013 62.8618 325.439 63.1121C325.118 63.2518 324.683 63.3465 324.036 63.4017C323.39 63.4567 322.579 63.4693 321.523 63.4693H319.105L315.546 72.0408H322.776C327.068 72.0408 329.992 71.4639 332.24 69.7088C334.465 67.9706 335.919 65.1573 337.502 61.0019L336.807 60.973C333.68 69.1121 331.21 71.3814 322.776 71.3814H316.534L319.545 64.1287Z" fill="white"/>
<path fill-rule="evenodd" clip-rule="evenodd" d="M301.301 30.5261C298.861 27.7979 295.15 26.4803 292.004 26.4803C287.61 26.4803 283.814 28.1335 281.124 31.2053C278.44 34.2696 276.906 38.6894 276.906 44.1507C276.906 49.6114 278.44 54.1252 281.117 57.2856C283.801 60.4546 287.597 62.2166 292.004 62.2166C295.414 62.2166 299.119 60.9475 301.951 57.7373L303.052 61.4254H313.901L313.751 60.6419C312.839 55.8847 312.642 51.2488 312.642 47.9748V16.0627H301.301V30.5261ZM301.726 56.9854C301.896 56.7809 302.062 56.5686 302.224 56.3485L303.543 60.766H313.103C313.061 60.546 313.02 60.3261 312.981 60.1067C312.163 55.5276 311.982 51.1208 311.982 47.9748V16.7221H301.96V32.5463C301.76 32.201 301.539 31.8724 301.301 31.5606C299.041 28.597 295.226 27.1397 292.004 27.1397C283.565 27.1397 277.565 33.4693 277.565 44.1507C277.565 54.832 283.565 61.5573 292.004 61.5573C295.356 61.5573 299 60.2717 301.726 56.9854Z" fill="white"/>
<path fill-rule="evenodd" clip-rule="evenodd" d="M302.422 44.3485C302.422 37.6891 299.125 34.9199 295.235 34.9199C291.279 34.9199 287.982 38.1507 287.982 44.1507C287.982 50.2166 291.279 53.777 295.235 53.777C299.125 53.777 302.422 51.1397 302.422 44.3485ZM299.787 37.5667C298.62 36.2081 297.017 35.5792 295.235 35.5792C293.447 35.5792 291.819 36.3048 290.629 37.7113C289.433 39.1239 288.642 41.2688 288.642 44.1507C288.642 49.9974 291.773 53.1177 295.235 53.1177C297.026 53.1177 298.627 52.5157 299.79 51.177C300.962 49.8273 301.763 47.6451 301.763 44.3485C301.763 41.121 300.964 38.9356 299.787 37.5667Z" fill="white"/>
<path fill-rule="evenodd" clip-rule="evenodd" d="M239.109 44.2825C239.109 50.3487 241.234 54.8553 244.589 57.8384C247.931 60.8105 252.434 62.2166 257.109 62.2166C261.721 62.2166 266.206 60.8094 269.547 57.8384C272.901 54.8563 275.043 50.3503 275.043 44.2825C275.043 38.2143 272.901 33.7397 269.545 30.79C266.202 27.8523 261.717 26.4803 257.109 26.4803C252.437 26.4803 247.935 27.8513 244.592 30.79C241.234 33.7407 239.109 38.2159 239.109 44.2825ZM257.109 61.5573C248.01 61.5573 239.769 56.0847 239.769 44.2825C239.769 32.4803 248.01 27.1397 257.109 27.1397C266.076 27.1397 274.384 32.4803 274.384 44.2825C274.384 56.0847 266.076 61.5573 257.109 61.5573Z" fill="white"/>
<path fill-rule="evenodd" clip-rule="evenodd" d="M257.109 34.9199C260.999 34.9199 264.164 37.3594 264.164 44.2825C264.164 51.1397 261.131 53.777 257.109 53.777C253.021 53.777 249.988 51.1397 249.988 44.2825C249.988 37.3594 253.153 34.9199 257.109 34.9199ZM261.597 37.4367C260.474 36.1397 258.913 35.5792 257.109 35.5792C255.27 35.5792 253.692 36.1416 252.562 37.4382C251.42 38.7494 250.648 40.91 250.648 44.2825C250.648 47.6265 251.389 49.8247 252.522 51.178C253.638 52.5125 255.214 53.1177 257.109 53.1177C258.969 53.1177 260.528 52.5145 261.638 51.1797C262.764 49.8257 263.505 47.6263 263.505 44.2825C263.505 40.9102 262.733 38.7484 261.597 37.4367Z" fill="white"/>
<path fill-rule="evenodd" clip-rule="evenodd" d="M229.937 18.4247C226.788 16.6206 222.454 16.0627 217.65 16.0627H197.738V61.4254H218.376C223.772 61.4254 228.381 60.4964 231.658 58.2255C234.978 55.9242 236.837 52.3096 236.837 47.1836C236.837 44.3882 236.075 42.1325 234.74 40.3873C233.661 38.9775 232.231 37.9308 230.589 37.1988C233.421 35.0569 235.057 32.0119 235.057 28.1946C235.057 25.8012 234.591 23.8166 233.704 22.1919C232.816 20.564 231.525 19.3348 229.937 18.4247ZM229.189 37.3595C229.451 37.4482 229.708 37.5439 229.96 37.6469C233.637 39.1504 236.178 42.1852 236.178 47.1836C236.178 57.0737 229.057 60.766 218.376 60.766H198.398V16.7221H217.65C227.211 16.7221 234.398 18.9638 234.398 28.1946C234.398 31.929 232.749 34.8676 229.875 36.9049C229.653 37.0618 229.425 37.2133 229.189 37.3595Z" fill="white"/>
<path fill-rule="evenodd" clip-rule="evenodd" d="M217.98 25.2276C221.475 25.2276 223.584 26.8759 223.584 29.6452C223.584 32.3485 221.475 34.1287 217.98 34.1287H208.815V25.2276H217.98ZM221.685 26.9162C220.873 26.2778 219.633 25.8869 217.98 25.8869H209.475V33.4693H217.98C219.622 33.4693 220.862 33.0509 221.677 32.3888C222.478 31.7384 222.925 30.8101 222.925 29.6452C222.925 28.4451 222.477 27.5389 221.685 26.9162Z" fill="white"/>
<path fill-rule="evenodd" clip-rule="evenodd" d="M218.442 42.1726C222.925 42.1726 225.167 44.0188 225.167 47.1177C225.167 50.2166 222.925 52.1287 218.442 52.1287H208.815V42.1726H218.442ZM223.087 44.0087C222.125 43.2801 220.607 42.832 218.442 42.832H209.475V51.4693H218.442C220.603 51.4693 222.12 51.0066 223.083 50.2634C224.02 49.5398 224.508 48.4922 224.508 47.1177C224.508 45.7444 224.021 44.7157 223.087 44.0087Z" fill="white"/>
<path d="M364.199 16.5686V60.6126H374.287V25.9972L384.705 60.6126H393.276L403.76 25.9972V60.6126H413.914V16.5686H398.287L388.99 48.151L379.826 16.5686H364.199Z" fill="white"/>
<path d="M418.384 44.129C418.384 55.9312 426.625 61.4038 435.724 61.4038C444.691 61.4038 452.999 55.9312 452.999 44.129C452.999 32.3268 444.691 26.9862 435.724 26.9862C426.625 26.9862 418.384 32.3268 418.384 44.129ZM435.724 34.7664C439.614 34.7664 442.779 37.206 442.779 44.129C442.779 50.9862 439.746 53.6236 435.724 53.6236C431.636 53.6236 428.603 50.9862 428.603 44.129C428.603 37.206 431.768 34.7664 435.724 34.7664Z" fill="white"/>
<path d="M466.268 60.6126H477.542L489.279 27.9093H478.927L471.938 50.195L464.949 27.9093H454.597L466.268 60.6126Z" fill="white"/>
<path d="M490.241 44.0631C490.241 54.8763 497.56 61.4038 508.176 61.4038C513.516 61.4038 519.055 59.0961 522.483 54.0851L514.505 51.184C513.252 52.6345 511.011 53.6236 507.912 53.6236C504.219 53.6236 500.659 51.3818 500.329 46.7664H524.527C525.187 35.2279 518.527 26.9862 507.78 26.9862C498.219 26.9862 490.241 33.6455 490.241 44.0631ZM508.044 34.4367C511.934 34.4367 515.099 36.6126 515.23 40.8323H500.329C500.923 36.3488 504.285 34.4367 508.044 34.4367Z" fill="white"/>
<path d="M543.411 61.4038C552.18 61.4038 559.433 57.6455 559.433 49.9312C559.433 44.4587 555.741 42.151 547.829 40.7005L541.763 39.5796C538.862 39.0521 537.741 38.2609 537.741 36.9422C537.741 35.2279 539.587 34.3049 543.147 34.3049C546.114 34.3049 548.62 34.9642 549.279 37.3378L557.719 34.2389C555.279 29.0961 549.477 26.9862 543.213 26.9862C535.103 26.9862 528.18 30.4807 528.18 37.3378C528.18 42.8104 532.532 46.0411 538.862 47.0961L544.73 48.0851C548.488 48.7444 549.807 49.6675 549.807 51.0521C549.807 53.0961 546.84 54.0851 543.609 54.0851C539.851 54.0851 536.884 52.7664 535.895 49.9972L527.389 53.0961C529.895 58.5686 535.763 61.4038 543.411 61.4038Z" fill="white"/>
<path fill-rule="evenodd" clip-rule="evenodd" d="M363.539 15.9093H380.32L388.994 45.8008L397.793 15.9093H414.572V61.2719H403.1V30.449L393.765 61.2719H384.214L374.946 30.476V61.2719H363.539V15.9093ZM374.286 25.9972L384.704 60.6126H393.275L403.759 25.9972V60.6126H413.913V16.5686H398.286L388.99 48.1511L379.825 16.5686H364.198V60.6126H374.286V25.9972ZM465.802 61.2719L453.661 27.25H465.432L471.937 47.9916L478.442 27.25H490.215L478.006 61.2719H465.802ZM471.937 50.195L464.948 27.9093H454.597L466.267 60.6126H477.542L489.278 27.9093H478.926L471.937 50.195ZM523.507 53.756L523.027 54.4574C519.457 59.6749 513.698 62.0632 508.175 62.0632C502.733 62.0632 498.076 60.3882 494.774 57.2676C491.468 54.1425 489.581 49.6247 489.581 44.0632C489.581 33.2373 497.9 26.3269 507.779 26.3269C513.332 26.3269 517.875 28.4623 520.936 32.1267C523.99 35.7824 525.522 40.9024 525.185 46.8041L525.149 47.4258H501.066C501.346 49.1981 502.171 50.513 503.276 51.4151C504.534 52.4423 506.193 52.9642 507.911 52.9642C510.879 52.9642 512.913 52.0182 514.005 50.7531L514.303 50.409L523.507 53.756ZM500.4 47.4258C500.368 47.2117 500.345 46.9919 500.329 46.7664H524.526C525.186 35.228 518.526 26.9862 507.779 26.9862C498.219 26.9862 490.241 33.6456 490.241 44.0632C490.241 54.8763 497.559 61.4038 508.175 61.4038C513.313 61.4038 518.635 59.2673 522.085 54.642C522.22 54.4602 522.353 54.2746 522.482 54.0851L514.504 51.184C513.252 52.6346 511.01 53.6236 507.911 53.6236C504.399 53.6236 501.006 51.5955 500.4 47.4258ZM541.762 39.5796L547.828 40.7005C555.74 42.1511 559.432 44.4588 559.432 49.9313C559.432 57.6456 552.18 61.4038 543.41 61.4038C536.044 61.4038 530.33 58.7742 527.68 53.6917C527.578 53.4968 527.481 53.2983 527.388 53.0961L535.894 49.9972C535.902 50.0193 535.91 50.0412 535.918 50.0631C536.93 52.7874 539.88 54.0851 543.608 54.0851C546.839 54.0851 549.806 53.0961 549.806 51.0522C549.806 49.6675 548.487 48.7445 544.729 48.0851L538.861 47.0961C532.531 46.0412 528.18 42.8104 528.18 37.3379C528.18 30.4807 535.103 26.9862 543.212 26.9862C549.23 26.9862 554.822 28.9338 557.416 33.6477C557.521 33.8401 557.622 34.0372 557.718 34.239L549.278 37.3379C549.221 37.1301 549.149 36.9354 549.064 36.7531C548.177 34.8538 545.854 34.3049 543.147 34.3049C539.586 34.3049 537.74 35.228 537.74 36.9423C537.74 38.261 538.861 39.0522 541.762 39.5796ZM538.752 47.7465C538.752 47.7465 538.752 47.7464 538.752 47.7464C535.513 47.2066 532.716 46.1008 530.715 44.3725C528.696 42.6278 527.52 40.272 527.52 37.3379C527.52 33.6473 529.399 30.8641 532.303 29.0329C535.184 27.2163 539.075 26.3269 543.212 26.3269C549.58 26.3269 555.712 28.4727 558.314 33.9564L558.623 34.609L548.835 38.2033L548.643 37.5143C548.377 36.5551 547.75 35.9357 546.819 35.5375C545.859 35.1275 544.596 34.9642 543.147 34.9642C541.404 34.9642 540.172 35.1932 539.399 35.5726C539.02 35.7586 538.775 35.9692 538.625 36.1844C538.479 36.3938 538.399 36.6392 538.399 36.9423C538.399 37.3613 538.552 37.6913 539.029 38.0091C539.555 38.3602 540.451 38.6711 541.88 38.9309L541.882 38.9313L547.947 40.052C547.947 40.052 547.947 40.0521 547.947 40.0521C551.921 40.7806 554.952 41.7411 556.994 43.2813C559.092 44.8634 560.092 47.0147 560.092 49.9313C560.092 54.0317 558.148 57.0983 555.071 59.1121C552.021 61.1081 547.876 62.0632 543.41 62.0632C535.616 62.0632 529.442 59.165 526.789 53.3706L526.491 52.7211L536.292 49.1506L536.515 49.7755C537.363 52.1508 539.957 53.4258 543.608 53.4258C545.17 53.4258 546.62 53.1849 547.654 52.7314C548.701 52.2715 549.147 51.6864 549.147 51.0522C549.147 50.8174 549.093 50.6236 548.982 50.4468C548.868 50.2639 548.671 50.0647 548.334 49.86C547.644 49.4405 546.477 49.0614 544.618 48.735C544.617 48.7349 544.616 48.7347 544.615 48.7346L538.752 47.7465ZM423.203 57.685C419.848 54.7018 417.723 50.1953 417.723 44.1291C417.723 38.0625 419.848 33.5873 423.206 30.6366C426.55 27.6978 431.052 26.3269 435.723 26.3269C440.331 26.3269 444.816 27.6988 448.159 30.6366C451.515 33.5863 453.658 38.0608 453.658 44.1291C453.658 50.1969 451.515 54.7028 448.162 57.685C444.82 60.656 440.335 62.0632 435.723 62.0632C431.048 62.0632 426.545 60.657 423.203 57.685ZM440.211 37.2832C439.088 35.9862 437.527 35.4258 435.723 35.4258C433.884 35.4258 432.307 35.9881 431.177 37.2848C430.034 38.5959 429.262 40.7565 429.262 44.1291C429.262 47.4731 430.003 49.6713 431.136 51.0246C432.253 52.359 433.828 52.9642 435.723 52.9642C437.583 52.9642 439.142 52.3611 440.252 51.0262C441.378 49.6722 442.119 47.4729 442.119 44.1291C442.119 40.7567 441.347 38.595 440.211 37.2832ZM512.625 36.56C511.475 35.6073 509.871 35.0961 508.043 35.0961C506.27 35.0961 504.639 35.5475 503.395 36.4807C502.316 37.2896 501.488 38.4897 501.113 40.173H514.519C514.324 38.5821 513.625 37.3879 512.625 36.56ZM515.183 40.173C514.757 36.3861 511.725 34.4368 508.043 34.4368C504.474 34.4368 501.262 36.1607 500.439 40.173C500.396 40.3863 500.359 40.6061 500.329 40.8324H515.23C515.223 40.6068 515.207 40.387 515.183 40.173ZM418.383 44.1291C418.383 55.9313 426.625 61.4038 435.723 61.4038C444.691 61.4038 452.998 55.9313 452.998 44.1291C452.998 32.3269 444.691 26.9862 435.723 26.9862C426.625 26.9862 418.383 32.3269 418.383 44.1291ZM435.723 34.7664C439.614 34.7664 442.778 37.206 442.778 44.1291C442.778 50.9862 439.745 53.6236 435.723 53.6236C431.636 53.6236 428.603 50.9862 428.603 44.1291C428.603 37.206 431.767 34.7664 435.723 34.7664Z" fill="white"/>
<path d="M564 54.9422C564 58.5027 566.901 61.4038 570.462 61.4038C573.956 61.4038 576.857 58.5027 576.857 54.9422C576.857 51.3818 573.956 48.5466 570.462 48.5466C566.901 48.5466 564 51.3818 564 54.9422Z" fill="#5A16CA"/>
<path d="M0.494141 130.235V91.1986L286.101 91.1987L302.062 130.235H0.494141Z" fill="#111111"/>
<path d="M18.1897 118.156V112.556H20.5249C24.6055 112.556 27.6719 111.517 27.6719 107.293C27.6719 103.068 24.6055 102.03 20.5249 102.03H14.4629V118.156H18.1897ZM18.1897 105.241H20.6428C22.3647 105.241 23.7328 105.603 23.7328 107.293C23.7328 109.007 22.3647 109.393 20.6428 109.393H18.1897V105.241Z" fill="white"/>
<path d="M28.9407 112.121C28.9407 116.442 31.8891 118.446 35.1442 118.446C38.3521 118.446 41.3241 116.442 41.3241 112.121C41.3241 107.8 38.3521 105.844 35.1442 105.844C31.8891 105.844 28.9407 107.8 28.9407 112.121ZM35.1442 108.693C36.5358 108.693 37.668 109.586 37.668 112.121C37.668 114.632 36.583 115.597 35.1442 115.597C33.6817 115.597 32.5967 114.632 32.5967 112.121C32.5967 109.586 33.7289 108.693 35.1442 108.693Z" fill="white"/>
<path d="M44.8208 118.156H48.7363L50.411 109.562L52.1093 118.156H56.0248L58.9497 106.182H55.388L53.6189 114.294L52.1093 106.182H48.7127L47.2031 114.294L45.434 106.182H41.8959L44.8208 118.156Z" fill="white"/>
<path d="M59.5077 112.097C59.5077 116.056 62.1259 118.446 65.9235 118.446C67.8341 118.446 69.8154 117.601 71.042 115.766L68.1879 114.704C67.7397 115.235 66.9377 115.597 65.8291 115.597C64.5082 115.597 63.2345 114.777 63.1166 113.087H71.7732C72.0091 108.862 69.6267 105.844 65.782 105.844C62.3618 105.844 59.5077 108.282 59.5077 112.097ZM65.8763 108.572C67.268 108.572 68.4002 109.369 68.4473 110.914H63.1166C63.3289 109.272 64.5318 108.572 65.8763 108.572Z" fill="white"/>
<path d="M77.0664 118.156V112.121C77.0664 110.214 78.0099 109.441 79.7554 109.441C80.0856 109.441 80.345 109.465 80.7224 109.514V105.844C78.9298 105.748 77.6797 106.448 76.9484 108.379L76.3116 106.182H73.4811V118.156H77.0664Z" fill="white"/>
<path d="M81.644 112.097C81.644 116.056 84.2622 118.446 88.0598 118.446C89.9704 118.446 91.9518 117.601 93.1783 115.766L90.3242 114.704C89.8761 115.235 89.0741 115.597 87.9655 115.597C86.6446 115.597 85.3708 114.777 85.2529 113.087H93.9095C94.1454 108.862 91.7631 105.844 87.9183 105.844C84.4981 105.844 81.644 108.282 81.644 112.097ZM88.0126 108.572C89.4043 108.572 90.5365 109.369 90.5837 110.914H85.2529C85.4652 109.272 86.6682 108.572 88.0126 108.572Z" fill="white"/>
<path d="M100.17 118.446C101.444 118.446 102.835 117.915 103.826 116.539L104.298 118.156H107.718C107.388 116.394 107.317 114.68 107.317 113.473V102.03H103.732V107.824C102.977 106.496 101.444 105.844 100.17 105.844C97.1506 105.844 95.0041 108.162 95.0041 112.073C95.0041 115.984 97.1506 118.446 100.17 118.446ZM101.326 108.693C102.717 108.693 103.897 109.707 103.897 112.145C103.897 114.632 102.717 115.597 101.326 115.597C99.9103 115.597 98.731 114.294 98.731 112.073C98.731 109.876 99.9103 108.693 101.326 108.693Z" fill="white"/>
<path d="M117.224 102.03V118.156H120.361L120.809 116.539C121.564 117.867 123.121 118.446 124.371 118.446C127.39 118.446 129.537 115.984 129.537 112.073C129.537 108.162 127.39 105.844 124.371 105.844C123.121 105.844 121.564 106.496 120.809 107.824V102.03H117.224ZM120.644 112.145C120.644 109.707 121.824 108.693 123.239 108.693C124.63 108.693 125.81 109.876 125.81 112.073C125.81 114.294 124.63 115.597 123.239 115.597C121.824 115.597 120.644 114.632 120.644 112.145Z" fill="white"/>
<path d="M130.096 106.182L134.577 118.084L134.459 118.398C134.106 119.315 133.846 119.388 132.337 119.388H131.629V122.043H132.785C135.827 122.043 136.7 121.198 137.832 118.156L142.314 106.182H138.469L136.228 113.666L133.94 106.182H130.096Z" fill="white"/>
<path fill-rule="evenodd" clip-rule="evenodd" d="M203.119 122.377H208.158V113.734L216.827 99.6152H211.025L205.639 109.182L200.253 99.6152H194.449L203.119 113.734V122.377ZM170.631 110.854C170.631 104.187 175.912 98.7828 182.426 98.7828C188.94 98.7828 194.22 104.187 194.22 110.854C194.22 117.521 188.94 122.925 182.426 122.925C175.912 122.925 170.631 117.521 170.631 110.854ZM182.426 118.498C186.062 118.498 189.011 115.075 189.011 110.854C189.011 106.632 186.062 103.209 182.426 103.209C178.789 103.209 175.84 106.632 175.84 110.854C175.84 115.075 178.789 118.498 182.426 118.498ZM162.428 122.377H157.458V103.812H150.525V99.6152H169.36V103.812H162.428V122.377ZM266.971 117.255L265.06 122.377H259.257L268.432 99.615H274.616L283.792 122.377H277.988L276.077 117.255L266.971 117.255ZM271.546 105.084H271.503L268.397 113.414H274.651L271.546 105.084ZM254.028 122.377H249.059V103.812H242.126V99.6152H260.96V103.812H254.028V122.377ZM217.057 110.854C217.057 104.187 222.338 98.7828 228.85 98.7828C235.366 98.7828 240.646 104.187 240.646 110.854C240.646 117.521 235.366 122.925 228.85 122.925C222.338 122.925 217.057 117.521 217.057 110.854ZM228.85 118.498C232.488 118.498 235.437 115.075 235.437 110.854C235.437 106.632 232.488 103.209 228.85 103.209C225.215 103.209 222.267 106.632 222.267 110.854C222.267 115.075 225.215 118.498 228.85 118.498Z" fill="#FF0022"/>
</g>
<defs>
<clipPath id="clip0_111_22567">
<rect width="600" height="130.11" fill="white" transform="translate(0.25 0.209595)"/>
</clipPath>
</defs>
</svg>
