<svg width="401" height="373" viewBox="0 0 401 373" fill="none" xmlns="http://www.w3.org/2000/svg">
<path d="M309.07 116.574H292.316L330.695 18.6671H101.927L108.856 1.02551H1.32812V302.55H400.717L358.683 204.076H271.224L309.07 116.574Z" fill="#111111"/>
<path d="M345.971 271.589C345.971 277.3 350.668 281.953 356.433 281.953C362.092 281.953 366.789 277.3 366.789 271.589C366.789 265.879 362.092 261.332 356.433 261.332C350.668 261.332 345.971 265.879 345.971 271.589Z" fill="#5A16CA"/>
<path d="M22.4473 92.4635H77.3227L72.0385 77.7644H39.3156V63.4883H62.4829V48.7893H39.3156V36.5224H72.0385L77.3227 21.8234H22.4473V92.4635Z" fill="white"/>
<path d="M98.5766 92.4635H116.833L135.836 40.0121H119.075L107.758 75.7552L96.4414 40.0121H79.6798L98.5766 92.4635Z" fill="white"/>
<path d="M137.395 65.9206C137.395 83.2633 149.246 93.7325 166.434 93.7325C175.082 93.7325 184.05 90.0312 189.602 81.9944L176.684 77.3414C174.655 79.6679 171.025 81.2541 166.007 81.2541C160.029 81.2541 154.264 77.6587 153.73 70.2562H192.911C193.979 51.7502 183.196 38.5317 165.794 38.5317C150.313 38.5317 137.395 49.2123 137.395 65.9206ZM166.221 50.4813C172.52 50.4813 177.644 53.971 177.858 60.7389H153.73C154.691 53.548 160.135 50.4813 166.221 50.4813Z" fill="white"/>
<path d="M216.869 92.4635V66.0263C216.869 57.6722 221.14 54.2882 229.04 54.2882C230.535 54.2882 231.709 54.394 233.417 54.6054V38.5317C225.303 38.1087 219.645 41.1754 216.335 49.6353L213.453 40.0121H200.642V92.4635H216.869Z" fill="white"/>
<path d="M237.841 40.0121L258.126 92.1462L257.592 93.521C255.991 97.5394 254.816 97.8566 247.984 97.8566H244.781L240.132 109.489H250.012C263.784 109.489 267.734 105.788 272.859 92.4635L293.144 40.0121H275.742L265.599 72.7942L255.243 40.0121H237.841Z" fill="white"/>
<path d="M272.858 92.4635C272.816 92.5742 272.773 92.6843 272.731 92.7937L273.856 92.8399L294.695 38.9546H274.951L265.588 69.2194L256.027 38.9546H236.285L256.981 92.1466L258.107 92.193L258.125 92.1462L237.84 40.0121H255.243L265.598 72.7942L275.741 40.0121H293.143L272.858 92.4635Z" fill="white"/>
<path d="M244.78 97.8566H247.983C254.816 97.8566 255.99 97.5394 257.591 93.5209L258.107 92.193L256.981 92.1466L256.598 93.1327L256.596 93.1373C255.813 95.1019 255.253 95.8247 254.322 96.2262C253.803 96.4503 253.099 96.6022 252.051 96.6906C251.005 96.7789 249.692 96.7991 247.983 96.7991H244.054L238.561 110.546H250.011C256.962 110.546 261.695 109.621 265.335 106.806C268.939 104.019 271.292 99.5064 273.855 92.8417L272.73 92.7954C267.667 105.849 263.668 109.489 250.011 109.489H240.132L244.78 97.8566Z" fill="white"/>
<path fill-rule="evenodd" clip-rule="evenodd" d="M222.506 39.8573C220.084 41.3662 218.106 43.5943 216.539 46.5991L214.249 38.9546H199.573V93.5209H217.936V66.0263C217.936 62.0153 218.96 59.4165 220.718 57.7994C222.492 56.1676 225.217 55.3457 229.039 55.3457C230.471 55.3457 231.597 55.4458 233.284 55.6548L234.484 55.8033V37.5283L233.473 37.4756C229.27 37.2565 225.589 37.9359 222.506 39.8573ZM233.417 38.5316C225.814 38.1353 220.367 40.8027 216.988 48.0997C216.761 48.5905 216.543 49.1022 216.335 49.6353L213.452 40.0121H200.641V92.4635H216.868V66.0263C216.868 57.6721 221.139 54.2882 229.039 54.2882C230.202 54.2882 231.171 54.3522 232.349 54.4803C232.685 54.5168 233.037 54.5585 233.417 54.6054V38.5316Z" fill="white"/>
<path fill-rule="evenodd" clip-rule="evenodd" d="M190.482 82.5915L191.259 81.4664L176.356 76.0984L175.875 76.6502C174.106 78.6793 170.812 80.1966 166.007 80.1966C163.225 80.1966 160.538 79.3595 158.501 77.712C156.712 76.2651 155.377 74.1562 154.924 71.3137H193.919L193.976 70.3166C194.522 60.8512 192.042 52.6395 187.097 46.7763C182.141 40.8991 174.785 37.4742 165.793 37.4742C149.797 37.4742 136.327 48.5575 136.327 65.9205C136.327 74.8405 139.381 82.0864 144.735 87.0986C150.081 92.1036 157.622 94.7899 166.434 94.7899C175.378 94.7899 184.702 90.9594 190.482 82.5915ZM153.729 70.2562C153.755 70.6178 153.794 70.9703 153.844 71.3137C154.827 78.0013 160.32 81.2541 166.007 81.2541C171.024 81.2541 174.654 79.6679 176.683 77.3414L189.601 81.9943C189.391 82.2983 189.176 82.596 188.957 82.8875C183.372 90.3059 174.754 93.7324 166.434 93.7324C149.245 93.7324 137.395 83.2633 137.395 65.9205C137.395 49.2123 150.313 38.5316 165.793 38.5316C183.195 38.5316 193.978 51.7502 192.911 70.2562H153.729Z" fill="white"/>
<path fill-rule="evenodd" clip-rule="evenodd" d="M166.22 50.4812C172.182 50.4812 177.092 53.6077 177.781 59.6814C177.82 60.0245 177.846 60.377 177.857 60.7389H153.729C153.778 60.3759 153.837 60.0235 153.908 59.6814C155.241 53.2462 160.442 50.4812 166.22 50.4812ZM173.64 53.8866C171.777 52.3587 169.18 51.5387 166.22 51.5387C163.349 51.5387 160.708 52.2627 158.693 53.7594C156.947 55.0567 155.606 56.9816 155 59.6814H176.706C176.39 57.1297 175.259 55.2145 173.64 53.8866Z" fill="white"/>
<path fill-rule="evenodd" clip-rule="evenodd" d="M78.1645 38.9546L97.8233 93.5209H117.583L137.353 38.9546H118.29L107.757 72.2213L97.2247 38.9546H78.1645ZM98.5759 92.4635H116.832L135.836 40.0121H119.074L107.757 75.7552L96.4406 40.0121H79.6791L98.5759 92.4635Z" fill="white"/>
<path fill-rule="evenodd" clip-rule="evenodd" d="M40.3825 47.7318V37.5799H72.7908L78.8354 20.7659H21.3789V93.5209H78.8354L72.7908 76.7069H40.3825V64.5458H63.5497V47.7318H40.3825ZM39.3148 36.5224H72.0377L77.322 21.8234H22.4465V92.4635H77.322L72.0377 77.7644H39.3148V63.4883H62.4821V48.7893H39.3148V36.5224Z" fill="white"/>
<path d="M22.4473 117.64V188.28H54.796C72.0914 188.28 83.6217 182.358 83.6217 166.496C83.6217 157.93 78.9241 152.96 72.3049 150.739C77.643 147.461 80.7391 142.491 80.7391 136.04C80.7391 121.236 69.1021 117.64 53.6216 117.64H22.4473ZM54.9028 158.459C62.1626 158.459 65.7925 161.42 65.7925 166.39C65.7925 171.36 62.1626 174.427 54.9028 174.427H39.3156V158.459H54.9028ZM54.1555 131.282C59.8138 131.282 63.2302 133.925 63.2302 138.367C63.2302 142.703 59.8138 145.558 54.1555 145.558H39.3156V131.282H54.1555Z" fill="white"/>
<path d="M89.436 161.843C89.436 180.772 102.781 189.549 117.514 189.549C132.034 189.549 145.486 180.772 145.486 161.843C145.486 142.914 132.034 134.348 117.514 134.348C102.781 134.348 89.436 142.914 89.436 161.843ZM117.514 146.827C123.813 146.827 128.938 150.739 128.938 161.843C128.938 172.841 124.027 177.071 117.514 177.071C110.895 177.071 105.984 172.841 105.984 161.843C105.984 150.739 111.109 146.827 117.514 146.827Z" fill="white"/>
<path d="M174.017 189.549C179.782 189.549 186.081 187.223 190.565 181.195L192.7 188.28H208.181C206.686 180.561 206.366 173.052 206.366 167.765V117.64H190.138V143.02C186.722 137.204 179.782 134.348 174.017 134.348C160.352 134.348 150.636 144.5 150.636 161.632C150.636 178.763 160.352 189.549 174.017 189.549ZM179.248 146.827C185.547 146.827 190.885 151.268 190.885 161.949C190.885 172.841 185.547 177.071 179.248 177.071C172.843 177.071 167.505 171.36 167.505 161.632C167.505 152.008 172.843 146.827 179.248 146.827Z" fill="white"/>
<path d="M211.672 135.829L231.957 187.963L231.423 189.338C229.822 193.356 228.647 193.673 221.814 193.673H218.612L213.736 205.306H223.843C237.615 205.306 241.565 201.605 246.69 188.28L266.975 135.829H249.573L239.43 168.611L229.074 135.829H211.672Z" fill="white"/>
<path d="M246.689 188.28C246.647 188.391 246.604 188.501 246.562 188.61L247.687 188.657L268.526 134.771H248.782L239.419 165.036L229.858 134.771H210.116L230.812 187.963L231.938 188.01L231.956 187.963L211.671 135.829H229.074L239.429 168.611L249.572 135.829H266.974L246.689 188.28Z" fill="white"/>
<path d="M218.611 193.673H221.814C228.646 193.673 229.821 193.356 231.422 189.338L231.938 188.01L230.812 187.963L230.429 188.949L230.427 188.954C229.644 190.919 229.084 191.641 228.153 192.043C227.634 192.267 226.93 192.419 225.882 192.507C224.836 192.596 223.523 192.616 221.814 192.616H217.898L212.136 206.363H223.842C230.793 206.363 235.526 205.438 239.166 202.623C242.77 199.835 245.123 195.323 247.686 188.659L246.561 188.612C241.498 201.666 237.499 205.306 223.842 205.306H213.735L218.611 193.673Z" fill="white"/>
<path fill-rule="evenodd" clip-rule="evenodd" d="M189.07 139.78C185.118 135.404 179.11 133.291 174.016 133.291C166.901 133.291 160.754 135.942 156.398 140.869C152.053 145.784 149.568 152.872 149.568 161.632C149.568 170.39 152.052 177.629 156.387 182.698C160.733 187.781 166.88 190.607 174.016 190.607C179.537 190.607 185.536 188.571 190.121 183.423L191.904 189.338H209.472L209.228 188.081C207.751 180.451 207.433 173.016 207.433 167.765V116.583H189.07V139.78ZM189.758 182.217C190.033 181.889 190.302 181.548 190.564 181.195L192.7 188.28H208.18C208.112 187.927 208.046 187.575 207.982 187.223C206.657 179.879 206.365 172.811 206.365 167.765V117.64H190.137V143.02C189.812 142.466 189.455 141.939 189.07 141.439C185.41 136.686 179.232 134.348 174.016 134.348C160.351 134.348 150.635 144.5 150.635 161.632C150.635 178.763 160.351 189.549 174.016 189.549C179.444 189.549 185.344 187.487 189.758 182.217Z" fill="white"/>
<path fill-rule="evenodd" clip-rule="evenodd" d="M190.885 161.949C190.885 151.268 185.547 146.827 179.248 146.827C172.842 146.827 167.504 152.008 167.504 161.632C167.504 171.36 172.842 177.071 179.248 177.071C185.547 177.071 190.885 172.841 190.885 161.949ZM186.619 151.072C184.728 148.893 182.132 147.884 179.248 147.884C176.352 147.884 173.716 149.048 171.788 151.304C169.852 153.569 168.571 157.01 168.571 161.632C168.571 171.009 173.642 176.013 179.248 176.013C182.147 176.013 184.739 175.048 186.622 172.901C188.521 170.736 189.817 167.236 189.817 161.949C189.817 156.772 188.524 153.267 186.619 151.072Z" fill="white"/>
<path fill-rule="evenodd" clip-rule="evenodd" d="M88.3676 161.843C88.3676 171.572 91.8076 178.8 97.2401 183.585C102.652 188.352 109.943 190.607 117.514 190.607C124.981 190.607 132.243 188.35 137.654 183.585C143.084 178.802 146.553 171.575 146.553 161.843C146.553 152.11 143.083 144.934 137.649 140.203C132.236 135.491 124.975 133.291 117.514 133.291C109.949 133.291 102.659 135.49 97.2447 140.203C91.8083 144.936 88.3676 152.113 88.3676 161.843ZM117.514 189.549C102.78 189.549 89.4352 180.772 89.4352 161.843C89.4352 142.914 102.78 134.348 117.514 134.348C132.033 134.348 145.485 142.914 145.485 161.843C145.485 180.772 132.033 189.549 117.514 189.549Z" fill="white"/>
<path fill-rule="evenodd" clip-rule="evenodd" d="M117.514 146.827C123.812 146.827 128.937 150.739 128.937 161.843C128.937 172.841 124.026 177.071 117.514 177.071C110.894 177.071 105.983 172.841 105.983 161.843C105.983 150.739 111.108 146.827 117.514 146.827ZM124.78 150.863C122.962 148.783 120.433 147.884 117.514 147.884C114.535 147.884 111.981 148.786 110.151 150.866C108.301 152.969 107.051 156.434 107.051 161.843C107.051 167.206 108.251 170.732 110.085 172.902C111.893 175.043 114.445 176.013 117.514 176.013C120.524 176.013 123.049 175.046 124.847 172.905C126.67 170.733 127.869 167.206 127.869 161.843C127.869 156.434 126.619 152.967 124.78 150.863Z" fill="white"/>
<path fill-rule="evenodd" clip-rule="evenodd" d="M73.5156 120.371C68.4174 117.477 61.3997 116.583 53.6209 116.583H21.3789V189.338H54.7953C63.5329 189.338 70.9969 187.848 76.302 184.206C81.6783 180.515 84.6885 174.717 84.6885 166.496C84.6885 162.013 83.4552 158.395 81.2926 155.596C79.5455 153.335 77.2295 151.656 74.5712 150.482C79.1562 147.046 81.806 142.163 81.806 136.04C81.806 132.202 81.051 129.019 79.6153 126.413C78.1766 123.802 76.0872 121.831 73.5156 120.371ZM72.3042 150.739C72.7284 150.882 73.1446 151.035 73.5523 151.2C79.5062 153.612 83.6209 158.479 83.6209 166.496C83.6209 182.358 72.0907 188.28 54.7953 188.28H22.4465V117.64H53.6209C69.1013 117.64 80.7383 121.236 80.7383 136.04C80.7383 142.03 78.0692 146.743 73.4145 150.01C73.0561 150.262 72.6858 150.505 72.3042 150.739Z" fill="white"/>
<path fill-rule="evenodd" clip-rule="evenodd" d="M54.1547 131.282C59.8131 131.282 63.2294 133.925 63.2294 138.367C63.2294 142.703 59.8131 145.558 54.1547 145.558H39.3149V131.282H54.1547ZM60.1541 133.99C58.8394 132.966 56.8316 132.339 54.1547 132.339H40.3825V144.5H54.1547C56.8134 144.5 58.8207 143.829 60.141 142.767C61.4381 141.724 62.1618 140.235 62.1618 138.367C62.1618 136.442 61.4363 134.989 60.1541 133.99Z" fill="white"/>
<path fill-rule="evenodd" clip-rule="evenodd" d="M54.902 158.459C62.1618 158.459 65.7917 161.42 65.7917 166.39C65.7917 171.36 62.1618 174.427 54.902 174.427H39.3149V158.459H54.902ZM62.4247 161.404C60.8669 160.235 58.4088 159.517 54.902 159.517H40.3825V173.37H54.902C58.4015 173.37 60.858 172.628 62.4169 171.435C63.9345 170.275 64.7241 168.595 64.7241 166.39C64.7241 164.188 63.9364 162.538 62.4247 161.404Z" fill="white"/>
<path d="M22.4473 210.044V280.684H38.7818V225.166L55.6501 280.684H69.5291L86.5042 225.166V280.684H102.945V210.044H77.643L62.5896 260.697L47.7498 210.044H22.4473Z" fill="white"/>
<path d="M110.184 254.247C110.184 273.176 123.529 281.953 138.262 281.953C152.781 281.953 166.233 273.176 166.233 254.247C166.233 235.318 152.781 226.752 138.262 226.752C123.529 226.752 110.184 235.318 110.184 254.247ZM138.262 239.23C144.561 239.23 149.685 243.143 149.685 254.247C149.685 265.244 144.774 269.474 138.262 269.474C131.643 269.474 126.732 265.244 126.732 254.247C126.732 243.143 131.856 239.23 138.262 239.23Z" fill="white"/>
<path d="M187.718 280.684H205.975L224.978 228.232H208.217L196.9 263.975L185.583 228.232H168.822L187.718 280.684Z" fill="white"/>
<path d="M226.537 254.141C226.537 271.484 238.388 281.953 255.576 281.953C264.224 281.953 273.192 278.251 278.743 270.215L265.825 265.562C263.797 267.888 260.167 269.474 255.149 269.474C249.17 269.474 243.405 265.879 242.872 258.476H282.053C283.121 239.97 272.338 226.752 254.936 226.752C239.455 226.752 226.537 237.432 226.537 254.141ZM255.363 238.701C261.662 238.701 266.786 242.191 267 248.959H242.872C243.832 241.768 249.277 238.701 255.363 238.701Z" fill="white"/>
<path d="M312.63 281.953C326.829 281.953 338.573 275.925 338.573 263.552C338.573 254.775 332.595 251.074 319.783 248.748L309.961 246.95C305.264 246.104 303.449 244.835 303.449 242.72C303.449 239.97 306.438 238.49 312.203 238.49C317.007 238.49 321.064 239.547 322.132 243.354L335.797 238.384C331.847 230.136 322.452 226.752 312.31 226.752C299.178 226.752 287.968 232.357 287.968 243.354C287.968 252.132 295.015 257.313 305.264 259.005L314.765 260.591C320.851 261.649 322.986 263.129 322.986 265.35C322.986 268.628 318.182 270.215 312.951 270.215C306.865 270.215 302.061 268.1 300.459 263.658L286.687 268.628C290.744 277.405 300.246 281.953 312.63 281.953Z" fill="white"/>
<path fill-rule="evenodd" clip-rule="evenodd" d="M21.3789 208.986H48.5509L62.5962 256.928L76.8436 208.986H104.012V281.741H85.4359V232.306L70.3205 281.741H54.8558L39.8487 232.349V281.741H21.3789V208.986ZM38.781 225.166L55.6494 280.684H69.5284L86.5035 225.166V280.684H102.945V210.044H77.6423L62.5889 260.697L47.749 210.044H22.4465V280.684H38.781V225.166ZM186.965 281.741L167.306 227.175H186.366L196.899 260.441L207.432 227.175H226.495L206.725 281.741H186.965ZM196.899 263.975L185.582 228.232H168.821L187.718 280.684H205.974L224.977 228.232H208.216L196.899 263.975ZM280.401 269.687L279.624 270.812C273.844 279.18 264.519 283.01 255.575 283.01C246.763 283.01 239.223 280.324 233.877 275.319C228.523 270.307 225.469 263.061 225.469 254.141C225.469 236.778 238.939 225.694 254.935 225.694C263.927 225.694 271.283 229.119 276.239 234.996C281.184 240.86 283.664 249.071 283.118 258.537L283.061 259.534H244.066C244.518 262.376 245.854 264.485 247.643 265.932C249.68 267.58 252.367 268.417 255.148 268.417C259.954 268.417 263.247 266.899 265.017 264.87L265.498 264.319L280.401 269.687ZM242.986 259.534C242.935 259.191 242.897 258.838 242.871 258.476H282.052C283.12 239.97 272.337 226.752 254.935 226.752C239.454 226.752 226.536 237.432 226.536 254.141C226.536 271.484 238.387 281.953 255.575 281.953C263.896 281.953 272.513 278.526 278.098 271.108C278.318 270.816 278.533 270.518 278.743 270.215L265.825 265.562C263.796 267.888 260.166 269.474 255.148 269.474C249.462 269.474 243.968 266.222 242.986 259.534ZM309.96 246.95L319.783 248.748C332.594 251.074 338.573 254.775 338.573 263.552C338.573 275.925 326.829 281.953 312.629 281.953C300.703 281.953 291.449 277.735 287.158 269.584C286.994 269.271 286.836 268.953 286.686 268.628L300.459 263.658C300.471 263.693 300.484 263.729 300.498 263.764C302.137 268.133 306.913 270.215 312.95 270.215C318.181 270.215 322.985 268.628 322.985 265.35C322.985 263.129 320.85 261.649 314.765 260.591L305.263 259.005C295.014 257.313 287.968 252.132 287.968 243.354C287.968 232.357 299.178 226.752 312.309 226.752C322.054 226.752 331.108 229.876 335.307 237.436C335.478 237.745 335.642 238.061 335.797 238.384L322.131 243.354C322.038 243.021 321.921 242.709 321.784 242.417C320.348 239.37 316.586 238.49 312.202 238.49C306.437 238.49 303.448 239.97 303.448 242.72C303.448 244.835 305.263 246.104 309.96 246.95ZM305.087 260.048C305.087 260.048 305.087 260.048 305.086 260.048C299.843 259.182 295.313 257.409 292.074 254.637C288.804 251.839 286.9 248.06 286.9 243.354C286.9 237.435 289.943 232.971 294.645 230.034C299.309 227.121 305.61 225.694 312.309 225.694C322.619 225.694 332.549 229.136 336.761 237.931L337.263 238.978L321.412 244.742L321.103 243.637C320.671 242.099 319.656 241.105 318.148 240.467C316.595 239.809 314.549 239.547 312.202 239.547C309.381 239.547 307.385 239.915 306.134 240.523C305.52 240.821 305.124 241.159 304.881 241.504C304.644 241.84 304.516 242.234 304.516 242.72C304.516 243.392 304.763 243.921 305.535 244.431C306.388 244.994 307.837 245.493 310.151 245.909L310.154 245.91L319.975 247.707C319.975 247.707 319.976 247.708 319.976 247.708C326.41 248.876 331.319 250.417 334.625 252.887C338.021 255.424 339.64 258.875 339.64 263.552C339.64 270.129 336.493 275.047 331.51 278.277C326.572 281.478 319.861 283.01 312.629 283.01C300.009 283.01 290.011 278.362 285.716 269.069L285.234 268.027L301.103 262.3L301.464 263.302C302.838 267.112 307.037 269.157 312.95 269.157C315.478 269.157 317.827 268.771 319.5 268.043C321.197 267.306 321.918 266.367 321.918 265.35C321.918 264.974 321.831 264.663 321.651 264.379C321.466 264.086 321.147 263.766 320.602 263.438C319.485 262.765 317.595 262.157 314.585 261.634C314.583 261.633 314.582 261.633 314.58 261.633L305.087 260.048ZM117.988 275.988C112.555 271.204 109.115 263.976 109.115 254.247C109.115 244.517 112.556 237.339 117.992 232.606C123.407 227.893 130.696 225.694 138.261 225.694C145.722 225.694 152.984 227.895 158.397 232.606C163.831 237.337 167.3 244.514 167.3 254.247C167.3 263.978 163.832 271.205 158.401 275.988C152.991 280.753 145.728 283.01 138.261 283.01C130.69 283.01 123.4 280.755 117.988 275.988ZM145.528 243.267C143.709 241.187 141.181 240.288 138.261 240.288C135.283 240.288 132.729 241.19 130.899 243.269C129.049 245.372 127.799 248.837 127.799 254.247C127.799 259.61 128.998 263.135 130.833 265.306C132.641 267.446 135.192 268.417 138.261 268.417C141.272 268.417 143.797 267.449 145.594 265.308C147.417 263.137 148.617 259.609 148.617 254.247C148.617 248.838 147.367 245.371 145.528 243.267ZM262.782 242.107C260.919 240.579 258.321 239.759 255.362 239.759C252.491 239.759 249.85 240.483 247.835 241.98C246.089 243.277 244.748 245.202 244.142 247.902H265.848C265.532 245.35 264.401 243.435 262.782 242.107ZM266.923 247.902C266.234 241.828 261.324 238.701 255.362 238.701C249.584 238.701 244.383 241.466 243.05 247.902C242.979 248.244 242.919 248.596 242.871 248.959H266.999C266.988 248.597 266.962 248.245 266.923 247.902ZM110.183 254.247C110.183 273.176 123.528 281.953 138.261 281.953C152.781 281.953 166.233 273.176 166.233 254.247C166.233 235.317 152.781 226.752 138.261 226.752C123.528 226.752 110.183 235.317 110.183 254.247ZM138.261 239.23C144.56 239.23 149.685 243.143 149.685 254.247C149.685 265.244 144.774 269.474 138.261 269.474C131.642 269.474 126.731 265.244 126.731 254.247C126.731 243.143 131.855 239.23 138.261 239.23Z" fill="white"/>
<path d="M1.48828 371.546V319.489L378.148 319.489L400.119 371.546H1.48828Z" fill="#111111"/>
<path d="M24.9756 353.956V347.555H27.775C32.6668 347.555 36.3428 346.369 36.3428 341.542C36.3428 336.714 32.6668 335.528 27.775 335.528H20.5078V353.956H24.9756ZM24.9756 339.197H27.9163C29.9805 339.197 31.6206 339.611 31.6206 341.542C31.6206 343.5 29.9805 343.942 27.9163 343.942H24.9756V339.197Z" fill="white"/>
<path d="M37.8638 347.059C37.8638 351.997 41.3984 354.287 45.3006 354.287C49.1463 354.287 52.7091 351.997 52.7091 347.059C52.7091 342.121 49.1463 339.886 45.3006 339.886C41.3984 339.886 37.8638 342.121 37.8638 347.059ZM45.3006 343.142C46.969 343.142 48.3262 344.162 48.3262 347.059C48.3262 349.928 47.0255 351.031 45.3006 351.031C43.5475 351.031 42.2467 349.928 42.2467 347.059C42.2467 344.162 43.604 343.142 45.3006 343.142Z" fill="white"/>
<path d="M56.901 353.956H61.5949L63.6026 344.135L65.6385 353.956H70.3325L73.8388 340.273H69.569L67.4482 349.542L65.6385 340.273H61.5666L59.7569 349.542L57.6362 340.273H53.3946L56.901 353.956Z" fill="white"/>
<path d="M74.5077 347.031C74.5077 351.556 77.6464 354.287 82.199 354.287C84.4894 354.287 86.8647 353.321 88.3351 351.224L84.9136 350.011C84.3763 350.618 83.4149 351.031 82.0859 351.031C80.5024 351.031 78.9754 350.093 78.8341 348.162H89.2117C89.4944 343.335 86.6385 339.886 82.0293 339.886C77.9292 339.886 74.5077 342.673 74.5077 347.031ZM82.1424 343.004C83.8108 343.004 85.1681 343.914 85.2246 345.68H78.8341C79.0886 343.804 80.5307 343.004 82.1424 343.004Z" fill="white"/>
<path d="M95.5571 353.956V347.059C95.5571 344.88 96.6882 343.997 98.7807 343.997C99.1766 343.997 99.4876 344.024 99.9401 344.08V339.886C97.791 339.776 96.2924 340.576 95.4158 342.783L94.6523 340.273H91.2591V353.956H95.5571Z" fill="white"/>
<path d="M101.045 347.031C101.045 351.556 104.184 354.287 108.736 354.287C111.027 354.287 113.402 353.321 114.872 351.224L111.451 350.011C110.913 350.618 109.952 351.031 108.623 351.031C107.04 351.031 105.513 350.093 105.371 348.162H115.749C116.032 343.335 113.176 339.886 108.566 339.886C104.466 339.886 101.045 342.673 101.045 347.031ZM108.68 343.004C110.348 343.004 111.705 343.914 111.762 345.68H105.371C105.626 343.804 107.068 343.004 108.68 343.004Z" fill="white"/>
<path d="M123.254 354.287C124.781 354.287 126.449 353.68 127.637 352.107L128.202 353.956H132.302C131.906 351.942 131.822 349.983 131.822 348.604V335.528H127.523V342.148C126.619 340.631 124.781 339.886 123.254 339.886C119.634 339.886 117.061 342.535 117.061 347.004C117.061 351.473 119.634 354.287 123.254 354.287ZM124.639 343.142C126.308 343.142 127.721 344.3 127.721 347.086C127.721 349.928 126.308 351.031 124.639 351.031C122.943 351.031 121.529 349.542 121.529 347.004C121.529 344.493 122.943 343.142 124.639 343.142Z" fill="white"/>
<path d="M143.698 335.528V353.956H147.459L147.996 352.107C148.901 353.625 150.767 354.287 152.266 354.287C155.886 354.287 158.459 351.473 158.459 347.004C158.459 342.535 155.886 339.886 152.266 339.886C150.767 339.886 148.901 340.631 147.996 342.148V335.528H143.698ZM147.798 347.086C147.798 344.3 149.212 343.142 150.909 343.142C152.577 343.142 153.991 344.493 153.991 347.004C153.991 349.542 152.577 351.031 150.909 351.031C149.212 351.031 147.798 349.928 147.798 347.086Z" fill="white"/>
<path d="M159.129 340.273L164.502 353.873L164.36 354.231C163.936 355.28 163.625 355.362 161.815 355.362H160.967V358.397H162.353C166 358.397 167.046 357.431 168.404 353.956L173.776 340.273H169.167L166.481 348.824L163.738 340.273H159.129Z" fill="white"/>
<path fill-rule="evenodd" clip-rule="evenodd" d="M259.28 361.255H266.53V349.404L279.001 330.044H270.654L262.905 343.163L255.157 330.044H246.808L259.28 349.404V361.255ZM212.544 345.454C212.544 336.313 220.141 328.902 229.512 328.902C238.883 328.902 246.479 336.313 246.479 345.454C246.479 354.597 238.883 362.006 229.512 362.006C220.141 362.006 212.544 354.597 212.544 345.454ZM229.512 355.937C234.743 355.937 238.985 351.243 238.985 345.454C238.985 339.666 234.743 334.972 229.512 334.972C224.281 334.972 220.038 339.666 220.038 345.454C220.038 351.243 224.281 355.937 229.512 355.937ZM200.743 361.255H193.595V335.799H183.621V330.044H210.716V335.799H200.743V361.255ZM351.136 354.233L348.387 361.255H340.039L353.238 330.044H362.134L375.334 361.255H366.984L364.235 354.233L351.136 354.233ZM357.718 337.543H357.655L353.188 348.966H362.183L357.718 337.543ZM332.516 361.255H325.368V335.799H315.395V330.044H342.488V335.799H332.516V361.255ZM279.331 345.454C279.331 336.313 286.929 328.902 296.297 328.902C305.669 328.902 313.266 336.313 313.266 345.454C313.266 354.597 305.669 362.006 296.297 362.006C286.929 362.006 279.331 354.597 279.331 345.454ZM296.297 355.937C301.53 355.937 305.772 351.243 305.772 345.454C305.772 339.666 301.53 334.972 296.297 334.972C291.067 334.972 286.826 339.666 286.826 345.454C286.826 351.243 291.067 355.937 296.297 355.937Z" fill="#FF0022"/>
</svg>
