<svg width="585" height="193" viewBox="0 0 585 193" fill="none" xmlns="http://www.w3.org/2000/svg">
<g clip-path="url(#clip0_111_22711)">
<path d="M42.5957 109.478V42.5002L513.727 42.5003L542.225 109.478H42.5957Z" fill="white"/>
<path d="M55.6133 92.6233H83.855L81.1355 84.986H64.2946V77.5684H76.2177V69.931H64.2946V63.5574H81.1355L83.855 55.92H55.6133V92.6233Z" fill="#111111"/>
<path d="M94.7934 92.6233H104.189L113.969 65.3706H105.343L99.5187 83.942L93.6945 65.3706H85.0681L94.7934 92.6233Z" fill="#111111"/>
<path d="M114.772 78.8321C114.772 87.8431 120.87 93.2827 129.717 93.2827C134.167 93.2827 138.782 91.3596 141.64 87.1838L134.991 84.7662C133.947 85.975 132.079 86.7992 129.497 86.7992C126.42 86.7992 123.453 84.931 123.178 81.0849H143.343C143.892 71.4695 138.343 64.6014 129.387 64.6014C121.42 64.6014 114.772 70.1508 114.772 78.8321ZM129.607 70.8102C132.848 70.8102 135.486 72.6233 135.596 76.1398H123.178C123.673 72.4036 126.475 70.8102 129.607 70.8102Z" fill="#111111"/>
<path d="M155.673 92.6233V78.8871C155.673 74.5464 157.871 72.7882 161.937 72.7882C162.706 72.7882 163.31 72.8431 164.189 72.953V64.6014C160.014 64.3816 157.102 65.975 155.398 70.3706L153.915 65.3706H147.321V92.6233H155.673Z" fill="#111111"/>
<path d="M166.466 65.3706L176.906 92.4585L176.631 93.1728C175.807 95.2607 175.202 95.4255 171.686 95.4255H170.038L167.645 101.469H172.73C179.818 101.469 181.851 99.5464 184.488 92.6233L194.928 65.3706H185.972L180.752 82.4036L175.422 65.3706H166.466Z" fill="#111111"/>
<path d="M184.489 92.6234C184.467 92.6809 184.445 92.7381 184.423 92.7949L185.002 92.819L195.727 64.8212H185.566L180.747 80.5462L175.827 64.8212H165.666L176.318 92.4587L176.897 92.4828L176.906 92.4585L166.467 65.3706H175.423L180.753 82.4036L185.972 65.3706H194.928L184.489 92.6234Z" fill="#111111"/>
<path d="M170.038 95.4256H171.687C175.203 95.4256 175.807 95.2607 176.632 93.1728L176.897 92.4828L176.318 92.4587L176.121 92.9711L176.12 92.9735C175.716 93.9942 175.428 94.3698 174.949 94.5784C174.682 94.6948 174.319 94.7738 173.78 94.8197C173.242 94.8656 172.566 94.8761 171.687 94.8761H169.665L166.838 102.019H172.731C176.308 102.019 178.744 101.538 180.617 100.076C182.472 98.6272 183.683 96.2827 185.002 92.8199L184.423 92.7958C181.817 99.5784 179.759 101.47 172.731 101.47H167.646L170.038 95.4256Z" fill="#111111"/>
<path fill-rule="evenodd" clip-rule="evenodd" d="M158.575 65.2902C157.328 66.0741 156.311 67.2318 155.504 68.7931L154.325 64.8212H146.772V93.1728H156.223V78.8871C156.223 76.803 156.75 75.4528 157.655 74.6125C158.568 73.7647 159.97 73.3376 161.937 73.3376C162.674 73.3376 163.254 73.3897 164.122 73.4982L164.74 73.5754V64.0801L164.219 64.0527C162.056 63.9389 160.162 64.2918 158.575 65.2902ZM164.19 64.6014C160.277 64.3954 157.474 65.7814 155.735 69.5728C155.618 69.8278 155.506 70.0936 155.399 70.3706L153.915 65.3706H147.322V92.6234H155.674V78.8871C155.674 74.5464 157.871 72.7882 161.937 72.7882C162.536 72.7882 163.035 72.8215 163.641 72.888C163.813 72.907 163.995 72.9286 164.19 72.953V64.6014Z" fill="#111111"/>
<path fill-rule="evenodd" clip-rule="evenodd" d="M142.094 87.4941L142.494 86.9095L134.824 84.1204L134.576 84.4071C133.666 85.4614 131.971 86.2497 129.497 86.2497C128.066 86.2497 126.683 85.8148 125.635 84.9588C124.714 84.207 124.027 83.1112 123.794 81.6343H143.863L143.892 81.1162C144.173 76.1982 142.896 71.9316 140.352 68.8851C137.801 65.8315 134.015 64.0519 129.388 64.0519C121.155 64.0519 114.223 69.8106 114.223 78.8321C114.223 83.4668 115.795 87.2316 118.55 89.8359C121.301 92.4364 125.182 93.8321 129.717 93.8321C134.32 93.8321 139.119 91.8419 142.094 87.4941ZM123.179 81.0849C123.192 81.2728 123.212 81.4559 123.238 81.6343C123.744 85.1091 126.571 86.7992 129.497 86.7992C132.08 86.7992 133.948 85.975 134.992 84.7662L141.64 87.1838C141.532 87.3417 141.422 87.4964 141.309 87.6479C138.434 91.5023 133.999 93.2827 129.717 93.2827C120.871 93.2827 114.772 87.8431 114.772 78.8321C114.772 70.1508 121.42 64.6014 129.388 64.6014C138.344 64.6014 143.893 71.4695 143.344 81.0849H123.179Z" fill="#111111"/>
<path fill-rule="evenodd" clip-rule="evenodd" d="M129.607 70.8102C132.676 70.8102 135.203 72.4346 135.557 75.5904C135.577 75.7687 135.59 75.9518 135.596 76.1398H123.179C123.204 75.9513 123.235 75.7681 123.271 75.5904C123.957 72.2468 126.633 70.8102 129.607 70.8102ZM133.426 72.5795C132.467 71.7856 131.13 71.3596 129.607 71.3596C128.13 71.3596 126.771 71.7358 125.734 72.5135C124.835 73.1875 124.145 74.1876 123.833 75.5904H135.004C134.841 74.2646 134.259 73.2695 133.426 72.5795Z" fill="#111111"/>
<path fill-rule="evenodd" clip-rule="evenodd" d="M84.2893 64.8212L94.4067 93.1728H104.576L114.751 64.8212H104.94L99.5193 82.1059L94.0986 64.8212H84.2893ZM94.794 92.6234H104.19L113.97 65.3706H105.343L99.5193 83.942L93.6951 65.3706H85.0687L94.794 92.6234Z" fill="#111111"/>
<path fill-rule="evenodd" clip-rule="evenodd" d="M64.8447 69.3816V64.1069H81.5237L84.6346 55.3706H55.0645V93.1728H84.6346L81.5237 84.4365H64.8447V78.1179H76.7677V69.3816H64.8447ZM64.2952 63.5574H81.1361L83.8557 55.9201H55.6139V92.6234H83.8557L81.1361 84.986H64.2952V77.5684H76.2183V69.931H64.2952V63.5574Z" fill="#111111"/>
<path d="M207.371 56.048V92.7513H224.019C232.921 92.7513 238.855 89.6744 238.855 81.4326C238.855 76.982 236.437 74.3996 233.03 73.2458C235.778 71.5425 237.371 68.9601 237.371 65.6084C237.371 57.9161 231.382 56.048 223.415 56.048H207.371ZM224.074 77.2568C227.811 77.2568 229.679 78.7952 229.679 81.3776C229.679 83.9601 227.811 85.5535 224.074 85.5535H216.052V77.2568H224.074ZM223.69 63.1359C226.602 63.1359 228.36 64.5095 228.36 66.8172C228.36 69.07 226.602 70.5535 223.69 70.5535H216.052V63.1359H223.69Z" fill="#111111"/>
<path d="M241.847 79.015C241.847 88.8502 248.715 93.4106 256.298 93.4106C263.77 93.4106 270.693 88.8502 270.693 79.015C270.693 69.1798 263.77 64.7293 256.298 64.7293C248.715 64.7293 241.847 69.1798 241.847 79.015ZM256.298 71.2128C259.539 71.2128 262.177 73.2458 262.177 79.015C262.177 84.7293 259.649 86.9271 256.298 86.9271C252.891 86.9271 250.363 84.7293 250.363 79.015C250.363 73.2458 253.001 71.2128 256.298 71.2128Z" fill="#111111"/>
<path d="M285.377 93.4106C288.344 93.4106 291.586 92.2018 293.893 89.07L294.992 92.7513H302.959C302.19 88.7403 302.025 84.8392 302.025 82.0919V56.048H293.673V69.2348C291.915 66.2128 288.344 64.7293 285.377 64.7293C278.344 64.7293 273.344 70.004 273.344 78.9051C273.344 87.8062 278.344 93.4106 285.377 93.4106ZM288.069 71.2128C291.311 71.2128 294.058 73.5205 294.058 79.07C294.058 84.7293 291.311 86.9271 288.069 86.9271C284.772 86.9271 282.025 83.9601 282.025 78.9051C282.025 73.9051 284.772 71.2128 288.069 71.2128Z" fill="#111111"/>
<path d="M304.756 65.4985L315.196 92.5864L314.921 93.3007C314.097 95.3886 313.492 95.5535 309.976 95.5535H308.327L305.818 101.597H311.02C318.108 101.597 320.141 99.6744 322.778 92.7513L333.218 65.4985H324.262L319.042 82.5315L313.712 65.4985H304.756Z" fill="#111111"/>
<path d="M322.779 92.7513C322.757 92.8088 322.735 92.866 322.713 92.9229L323.292 92.9469L334.017 64.9491H323.856L319.037 80.6741L314.117 64.9491H303.956L314.607 92.5867L315.187 92.6108L315.196 92.5865L304.757 65.4985H313.713L319.042 82.5315L324.262 65.4985H333.218L322.779 92.7513Z" fill="#111111"/>
<path d="M308.328 95.5535H309.976C313.493 95.5535 314.097 95.3886 314.922 93.3007L315.187 92.6108L314.607 92.5867L314.41 93.099L314.409 93.1014C314.006 94.1222 313.718 94.4977 313.239 94.7064C312.972 94.8228 312.609 94.9017 312.07 94.9476C311.532 94.9935 310.856 95.004 309.976 95.004H307.961L304.996 102.147H311.02C314.597 102.147 317.034 101.666 318.907 100.204C320.762 98.7551 321.973 96.4107 323.292 92.9478L322.713 92.9238C320.107 99.7064 318.049 101.597 311.02 101.597H305.819L308.328 95.5535Z" fill="#111111"/>
<path fill-rule="evenodd" clip-rule="evenodd" d="M293.125 67.5513C291.091 65.2778 287.999 64.1799 285.377 64.1799C281.715 64.1799 278.552 65.5575 276.31 68.1173C274.074 70.6709 272.795 74.3541 272.795 78.9051C272.795 83.4558 274.074 87.2172 276.304 89.8509C278.541 92.4918 281.705 93.9601 285.377 93.9601C288.219 93.9601 291.306 92.9025 293.666 90.2273L294.583 93.3007H303.625L303.499 92.6478C302.739 88.6835 302.575 84.8202 302.575 82.0919V55.4985H293.125V67.5513ZM293.479 89.6008C293.62 89.4303 293.759 89.2535 293.894 89.07L294.993 92.7513H302.96C302.925 92.5679 302.891 92.3847 302.858 92.2018C302.176 88.3859 302.026 84.7136 302.026 82.0919V56.048H293.674V69.2348C293.507 68.9471 293.323 68.6733 293.125 68.4134C291.241 65.9438 288.062 64.7293 285.377 64.7293C278.344 64.7293 273.344 70.004 273.344 78.9051C273.344 87.8062 278.344 93.4106 285.377 93.4106C288.171 93.4106 291.207 92.3393 293.479 89.6008Z" fill="#111111"/>
<path fill-rule="evenodd" clip-rule="evenodd" d="M294.059 79.07C294.059 73.5205 291.311 71.2128 288.07 71.2128C284.773 71.2128 282.026 73.9051 282.026 78.9051C282.026 83.9601 284.773 86.9271 288.07 86.9271C291.311 86.9271 294.059 84.7293 294.059 79.07ZM291.863 73.4185C290.89 72.2863 289.554 71.7623 288.07 71.7623C286.579 71.7623 285.223 72.3669 284.231 73.539C283.234 74.7162 282.575 76.5036 282.575 78.9051C282.575 83.7774 285.185 86.3777 288.07 86.3777C289.562 86.3777 290.896 85.876 291.865 84.7604C292.842 83.6357 293.509 81.8172 293.509 79.07C293.509 76.3804 292.844 74.5592 291.863 73.4185Z" fill="#111111"/>
<path fill-rule="evenodd" clip-rule="evenodd" d="M241.298 79.015C241.298 84.0702 243.069 87.8256 245.864 90.3116C248.65 92.7883 252.402 93.9601 256.298 93.9601C260.141 93.9601 263.879 92.7874 266.663 90.3116C269.458 87.8265 271.243 84.0715 271.243 79.015C271.243 73.9581 269.458 70.2294 266.661 67.7713C263.875 65.3232 260.138 64.1799 256.298 64.1799C252.405 64.1799 248.653 65.3223 245.867 67.7713C243.069 70.2302 241.298 73.9595 241.298 79.015ZM256.298 93.4106C248.716 93.4106 241.848 88.8502 241.848 79.015C241.848 69.1799 248.716 64.7293 256.298 64.7293C263.771 64.7293 270.694 69.1799 270.694 79.015C270.694 88.8502 263.771 93.4106 256.298 93.4106Z" fill="#111111"/>
<path fill-rule="evenodd" clip-rule="evenodd" d="M256.298 71.2128C259.54 71.2128 262.177 73.2458 262.177 79.015C262.177 84.7293 259.65 86.9271 256.298 86.9271C252.892 86.9271 250.364 84.7293 250.364 79.015C250.364 73.2458 253.001 71.2128 256.298 71.2128ZM260.038 73.3101C259.102 72.2293 257.801 71.7623 256.298 71.7623C254.765 71.7623 253.451 72.2309 252.509 73.3115C251.557 74.4041 250.914 76.2046 250.914 79.015C250.914 81.8017 251.531 83.6335 252.475 84.7613C253.406 85.8733 254.719 86.3777 256.298 86.3777C257.848 86.3777 259.147 85.875 260.072 84.7626C261.01 83.6343 261.628 81.8015 261.628 79.015C261.628 76.2047 260.985 74.4033 260.038 73.3101Z" fill="#111111"/>
<path fill-rule="evenodd" clip-rule="evenodd" d="M233.655 57.4669C231.031 55.9634 227.419 55.4985 223.416 55.4985H206.822V93.3007H224.02C228.517 93.3007 232.358 92.5266 235.089 90.6342C237.855 88.7164 239.405 85.7042 239.405 81.4326C239.405 79.1031 238.77 77.2233 237.657 75.769C236.758 74.5942 235.566 73.722 234.198 73.1119C236.557 71.327 237.921 68.7895 237.921 65.6084C237.921 63.6139 237.533 61.9601 236.794 60.6062C236.053 59.2495 234.978 58.2252 233.655 57.4669ZM233.031 73.2458C233.249 73.3197 233.464 73.3995 233.673 73.4853C236.738 74.7383 238.855 77.2673 238.855 81.4326C238.855 89.6744 232.921 92.7513 224.02 92.7513H207.372V56.048H223.416C231.383 56.048 237.372 57.9161 237.372 65.6084C237.372 68.7204 235.998 71.1693 233.602 72.867C233.418 72.9977 233.227 73.124 233.031 73.2458Z" fill="#111111"/>
<path fill-rule="evenodd" clip-rule="evenodd" d="M223.69 63.1359C226.602 63.1359 228.361 64.5095 228.361 66.8172C228.361 69.07 226.602 70.5535 223.69 70.5535H216.053V63.1359H223.69ZM226.778 64.5431C226.101 64.0111 225.068 63.6853 223.69 63.6853H216.602V70.004H223.69C225.059 70.004 226.092 69.6553 226.771 69.1036C227.439 68.5616 227.811 67.788 227.811 66.8172C227.811 65.8172 227.438 65.062 226.778 64.5431Z" fill="#111111"/>
<path fill-rule="evenodd" clip-rule="evenodd" d="M224.075 77.2568C227.811 77.2568 229.679 78.7952 229.679 81.3777C229.679 83.9601 227.811 85.5535 224.075 85.5535H216.053V77.2568H224.075ZM227.947 78.7868C227.145 78.1796 225.88 77.8062 224.075 77.8062H216.602V85.004H224.075C225.876 85.004 227.14 84.6185 227.943 83.9991C228.724 83.3961 229.13 82.5231 229.13 81.3777C229.13 80.2332 228.725 79.376 227.947 78.7868Z" fill="#111111"/>
<path d="M345.539 55.92V92.6233H353.946V63.7772L362.627 92.6233H369.77L378.506 63.7772V92.6233H386.968V55.92H373.946L366.198 82.2387L358.561 55.92H345.539Z" fill="#111111"/>
<path d="M390.693 78.8871C390.693 88.7222 397.561 93.2827 405.143 93.2827C412.616 93.2827 419.539 88.7222 419.539 78.8871C419.539 69.0519 412.616 64.6014 405.143 64.6014C397.561 64.6014 390.693 69.0519 390.693 78.8871ZM405.143 71.0849C408.385 71.0849 411.022 73.1178 411.022 78.8871C411.022 84.6014 408.495 86.7992 405.143 86.7992C401.737 86.7992 399.209 84.6014 399.209 78.8871C399.209 73.1178 401.847 71.0849 405.143 71.0849Z" fill="#111111"/>
<path d="M430.596 92.6233H439.992L449.772 65.3706H441.146L435.321 83.942L429.497 65.3706H420.871L430.596 92.6233Z" fill="#111111"/>
<path d="M450.574 78.8321C450.574 87.8431 456.673 93.2827 465.519 93.2827C469.97 93.2827 474.585 91.3596 477.442 87.1838L470.794 84.7662C469.75 85.975 467.882 86.7992 465.3 86.7992C462.223 86.7992 459.256 84.931 458.981 81.0849H479.146C479.695 71.4695 474.146 64.6014 465.19 64.6014C457.223 64.6014 450.574 70.1508 450.574 78.8321ZM465.409 70.8102C468.651 70.8102 471.289 72.6233 471.398 76.1398H458.981C459.475 72.4036 462.278 70.8102 465.409 70.8102Z" fill="#111111"/>
<path d="M494.882 93.2827C502.19 93.2827 508.234 90.1508 508.234 83.7222C508.234 79.1618 505.157 77.2387 498.564 76.0299L493.509 75.0959C491.091 74.6563 490.157 73.997 490.157 72.8981C490.157 71.4695 491.695 70.7003 494.662 70.7003C497.135 70.7003 499.223 71.2497 499.772 73.2277L506.805 70.6453C504.772 66.3596 499.937 64.6014 494.717 64.6014C487.959 64.6014 482.19 67.5135 482.19 73.2277C482.19 77.7882 485.816 80.4805 491.091 81.3596L495.981 82.1838C499.113 82.7332 500.212 83.5025 500.212 84.6563C500.212 86.3596 497.739 87.1838 495.047 87.1838C491.915 87.1838 489.443 86.0849 488.619 83.7772L481.531 86.3596C483.619 90.92 488.509 93.2827 494.882 93.2827Z" fill="#111111"/>
<path fill-rule="evenodd" clip-rule="evenodd" d="M344.99 55.3706H358.974L366.203 80.2802L373.535 55.3706H387.518V93.1728H377.957V67.487L370.178 93.1728H362.219L354.496 67.5095V93.1728H344.99V55.3706ZM353.946 63.7772L362.628 92.6234H369.77L378.507 63.7772V92.6234H386.968V55.9201H373.946L366.199 82.2387L358.562 55.9201H345.54V92.6234H353.946V63.7772ZM430.209 93.1728L420.092 64.8212H429.901L435.322 82.1059L440.743 64.8212H450.554L440.379 93.1728H430.209ZM435.322 83.942L429.498 65.3706H420.871L430.597 92.6234H439.992L449.773 65.3706H441.146L435.322 83.942ZM478.296 86.9095L477.896 87.4941C474.922 91.8419 470.123 93.8321 465.52 93.8321C460.985 93.8321 457.104 92.4364 454.353 89.8359C451.597 87.2316 450.025 83.4668 450.025 78.8321C450.025 69.8106 456.958 64.0519 465.19 64.0519C469.818 64.0519 473.604 65.8315 476.155 68.8851C478.699 71.9316 479.976 76.1982 479.695 81.1162L479.665 81.6343H459.596C459.829 83.1112 460.517 84.207 461.438 84.9588C462.486 85.8148 463.869 86.2497 465.3 86.2497C467.773 86.2497 469.468 85.4614 470.379 84.4071L470.626 84.1204L478.296 86.9095ZM459.041 81.6343C459.015 81.4559 458.995 81.2728 458.981 81.0849H479.146C479.696 71.4695 474.146 64.6014 465.19 64.6014C457.223 64.6014 450.575 70.1508 450.575 78.8321C450.575 87.8431 456.674 93.2827 465.52 93.2827C469.802 93.2827 474.237 91.5023 477.111 87.6479C477.224 87.4964 477.335 87.3417 477.443 87.1838L470.795 84.7662C469.751 85.975 467.883 86.7992 465.3 86.7992C462.374 86.7992 459.546 85.1091 459.041 81.6343ZM493.509 75.0959L498.564 76.0299C505.158 77.2387 508.235 79.1618 508.235 83.7223C508.235 90.1508 502.191 93.2827 494.883 93.2827C488.745 93.2827 483.982 91.0914 481.774 86.8559C481.689 86.6935 481.608 86.5281 481.531 86.3596L488.619 83.7772C488.626 83.7956 488.632 83.8139 488.639 83.8321C489.483 86.1023 491.941 87.1838 495.048 87.1838C497.74 87.1838 500.213 86.3596 500.213 84.6563C500.213 83.5025 499.114 82.7332 495.982 82.1838L491.092 81.3596C485.817 80.4805 482.191 77.7882 482.191 73.2277C482.191 67.5135 487.96 64.6014 494.718 64.6014C499.733 64.6014 504.393 66.2244 506.554 70.1526C506.642 70.313 506.726 70.4772 506.806 70.6453L499.773 73.2277C499.725 73.0546 499.665 72.8923 499.594 72.7405C498.855 71.1577 496.919 70.7003 494.663 70.7003C491.696 70.7003 490.158 71.4695 490.158 72.8981C490.158 73.997 491.092 74.6563 493.509 75.0959ZM491.001 81.9016C491.001 81.9016 491.001 81.9015 491.001 81.9015C488.302 81.4517 485.971 80.5302 484.304 79.0899C482.621 77.636 481.641 75.6728 481.641 73.2277C481.641 70.1523 483.207 67.833 485.627 66.307C488.027 64.7931 491.27 64.0519 494.718 64.0519C500.024 64.0519 505.135 65.8401 507.302 70.4098L507.56 70.9536L499.403 73.9489L499.244 73.3748C499.022 72.5755 498.499 72.0593 497.723 71.7275C496.924 71.3858 495.871 71.2497 494.663 71.2497C493.211 71.2497 492.184 71.4405 491.54 71.7567C491.224 71.9117 491.02 72.0872 490.895 72.2665C490.773 72.441 490.707 72.6455 490.707 72.8981C490.707 73.2473 490.835 73.5223 491.232 73.7871C491.671 74.0796 492.416 74.3387 493.608 74.5553L493.609 74.5556L498.663 75.4895C498.663 75.4895 498.664 75.4896 498.664 75.4896C501.975 76.0967 504.501 76.8971 506.203 78.1806C507.951 79.499 508.784 81.2918 508.784 83.7223C508.784 87.1393 507.164 89.6948 504.6 91.3729C502.058 93.0363 498.605 93.8321 494.883 93.8321C488.388 93.8321 483.242 91.417 481.032 86.5883L480.784 86.0471L488.951 83.0716L489.137 83.5924C489.844 85.5718 492.005 86.6343 495.048 86.6343C496.349 86.6343 497.558 86.4336 498.419 86.0557C499.292 85.6724 499.663 85.1848 499.663 84.6563C499.663 84.4607 499.618 84.2992 499.526 84.1518C499.431 83.9994 499.267 83.8335 498.986 83.6628C498.411 83.3132 497.439 82.9973 495.889 82.7254C495.888 82.7252 495.888 82.7251 495.887 82.725L491.001 81.9016ZM394.71 90.1837C391.914 87.6977 390.144 83.9422 390.144 78.8871C390.144 73.8316 391.915 70.1022 394.713 67.6433C397.499 65.1944 401.251 64.0519 405.144 64.0519C408.984 64.0519 412.721 65.1952 415.507 67.6433C418.304 70.1014 420.089 73.8302 420.089 78.8871C420.089 83.9436 418.304 87.6985 415.509 90.1837C412.725 92.6595 408.987 93.8321 405.144 93.8321C401.247 93.8321 397.496 92.6604 394.71 90.1837ZM408.884 73.1822C407.948 72.1014 406.647 71.6343 405.144 71.6343C403.611 71.6343 402.297 72.103 401.355 73.1835C400.403 74.2761 399.759 76.0766 399.759 78.8871C399.759 81.6737 400.377 83.5056 401.321 84.6333C402.251 85.7454 403.564 86.2497 405.144 86.2497C406.693 86.2497 407.993 85.7471 408.918 84.6347C409.856 83.5064 410.474 81.6736 410.474 78.8871C410.474 76.0768 409.83 74.2753 408.884 73.1822ZM469.229 72.5795C468.27 71.7856 466.933 71.3596 465.41 71.3596C463.932 71.3596 462.573 71.7358 461.536 72.5135C460.638 73.1875 459.947 74.1876 459.636 75.5904H470.807C470.644 74.2646 470.062 73.2695 469.229 72.5795ZM471.36 75.5904C471.005 72.4346 468.478 70.8102 465.41 70.8102C462.436 70.8102 459.76 72.2468 459.074 75.5904C459.037 75.7681 459.006 75.9513 458.981 76.1398H471.399C471.393 75.9518 471.38 75.7687 471.36 75.5904ZM390.693 78.8871C390.693 88.7223 397.561 93.2827 405.144 93.2827C412.616 93.2827 419.54 88.7223 419.54 78.8871C419.54 69.0519 412.616 64.6014 405.144 64.6014C397.561 64.6014 390.693 69.0519 390.693 78.8871ZM405.144 71.0849C408.386 71.0849 411.023 73.1179 411.023 78.8871C411.023 84.6014 408.496 86.7992 405.144 86.7992C401.737 86.7992 399.21 84.6014 399.21 78.8871C399.21 73.1179 401.847 71.0849 405.144 71.0849Z" fill="#111111"/>
<path d="M512.041 87.898C512.041 90.8651 514.459 93.2826 517.426 93.2826C520.338 93.2826 522.755 90.8651 522.755 87.898C522.755 84.931 520.338 82.5684 517.426 82.5684C514.459 82.5684 512.041 84.931 512.041 87.898Z" fill="#5A16CA"/>
<path d="M42.4531 150.642V118.112L280.459 118.112L293.76 150.642H42.4531Z" fill="white"/>
<path d="M57.1994 140.577V135.909H59.1454C62.5459 135.909 65.1013 135.044 65.1013 131.523C65.1013 128.003 62.5459 127.138 59.1454 127.138H54.0938V140.577H57.1994ZM57.1994 129.813H59.2437C60.6786 129.813 61.8187 130.115 61.8187 131.523C61.8187 132.952 60.6786 133.274 59.2437 133.274H57.1994V129.813Z" fill="#111111"/>
<path d="M66.1585 135.547C66.1585 139.148 68.6156 140.818 71.3281 140.818C74.0014 140.818 76.4781 139.148 76.4781 135.547C76.4781 131.946 74.0014 130.316 71.3281 130.316C68.6156 130.316 66.1585 131.946 66.1585 135.547ZM71.3281 132.69C72.4879 132.69 73.4314 133.435 73.4314 135.547C73.4314 137.639 72.5272 138.444 71.3281 138.444C70.1095 138.444 69.2053 137.639 69.2053 135.547C69.2053 133.435 70.1488 132.69 71.3281 132.69Z" fill="#111111"/>
<path d="M79.392 140.577H82.6549L84.0505 133.415L85.4658 140.577H88.7287L91.1661 130.598H88.198L86.7238 137.358L85.4658 130.598H82.6353L81.3773 137.358L79.903 130.598H76.9546L79.392 140.577Z" fill="#111111"/>
<path d="M91.6311 135.527C91.6311 138.826 93.8129 140.818 96.9776 140.818C98.5697 140.818 100.221 140.114 101.243 138.585L98.8646 137.7C98.4911 138.142 97.8228 138.444 96.8989 138.444C95.7982 138.444 94.7368 137.76 94.6385 136.352H101.852C102.049 132.831 100.064 130.316 96.8596 130.316C94.0095 130.316 91.6311 132.348 91.6311 135.527ZM96.9383 132.59C98.098 132.59 99.0415 133.254 99.0808 134.541H94.6385C94.8154 133.173 95.8179 132.59 96.9383 132.59Z" fill="#111111"/>
<path d="M106.263 140.577V135.547C106.263 133.958 107.05 133.314 108.504 133.314C108.779 133.314 108.996 133.334 109.31 133.374V130.316C107.816 130.236 106.774 130.819 106.165 132.429L105.634 130.598H103.276V140.577H106.263Z" fill="#111111"/>
<path d="M110.078 135.527C110.078 138.826 112.26 140.818 115.425 140.818C117.017 140.818 118.668 140.114 119.69 138.585L117.312 137.7C116.938 138.142 116.27 138.444 115.346 138.444C114.245 138.444 113.184 137.76 113.085 136.352H120.299C120.496 132.831 118.511 130.316 115.307 130.316C112.456 130.316 110.078 132.348 110.078 135.527ZM115.385 132.59C116.545 132.59 117.488 133.254 117.528 134.541H113.085C113.262 133.173 114.265 132.59 115.385 132.59Z" fill="#111111"/>
<path d="M125.516 140.818C126.578 140.818 127.737 140.376 128.563 139.229L128.956 140.577H131.806C131.531 139.108 131.472 137.68 131.472 136.674V127.138H128.484V131.966C127.855 130.86 126.578 130.316 125.516 130.316C123 130.316 121.211 132.248 121.211 135.507C121.211 138.766 123 140.818 125.516 140.818ZM126.479 132.69C127.639 132.69 128.622 133.535 128.622 135.567C128.622 137.639 127.639 138.444 126.479 138.444C125.3 138.444 124.317 137.358 124.317 135.507C124.317 133.676 125.3 132.69 126.479 132.69Z" fill="#111111"/>
<path d="M139.728 127.138V140.577H142.342L142.716 139.229C143.345 140.335 144.642 140.818 145.684 140.818C148.2 140.818 149.989 138.766 149.989 135.507C149.989 132.248 148.2 130.316 145.684 130.316C144.642 130.316 143.345 130.86 142.716 131.966V127.138H139.728ZM142.578 135.567C142.578 133.535 143.561 132.69 144.74 132.69C145.9 132.69 146.883 133.676 146.883 135.507C146.883 137.358 145.9 138.444 144.74 138.444C143.561 138.444 142.578 137.639 142.578 135.567Z" fill="#111111"/>
<path d="M150.454 130.598L154.189 140.516L154.091 140.778C153.796 141.542 153.58 141.603 152.322 141.603H151.732V143.816H152.695C155.231 143.816 155.958 143.112 156.902 140.577L160.636 130.598H157.432L155.565 136.835L153.658 130.598H150.454Z" fill="#111111"/>
<path fill-rule="evenodd" clip-rule="evenodd" d="M211.308 144.094H215.508V136.891L222.732 125.126H217.897L213.408 133.098L208.92 125.126H204.083L211.308 136.891V144.094ZM184.235 134.491C184.235 128.936 188.636 124.432 194.064 124.432C199.492 124.432 203.893 128.935 203.893 134.491C203.893 140.047 199.492 144.55 194.064 144.55C188.636 144.55 184.235 140.047 184.235 134.491ZM194.064 140.862C197.094 140.862 199.552 138.009 199.552 134.491C199.552 130.973 197.095 128.12 194.064 128.12C191.034 128.12 188.576 130.973 188.576 134.491C188.576 138.009 191.034 140.862 194.064 140.862ZM177.399 144.094H173.258V128.623H167.48V125.126H183.176V128.623H177.399V144.094ZM264.519 139.826L262.926 144.094H258.09L265.736 125.125H270.889L278.536 144.094H273.699L272.107 139.826L264.519 139.826ZM268.331 129.683H268.295L265.707 136.625H270.918L268.331 129.683ZM253.733 144.094H249.592V128.623H243.814V125.126H259.509V128.623H253.733V144.094ZM222.924 134.491C222.924 128.936 227.325 124.432 232.751 124.432C238.181 124.432 242.581 128.935 242.581 134.491C242.581 140.047 238.181 144.55 232.751 144.55C227.325 144.55 222.924 140.047 222.924 134.491ZM232.751 140.862C235.783 140.862 238.24 138.009 238.24 134.491C238.24 130.973 235.783 128.12 232.751 128.12C229.722 128.12 227.265 130.973 227.265 134.491C227.265 138.009 229.722 140.862 232.751 140.862Z" fill="#FF0022"/>
</g>
<path opacity="0.25" d="M277.5 42.7895H307L304.159 34.9239H286.568V27.2847H299.022V19.4191H286.568V12.8551H304.159L307 4.9895H277.5V42.7895Z" fill="#FAF9FE"/>
<path opacity="0.25" d="M277.5 188.624H307L304.159 180.759H286.568V173.12H299.022V165.254H286.568V158.69H304.159L307 150.824H277.5V188.624Z" fill="#FAF9FE"/>
<path opacity="0.25" d="M42.6496 111.25L42.6496 81.75L34.784 84.5907L34.784 102.182L27.1448 102.182L27.1448 89.7276L19.2792 89.7276L19.2792 102.182L12.7152 102.182L12.7152 84.5907L4.84961 81.75L4.84961 111.25L42.6496 111.25Z" fill="#FAF9FE"/>
<path opacity="0.25" d="M580.025 111.25L580.025 81.75L572.159 84.5907L572.159 102.182L564.52 102.182L564.52 89.7276L556.654 89.7276L556.654 102.182L550.09 102.182L550.09 84.5907L542.225 81.75L542.225 111.25L580.025 111.25Z" fill="#FAF9FE"/>
<rect x="2.85156" y="2.62781" width="579.311" height="187.997" stroke="#99E880" stroke-width="4" stroke-linejoin="round" stroke-dasharray="8 8"/>
<defs>
<clipPath id="clip0_111_22711">
<rect width="500" height="108.425" fill="white" transform="translate(42.25 42.2876)"/>
</clipPath>
</defs>
</svg>
