<svg width="555" height="524" viewBox="0 0 555 524" fill="none" xmlns="http://www.w3.org/2000/svg">
<path d="M384.521 191.589H367.797L406.108 93.868H177.746L184.663 76.2599H77.3262V377.213H476.006L434.046 278.926H346.743L384.521 191.589Z" fill="white"/>
<path d="M421.357 346.311C421.357 352.011 426.047 356.655 431.801 356.655C437.45 356.655 442.139 352.011 442.139 346.311C442.139 340.612 437.45 336.073 431.801 336.073C426.047 336.073 421.357 340.612 421.357 346.311Z" fill="#5A16CA"/>
<path d="M98.4082 167.525H153.186L147.911 152.853H115.247V138.604H138.373V123.933H115.247V111.69H147.911L153.186 97.0183H98.4082V167.525Z" fill="#111111"/>
<path d="M174.402 167.525H192.626L211.596 115.173H194.864L183.568 150.848L172.271 115.173H155.539L174.402 167.525Z" fill="#111111"/>
<path d="M213.152 141.032C213.152 158.342 224.982 168.791 242.14 168.791C250.772 168.791 259.724 165.097 265.266 157.075L252.371 152.431C250.346 154.753 246.722 156.336 241.713 156.336C235.745 156.336 229.99 152.748 229.458 145.359H268.569C269.635 126.888 258.871 113.695 241.5 113.695C226.047 113.695 213.152 124.355 213.152 141.032ZM241.926 125.622C248.214 125.622 253.33 129.105 253.543 135.86H229.458C230.417 128.683 235.852 125.622 241.926 125.622Z" fill="#111111"/>
<path d="M292.485 167.525V141.138C292.485 132.799 296.748 129.422 304.634 129.422C306.126 129.422 307.298 129.527 309.004 129.738V113.695C300.904 113.273 295.256 116.334 291.952 124.778L289.075 115.173H276.286V167.525H292.485Z" fill="#111111"/>
<path d="M313.42 115.173L333.668 167.208L333.135 168.58C331.537 172.591 330.365 172.908 323.544 172.908H320.347L315.707 184.518H325.569C339.317 184.518 343.26 180.824 348.375 167.525L368.624 115.173H351.253L341.128 147.893L330.791 115.173H313.42Z" fill="#111111"/>
<path d="M348.375 167.525C348.332 167.635 348.29 167.745 348.247 167.854L349.37 167.9L370.173 114.117H350.464L341.117 144.325L331.573 114.117H311.866L332.526 167.208L333.649 167.255L333.668 167.208L313.419 115.173H330.79L341.128 147.893L351.252 115.173H368.623L348.375 167.525Z" fill="#111111"/>
<path d="M320.346 172.908H323.543C330.364 172.908 331.536 172.591 333.135 168.58L333.649 167.255L332.526 167.208L332.143 168.193L332.142 168.197C331.36 170.158 330.801 170.88 329.872 171.28C329.353 171.504 328.65 171.656 327.604 171.744C326.56 171.832 325.25 171.852 323.543 171.852H319.622L314.138 185.573H325.568C332.506 185.573 337.232 184.65 340.864 181.84C344.462 179.058 346.811 174.554 349.37 167.902L348.247 167.856C343.192 180.885 339.201 184.518 325.568 184.518H315.706L320.346 172.908Z" fill="#111111"/>
<path fill-rule="evenodd" clip-rule="evenodd" d="M298.111 115.018C295.694 116.524 293.72 118.748 292.155 121.747L289.869 114.117H275.22V168.58H293.55V141.138C293.55 137.134 294.571 134.54 296.327 132.926C298.098 131.298 300.818 130.477 304.633 130.477C306.063 130.477 307.186 130.577 308.871 130.786L310.069 130.934V112.694L309.059 112.641C304.864 112.422 301.189 113.1 298.111 115.018ZM309.003 113.695C301.414 113.299 295.977 115.962 292.604 123.245C292.377 123.735 292.16 124.246 291.951 124.778L289.074 115.173H276.285V167.525H292.484V141.138C292.484 132.799 296.747 129.422 304.633 129.422C305.794 129.422 306.762 129.486 307.937 129.613C308.272 129.65 308.624 129.692 309.003 129.738V113.695Z" fill="#111111"/>
<path fill-rule="evenodd" clip-rule="evenodd" d="M266.145 157.671L266.92 156.548L252.044 151.191L251.563 151.741C249.797 153.767 246.51 155.281 241.713 155.281C238.936 155.281 236.254 154.446 234.221 152.801C232.435 151.357 231.102 149.252 230.65 146.415H269.575L269.633 145.42C270.178 135.972 267.702 127.776 262.766 121.924C257.819 116.058 250.476 112.64 241.5 112.64C225.532 112.64 212.086 123.702 212.086 141.032C212.086 149.935 215.135 157.167 220.479 162.17C225.815 167.166 233.343 169.847 242.139 169.847C251.067 169.847 260.375 166.024 266.145 157.671ZM229.457 145.36C229.483 145.72 229.521 146.072 229.572 146.415C230.552 153.09 236.036 156.337 241.713 156.337C246.722 156.337 250.345 154.753 252.37 152.431L265.265 157.075C265.055 157.379 264.841 157.676 264.622 157.967C259.047 165.371 250.445 168.791 242.139 168.791C224.981 168.791 213.151 158.342 213.151 141.032C213.151 124.355 226.047 113.695 241.5 113.695C258.871 113.695 269.634 126.889 268.569 145.36H229.457Z" fill="#111111"/>
<path fill-rule="evenodd" clip-rule="evenodd" d="M241.926 125.622C247.877 125.622 252.779 128.743 253.466 134.805C253.505 135.147 253.531 135.499 253.542 135.86H229.457C229.505 135.498 229.565 135.146 229.636 134.805C230.966 128.382 236.158 125.622 241.926 125.622ZM249.332 129.021C247.473 127.496 244.88 126.677 241.926 126.677C239.06 126.677 236.424 127.4 234.412 128.894C232.669 130.189 231.33 132.11 230.725 134.805H252.393C252.077 132.258 250.948 130.346 249.332 129.021Z" fill="#111111"/>
<path fill-rule="evenodd" clip-rule="evenodd" d="M154.027 114.117L173.65 168.58H193.375L213.11 114.117H194.081L183.567 147.321L173.053 114.117H154.027ZM174.402 167.525H192.625L211.595 115.173H194.863L183.567 150.848L172.27 115.173H155.538L174.402 167.525Z" fill="#111111"/>
<path fill-rule="evenodd" clip-rule="evenodd" d="M116.312 122.878V112.745H148.662L154.696 95.9629H97.3418V168.58H154.696L148.662 151.798H116.312V139.66H139.438V122.878H116.312ZM115.246 111.69H147.911L153.185 97.0184H98.4075V167.525H153.185L147.911 152.853H115.246V138.604H138.372V123.933H115.246V111.69Z" fill="#111111"/>
<path d="M98.4082 192.654V263.16H130.7C147.964 263.16 159.474 257.249 159.474 241.417C159.474 232.868 154.785 227.907 148.177 225.69C153.506 222.418 156.596 217.458 156.596 211.019C156.596 196.242 144.98 192.654 129.527 192.654H98.4082ZM130.806 233.395C138.053 233.395 141.676 236.351 141.676 241.311C141.676 246.272 138.053 249.333 130.806 249.333H115.247V233.395H130.806ZM130.06 206.269C135.708 206.269 139.119 208.908 139.119 213.341C139.119 217.669 135.708 220.518 130.06 220.518H115.247V206.269H130.06Z" fill="#111111"/>
<path d="M165.278 236.773C165.278 255.666 178.599 264.427 193.306 264.427C207.8 264.427 221.228 255.666 221.228 236.773C221.228 217.88 207.8 209.33 193.306 209.33C178.599 209.33 165.278 217.88 165.278 236.773ZM193.306 221.785C199.594 221.785 204.71 225.69 204.71 236.773C204.71 247.75 199.807 251.972 193.306 251.972C186.699 251.972 181.797 247.75 181.797 236.773C181.797 225.69 186.912 221.785 193.306 221.785Z" fill="#111111"/>
<path d="M249.709 264.427C255.464 264.427 261.751 262.105 266.227 256.088L268.359 263.16H283.812C282.32 255.455 282 247.961 282 242.684V192.654H265.801V217.985C262.391 212.18 255.464 209.33 249.709 209.33C236.068 209.33 226.369 219.463 226.369 236.562C226.369 253.661 236.068 264.427 249.709 264.427ZM254.931 221.785C261.218 221.785 266.547 226.218 266.547 236.878C266.547 247.75 261.218 251.972 254.931 251.972C248.536 251.972 243.208 246.272 243.208 236.562C243.208 226.957 248.536 221.785 254.931 221.785Z" fill="#111111"/>
<path d="M287.297 210.808L307.546 262.843L307.013 264.215C305.414 268.226 304.242 268.543 297.421 268.543H294.224L289.357 280.153H299.446C313.194 280.153 317.137 276.459 322.253 263.16L342.501 210.808H325.13L315.006 243.528L304.668 210.808H287.297Z" fill="#111111"/>
<path d="M322.252 263.16C322.209 263.271 322.167 263.38 322.125 263.49L323.248 263.536L344.05 209.753H324.341L314.994 239.96L305.451 209.753H285.743L306.403 262.844L307.527 262.89L307.545 262.843L287.296 210.808H304.668L315.005 243.528L325.129 210.808H342.501L322.252 263.16Z" fill="#111111"/>
<path d="M294.223 268.543H297.421C304.241 268.543 305.413 268.226 307.012 264.216L307.527 262.89L306.403 262.844L306.021 263.828L306.019 263.833C305.237 265.793 304.678 266.515 303.749 266.916C303.231 267.139 302.527 267.291 301.481 267.379C300.438 267.467 299.127 267.488 297.421 267.488H293.512L287.76 281.209H299.445C306.384 281.209 311.109 280.285 314.742 277.476C318.34 274.693 320.688 270.19 323.247 263.538L322.124 263.491C317.07 276.521 313.078 280.153 299.445 280.153H289.356L294.223 268.543Z" fill="#111111"/>
<path fill-rule="evenodd" clip-rule="evenodd" d="M264.735 214.751C260.79 210.384 254.793 208.275 249.708 208.275C242.605 208.275 236.469 210.921 232.121 215.839C227.784 220.744 225.303 227.819 225.303 236.562C225.303 245.304 227.783 252.529 232.11 257.588C236.448 262.662 242.584 265.482 249.708 265.482C255.219 265.482 261.208 263.451 265.785 258.312L267.564 264.216H285.101L284.858 262.961C283.383 255.346 283.065 247.925 283.065 242.684V191.598H264.735V214.751ZM265.422 257.108C265.696 256.781 265.964 256.441 266.227 256.088L268.358 263.16H283.811C283.743 262.808 283.677 262.456 283.614 262.105C282.29 254.774 281.999 247.72 281.999 242.684V192.654H265.8V217.985C265.476 217.433 265.119 216.907 264.735 216.407C261.082 211.663 254.915 209.33 249.708 209.33C236.067 209.33 226.369 219.463 226.369 236.562C226.369 253.661 236.067 264.427 249.708 264.427C255.126 264.427 261.016 262.369 265.422 257.108Z" fill="#111111"/>
<path fill-rule="evenodd" clip-rule="evenodd" d="M266.546 236.879C266.546 226.218 261.218 221.785 254.93 221.785C248.536 221.785 243.207 226.957 243.207 236.562C243.207 246.272 248.536 251.972 254.93 251.972C261.218 251.972 266.546 247.75 266.546 236.879ZM262.288 226.022C260.401 223.847 257.81 222.841 254.93 222.841C252.039 222.841 249.409 224.002 247.484 226.254C245.551 228.515 244.273 231.949 244.273 236.562C244.273 245.921 249.334 250.916 254.93 250.916C257.824 250.916 260.412 249.953 262.292 247.81C264.187 245.649 265.481 242.156 265.481 236.879C265.481 231.712 264.19 228.213 262.288 226.022Z" fill="#111111"/>
<path fill-rule="evenodd" clip-rule="evenodd" d="M164.212 236.773C164.212 246.484 167.645 253.698 173.068 258.474C178.471 263.231 185.748 265.482 193.306 265.482C200.76 265.482 208.009 263.23 213.41 258.474C218.831 253.7 222.293 246.486 222.293 236.773C222.293 227.059 218.83 219.896 213.405 215.174C208.002 210.471 200.753 208.275 193.306 208.275C185.754 208.275 178.478 210.47 173.073 215.174C167.646 219.897 164.212 227.061 164.212 236.773ZM193.306 264.427C178.599 264.427 165.277 255.666 165.277 236.773C165.277 217.88 178.599 209.33 193.306 209.33C207.799 209.33 221.228 217.88 221.228 236.773C221.228 255.666 207.799 264.427 193.306 264.427Z" fill="#111111"/>
<path fill-rule="evenodd" clip-rule="evenodd" d="M193.306 221.785C199.593 221.785 204.709 225.69 204.709 236.773C204.709 247.75 199.807 251.972 193.306 251.972C186.698 251.972 181.796 247.75 181.796 236.773C181.796 225.69 186.911 221.785 193.306 221.785ZM200.56 225.814C198.744 223.738 196.22 222.841 193.306 222.841C190.333 222.841 187.783 223.741 185.956 225.817C184.109 227.915 182.862 231.374 182.862 236.773C182.862 242.126 184.059 245.645 185.89 247.811C187.695 249.948 190.242 250.916 193.306 250.916C196.311 250.916 198.832 249.951 200.626 247.814C202.445 245.647 203.643 242.126 203.643 236.773C203.643 231.374 202.395 227.914 200.56 225.814Z" fill="#111111"/>
<path fill-rule="evenodd" clip-rule="evenodd" d="M149.386 195.379C144.297 192.491 137.292 191.598 129.527 191.598H97.3418V264.216H130.699C139.421 264.216 146.872 262.728 152.167 259.093C157.534 255.409 160.539 249.623 160.539 241.417C160.539 236.942 159.308 233.331 157.149 230.537C155.405 228.281 153.093 226.605 150.44 225.433C155.016 222.004 157.662 217.13 157.662 211.019C157.662 207.188 156.908 204.011 155.475 201.41C154.039 198.804 151.953 196.836 149.386 195.379ZM148.177 225.69C148.6 225.832 149.016 225.986 149.423 226.151C155.366 228.557 159.473 233.416 159.473 241.417C159.473 257.249 147.963 263.16 130.699 263.16H98.4075V192.654H129.527C144.979 192.654 156.596 196.242 156.596 211.019C156.596 216.997 153.931 221.701 149.285 224.963C148.927 225.214 148.558 225.456 148.177 225.69Z" fill="#111111"/>
<path fill-rule="evenodd" clip-rule="evenodd" d="M130.059 206.269C135.708 206.269 139.118 208.908 139.118 213.341C139.118 217.669 135.708 220.519 130.059 220.519H115.246V206.269H130.059ZM136.048 208.973C134.736 207.951 132.732 207.325 130.059 207.325H116.312V219.463H130.059C132.713 219.463 134.717 218.793 136.035 217.733C137.33 216.692 138.052 215.206 138.052 213.341C138.052 211.42 137.328 209.969 136.048 208.973Z" fill="#111111"/>
<path fill-rule="evenodd" clip-rule="evenodd" d="M130.805 233.395C138.052 233.395 141.676 236.351 141.676 241.312C141.676 246.272 138.052 249.333 130.805 249.333H115.246V233.395H130.805ZM138.315 236.335C136.76 235.168 134.306 234.451 130.805 234.451H116.312V248.278H130.805C134.299 248.278 136.751 247.537 138.307 246.347C139.822 245.189 140.61 243.512 140.61 241.312C140.61 239.113 139.824 237.466 138.315 236.335Z" fill="#111111"/>
<path d="M98.4082 284.882V355.388H114.714V299.975L131.552 355.388H145.406L162.351 299.975V355.388H178.763V284.882H153.506L138.479 335.44L123.666 284.882H98.4082Z" fill="#111111"/>
<path d="M185.989 329.001C185.989 347.894 199.31 356.655 214.017 356.655C228.511 356.655 241.939 347.894 241.939 329.001C241.939 310.108 228.511 301.559 214.017 301.559C199.31 301.559 185.989 310.108 185.989 329.001ZM214.017 314.013C220.305 314.013 225.42 317.919 225.42 329.001C225.42 339.978 220.518 344.2 214.017 344.2C207.41 344.2 202.507 339.978 202.507 329.001C202.507 317.919 207.623 314.013 214.017 314.013Z" fill="#111111"/>
<path d="M263.386 355.388H281.61L300.579 303.036H283.848L272.551 338.712L261.254 303.036H244.522L263.386 355.388Z" fill="#111111"/>
<path d="M302.135 328.896C302.135 346.206 313.965 356.655 331.123 356.655C339.755 356.655 348.707 352.961 354.249 344.939L341.354 340.295C339.329 342.617 335.706 344.2 330.697 344.2C324.729 344.2 318.974 340.612 318.441 333.223H357.553C358.619 314.752 347.855 301.559 330.484 301.559C315.031 301.559 302.135 312.219 302.135 328.896ZM330.91 313.486C337.198 313.486 342.313 316.969 342.526 323.724H318.441C319.4 316.547 324.835 313.486 330.91 313.486Z" fill="#111111"/>
<path d="M388.076 356.655C402.25 356.655 413.973 350.639 413.973 338.29C413.973 329.529 408.005 325.835 395.216 323.513L385.411 321.718C380.722 320.874 378.911 319.607 378.911 317.497C378.911 314.752 381.895 313.275 387.649 313.275C392.445 313.275 396.495 314.33 397.561 318.13L411.202 313.169C407.259 304.936 397.88 301.559 387.756 301.559C374.648 301.559 363.458 307.153 363.458 318.13C363.458 326.89 370.491 332.062 380.722 333.751L390.207 335.334C396.282 336.39 398.413 337.867 398.413 340.084C398.413 343.356 393.617 344.939 388.395 344.939C382.321 344.939 377.525 342.828 375.926 338.395L362.179 343.356C366.228 352.116 375.713 356.655 388.076 356.655Z" fill="#111111"/>
<path fill-rule="evenodd" clip-rule="evenodd" d="M97.3418 283.827H124.465L138.486 331.677L152.708 283.827H179.828V356.444H161.285V307.102L146.196 356.444H130.759L115.779 307.145V356.444H97.3418V283.827ZM114.713 299.976L131.551 355.388H145.406L162.351 299.976V355.388H178.763V284.882H153.505L138.479 335.44L123.665 284.882H98.4075V355.388H114.713V299.976ZM262.634 356.444L243.01 301.981H262.036L272.55 335.185L283.064 301.981H302.093L282.359 356.444H262.634ZM272.55 338.712L261.254 303.036H244.522L263.385 355.388H281.609L300.579 303.036H283.847L272.55 338.712ZM355.904 344.412L355.128 345.535C349.358 353.887 340.05 357.711 331.122 357.711C322.326 357.711 314.799 355.029 309.462 350.034C304.118 345.031 301.069 337.799 301.069 328.896C301.069 311.566 314.515 300.503 330.483 300.503C339.459 300.503 346.802 303.922 351.749 309.788C356.685 315.64 359.161 323.836 358.616 333.284L358.559 334.279H319.633C320.085 337.116 321.418 339.221 323.204 340.665C325.237 342.309 327.919 343.145 330.696 343.145C335.493 343.145 338.781 341.63 340.547 339.605L341.027 339.054L355.904 344.412ZM318.555 334.279C318.505 333.936 318.466 333.584 318.44 333.223H357.552C358.618 314.752 347.854 301.559 330.483 301.559C315.03 301.559 302.135 312.219 302.135 328.896C302.135 346.206 313.964 356.655 331.122 356.655C339.428 356.655 348.03 353.235 353.605 345.831C353.824 345.54 354.039 345.242 354.248 344.939L341.353 340.295C339.328 342.617 335.705 344.2 330.696 344.2C325.02 344.2 319.536 340.954 318.555 334.279ZM385.411 321.719L395.215 323.513C408.004 325.835 413.972 329.529 413.972 338.29C413.972 350.639 402.249 356.655 388.075 356.655C376.169 356.655 366.932 352.446 362.649 344.309C362.485 343.997 362.328 343.68 362.178 343.356L375.926 338.395C375.939 338.43 375.951 338.466 375.965 338.501C377.601 342.862 382.368 344.939 388.395 344.939C393.617 344.939 398.413 343.356 398.413 340.084C398.413 337.867 396.281 336.39 390.206 335.334L380.722 333.751C370.491 332.062 363.457 326.89 363.457 318.13C363.457 307.153 374.647 301.559 387.755 301.559C397.482 301.559 406.521 304.677 410.712 312.223C410.883 312.531 411.046 312.846 411.201 313.169L397.56 318.13C397.467 317.797 397.35 317.486 397.213 317.194C395.779 314.153 392.025 313.275 387.649 313.275C381.894 313.275 378.91 314.752 378.91 317.497C378.91 319.608 380.722 320.874 385.411 321.719ZM380.546 334.792C380.546 334.792 380.546 334.792 380.545 334.792C375.311 333.928 370.789 332.158 367.556 329.391C364.292 326.598 362.391 322.827 362.391 318.13C362.391 312.222 365.428 307.767 370.122 304.835C374.778 301.927 381.068 300.503 387.755 300.503C398.047 300.503 407.96 303.938 412.164 312.717L412.664 313.761L396.842 319.515L396.533 318.412C396.102 316.877 395.09 315.885 393.584 315.248C392.034 314.591 389.991 314.33 387.649 314.33C384.832 314.33 382.84 314.697 381.591 315.304C380.978 315.602 380.583 315.939 380.34 316.283C380.104 316.619 379.976 317.011 379.976 317.497C379.976 318.167 380.223 318.696 380.993 319.204C381.844 319.766 383.291 320.264 385.601 320.68L385.604 320.681L395.408 322.475C395.408 322.475 395.408 322.475 395.408 322.475C401.831 323.641 406.731 325.179 410.031 327.644C413.421 330.177 415.038 333.621 415.038 338.29C415.038 344.854 411.896 349.763 406.922 352.986C401.992 356.182 395.293 357.711 388.075 357.711C375.477 357.711 365.497 353.071 361.209 343.795L360.728 342.756L376.569 337.04L376.929 338.04C378.301 341.843 382.493 343.884 388.395 343.884C390.919 343.884 393.263 343.498 394.934 342.772C396.627 342.036 397.347 341.099 397.347 340.084C397.347 339.708 397.26 339.398 397.081 339.115C396.896 338.822 396.578 338.503 396.034 338.175C394.919 337.504 393.032 336.897 390.027 336.375C390.025 336.374 390.024 336.374 390.022 336.374L380.546 334.792ZM193.779 350.702C188.356 345.926 184.922 338.712 184.922 329.001C184.922 319.29 188.357 312.126 193.784 307.402C199.188 302.698 206.465 300.503 214.016 300.503C221.464 300.503 228.713 302.7 234.116 307.402C239.541 312.124 243.004 319.287 243.004 329.001C243.004 338.715 239.542 345.928 234.121 350.702C228.72 355.458 221.47 357.711 214.016 357.711C206.459 357.711 199.182 355.46 193.779 350.702ZM221.27 318.042C219.455 315.966 216.931 315.069 214.016 315.069C211.044 315.069 208.494 315.969 206.667 318.045C204.82 320.144 203.572 323.603 203.572 329.001C203.572 334.354 204.77 337.873 206.601 340.04C208.406 342.176 210.953 343.145 214.016 343.145C217.022 343.145 219.542 342.179 221.336 340.042C223.156 337.875 224.354 334.354 224.354 329.001C224.354 323.603 223.106 320.142 221.27 318.042ZM338.316 316.885C336.456 315.36 333.863 314.541 330.909 314.541C328.043 314.541 325.407 315.264 323.396 316.758C321.653 318.053 320.314 319.974 319.709 322.668H341.377C341.061 320.122 339.932 318.21 338.316 316.885ZM342.45 322.668C341.762 316.606 336.861 313.486 330.909 313.486C325.141 313.486 319.95 316.245 318.619 322.668C318.548 323.01 318.489 323.362 318.44 323.724H342.525C342.514 323.363 342.489 323.011 342.45 322.668ZM185.988 329.001C185.988 347.895 199.309 356.655 214.016 356.655C228.51 356.655 241.938 347.895 241.938 329.001C241.938 310.108 228.51 301.559 214.016 301.559C199.309 301.559 185.988 310.108 185.988 329.001ZM214.016 314.013C220.304 314.013 225.42 317.919 225.42 329.001C225.42 339.978 220.517 344.2 214.016 344.2C207.409 344.2 202.507 339.978 202.507 329.001C202.507 317.919 207.622 314.013 214.016 314.013Z" fill="#111111"/>
<path d="M77.4883 446.079V394.121L453.479 394.121L475.411 446.079H77.4883Z" fill="white"/>
<path d="M100.932 428.522V422.134H103.727C108.61 422.134 112.28 420.95 112.28 416.131C112.28 411.313 108.61 410.129 103.727 410.129H96.4727V428.522H100.932ZM100.932 413.791H103.868C105.929 413.791 107.566 414.204 107.566 416.131C107.566 418.086 105.929 418.527 103.868 418.527H100.932V413.791Z" fill="#111111"/>
<path d="M113.798 421.638C113.798 426.567 117.326 428.852 121.221 428.852C125.06 428.852 128.617 426.567 128.617 421.638C128.617 416.709 125.06 414.479 121.221 414.479C117.326 414.479 113.798 416.709 113.798 421.638ZM121.221 417.728C122.887 417.728 124.242 418.747 124.242 421.638C124.242 424.502 122.943 425.603 121.221 425.603C119.471 425.603 118.173 424.502 118.173 421.638C118.173 418.747 119.528 417.728 121.221 417.728Z" fill="#111111"/>
<path d="M132.801 428.522H137.487L139.491 418.72L141.523 428.522H146.209L149.709 414.865H145.447L143.33 424.116L141.523 414.865H137.459L135.652 424.116L133.535 414.865H129.301L132.801 428.522Z" fill="#111111"/>
<path d="M150.377 421.611C150.377 426.126 153.51 428.852 158.054 428.852C160.341 428.852 162.712 427.888 164.179 425.796L160.764 424.584C160.228 425.19 159.268 425.603 157.941 425.603C156.361 425.603 154.836 424.667 154.695 422.74H165.054C165.337 417.921 162.486 414.479 157.885 414.479C153.792 414.479 150.377 417.26 150.377 421.611ZM157.998 417.591C159.663 417.591 161.018 418.499 161.075 420.261H154.695C154.949 418.389 156.389 417.591 157.998 417.591Z" fill="#111111"/>
<path d="M171.389 428.522V421.638C171.389 419.463 172.518 418.582 174.607 418.582C175.002 418.582 175.312 418.609 175.764 418.664V414.479C173.619 414.369 172.123 415.168 171.248 417.37L170.485 414.865H167.098V428.522H171.389Z" fill="#111111"/>
<path d="M176.867 421.611C176.867 426.126 180 428.852 184.544 428.852C186.831 428.852 189.202 427.888 190.669 425.796L187.254 424.584C186.718 425.19 185.758 425.603 184.431 425.603C182.851 425.603 181.326 424.667 181.185 422.74H191.544C191.827 417.921 188.976 414.479 184.375 414.479C180.282 414.479 176.867 417.26 176.867 421.611ZM184.488 417.591C186.153 417.591 187.508 418.499 187.565 420.261H181.185C181.439 418.389 182.879 417.591 184.488 417.591Z" fill="#111111"/>
<path d="M199.036 428.852C200.56 428.852 202.226 428.246 203.411 426.677L203.976 428.522H208.068C207.673 426.512 207.589 424.557 207.589 423.18V410.129H203.298V416.737C202.395 415.223 200.56 414.479 199.036 414.479C195.423 414.479 192.854 417.123 192.854 421.583C192.854 426.044 195.423 428.852 199.036 428.852ZM200.419 417.728C202.084 417.728 203.496 418.885 203.496 421.666C203.496 424.502 202.084 425.603 200.419 425.603C198.725 425.603 197.314 424.116 197.314 421.583C197.314 419.077 198.725 417.728 200.419 417.728Z" fill="#111111"/>
<path d="M219.444 410.129V428.522H223.198L223.735 426.677C224.638 428.191 226.501 428.852 227.997 428.852C231.61 428.852 234.179 426.044 234.179 421.583C234.179 417.123 231.61 414.479 227.997 414.479C226.501 414.479 224.638 415.223 223.735 416.737V410.129H219.444ZM223.537 421.666C223.537 418.885 224.948 417.728 226.642 417.728C228.307 417.728 229.719 419.077 229.719 421.583C229.719 424.116 228.307 425.603 226.642 425.603C224.948 425.603 223.537 424.502 223.537 421.666Z" fill="#111111"/>
<path d="M234.848 414.865L240.211 428.439L240.07 428.797C239.646 429.843 239.336 429.926 237.529 429.926H236.682V432.955H238.065C241.707 432.955 242.751 431.991 244.106 428.522L249.469 414.865H244.868L242.187 423.4L239.449 414.865H234.848Z" fill="#111111"/>
<path fill-rule="evenodd" clip-rule="evenodd" d="M334.822 435.807H342.058V423.978L354.507 404.655H346.175L338.44 417.749L330.706 404.655H322.371L334.822 423.978V435.807ZM288.168 420.037C288.168 410.913 295.752 403.516 305.107 403.516C314.46 403.516 322.043 410.913 322.043 420.037C322.043 429.162 314.46 436.557 305.107 436.557C295.752 436.557 288.168 429.162 288.168 420.037ZM305.107 430.499C310.328 430.499 314.563 425.815 314.563 420.037C314.563 414.259 310.328 409.574 305.107 409.574C299.884 409.574 295.649 414.259 295.649 420.037C295.649 425.814 299.884 430.499 305.107 430.499ZM276.389 435.807H269.253V410.4H259.297V404.655H286.343V410.4H276.389V435.807ZM426.514 428.798L423.77 435.807H415.437L428.612 404.655H437.492L450.669 435.807H442.334L439.59 428.798L426.514 428.798ZM433.084 412.14H433.022L428.562 423.541H437.542L433.084 412.14ZM407.928 435.807H400.792V410.4H390.836V404.655H417.882V410.4H407.928V435.807ZM354.837 420.037C354.837 410.913 362.421 403.516 371.772 403.516C381.128 403.516 388.711 410.913 388.711 420.037C388.711 429.162 381.128 436.557 371.772 436.557C362.421 436.557 354.837 429.162 354.837 420.037ZM371.772 430.499C376.996 430.499 381.231 425.815 381.231 420.037C381.231 414.259 376.996 409.574 371.772 409.574C366.552 409.574 362.318 414.259 362.318 420.037C362.318 425.814 366.552 430.499 371.772 430.499Z" fill="#FF0022"/>
<path d="M348.375 167.525C348.332 167.635 348.29 167.745 348.247 167.854L349.37 167.9L370.173 114.117H350.464L341.117 144.325L331.573 114.117H311.866L332.526 167.208L333.649 167.255L333.668 167.208L313.419 115.173H330.79L341.128 147.893L351.252 115.173H368.623L348.375 167.525Z" fill="#111111"/>
<path d="M320.346 172.908H323.543C330.364 172.908 331.536 172.591 333.135 168.58L333.649 167.255L332.526 167.208L332.143 168.193L332.142 168.197C331.36 170.158 330.801 170.88 329.872 171.28C329.353 171.504 328.65 171.656 327.604 171.744C326.56 171.832 325.25 171.852 323.543 171.852H319.622L314.138 185.573H325.568C332.506 185.573 337.232 184.65 340.864 181.84C344.462 179.058 346.811 174.554 349.37 167.902L348.247 167.856C343.192 180.885 339.201 184.518 325.568 184.518H315.706L320.346 172.908Z" fill="#111111"/>
<path fill-rule="evenodd" clip-rule="evenodd" d="M298.111 115.018C295.694 116.524 293.72 118.748 292.155 121.747L289.869 114.117H275.22V168.58H293.55V141.138C293.55 137.134 294.571 134.54 296.327 132.926C298.098 131.298 300.818 130.477 304.633 130.477C306.063 130.477 307.186 130.577 308.871 130.786L310.069 130.934V112.694L309.059 112.641C304.864 112.422 301.189 113.1 298.111 115.018ZM309.003 113.695C301.414 113.299 295.977 115.962 292.604 123.245C292.377 123.735 292.16 124.246 291.951 124.778L289.074 115.173H276.285V167.525H292.484V141.138C292.484 132.799 296.747 129.422 304.633 129.422C305.794 129.422 306.762 129.486 307.937 129.613C308.272 129.65 308.624 129.692 309.003 129.738V113.695Z" fill="#111111"/>
<path fill-rule="evenodd" clip-rule="evenodd" d="M266.145 157.671L266.92 156.548L252.044 151.191L251.563 151.741C249.797 153.767 246.51 155.281 241.713 155.281C238.936 155.281 236.254 154.446 234.221 152.801C232.435 151.357 231.102 149.252 230.65 146.415H269.575L269.633 145.42C270.178 135.972 267.702 127.776 262.766 121.924C257.819 116.058 250.476 112.64 241.5 112.64C225.532 112.64 212.086 123.702 212.086 141.032C212.086 149.935 215.135 157.167 220.479 162.17C225.815 167.166 233.343 169.847 242.139 169.847C251.067 169.847 260.375 166.024 266.145 157.671ZM229.457 145.36C229.483 145.72 229.521 146.072 229.572 146.415C230.552 153.09 236.036 156.337 241.713 156.337C246.722 156.337 250.345 154.753 252.37 152.431L265.265 157.075C265.055 157.379 264.841 157.676 264.622 157.967C259.047 165.371 250.445 168.791 242.139 168.791C224.981 168.791 213.151 158.342 213.151 141.032C213.151 124.355 226.047 113.695 241.5 113.695C258.871 113.695 269.634 126.889 268.569 145.36H229.457Z" fill="#111111"/>
<path fill-rule="evenodd" clip-rule="evenodd" d="M241.926 125.622C247.877 125.622 252.779 128.743 253.466 134.805C253.505 135.147 253.531 135.499 253.542 135.86H229.457C229.505 135.498 229.565 135.146 229.636 134.805C230.966 128.382 236.158 125.622 241.926 125.622ZM249.332 129.021C247.473 127.496 244.88 126.677 241.926 126.677C239.06 126.677 236.424 127.4 234.412 128.894C232.669 130.189 231.33 132.11 230.725 134.805H252.393C252.077 132.258 250.948 130.346 249.332 129.021Z" fill="#111111"/>
<path fill-rule="evenodd" clip-rule="evenodd" d="M154.027 114.117L173.65 168.58H193.375L213.11 114.117H194.081L183.567 147.321L173.053 114.117H154.027ZM174.402 167.525H192.625L211.595 115.173H194.863L183.567 150.848L172.27 115.173H155.538L174.402 167.525Z" fill="#111111"/>
<path fill-rule="evenodd" clip-rule="evenodd" d="M116.312 122.878V112.745H148.662L154.696 95.9629H97.3418V168.58H154.696L148.662 151.798H116.312V139.66H139.438V122.878H116.312ZM115.246 111.69H147.911L153.185 97.0184H98.4075V167.525H153.185L147.911 152.853H115.246V138.604H138.372V123.933H115.246V111.69Z" fill="#111111"/>
<path opacity="0.2" fill-rule="evenodd" clip-rule="evenodd" d="M305.25 77H248.25V4H305.25L299.761 19.1901H265.771V31.8668H289.836V47.0569H265.771V61.8099H299.761L305.25 77ZM305.25 519.199H248.25V446.199H305.25L299.761 461.39H265.771V474.066H289.836V489.256H265.771V504.009H299.761L305.25 519.199ZM477.002 233.1V290.1L492.192 284.611V250.621H506.945V274.685H522.135V250.621H534.812V284.611L550.002 290.1V233.1H477.002ZM4.48828 290.1L4.48828 233.1H77.4883V290.1L62.2982 284.611V250.621H49.6215V274.685H34.4314L34.4314 250.621H19.6784L19.6784 284.611L4.48828 290.1Z" fill="#FAF9FE"/>
<rect x="2.48828" y="2" width="549.514" height="519.199" stroke="#99E880" stroke-width="4" stroke-linejoin="round" stroke-dasharray="8 8"/>
</svg>
