<svg width="701" height="153" viewBox="0 0 701 153" fill="none" xmlns="http://www.w3.org/2000/svg">
<g clip-path="url(#clip0_111_22314)">
<path d="M0.733398 94.6695V0.900269L660.318 0.900312L700.214 94.6695H0.733398Z" fill="white"/>
<path d="M18.9609 71.0727H58.4994L54.692 60.3804H31.1148V49.9958H47.8071V39.3035H31.1148V30.3804H54.692L58.4994 19.6881H18.9609V71.0727Z" fill="#111111"/>
<path d="M73.8131 71.0727H86.967L100.659 32.9189H88.5823L80.4285 58.9189L72.2746 32.9189H60.1977L73.8131 71.0727Z" fill="#111111"/>
<path d="M101.782 51.765C101.782 64.3804 110.321 71.9958 122.706 71.9958C128.936 71.9958 135.398 69.3035 139.398 63.4573L130.09 60.0727C128.629 61.765 126.013 62.9189 122.398 62.9189C118.09 62.9189 113.936 60.3035 113.552 54.9189H141.782C142.552 41.4573 134.782 31.842 122.244 31.842C111.09 31.842 101.782 39.6112 101.782 51.765ZM122.552 40.5343C127.09 40.5343 130.782 43.0727 130.936 47.9958H113.552C114.244 42.765 118.167 40.5343 122.552 40.5343Z" fill="#111111"/>
<path d="M159.044 71.0727V51.842C159.044 45.765 162.121 43.3035 167.814 43.3035C168.891 43.3035 169.737 43.3804 170.968 43.5343V31.842C165.121 31.5343 161.044 33.765 158.66 39.9189L156.583 32.9189H147.352V71.0727H159.044Z" fill="#111111"/>
<path d="M174.155 32.9189L188.77 70.842L188.386 71.842C187.232 74.765 186.386 74.9958 181.463 74.9958H179.155L175.806 83.4573H182.924C192.847 83.4573 195.694 80.765 199.386 71.0727L214.001 32.9189H201.463L194.155 56.765L186.694 32.9189H174.155Z" fill="#111111"/>
<path d="M199.386 71.0727C199.355 71.1532 199.324 71.2333 199.294 71.3129L200.104 71.3465L215.119 32.1496H200.894L194.147 54.1646L187.259 32.1496H173.034L187.946 70.8422L188.757 70.8759L188.77 70.8419L174.155 32.9188H186.693L194.155 56.765L201.462 32.9188H214.001L199.386 71.0727Z" fill="#111111"/>
<path d="M179.155 74.9958H181.462C186.386 74.9958 187.232 74.765 188.386 71.8419L188.757 70.8759L187.946 70.8422L187.67 71.5595L187.669 71.5628C187.104 72.9919 186.701 73.5177 186.03 73.8098C185.656 73.9727 185.148 74.0832 184.394 74.1476C183.64 74.2118 182.694 74.2265 181.462 74.2265H178.632L174.674 84.2265H182.924C187.932 84.2265 191.343 83.5535 193.965 81.5059C196.562 79.478 198.257 76.1958 200.104 71.3478L199.293 71.3141C195.645 80.8098 192.764 83.4573 182.924 83.4573H175.805L179.155 74.9958Z" fill="#111111"/>
<path fill-rule="evenodd" clip-rule="evenodd" d="M163.106 32.8062C161.361 33.9038 159.936 35.5246 158.807 37.7103L157.157 32.1496H146.583V71.8419H159.813V51.8419C159.813 48.9242 160.551 47.0338 161.818 45.8575C163.096 44.6705 165.06 44.0727 167.813 44.0727C168.845 44.0727 169.656 44.1455 170.872 44.2975L171.736 44.4056V31.1121L171.008 31.0737C167.98 30.9144 165.327 31.4085 163.106 32.8062ZM170.967 31.8419C165.49 31.5536 161.565 33.4939 159.131 38.8019C158.967 39.1588 158.81 39.531 158.66 39.9188L156.583 32.9188H147.352V71.0727H159.044V51.8419C159.044 45.765 162.121 43.3034 167.813 43.3034C168.651 43.3034 169.35 43.35 170.198 43.4432C170.44 43.4697 170.694 43.5001 170.967 43.5342V31.8419Z" fill="#111111"/>
<path fill-rule="evenodd" clip-rule="evenodd" d="M140.032 63.8917L140.592 63.0733L129.854 59.1685L129.508 59.5699C128.233 61.0459 125.86 62.1496 122.398 62.1496C120.393 62.1496 118.457 61.5407 116.99 60.3422C115.701 59.2898 114.739 57.7557 114.412 55.6881H142.509L142.55 54.9627C142.944 48.0774 141.156 42.1042 137.594 37.8392C134.023 33.564 128.723 31.0727 122.244 31.0727C110.718 31.0727 101.013 39.1349 101.013 51.765C101.013 58.2535 103.214 63.5243 107.071 67.1702C110.923 70.8109 116.356 72.765 122.705 72.765C129.15 72.765 135.868 69.9786 140.032 63.8917ZM113.551 54.9188C113.57 55.1818 113.598 55.4382 113.634 55.6881C114.342 60.5527 118.3 62.9188 122.398 62.9188C126.013 62.9188 128.628 61.765 130.09 60.0727L139.398 63.4573C139.246 63.6784 139.091 63.8949 138.933 64.107C134.909 69.5032 128.7 71.9958 122.705 71.9958C110.321 71.9958 101.782 64.3804 101.782 51.765C101.782 39.6111 111.09 31.8419 122.244 31.8419C134.782 31.8419 142.551 41.4573 141.782 54.9188H113.551Z" fill="#111111"/>
<path fill-rule="evenodd" clip-rule="evenodd" d="M122.551 40.5342C126.847 40.5342 130.385 42.8085 130.881 47.2265C130.909 47.4761 130.928 47.7325 130.936 47.9958H113.551C113.586 47.7317 113.63 47.4754 113.681 47.2265C114.641 42.5455 118.388 40.5342 122.551 40.5342ZM127.897 43.0113C126.555 41.8999 124.684 41.3034 122.551 41.3034C120.483 41.3034 118.58 41.83 117.128 42.9188C115.87 43.8624 114.904 45.2627 114.467 47.2265H130.107C129.879 45.3704 129.064 43.9772 127.897 43.0113Z" fill="#111111"/>
<path fill-rule="evenodd" clip-rule="evenodd" d="M59.1062 32.1496L73.2706 71.8419H87.5079L101.752 32.1496H88.0171L80.4282 56.3482L72.8393 32.1496H59.1062ZM73.8128 71.0727H86.9667L100.659 32.9188H88.582L80.4282 58.9188L72.2743 32.9188H60.1974L73.8128 71.0727Z" fill="#111111"/>
<path fill-rule="evenodd" clip-rule="evenodd" d="M31.8837 38.5342V31.1496H55.2344L59.5896 18.9188H18.1914V71.8419H59.5896L55.2344 59.6111H31.8837V50.765H48.576V38.5342H31.8837ZM31.1145 30.3804H54.6917L58.4991 19.6881H18.9606V71.0727H58.4991L54.6917 60.3804H31.1145V49.9957H47.8068V39.3034H31.1145V30.3804Z" fill="#111111"/>
<path d="M231.422 19.8672V71.2518H254.73C267.191 71.2518 275.499 66.9441 275.499 55.4057C275.499 49.1749 272.114 45.5595 267.345 43.9441C271.191 41.5595 273.422 37.9441 273.422 33.2518C273.422 22.4826 265.037 19.8672 253.883 19.8672H231.422ZM254.806 49.5595C260.037 49.5595 262.653 51.7133 262.653 55.3287C262.653 58.9441 260.037 61.1749 254.806 61.1749H243.576V49.5595H254.806ZM254.268 29.7903C258.345 29.7903 260.806 31.7133 260.806 34.9441C260.806 38.098 258.345 40.1749 254.268 40.1749H243.576V29.7903H254.268Z" fill="#111111"/>
<path d="M279.688 52.021C279.688 65.7903 289.303 72.1749 299.919 72.1749C310.38 72.1749 320.073 65.7903 320.073 52.021C320.073 38.2518 310.38 32.021 299.919 32.021C289.303 32.021 279.688 38.2518 279.688 52.021ZM299.919 41.098C304.457 41.098 308.15 43.9441 308.15 52.021C308.15 60.021 304.611 63.098 299.919 63.098C295.15 63.098 291.611 60.021 291.611 52.021C291.611 43.9441 295.303 41.098 299.919 41.098Z" fill="#111111"/>
<path d="M340.63 72.1749C344.784 72.1749 349.322 70.4826 352.553 66.098L354.091 71.2518H365.245C364.168 65.6364 363.938 60.1749 363.938 56.3287V19.8672H352.245V38.3287C349.784 34.098 344.784 32.021 340.63 32.021C330.784 32.021 323.784 39.4057 323.784 51.8672C323.784 64.3287 330.784 72.1749 340.63 72.1749ZM344.399 41.098C348.938 41.098 352.784 44.3287 352.784 52.098C352.784 60.021 348.938 63.098 344.399 63.098C339.784 63.098 335.938 58.9441 335.938 51.8672C335.938 44.8672 339.784 41.098 344.399 41.098Z" fill="#111111"/>
<path d="M367.761 33.098L382.376 71.021L381.992 72.021C380.838 74.9441 379.992 75.1749 375.069 75.1749H372.761L369.248 83.6364H376.53C386.453 83.6364 389.299 80.9441 392.992 71.2518L407.607 33.098H395.069L387.761 56.9441L380.299 33.098H367.761Z" fill="#111111"/>
<path d="M392.991 71.2518C392.961 71.3323 392.93 71.4124 392.899 71.492L393.71 71.5256L408.725 32.3287H394.499L387.753 54.3437L380.864 32.3287H366.64L381.552 71.0213L382.363 71.055L382.376 71.021L367.76 33.0979H380.299L387.76 56.9441L395.068 33.0979H407.607L392.991 71.2518Z" fill="#111111"/>
<path d="M372.76 75.1748H375.068C379.991 75.1748 380.837 74.9441 381.991 72.021L382.363 71.055L381.552 71.0213L381.276 71.7385L381.274 71.7419C380.71 73.171 380.306 73.6968 379.636 73.9888C379.262 74.1518 378.754 74.2623 377.999 74.3266C377.246 74.3909 376.3 74.4056 375.068 74.4056H372.247L368.095 84.4056H376.53C381.538 84.4056 384.948 83.7325 387.57 81.685C390.167 79.6571 391.863 76.3749 393.71 71.5269L392.899 71.4932C389.251 80.9888 386.37 83.6364 376.53 83.6364H369.248L372.76 75.1748Z" fill="#111111"/>
<path fill-rule="evenodd" clip-rule="evenodd" d="M351.476 35.9718C348.629 32.7889 344.3 31.2517 340.63 31.2517C335.503 31.2517 331.074 33.1804 327.935 36.7642C324.805 40.3392 323.014 45.4956 323.014 51.8671C323.014 58.238 324.804 63.5041 327.927 67.1912C331.059 70.8884 335.487 72.9441 340.63 72.9441C344.607 72.9441 348.93 71.4635 352.233 67.7182L353.518 72.021H366.176L366 71.1069C364.936 65.5569 364.706 60.1482 364.706 56.3287V19.0979H351.476V35.9718ZM351.972 66.841C352.17 66.6024 352.363 66.3548 352.553 66.0979L354.091 71.2518H365.245C365.196 70.995 365.148 70.7385 365.102 70.4825C364.147 65.1403 363.937 59.999 363.937 56.3287V19.8671H352.245V38.3287C352.011 37.9258 351.753 37.5425 351.476 37.1787C348.839 33.7212 344.388 32.021 340.63 32.021C330.783 32.021 323.783 39.4056 323.783 51.8671C323.783 64.3287 330.783 72.1748 340.63 72.1748C344.54 72.1748 348.791 70.675 351.972 66.841Z" fill="#111111"/>
<path fill-rule="evenodd" clip-rule="evenodd" d="M352.783 52.0979C352.783 44.3287 348.937 41.0979 344.399 41.0979C339.783 41.0979 335.937 44.8671 335.937 51.8671C335.937 58.9441 339.783 63.0979 344.399 63.0979C348.937 63.0979 352.783 60.021 352.783 52.0979ZM349.71 44.1858C348.347 42.6008 346.477 41.8671 344.399 41.8671C342.312 41.8671 340.413 42.7136 339.024 44.3545C337.629 46.0026 336.706 48.505 336.706 51.8671C336.706 58.6883 340.359 62.3287 344.399 62.3287C346.488 62.3287 348.355 61.6264 349.712 60.0645C351.08 58.4899 352.014 55.944 352.014 52.0979C352.014 48.3326 351.082 45.7829 349.71 44.1858Z" fill="#111111"/>
<path fill-rule="evenodd" clip-rule="evenodd" d="M278.919 52.021C278.919 59.0982 281.397 64.3559 285.311 67.8362C289.211 71.3036 294.464 72.9441 299.919 72.9441C305.299 72.9441 310.532 71.3024 314.43 67.8362C318.343 64.357 320.842 59.1001 320.842 52.021C320.842 44.9413 318.342 39.7211 314.426 36.2797C310.527 32.8524 305.294 31.2517 299.919 31.2517C294.468 31.2517 289.216 32.8512 285.315 36.2797C281.398 39.7222 278.919 44.9432 278.919 52.021ZM299.919 72.1748C289.303 72.1748 279.688 65.7902 279.688 52.021C279.688 38.2517 289.303 32.021 299.919 32.021C310.38 32.021 320.072 38.2517 320.072 52.021C320.072 65.7902 310.38 72.1748 299.919 72.1748Z" fill="#111111"/>
<path fill-rule="evenodd" clip-rule="evenodd" d="M299.919 41.0979C304.457 41.0979 308.149 43.9441 308.149 52.021C308.149 60.021 304.611 63.0979 299.919 63.0979C295.149 63.0979 291.611 60.021 291.611 52.021C291.611 43.9441 295.303 41.0979 299.919 41.0979ZM305.154 44.0341C303.844 42.521 302.022 41.8671 299.919 41.8671C297.773 41.8671 295.932 42.5232 294.614 44.036C293.281 45.5656 292.38 48.0863 292.38 52.021C292.38 55.9223 293.245 58.4869 294.566 60.0657C295.869 61.6226 297.707 62.3287 299.919 62.3287C302.088 62.3287 303.907 61.625 305.202 60.0676C306.516 58.488 307.38 55.9221 307.38 52.021C307.38 48.0866 306.48 45.5645 305.154 44.0341Z" fill="#111111"/>
<path fill-rule="evenodd" clip-rule="evenodd" d="M268.217 21.8536C264.544 19.7487 259.488 19.0979 253.883 19.0979H230.652V72.021H254.729C261.025 72.021 266.403 70.9372 270.225 68.2878C274.099 65.6029 276.268 61.3859 276.268 55.4056C276.268 52.1442 275.379 49.5126 273.821 47.4766C272.562 45.8318 270.893 44.6107 268.978 43.7567C272.282 41.2577 274.191 37.7052 274.191 33.2517C274.191 30.4594 273.647 28.1441 272.612 26.2486C271.576 24.3493 270.07 22.9153 268.217 21.8536ZM267.345 43.9441C267.65 44.0476 267.95 44.1593 268.244 44.2794C272.534 46.0335 275.498 49.5741 275.498 55.4056C275.498 66.9441 267.191 71.2518 254.729 71.2518H231.422V19.8671H253.883C265.037 19.8671 273.422 22.4825 273.422 33.2517C273.422 37.6086 271.498 41.0369 268.145 43.4137C267.886 43.5968 267.62 43.7736 267.345 43.9441Z" fill="#111111"/>
<path fill-rule="evenodd" clip-rule="evenodd" d="M254.268 29.7902C258.345 29.7902 260.806 31.7133 260.806 34.9441C260.806 38.0979 258.345 40.1748 254.268 40.1748H243.575V29.7902H254.268ZM258.59 31.7603C257.643 31.0155 256.196 30.5594 254.268 30.5594H244.345V39.4056H254.268C256.183 39.4056 257.63 38.9174 258.581 38.145C259.515 37.3861 260.037 36.3032 260.037 34.9441C260.037 33.544 259.514 32.4867 258.59 31.7603Z" fill="#111111"/>
<path fill-rule="evenodd" clip-rule="evenodd" d="M254.806 49.5594C260.037 49.5594 262.652 51.7133 262.652 55.3287C262.652 58.9441 260.037 61.1748 254.806 61.1748H243.575V49.5594H254.806ZM260.226 51.7015C259.104 50.8514 257.333 50.3287 254.806 50.3287H244.345V60.4056H254.806C257.328 60.4056 259.098 59.8658 260.221 58.9986C261.314 58.1544 261.883 56.9323 261.883 55.3287C261.883 53.7265 261.316 52.5264 260.226 51.7015Z" fill="#111111"/>
<path d="M424.857 19.6881V71.0727H436.627V30.6881L448.78 71.0727H458.78L471.011 30.6881V71.0727H482.857V19.6881H464.627L453.78 56.5343L443.088 19.6881H424.857Z" fill="#111111"/>
<path d="M488.073 51.842C488.073 65.6112 497.688 71.9958 508.303 71.9958C518.765 71.9958 528.457 65.6112 528.457 51.842C528.457 38.0727 518.765 31.842 508.303 31.842C497.688 31.842 488.073 38.0727 488.073 51.842ZM508.303 40.9189C512.842 40.9189 516.534 43.765 516.534 51.842C516.534 59.842 512.996 62.9189 508.303 62.9189C503.534 62.9189 499.996 59.842 499.996 51.842C499.996 43.765 503.688 40.9189 508.303 40.9189Z" fill="#111111"/>
<path d="M543.937 71.0727H557.091L570.783 32.9189H558.707L550.553 58.9189L542.399 32.9189H530.322L543.937 71.0727Z" fill="#111111"/>
<path d="M571.907 51.765C571.907 64.3804 580.445 71.9958 592.83 71.9958C599.061 71.9958 605.522 69.3035 609.522 63.4574L600.214 60.0727C598.753 61.765 596.137 62.9189 592.522 62.9189C588.214 62.9189 584.061 60.3035 583.676 54.9189H611.907C612.676 41.4573 604.907 31.842 592.368 31.842C581.214 31.842 571.907 39.6112 571.907 51.765ZM592.676 40.5343C597.214 40.5343 600.907 43.0727 601.061 47.9958H583.676C584.368 42.765 588.291 40.5343 592.676 40.5343Z" fill="#111111"/>
<path d="M633.938 71.9958C644.169 71.9958 652.63 67.6112 652.63 58.6112C652.63 52.2266 648.323 49.5343 639.092 47.842L632.015 46.5343C628.63 45.9189 627.323 44.9958 627.323 43.4573C627.323 41.4573 629.476 40.3804 633.63 40.3804C637.092 40.3804 640.015 41.1497 640.784 43.9189L650.63 40.3035C647.784 34.3035 641.015 31.842 633.707 31.842C624.246 31.842 616.169 35.9189 616.169 43.9189C616.169 50.3035 621.246 54.0727 628.63 55.3035L635.476 56.4574C639.861 57.2266 641.399 58.3035 641.399 59.9189C641.399 62.3035 637.938 63.4574 634.169 63.4574C629.784 63.4574 626.323 61.9189 625.169 58.6881L615.246 62.3035C618.169 68.6881 625.015 71.9958 633.938 71.9958Z" fill="#111111"/>
<path fill-rule="evenodd" clip-rule="evenodd" d="M424.088 18.9188H443.666L453.785 53.7922L464.051 18.9188H483.626V71.8419H470.242V35.8818L459.351 71.8419H448.208L437.396 35.9133V71.8419H424.088V18.9188ZM436.626 30.6881L448.78 71.0727H458.78L471.011 30.6881V71.0727H482.857V19.6881H464.626L453.78 56.5342L443.088 19.6881H424.857V71.0727H436.626V30.6881ZM543.395 71.8419L529.23 32.1496H542.964L550.552 56.3482L558.141 32.1496H571.876L557.632 71.8419H543.395ZM550.552 58.9188L542.399 32.9188H530.322L543.937 71.0727H557.091L570.783 32.9188H558.706L550.552 58.9188ZM610.717 63.0733L610.157 63.8917C605.992 69.9786 599.274 72.765 592.829 72.765C586.48 72.765 581.047 70.8109 577.195 67.1702C573.338 63.5243 571.137 58.2535 571.137 51.765C571.137 39.1349 580.843 31.0727 592.368 31.0727C598.847 31.0727 604.147 33.564 607.718 37.8392C611.28 42.1042 613.068 48.0774 612.674 54.9627L612.633 55.6881H584.537C584.863 57.7557 585.825 59.2898 587.114 60.3422C588.582 61.5407 590.518 62.1496 592.522 62.1496C595.984 62.1496 598.357 61.0459 599.632 59.5699L599.979 59.1685L610.717 63.0733ZM583.759 55.6881C583.722 55.4382 583.694 55.1818 583.676 54.9188H611.906C612.676 41.4573 604.906 31.8419 592.368 31.8419C581.214 31.8419 571.906 39.6111 571.906 51.765C571.906 64.3804 580.445 71.9958 592.829 71.9958C598.825 71.9958 605.033 69.5032 609.058 64.107C609.216 63.8949 609.371 63.6784 609.522 63.4573L600.214 60.0727C598.753 61.765 596.137 62.9188 592.522 62.9188C588.424 62.9188 584.466 60.5527 583.759 55.6881ZM632.015 46.5342L639.091 47.8419C648.322 49.5342 652.63 52.2265 652.63 58.6111C652.63 67.6111 644.168 71.9958 633.938 71.9958C625.344 71.9958 618.677 68.9279 615.585 62.9983C615.467 62.7709 615.353 62.5393 615.245 62.3034L625.168 58.6881C625.178 58.7138 625.187 58.7394 625.196 58.7649C626.377 61.9432 629.819 63.4573 634.168 63.4573C637.938 63.4573 641.399 62.3034 641.399 59.9188C641.399 58.3034 639.861 57.2265 635.476 56.4573L628.63 55.3034C621.245 54.0727 616.168 50.3034 616.168 43.9188C616.168 35.9188 624.245 31.8419 633.707 31.8419C640.728 31.8419 647.252 34.1141 650.277 39.6136C650.401 39.8381 650.518 40.0681 650.63 40.3034L640.784 43.9188C640.716 43.6764 640.633 43.4492 640.533 43.2366C639.499 41.0208 636.788 40.3804 633.63 40.3804C629.476 40.3804 627.322 41.4573 627.322 43.4573C627.322 44.9958 628.63 45.9188 632.015 46.5342ZM628.503 56.0622C628.503 56.0622 628.503 56.0621 628.503 56.0621C624.725 55.4323 621.461 54.1422 619.127 52.1259C616.771 50.0904 615.399 47.342 615.399 43.9188C615.399 39.6132 617.591 36.3661 620.979 34.2297C624.34 32.1104 628.88 31.0727 633.707 31.0727C641.135 31.0727 648.29 33.5761 651.325 39.9738L651.686 40.7351L640.266 44.9284L640.043 44.1247C639.732 43.0056 639.001 42.2829 637.914 41.8184C636.795 41.3401 635.32 41.1496 633.63 41.1496C631.597 41.1496 630.159 41.4167 629.257 41.8593C628.815 42.0763 628.53 42.3221 628.354 42.5731C628.184 42.8174 628.091 43.1037 628.091 43.4573C628.091 43.9462 628.27 44.3312 628.826 44.7019C629.44 45.1115 630.485 45.4742 632.152 45.7774L632.154 45.7778L639.23 47.0853C639.23 47.0853 639.231 47.0854 639.231 47.0854C643.867 47.9354 647.403 49.0559 649.785 50.8528C652.232 52.6986 653.399 55.2085 653.399 58.6111C653.399 63.3949 651.132 66.9727 647.542 69.3221C643.983 71.6508 639.148 72.765 633.938 72.765C624.845 72.765 617.641 69.3838 614.546 62.6237L614.199 61.866L625.632 57.7003L625.893 58.4293C626.883 61.2005 629.908 62.6881 634.168 62.6881C635.99 62.6881 637.682 62.4071 638.888 61.8779C640.111 61.3414 640.63 60.6588 640.63 59.9188C640.63 59.645 640.567 59.4188 640.438 59.2126C640.305 58.9992 640.075 58.7668 639.682 58.528C638.877 58.0385 637.516 57.5963 635.346 57.2155C635.345 57.2153 635.344 57.2151 635.343 57.215L628.503 56.0622ZM493.696 67.6571C489.782 64.1768 487.303 58.9191 487.303 51.8419C487.303 44.7642 489.782 39.5431 493.699 36.1006C497.6 32.6721 502.853 31.0727 508.303 31.0727C513.679 31.0727 518.911 32.6733 522.811 36.1006C526.726 39.542 529.226 44.7623 529.226 51.8419C529.226 58.921 526.727 64.1779 522.814 67.6571C518.916 71.1233 513.683 72.765 508.303 72.765C502.848 72.765 497.595 71.1245 493.696 67.6571ZM513.539 43.8551C512.229 42.3419 510.407 41.6881 508.303 41.6881C506.157 41.6881 504.317 42.3441 502.998 43.8569C501.665 45.3866 500.765 47.9073 500.765 51.8419C500.765 55.7432 501.629 58.3078 502.951 59.8867C504.254 61.4435 506.092 62.1496 508.303 62.1496C510.472 62.1496 512.292 61.4459 513.587 59.8886C514.9 58.3089 515.765 55.743 515.765 51.8419C515.765 47.9075 514.864 45.3854 513.539 43.8551ZM598.022 43.0113C596.679 41.8999 594.808 41.3034 592.676 41.3034C590.607 41.3034 588.704 41.83 587.253 42.9188C585.994 43.8624 585.028 45.2627 584.591 47.2265H600.231C600.003 45.3704 599.188 43.9772 598.022 43.0113ZM601.006 47.2265C600.509 42.8085 596.971 40.5342 592.676 40.5342C588.512 40.5342 584.765 42.5455 583.805 47.2265C583.754 47.4754 583.711 47.7317 583.676 47.9958H601.06C601.052 47.7325 601.034 47.4761 601.006 47.2265ZM488.072 51.8419C488.072 65.6111 497.688 71.9958 508.303 71.9958C518.765 71.9958 528.457 65.6111 528.457 51.8419C528.457 38.0727 518.765 31.8419 508.303 31.8419C497.688 31.8419 488.072 38.0727 488.072 51.8419ZM508.303 40.9188C512.841 40.9188 516.534 43.765 516.534 51.8419C516.534 59.8419 512.995 62.9188 508.303 62.9188C503.534 62.9188 499.995 59.8419 499.995 51.8419C499.995 43.765 503.688 40.9188 508.303 40.9188Z" fill="#111111"/>
<path d="M657.96 64.4573C657.96 68.6111 661.345 71.9957 665.498 71.9957C669.575 71.9957 672.96 68.6111 672.96 64.4573C672.96 60.3034 669.575 56.9957 665.498 56.9957C661.345 56.9957 657.96 60.3034 657.96 64.4573Z" fill="#5A16CA"/>
<path d="M0.535156 152.299V106.756L333.743 106.756L352.365 152.299H0.535156Z" fill="white"/>
<path d="M21.179 138.207V131.673H23.9034C28.6641 131.673 32.2416 130.462 32.2416 125.533C32.2416 120.604 28.6641 119.393 23.9034 119.393H16.8311V138.207H21.179ZM21.179 123.139H24.041C26.0498 123.139 27.6459 123.561 27.6459 125.533C27.6459 127.532 26.0498 127.983 24.041 127.983H21.179V123.139Z" fill="#111111"/>
<path d="M33.7218 131.166C33.7218 136.207 37.1616 138.545 40.9592 138.545C44.7018 138.545 48.1691 136.207 48.1691 131.166C48.1691 126.124 44.7018 123.843 40.9592 123.843C37.1616 123.843 33.7218 126.124 33.7218 131.166ZM40.9592 127.166C42.5828 127.166 43.9037 128.208 43.9037 131.166C43.9037 134.095 42.6379 135.222 40.9592 135.222C39.253 135.222 37.9872 134.095 37.9872 131.166C37.9872 128.208 39.3081 127.166 40.9592 127.166Z" fill="#111111"/>
<path d="M52.2486 138.207H56.8167L58.7705 128.18L60.7519 138.207H65.32L68.7323 124.237H64.577L62.5131 133.701L60.7519 124.237H56.7892L55.028 133.701L52.9641 124.237H48.8362L52.2486 138.207Z" fill="#111111"/>
<path d="M69.3833 131.138C69.3833 135.757 72.4379 138.545 76.8684 138.545C79.0974 138.545 81.409 137.559 82.84 135.419L79.5102 134.18C78.9874 134.799 78.0517 135.222 76.7583 135.222C75.2173 135.222 73.7313 134.264 73.5937 132.292H83.6931C83.9683 127.363 81.1889 123.843 76.7033 123.843C72.7131 123.843 69.3833 126.687 69.3833 131.138ZM76.8134 127.025C78.437 127.025 79.7579 127.955 79.8129 129.758H73.5937C73.8413 127.842 75.2448 127.025 76.8134 127.025Z" fill="#111111"/>
<path d="M89.8684 138.207V131.166C89.8684 128.941 90.9692 128.039 93.0056 128.039C93.3909 128.039 93.6936 128.068 94.1339 128.124V123.843C92.0424 123.73 90.5839 124.547 89.7309 126.8L88.9878 124.237H85.6856V138.207H89.8684Z" fill="#111111"/>
<path d="M95.209 131.138C95.209 135.757 98.2636 138.545 102.694 138.545C104.923 138.545 107.235 137.559 108.666 135.419L105.336 134.18C104.813 134.799 103.877 135.222 102.584 135.222C101.043 135.222 99.557 134.264 99.4194 132.292H109.519C109.794 127.363 107.015 123.843 102.529 123.843C98.5388 123.843 95.209 126.687 95.209 131.138ZM102.639 127.025C104.263 127.025 105.584 127.955 105.639 129.758H99.4194C99.6671 127.842 101.071 127.025 102.639 127.025Z" fill="#111111"/>
<path d="M116.822 138.545C118.308 138.545 119.932 137.926 121.088 136.32L121.638 138.207H125.628C125.243 136.151 125.161 134.151 125.161 132.743V119.393H120.978V126.152C120.097 124.603 118.308 123.843 116.822 123.843C113.3 123.843 110.796 126.547 110.796 131.109C110.796 135.672 113.3 138.545 116.822 138.545ZM118.171 127.166C119.794 127.166 121.17 128.349 121.17 131.194C121.17 134.095 119.794 135.222 118.171 135.222C116.52 135.222 115.144 133.701 115.144 131.109C115.144 128.546 116.52 127.166 118.171 127.166Z" fill="#111111"/>
<path d="M136.719 119.393V138.207H140.379L140.902 136.32C141.782 137.869 143.599 138.545 145.057 138.545C148.58 138.545 151.084 135.672 151.084 131.109C151.084 126.547 148.58 123.843 145.057 123.843C143.599 123.843 141.782 124.603 140.902 126.152V119.393H136.719ZM140.709 131.194C140.709 128.349 142.085 127.166 143.736 127.166C145.36 127.166 146.736 128.546 146.736 131.109C146.736 133.701 145.36 135.222 143.736 135.222C142.085 135.222 140.709 134.095 140.709 131.194Z" fill="#111111"/>
<path d="M151.736 124.237L156.965 138.123L156.827 138.489C156.414 139.559 156.111 139.644 154.35 139.644H153.525V142.742H154.873C158.423 142.742 159.441 141.756 160.762 138.207L165.991 124.237H161.505L158.891 132.968L156.222 124.237H151.736Z" fill="#111111"/>
<path fill-rule="evenodd" clip-rule="evenodd" d="M236.93 143.131H242.81V133.047L252.924 116.576H246.155L239.87 127.737L233.587 116.576H226.815L236.93 133.047V143.131ZM199.028 129.687C199.028 121.91 205.189 115.604 212.789 115.604C220.388 115.604 226.549 121.91 226.549 129.687C226.549 137.466 220.388 143.77 212.789 143.77C205.189 143.77 199.028 137.466 199.028 129.687ZM212.789 138.606C217.031 138.606 220.471 134.613 220.471 129.687C220.471 124.762 217.031 120.768 212.789 120.768C208.546 120.768 205.105 124.762 205.105 129.687C205.105 134.612 208.546 138.606 212.789 138.606ZM189.457 143.131H183.66V121.472H175.571V116.576H197.545V121.472H189.457V143.131ZM311.425 137.156L309.195 143.131H302.425L313.129 116.575H320.344L331.049 143.131H324.277L322.048 137.156L311.425 137.156ZM316.763 122.956H316.712L313.088 132.675H320.384L316.763 122.956ZM296.324 143.131H290.527V121.472H282.439V116.576H304.411V121.472H296.324V143.131ZM253.192 129.687C253.192 121.91 259.353 115.604 266.95 115.604C274.552 115.604 280.712 121.91 280.712 129.687C280.712 137.466 274.552 143.77 266.95 143.77C259.353 143.77 253.192 137.466 253.192 129.687ZM266.95 138.606C271.195 138.606 274.635 134.613 274.635 129.687C274.635 124.762 271.195 120.768 266.95 120.768C262.709 120.768 259.27 124.762 259.27 129.687C259.27 134.612 262.709 138.606 266.95 138.606Z" fill="#FF0022"/>
</g>
<defs>
<clipPath id="clip0_111_22314">
<rect width="700" height="151.795" fill="white" transform="translate(0.25 0.602539)"/>
</clipPath>
</defs>
</svg>
