<svg width="563" height="528" viewBox="0 0 563 528" fill="none" xmlns="http://www.w3.org/2000/svg">
<path d="M433.188 164.646H409.648L463.57 25.7699H142.152L151.887 0.746094H0.810547V428.446H561.952L502.894 288.765H380.014L433.188 164.646Z" fill="white"/>
<path d="M485.035 384.529C485.035 392.629 491.635 399.229 499.735 399.229C507.685 399.229 514.285 392.629 514.285 384.529C514.285 376.429 507.685 369.979 499.735 369.979C491.635 369.979 485.035 376.429 485.035 384.529Z" fill="#5A16CA"/>
<path d="M30.4844 130.447H107.584L100.16 109.597H54.1844V89.3471H86.7344V68.4971H54.1844V51.0971H100.16L107.584 30.2471H30.4844V130.447Z" fill="#111111"/>
<path d="M137.446 130.447H163.096L189.796 56.0471H166.246L150.346 106.747L134.446 56.0471H110.896L137.446 130.447Z" fill="#111111"/>
<path d="M191.986 92.7971C191.986 117.397 208.636 132.247 232.786 132.247C244.936 132.247 257.536 126.997 265.336 115.597L247.186 108.997C244.336 112.297 239.236 114.547 232.186 114.547C223.786 114.547 215.686 109.447 214.936 98.9471H269.986C271.486 72.6971 256.336 53.9471 231.886 53.9471C210.136 53.9471 191.986 69.0971 191.986 92.7971ZM232.486 70.8971C241.336 70.8971 248.536 75.8471 248.836 85.4471H214.936C216.286 75.2471 223.936 70.8971 232.486 70.8971Z" fill="#111111"/>
<path d="M303.647 130.447V92.9471C303.647 81.0971 309.647 76.2971 320.747 76.2971C322.847 76.2971 324.497 76.4471 326.897 76.7471V53.9471C315.497 53.3471 307.547 57.6971 302.897 69.6971L298.847 56.0471H280.847V130.447H303.647Z" fill="#111111"/>
<path d="M333.113 56.0471L361.613 129.997L360.863 131.947C358.613 137.647 356.963 138.097 347.363 138.097H342.863L336.332 154.597H350.213C369.563 154.597 375.113 149.347 382.313 130.447L410.813 56.0471H386.363L372.113 102.547L357.563 56.0471H333.113Z" fill="#111111"/>
<path d="M382.313 130.447C382.253 130.604 382.193 130.76 382.134 130.915L383.715 130.981L412.994 54.5471H385.254L372.098 97.4764L358.665 54.5471H330.927L360.006 129.998L361.587 130.063L361.613 129.997L333.113 56.0471H357.563L372.113 102.547L386.363 56.0471H410.813L382.313 130.447Z" fill="#111111"/>
<path d="M342.863 138.097H347.363C356.963 138.097 358.613 137.647 360.863 131.947L361.587 130.063L360.006 129.998L359.468 131.396L359.465 131.403C358.364 134.19 357.577 135.215 356.27 135.784C355.541 136.102 354.551 136.318 353.078 136.443C351.61 136.568 349.765 136.597 347.363 136.597H341.843L334.125 156.097H350.213C359.978 156.097 366.629 154.785 371.742 150.792C376.806 146.837 380.112 140.437 383.714 130.984L382.133 130.918C375.019 149.434 369.401 154.597 350.213 154.597H336.332L342.863 138.097Z" fill="#111111"/>
<path fill-rule="evenodd" clip-rule="evenodd" d="M311.567 55.8274C308.165 57.9677 305.386 61.1283 303.184 65.3905L299.967 54.5471H279.347V131.947H305.147V92.9471C305.147 87.2576 306.585 83.5714 309.055 81.2775C311.548 78.9629 315.378 77.7971 320.747 77.7971C322.759 77.7971 324.341 77.9392 326.711 78.2355L328.397 78.4462V52.5239L326.976 52.4491C321.072 52.1384 315.9 53.102 311.567 55.8274ZM326.897 53.9471C316.216 53.3849 308.563 57.1685 303.816 67.519C303.496 68.2151 303.19 68.9409 302.897 69.6971L298.847 56.0471H280.847V130.447H303.647V92.9471C303.647 81.0971 309.647 76.2971 320.747 76.2971C322.381 76.2971 323.743 76.3879 325.397 76.5695C325.869 76.6213 326.365 76.6805 326.897 76.7471V53.9471Z" fill="#111111"/>
<path fill-rule="evenodd" clip-rule="evenodd" d="M266.574 116.444L267.666 114.848L246.727 107.234L246.051 108.017C243.565 110.895 238.939 113.047 232.186 113.047C228.278 113.047 224.503 111.86 221.641 109.523C219.128 107.47 217.251 104.479 216.615 100.447H271.403L271.484 99.0326C272.251 85.6064 268.766 73.9585 261.819 65.6417C254.855 57.3052 244.52 52.4471 231.886 52.4471C209.412 52.4471 190.486 68.1683 190.486 92.7971C190.486 105.45 194.778 115.728 202.3 122.837C209.811 129.937 220.406 133.747 232.786 133.747C245.353 133.747 258.453 128.314 266.574 116.444ZM214.936 98.9471C214.973 99.4599 215.027 99.9599 215.098 100.447C216.478 109.933 224.197 114.547 232.186 114.547C239.236 114.547 244.336 112.297 247.186 108.997L265.336 115.597C265.041 116.028 264.74 116.45 264.431 116.864C256.584 127.387 244.477 132.247 232.786 132.247C208.636 132.247 191.986 117.397 191.986 92.7971C191.986 69.0971 210.136 53.9471 231.886 53.9471C256.336 53.9471 271.486 72.6971 269.986 98.9471H214.936Z" fill="#111111"/>
<path fill-rule="evenodd" clip-rule="evenodd" d="M232.486 70.8971C240.863 70.8971 247.762 75.3319 248.73 83.9471C248.785 84.4338 248.82 84.9338 248.836 85.4471H214.936C215.004 84.9322 215.089 84.4323 215.188 83.9471C217.061 74.819 224.368 70.8971 232.486 70.8971ZM242.911 75.7274C240.294 73.5601 236.644 72.3971 232.486 72.3971C228.453 72.3971 224.742 73.424 221.911 75.5471C219.458 77.3871 217.573 80.1176 216.722 83.9471H247.22C246.775 80.3277 245.186 77.611 242.911 75.7274Z" fill="#111111"/>
<path fill-rule="evenodd" clip-rule="evenodd" d="M108.768 54.5471L136.389 131.947H164.151L191.928 54.5471H165.144L150.346 101.734L135.548 54.5471H108.768ZM137.446 130.447H163.096L189.796 56.0471H166.246L150.346 106.747L134.446 56.0471H110.896L137.446 130.447Z" fill="#111111"/>
<path fill-rule="evenodd" clip-rule="evenodd" d="M55.6844 66.9971V52.5971H101.218L109.711 28.7471H28.9844V131.947H109.711L101.218 108.097H55.6844V90.8471H88.2344V66.9971H55.6844ZM54.1844 51.0971H100.16L107.584 30.2471H30.4844V130.447H107.584L100.16 109.597H54.1844V89.3471H86.7344V68.4971H54.1844V51.0971Z" fill="#111111"/>
<path d="M30.4844 166.159V266.359H75.9344C100.234 266.359 116.434 257.959 116.434 235.459C116.434 223.309 109.834 216.259 100.534 213.109C108.034 208.459 112.384 201.409 112.384 192.259C112.384 171.259 96.0344 166.159 74.2844 166.159H30.4844ZM76.0844 224.059C86.2844 224.059 91.3844 228.259 91.3844 235.309C91.3844 242.359 86.2844 246.709 76.0844 246.709H54.1844V224.059H76.0844ZM75.0344 185.509C82.9844 185.509 87.7844 189.259 87.7844 195.559C87.7844 201.709 82.9844 205.759 75.0344 205.759H54.1844V185.509H75.0344Z" fill="#111111"/>
<path d="M124.604 228.859C124.604 255.709 143.354 268.159 164.054 268.159C184.454 268.159 203.354 255.709 203.354 228.859C203.354 202.009 184.454 189.859 164.054 189.859C143.354 189.859 124.604 202.009 124.604 228.859ZM164.054 207.559C172.904 207.559 180.104 213.109 180.104 228.859C180.104 244.459 173.204 250.459 164.054 250.459C154.754 250.459 147.854 244.459 147.854 228.859C147.854 213.109 155.054 207.559 164.054 207.559Z" fill="#111111"/>
<path d="M243.44 268.159C251.54 268.159 260.39 264.859 266.69 256.309L269.69 266.359H291.44C289.34 255.409 288.89 244.759 288.89 237.259V166.159H266.09V202.159C261.29 193.909 251.54 189.859 243.44 189.859C224.24 189.859 210.59 204.259 210.59 228.559C210.59 252.859 224.24 268.159 243.44 268.159ZM250.79 207.559C259.64 207.559 267.14 213.859 267.14 229.009C267.14 244.459 259.64 250.459 250.79 250.459C241.79 250.459 234.29 242.359 234.29 228.559C234.29 214.909 241.79 207.559 250.79 207.559Z" fill="#111111"/>
<path d="M296.345 191.959L324.845 265.909L324.095 267.859C321.845 273.559 320.195 274.009 310.595 274.009H306.095L299.245 290.509H313.445C332.795 290.509 338.345 285.259 345.545 266.359L374.045 191.959H349.595L335.345 238.459L320.795 191.959H296.345Z" fill="#111111"/>
<path d="M345.545 266.359C345.485 266.516 345.426 266.672 345.366 266.828L346.947 266.893L376.226 190.459H348.486L335.33 233.388L321.898 190.459H294.16L323.238 265.91L324.82 265.976L324.845 265.909L296.345 191.959H320.795L335.345 238.459L349.595 191.959H374.045L345.545 266.359Z" fill="#111111"/>
<path d="M306.095 274.009H310.595C320.195 274.009 321.845 273.559 324.095 267.859L324.82 265.976L323.238 265.91L322.7 267.308L322.697 267.315C321.597 270.102 320.81 271.127 319.502 271.697C318.773 272.014 317.783 272.23 316.311 272.355C314.842 272.48 312.997 272.509 310.595 272.509H305.094L296.998 292.009H313.445C323.211 292.009 329.862 290.697 334.975 286.704C340.039 282.75 343.345 276.349 346.946 266.896L345.365 266.83C338.252 285.347 332.634 290.509 313.445 290.509H299.245L306.095 274.009Z" fill="#111111"/>
<path fill-rule="evenodd" clip-rule="evenodd" d="M264.59 197.563C259.038 191.357 250.597 188.359 243.44 188.359C233.443 188.359 224.806 192.12 218.686 199.108C212.582 206.08 209.09 216.135 209.09 228.559C209.09 240.982 212.58 251.251 218.67 258.441C224.777 265.651 233.413 269.659 243.44 269.659C251.196 269.659 259.625 266.772 266.068 259.469L268.572 267.859H293.255L292.913 266.077C290.837 255.254 290.39 244.707 290.39 237.259V164.659H264.59V197.563ZM265.557 257.758C265.943 257.293 266.321 256.81 266.69 256.309L269.69 266.359H291.44C291.344 265.858 291.251 265.358 291.162 264.859C289.3 254.442 288.89 244.416 288.89 237.259V166.159H266.09V202.159C265.633 201.374 265.131 200.626 264.59 199.917C259.448 193.175 250.769 189.859 243.44 189.859C224.24 189.859 210.59 204.259 210.59 228.559C210.59 252.859 224.24 268.159 243.44 268.159C251.065 268.159 259.355 265.235 265.557 257.758Z" fill="#111111"/>
<path fill-rule="evenodd" clip-rule="evenodd" d="M267.14 229.009C267.14 213.859 259.64 207.559 250.79 207.559C241.79 207.559 234.29 214.909 234.29 228.559C234.29 242.359 241.79 250.459 250.79 250.459C259.64 250.459 267.14 244.459 267.14 229.009ZM261.146 213.581C258.49 210.49 254.843 209.059 250.79 209.059C246.721 209.059 243.018 210.71 240.31 213.91C237.589 217.123 235.79 222.003 235.79 228.559C235.79 241.86 242.913 248.959 250.79 248.959C254.863 248.959 258.505 247.59 261.151 244.544C263.819 241.474 265.64 236.509 265.64 229.009C265.64 221.667 263.823 216.695 261.146 213.581Z" fill="#111111"/>
<path fill-rule="evenodd" clip-rule="evenodd" d="M123.104 228.859C123.104 242.66 127.937 252.912 135.569 259.699C143.173 266.46 153.416 269.659 164.054 269.659C174.545 269.659 184.749 266.458 192.35 259.699C199.98 252.914 204.854 242.663 204.854 228.859C204.854 215.054 199.979 204.874 192.344 198.164C184.739 191.48 174.536 188.359 164.054 188.359C153.425 188.359 143.183 191.478 135.576 198.164C127.938 204.877 123.104 215.058 123.104 228.859ZM164.054 268.159C143.354 268.159 124.604 255.709 124.604 228.859C124.604 202.009 143.354 189.859 164.054 189.859C184.454 189.859 203.354 202.009 203.354 228.859C203.354 255.709 184.454 268.159 164.054 268.159Z" fill="#111111"/>
<path fill-rule="evenodd" clip-rule="evenodd" d="M164.054 207.559C172.904 207.559 180.104 213.109 180.104 228.859C180.104 244.459 173.204 250.459 164.054 250.459C154.754 250.459 147.854 244.459 147.854 228.859C147.854 213.109 155.054 207.559 164.054 207.559ZM174.263 213.285C171.708 210.334 168.156 209.059 164.054 209.059C159.869 209.059 156.28 210.339 153.709 213.288C151.11 216.271 149.354 221.187 149.354 228.859C149.354 236.467 151.039 241.468 153.616 244.546C156.157 247.582 159.742 248.959 164.054 248.959C168.283 248.959 171.831 247.587 174.356 244.55C176.918 241.47 178.604 236.466 178.604 228.859C178.604 221.187 176.847 216.269 174.263 213.285Z" fill="#111111"/>
<path fill-rule="evenodd" clip-rule="evenodd" d="M102.236 170.033C95.0734 165.928 85.2136 164.659 74.2844 164.659H28.9844V267.859H75.9344C88.2107 267.859 98.6977 265.746 106.151 260.58C113.705 255.344 117.934 247.121 117.934 235.459C117.934 229.1 116.202 223.968 113.163 219.998C110.708 216.79 107.454 214.409 103.72 212.744C110.161 207.871 113.884 200.943 113.884 192.259C113.884 186.814 112.824 182.299 110.807 178.603C108.785 174.899 105.85 172.103 102.236 170.033ZM100.534 213.109C101.13 213.311 101.715 213.529 102.288 213.763C110.653 217.184 116.434 224.088 116.434 235.459C116.434 257.959 100.234 266.359 75.9344 266.359H30.4844V166.159H74.2844C96.0344 166.159 112.384 171.259 112.384 192.259C112.384 200.755 108.634 207.44 102.094 212.075C101.591 212.432 101.071 212.777 100.534 213.109Z" fill="#111111"/>
<path fill-rule="evenodd" clip-rule="evenodd" d="M75.0344 185.509C82.9844 185.509 87.7844 189.259 87.7844 195.559C87.7844 201.709 82.9844 205.759 75.0344 205.759H54.1844V185.509H75.0344ZM83.4635 189.351C81.6164 187.898 78.7955 187.009 75.0344 187.009H55.6844V204.259H75.0344C78.7699 204.259 81.5901 203.307 83.4451 201.801C85.2675 200.321 86.2844 198.209 86.2844 195.559C86.2844 192.829 85.265 190.767 83.4635 189.351Z" fill="#111111"/>
<path fill-rule="evenodd" clip-rule="evenodd" d="M76.0844 224.059C86.2844 224.059 91.3844 228.259 91.3844 235.309C91.3844 242.359 86.2844 246.709 76.0844 246.709H54.1844V224.059H76.0844ZM86.6538 228.236C84.4651 226.579 81.0114 225.559 76.0844 225.559H55.6844V245.209H76.0844C81.0011 245.209 84.4525 244.157 86.6427 242.466C88.7749 240.819 89.8844 238.436 89.8844 235.309C89.8844 232.185 88.7776 229.845 86.6538 228.236Z" fill="#111111"/>
<path d="M30.4844 297.229V397.429H53.4344V318.679L77.1344 397.429H96.6344L120.484 318.679V397.429H143.584V297.229H108.034L86.8844 369.079L66.0344 297.229H30.4844Z" fill="#111111"/>
<path d="M153.754 359.929C153.754 386.779 172.504 399.229 193.204 399.229C213.604 399.229 232.504 386.779 232.504 359.929C232.504 333.079 213.604 320.929 193.204 320.929C172.504 320.929 153.754 333.079 153.754 359.929ZM193.204 338.629C202.054 338.629 209.254 344.179 209.254 359.929C209.254 375.529 202.354 381.529 193.204 381.529C183.904 381.529 177.004 375.529 177.004 359.929C177.004 344.179 184.204 338.629 193.204 338.629Z" fill="#111111"/>
<path d="M262.69 397.429H288.34L315.04 323.029H291.49L275.59 373.729L259.69 323.029H236.14L262.69 397.429Z" fill="#111111"/>
<path d="M317.23 359.779C317.23 384.379 333.88 399.229 358.03 399.229C370.18 399.229 382.78 393.979 390.58 382.579L372.43 375.979C369.58 379.279 364.48 381.529 357.43 381.529C349.03 381.529 340.93 376.429 340.18 365.929H395.23C396.73 339.679 381.58 320.929 357.13 320.929C335.38 320.929 317.23 336.079 317.23 359.779ZM357.73 337.879C366.58 337.879 373.78 342.829 374.08 352.429H340.18C341.53 342.229 349.18 337.879 357.73 337.879Z" fill="#111111"/>
<path d="M438.191 399.229C458.141 399.229 474.641 390.68 474.641 373.13C474.641 360.68 466.241 355.429 448.241 352.129L434.441 349.579C427.841 348.379 425.291 346.579 425.291 343.579C425.291 339.679 429.491 337.579 437.591 337.579C444.341 337.579 450.041 339.079 451.541 344.479L470.741 337.429C465.191 325.729 451.991 320.929 437.741 320.929C419.291 320.929 403.541 328.879 403.541 344.479C403.541 356.929 413.441 364.279 427.841 366.679L441.191 368.929C449.741 370.429 452.741 372.529 452.741 375.679C452.741 380.329 445.991 382.579 438.641 382.579C430.091 382.579 423.341 379.579 421.091 373.279L401.741 380.329C407.441 392.779 420.791 399.229 438.191 399.229Z" fill="#111111"/>
<path fill-rule="evenodd" clip-rule="evenodd" d="M28.9844 295.729H67.161L86.8947 363.733L106.912 295.729H145.084V398.929H118.984V328.807L97.7474 398.929H76.0193L54.9344 328.869V398.929H28.9844V295.729ZM53.4344 318.679L77.1344 397.429H96.6344L120.484 318.679V397.429H143.584V297.229H108.034L86.8844 369.079L66.0344 297.229H30.4844V397.429H53.4344V318.679ZM261.633 398.929L234.012 321.529H260.792L275.59 368.717L290.389 321.529H317.172L289.396 398.929H261.633ZM275.59 373.729L259.69 323.029H236.14L262.69 397.429H288.34L315.04 323.029H291.49L275.59 373.729ZM392.91 381.831L391.818 383.427C383.697 395.296 370.597 400.729 358.03 400.729C345.65 400.729 335.055 396.919 327.544 389.82C320.022 382.71 315.73 372.432 315.73 359.779C315.73 335.151 334.656 319.429 357.13 319.429C369.764 319.429 380.099 324.288 387.063 332.624C394.01 340.941 397.495 352.589 396.728 366.015L396.647 367.429H341.859C342.495 371.461 344.372 374.453 346.885 376.505C349.747 378.842 353.522 380.029 357.43 380.029C364.183 380.029 368.81 377.877 371.295 374.999L371.971 374.216L392.91 381.831ZM340.342 367.429C340.271 366.942 340.217 366.442 340.18 365.929H395.23C396.73 339.679 381.58 320.929 357.13 320.929C335.38 320.929 317.23 336.079 317.23 359.779C317.23 384.38 333.88 399.229 358.03 399.229C369.721 399.229 381.828 394.369 389.675 383.846C389.984 383.433 390.286 383.011 390.58 382.579L372.43 375.979C369.58 379.28 364.48 381.529 357.43 381.529C349.441 381.529 341.722 376.916 340.342 367.429ZM434.441 349.579L448.241 352.129C466.241 355.43 474.641 360.68 474.641 373.13C474.641 390.68 458.141 399.229 438.191 399.229C421.434 399.229 408.433 393.247 402.404 381.684C402.173 381.241 401.952 380.789 401.741 380.329L421.091 373.279C421.109 373.33 421.128 373.38 421.146 373.429C423.449 379.627 430.159 382.579 438.641 382.579C445.991 382.579 452.741 380.329 452.741 375.679C452.741 372.529 449.741 370.429 441.191 368.929L427.841 366.679C413.441 364.279 403.541 356.929 403.541 344.479C403.541 328.879 419.291 320.929 437.741 320.929C451.432 320.929 464.154 325.36 470.053 336.084C470.294 336.522 470.524 336.971 470.741 337.429L451.541 344.479C451.41 344.007 451.247 343.564 451.053 343.149C449.035 338.828 443.75 337.579 437.591 337.579C429.491 337.579 425.291 339.679 425.291 343.579C425.291 346.579 427.841 348.379 434.441 349.579ZM427.595 368.159C427.594 368.159 427.594 368.159 427.593 368.159C420.226 366.931 413.861 364.415 409.311 360.483C404.717 356.514 402.041 351.155 402.041 344.479C402.041 336.083 406.316 329.752 412.923 325.586C419.476 321.453 428.329 319.429 437.741 319.429C452.227 319.429 466.179 324.311 472.097 336.787L472.801 338.271L450.531 346.448L450.096 344.881C449.49 342.699 448.064 341.29 445.946 340.384C443.763 339.451 440.888 339.079 437.591 339.079C433.628 339.079 430.823 339.6 429.065 340.463C428.203 340.887 427.646 341.366 427.304 341.855C426.972 342.332 426.791 342.89 426.791 343.579C426.791 344.533 427.139 345.284 428.223 346.006C429.422 346.805 431.458 347.512 434.71 348.104L434.714 348.104L448.512 350.654C448.512 350.654 448.513 350.654 448.513 350.654C457.553 352.312 464.45 354.497 469.095 358.001C473.866 361.6 476.141 366.494 476.141 373.13C476.141 382.458 471.72 389.434 464.719 394.016C457.78 398.557 448.351 400.729 438.191 400.729C420.46 400.729 406.413 394.136 400.378 380.954L399.701 379.476L421.996 371.353L422.504 372.775C424.434 378.179 430.334 381.079 438.641 381.079C442.194 381.079 445.494 380.532 447.845 379.5C450.229 378.453 451.241 377.122 451.241 375.679C451.241 375.145 451.119 374.705 450.867 374.302C450.607 373.886 450.159 373.433 449.393 372.967C447.824 372.013 445.168 371.15 440.938 370.408C440.936 370.408 440.934 370.407 440.932 370.407L427.595 368.159ZM164.72 390.769C157.087 383.983 152.254 373.73 152.254 359.929C152.254 346.128 157.088 335.947 164.726 329.234C172.333 322.548 182.575 319.429 193.204 319.429C203.687 319.429 213.89 322.551 221.494 329.234C229.13 335.945 234.004 346.124 234.004 359.929C234.004 373.734 229.131 383.985 221.501 390.769C213.899 397.528 203.695 400.729 193.204 400.729C182.567 400.729 172.324 397.531 164.72 390.769ZM203.414 344.355C200.859 341.405 197.306 340.129 193.204 340.129C189.02 340.129 185.431 341.409 182.86 344.359C180.26 347.342 178.504 352.257 178.504 359.929C178.504 367.537 180.19 372.538 182.767 375.617C185.308 378.653 188.892 380.029 193.204 380.029C197.434 380.029 200.982 378.657 203.507 375.62C206.068 372.54 207.754 367.537 207.754 359.929C207.754 352.257 205.998 347.339 203.414 344.355ZM368.155 342.71C365.538 340.543 361.889 339.379 357.73 339.379C353.697 339.379 349.986 340.406 347.155 342.529C344.702 344.37 342.817 347.1 341.966 350.929H372.464C372.019 347.31 370.43 344.593 368.155 342.71ZM373.974 350.929C373.006 342.314 366.107 337.879 357.73 337.879C349.612 337.879 342.305 341.801 340.432 350.929C340.333 351.415 340.249 351.915 340.18 352.429H374.08C374.064 351.916 374.029 351.416 373.974 350.929ZM153.754 359.929C153.754 386.779 172.504 399.229 193.204 399.229C213.604 399.229 232.504 386.779 232.504 359.929C232.504 333.079 213.604 320.929 193.204 320.929C172.504 320.929 153.754 333.079 153.754 359.929ZM193.204 338.629C202.054 338.629 209.254 344.179 209.254 359.929C209.254 375.529 202.354 381.529 193.204 381.529C183.904 381.529 177.004 375.529 177.004 359.929C177.004 344.179 184.204 338.629 193.204 338.629Z" fill="#111111"/>
<path d="M1.03809 526.314V452.474L530.245 452.474L561.115 526.314H1.03809Z" fill="white"/>
<path d="M34.0379 501.363V492.285H37.9711C44.8442 492.285 50.0089 490.602 50.0089 483.754C50.0089 476.906 44.8442 475.224 37.9711 475.224H27.7607V501.363H34.0379ZM34.0379 480.428H38.1697C41.0699 480.428 43.3742 481.015 43.3742 483.754C43.3742 486.532 41.0699 487.158 38.1697 487.158H34.0379V480.428Z" fill="#111111"/>
<path d="M52.1459 491.58C52.1459 498.585 57.112 501.832 62.5946 501.832C67.9978 501.832 73.0036 498.585 73.0036 491.58C73.0036 484.576 67.9978 481.406 62.5946 481.406C57.112 481.406 52.1459 484.576 52.1459 491.58ZM62.5946 486.024C64.9386 486.024 66.8456 487.471 66.8456 491.58C66.8456 495.65 65.0181 497.215 62.5946 497.215C60.1314 497.215 58.3039 495.65 58.3039 491.58C58.3039 487.471 60.2109 486.024 62.5946 486.024Z" fill="#111111"/>
<path d="M78.8931 501.363H85.4881L88.3089 487.432L91.1694 501.363H97.7644L102.691 481.954H96.6917L93.712 495.102L91.1694 481.954H85.4484L82.9057 495.102L79.9261 481.954H73.9667L78.8931 501.363Z" fill="#111111"/>
<path d="M103.631 491.541C103.631 497.958 108.041 501.832 114.437 501.832C117.655 501.832 120.992 500.463 123.058 497.489L118.251 495.767C117.496 496.628 116.145 497.215 114.278 497.215C112.053 497.215 109.908 495.885 109.709 493.145H124.29C124.687 486.298 120.674 481.406 114.198 481.406C108.438 481.406 103.631 485.358 103.631 491.541ZM114.357 485.828C116.701 485.828 118.608 487.119 118.688 489.624H109.709C110.067 486.963 112.093 485.828 114.357 485.828Z" fill="#111111"/>
<path d="M133.205 501.363V491.58C133.205 488.489 134.794 487.237 137.734 487.237C138.29 487.237 138.727 487.276 139.363 487.354V481.406C136.344 481.25 134.238 482.385 133.006 485.515L131.934 481.954H127.166V501.363H133.205Z" fill="#111111"/>
<path d="M140.915 491.541C140.915 497.958 145.325 501.832 151.722 501.832C154.94 501.832 158.277 500.463 160.343 497.489L155.536 495.767C154.781 496.628 153.43 497.215 151.563 497.215C149.338 497.215 147.192 495.885 146.994 493.145H161.574C161.972 486.298 157.959 481.406 151.483 481.406C145.722 481.406 140.915 485.358 140.915 491.541ZM151.642 485.828C153.986 485.828 155.893 487.119 155.973 489.624H146.994C147.351 486.963 149.378 485.828 151.642 485.828Z" fill="#111111"/>
<path d="M172.119 501.832C174.264 501.832 176.608 500.971 178.277 498.741L179.071 501.363H184.832C184.276 498.506 184.156 495.728 184.156 493.771V475.224H178.118V484.615C176.846 482.463 174.264 481.406 172.119 481.406C167.033 481.406 163.418 485.163 163.418 491.502C163.418 497.841 167.033 501.832 172.119 501.832ZM174.065 486.024C176.409 486.024 178.396 487.667 178.396 491.619C178.396 495.65 176.409 497.215 174.065 497.215C171.682 497.215 169.695 495.102 169.695 491.502C169.695 487.941 171.682 486.024 174.065 486.024Z" fill="#111111"/>
<path d="M200.843 475.224V501.363H206.127L206.882 498.741C208.153 500.893 210.776 501.832 212.881 501.832C217.966 501.832 221.582 497.841 221.582 491.502C221.582 485.163 217.966 481.406 212.881 481.406C210.776 481.406 208.153 482.463 206.882 484.615V475.224H200.843ZM206.604 491.619C206.604 487.667 208.59 486.024 210.974 486.024C213.318 486.024 215.305 487.941 215.305 491.502C215.305 495.102 213.318 497.215 210.974 497.215C208.59 497.215 206.604 495.65 206.604 491.619Z" fill="#111111"/>
<path d="M222.523 481.954L230.072 501.245L229.873 501.754C229.277 503.241 228.84 503.358 226.298 503.358H225.106V507.663H227.053C232.178 507.663 233.648 506.293 235.555 501.363L243.103 481.954H236.627L232.853 494.085L228.999 481.954H222.523Z" fill="#111111"/>
<path fill-rule="evenodd" clip-rule="evenodd" d="M363.235 511.717H373.42V494.906L390.942 467.445H379.215L368.328 486.053L357.442 467.445H345.711L363.235 494.906V511.717ZM297.57 489.304C297.57 476.338 308.244 465.826 321.411 465.826C334.576 465.826 345.249 476.337 345.249 489.304C345.249 502.272 334.576 512.782 321.411 512.782C308.244 512.782 297.57 502.272 297.57 489.304V489.304ZM321.411 504.173C328.76 504.173 334.72 497.515 334.72 489.304C334.72 481.093 328.76 474.435 321.411 474.435C314.06 474.435 308.1 481.093 308.1 489.304C308.1 497.515 314.06 504.173 321.411 504.173V504.173ZM280.99 511.717H270.946V475.608H256.934V467.445H295.002V475.608H280.99V511.717ZM492.292 501.756L488.43 511.717H476.701L495.245 467.445H507.744L526.29 511.717H514.558L510.696 501.756L492.292 501.756ZM501.54 478.082H501.452L495.174 494.285H507.814L501.54 478.082ZM466.131 511.717H456.088V475.608H442.075V467.445H480.142V475.608H466.131V511.717ZM391.407 489.304C391.407 476.338 402.081 465.826 415.243 465.826C428.411 465.826 439.084 476.337 439.084 489.304C439.084 502.272 428.411 512.782 415.243 512.782C402.081 512.782 391.407 502.272 391.407 489.304ZM415.243 504.173C422.596 504.173 428.556 497.515 428.556 489.304C428.556 481.093 422.596 474.435 415.243 474.435C407.895 474.435 401.936 481.093 401.936 489.304C401.936 497.515 407.895 504.173 415.243 504.173Z" fill="#FF0022"/>
</svg>
