<svg width="504" height="163" viewBox="0 0 504 163" fill="none" xmlns="http://www.w3.org/2000/svg">
<g clip-path="url(#clip0_264_110834)">
<path d="M3.5957 121.478V54.5002L474.727 54.5003L503.225 121.478H3.5957Z" fill="white"/>
<path d="M16.6133 104.623H44.855L42.1355 96.986H25.2946V89.5684H37.2177V81.931H25.2946V75.5574H42.1355L44.855 67.92H16.6133V104.623Z" fill="#111111"/>
<path d="M55.7934 104.623H65.189L74.9692 77.3706H66.3428L60.5187 95.942L54.6945 77.3706H46.0681L55.7934 104.623Z" fill="#111111"/>
<path d="M75.7715 90.8321C75.7715 99.8431 81.8704 105.283 90.7166 105.283C95.1671 105.283 99.7825 103.36 102.64 99.1838L95.9913 96.7662C94.9473 97.975 93.0792 98.7992 90.4968 98.7992C87.4199 98.7992 84.4528 96.931 84.1781 93.0849H104.343C104.892 83.4695 99.3429 76.6014 90.3869 76.6014C82.4199 76.6014 75.7715 82.1508 75.7715 90.8321ZM90.6067 82.8102C93.8484 82.8102 96.4858 84.6233 96.5957 88.1398H84.1781C84.6726 84.4036 87.4748 82.8102 90.6067 82.8102Z" fill="#111111"/>
<path d="M116.673 104.623V90.8871C116.673 86.5464 118.871 84.7882 122.937 84.7882C123.706 84.7882 124.31 84.8431 125.189 84.953V76.6014C121.014 76.3816 118.102 77.975 116.398 82.3706L114.915 77.3706H108.321V104.623H116.673Z" fill="#111111"/>
<path d="M127.466 77.3706L137.906 104.459L137.631 105.173C136.807 107.261 136.202 107.426 132.686 107.426H131.038L128.645 113.469H133.73C140.818 113.469 142.851 111.546 145.488 104.623L155.928 77.3706H146.972L141.752 94.4036L136.422 77.3706H127.466Z" fill="#111111"/>
<path d="M145.489 104.623C145.467 104.681 145.445 104.738 145.423 104.795L146.002 104.819L156.727 76.8212H146.566L141.747 92.5462L136.827 76.8212H126.666L137.318 104.459L137.897 104.483L137.906 104.459L127.467 77.3706H136.423L141.753 94.4036L146.972 77.3706H155.928L145.489 104.623Z" fill="#111111"/>
<path d="M131.038 107.426H132.687C136.203 107.426 136.807 107.261 137.632 105.173L137.897 104.483L137.318 104.459L137.121 104.971L137.12 104.973C136.716 105.994 136.428 106.37 135.949 106.578C135.682 106.695 135.319 106.774 134.78 106.82C134.242 106.866 133.566 106.876 132.687 106.876H130.665L127.838 114.019H133.731C137.308 114.019 139.744 113.538 141.617 112.076C143.472 110.627 144.683 108.283 146.002 104.82L145.423 104.796C142.817 111.578 140.759 113.47 133.731 113.47H128.646L131.038 107.426Z" fill="#111111"/>
<path fill-rule="evenodd" clip-rule="evenodd" d="M119.575 77.2902C118.328 78.0741 117.311 79.2318 116.504 80.7931L115.325 76.8212H107.772V105.173H117.223V90.8871C117.223 88.803 117.75 87.4528 118.655 86.6125C119.568 85.7647 120.97 85.3376 122.937 85.3376C123.674 85.3376 124.254 85.3897 125.122 85.4982L125.74 85.5754V76.0801L125.219 76.0527C123.056 75.9389 121.162 76.2918 119.575 77.2902ZM125.19 76.6014C121.277 76.3954 118.474 77.7814 116.735 81.5728C116.618 81.8278 116.506 82.0936 116.399 82.3706L114.915 77.3706H108.322V104.623H116.674V90.8871C116.674 86.5464 118.871 84.7882 122.937 84.7882C123.536 84.7882 124.035 84.8215 124.641 84.888C124.813 84.907 124.995 84.9286 125.19 84.953V76.6014Z" fill="#111111"/>
<path fill-rule="evenodd" clip-rule="evenodd" d="M103.094 99.4941L103.494 98.9095L95.8237 96.1204L95.5761 96.4071C94.6656 97.4614 92.9707 98.2497 90.4974 98.2497C89.0658 98.2497 87.6831 97.8148 86.6348 96.9588C85.7141 96.207 85.0267 95.1112 84.7936 93.6343H104.863L104.892 93.1162C105.173 88.1982 103.896 83.9316 101.352 80.8851C98.8011 77.8315 95.0153 76.0519 90.3875 76.0519C82.1551 76.0519 75.2227 81.8106 75.2227 90.8321C75.2227 95.4668 76.7946 99.2316 79.5499 101.836C82.3013 104.436 86.1821 105.832 90.7172 105.832C95.3202 105.832 100.119 103.842 103.094 99.4941ZM84.1787 93.0849C84.1921 93.2728 84.212 93.4559 84.2379 93.6343C84.7435 97.1091 87.5708 98.7992 90.4974 98.7992C93.0798 98.7992 94.9479 97.975 95.9919 96.7662L102.64 99.1838C102.532 99.3417 102.422 99.4964 102.309 99.6479C99.4343 103.502 94.9994 105.283 90.7172 105.283C81.871 105.283 75.7721 99.8431 75.7721 90.8321C75.7721 82.1508 82.4205 76.6014 90.3875 76.6014C99.3436 76.6014 104.893 83.4695 104.344 93.0849H84.1787Z" fill="#111111"/>
<path fill-rule="evenodd" clip-rule="evenodd" d="M90.6073 82.8102C93.6757 82.8102 96.2026 84.4346 96.5573 87.5904C96.5773 87.7687 96.5904 87.9518 96.5963 88.1398H84.1787C84.2037 87.9513 84.2345 87.7681 84.271 87.5904C84.9569 84.2468 87.6335 82.8102 90.6073 82.8102ZM94.4258 84.5795C93.4671 83.7856 92.1304 83.3596 90.6073 83.3596C89.1297 83.3596 87.7706 83.7358 86.7337 84.5135C85.835 85.1875 85.1446 86.1876 84.8328 87.5904H96.0041C95.8412 86.2646 95.2591 85.2695 94.4258 84.5795Z" fill="#111111"/>
<path fill-rule="evenodd" clip-rule="evenodd" d="M45.2893 76.8212L55.4067 105.173H65.5762L75.7508 76.8212H65.9399L60.5193 94.1059L55.0986 76.8212H45.2893ZM55.794 104.623H65.1896L74.9698 77.3706H66.3435L60.5193 95.942L54.6951 77.3706H46.0687L55.794 104.623Z" fill="#111111"/>
<path fill-rule="evenodd" clip-rule="evenodd" d="M25.8447 81.3816V76.1069H42.5237L45.6346 67.3706H16.0645V105.173H45.6346L42.5237 96.4365H25.8447V90.1179H37.7677V81.3816H25.8447ZM25.2952 75.5574H42.1361L44.8557 67.9201H16.6139V104.623H44.8557L42.1361 96.986H25.2952V89.5684H37.2183V81.931H25.2952V75.5574Z" fill="#111111"/>
<path d="M168.371 68.048V104.751H185.019C193.921 104.751 199.855 101.674 199.855 93.4326C199.855 88.982 197.437 86.3996 194.03 85.2458C196.778 83.5425 198.371 80.9601 198.371 77.6084C198.371 69.9161 192.382 68.048 184.415 68.048H168.371ZM185.074 89.2568C188.811 89.2568 190.679 90.7952 190.679 93.3776C190.679 95.9601 188.811 97.5535 185.074 97.5535H177.052V89.2568H185.074ZM184.69 75.1359C187.602 75.1359 189.36 76.5095 189.36 78.8172C189.36 81.07 187.602 82.5535 184.69 82.5535H177.052V75.1359H184.69Z" fill="#111111"/>
<path d="M202.847 91.015C202.847 100.85 209.715 105.411 217.298 105.411C224.77 105.411 231.693 100.85 231.693 91.015C231.693 81.1798 224.77 76.7293 217.298 76.7293C209.715 76.7293 202.847 81.1798 202.847 91.015ZM217.298 83.2128C220.539 83.2128 223.177 85.2458 223.177 91.015C223.177 96.7293 220.649 98.9271 217.298 98.9271C213.891 98.9271 211.363 96.7293 211.363 91.015C211.363 85.2458 214.001 83.2128 217.298 83.2128Z" fill="#111111"/>
<path d="M246.377 105.411C249.344 105.411 252.586 104.202 254.893 101.07L255.992 104.751H263.959C263.19 100.74 263.025 96.8392 263.025 94.0919V68.048H254.673V81.2348C252.915 78.2128 249.344 76.7293 246.377 76.7293C239.344 76.7293 234.344 82.004 234.344 90.9051C234.344 99.8062 239.344 105.411 246.377 105.411ZM249.069 83.2128C252.311 83.2128 255.058 85.5205 255.058 91.07C255.058 96.7293 252.311 98.9271 249.069 98.9271C245.772 98.9271 243.025 95.9601 243.025 90.9051C243.025 85.9051 245.772 83.2128 249.069 83.2128Z" fill="#111111"/>
<path d="M265.756 77.4985L276.196 104.586L275.921 105.301C275.097 107.389 274.492 107.553 270.976 107.553H269.327L266.818 113.597H272.02C279.108 113.597 281.141 111.674 283.778 104.751L294.218 77.4985H285.262L280.042 94.5315L274.712 77.4985H265.756Z" fill="#111111"/>
<path d="M283.779 104.751C283.757 104.809 283.735 104.866 283.713 104.923L284.292 104.947L295.017 76.9491H284.856L280.037 92.6741L275.117 76.9491H264.956L275.607 104.587L276.187 104.611L276.196 104.586L265.757 77.4985H274.713L280.042 94.5315L285.262 77.4985H294.218L283.779 104.751Z" fill="#111111"/>
<path d="M269.328 107.553H270.976C274.493 107.553 275.097 107.389 275.922 105.301L276.187 104.611L275.607 104.587L275.41 105.099L275.409 105.101C275.006 106.122 274.718 106.498 274.239 106.706C273.972 106.823 273.609 106.902 273.07 106.948C272.532 106.993 271.856 107.004 270.976 107.004H268.961L265.996 114.147H272.02C275.597 114.147 278.034 113.666 279.907 112.204C281.762 110.755 282.973 108.411 284.292 104.948L283.713 104.924C281.107 111.706 279.049 113.597 272.02 113.597H266.819L269.328 107.553Z" fill="#111111"/>
<path fill-rule="evenodd" clip-rule="evenodd" d="M254.125 79.5513C252.091 77.2778 248.999 76.1799 246.377 76.1799C242.715 76.1799 239.552 77.5575 237.31 80.1173C235.074 82.6709 233.795 86.3541 233.795 90.9051C233.795 95.4558 235.074 99.2172 237.304 101.851C239.541 104.492 242.705 105.96 246.377 105.96C249.219 105.96 252.306 104.903 254.666 102.227L255.583 105.301H264.625L264.499 104.648C263.739 100.684 263.575 96.8202 263.575 94.0919V67.4985H254.125V79.5513ZM254.479 101.601C254.62 101.43 254.759 101.253 254.894 101.07L255.993 104.751H263.96C263.925 104.568 263.891 104.385 263.858 104.202C263.176 100.386 263.026 96.7136 263.026 94.0919V68.048H254.674V81.2348C254.507 80.9471 254.323 80.6733 254.125 80.4134C252.241 77.9438 249.062 76.7293 246.377 76.7293C239.344 76.7293 234.344 82.004 234.344 90.9051C234.344 99.8062 239.344 105.411 246.377 105.411C249.171 105.411 252.207 104.339 254.479 101.601Z" fill="#111111"/>
<path fill-rule="evenodd" clip-rule="evenodd" d="M255.059 91.07C255.059 85.5205 252.311 83.2128 249.07 83.2128C245.773 83.2128 243.026 85.9051 243.026 90.9051C243.026 95.9601 245.773 98.9271 249.07 98.9271C252.311 98.9271 255.059 96.7293 255.059 91.07ZM252.863 85.4185C251.89 84.2863 250.554 83.7623 249.07 83.7623C247.579 83.7623 246.223 84.3669 245.231 85.539C244.234 86.7162 243.575 88.5036 243.575 90.9051C243.575 95.7774 246.185 98.3777 249.07 98.3777C250.562 98.3777 251.896 97.876 252.865 96.7604C253.842 95.6357 254.509 93.8172 254.509 91.07C254.509 88.3804 253.844 86.5592 252.863 85.4185Z" fill="#111111"/>
<path fill-rule="evenodd" clip-rule="evenodd" d="M202.298 91.015C202.298 96.0702 204.069 99.8256 206.864 102.312C209.65 104.788 213.402 105.96 217.298 105.96C221.141 105.96 224.879 104.787 227.663 102.312C230.458 99.8265 232.243 96.0715 232.243 91.015C232.243 85.9581 230.458 82.2294 227.661 79.7713C224.875 77.3232 221.138 76.1799 217.298 76.1799C213.405 76.1799 209.653 77.3223 206.867 79.7713C204.069 82.2302 202.298 85.9595 202.298 91.015ZM217.298 105.411C209.716 105.411 202.848 100.85 202.848 91.015C202.848 81.1799 209.716 76.7293 217.298 76.7293C224.771 76.7293 231.694 81.1799 231.694 91.015C231.694 100.85 224.771 105.411 217.298 105.411Z" fill="#111111"/>
<path fill-rule="evenodd" clip-rule="evenodd" d="M217.298 83.2128C220.54 83.2128 223.177 85.2458 223.177 91.015C223.177 96.7293 220.65 98.9271 217.298 98.9271C213.892 98.9271 211.364 96.7293 211.364 91.015C211.364 85.2458 214.001 83.2128 217.298 83.2128ZM221.038 85.3101C220.102 84.2293 218.801 83.7623 217.298 83.7623C215.765 83.7623 214.451 84.2309 213.509 85.3115C212.557 86.4041 211.914 88.2046 211.914 91.015C211.914 93.8017 212.531 95.6335 213.475 96.7613C214.406 97.8733 215.719 98.3777 217.298 98.3777C218.848 98.3777 220.147 97.875 221.072 96.7626C222.01 95.6343 222.628 93.8015 222.628 91.015C222.628 88.2047 221.985 86.4033 221.038 85.3101Z" fill="#111111"/>
<path fill-rule="evenodd" clip-rule="evenodd" d="M194.655 69.4669C192.031 67.9634 188.419 67.4985 184.416 67.4985H167.822V105.301H185.02C189.517 105.301 193.358 104.527 196.089 102.634C198.855 100.716 200.405 97.7042 200.405 93.4326C200.405 91.1031 199.77 89.2233 198.657 87.769C197.758 86.5942 196.566 85.722 195.198 85.1119C197.557 83.327 198.921 80.7895 198.921 77.6084C198.921 75.6139 198.533 73.9601 197.794 72.6062C197.053 71.2495 195.978 70.2252 194.655 69.4669ZM194.031 85.2458C194.249 85.3197 194.464 85.3995 194.673 85.4853C197.738 86.7383 199.855 89.2673 199.855 93.4326C199.855 101.674 193.921 104.751 185.02 104.751H168.372V68.048H184.416C192.383 68.048 198.372 69.9161 198.372 77.6084C198.372 80.7204 196.998 83.1693 194.602 84.867C194.418 84.9977 194.227 85.124 194.031 85.2458Z" fill="#111111"/>
<path fill-rule="evenodd" clip-rule="evenodd" d="M184.69 75.1359C187.602 75.1359 189.361 76.5095 189.361 78.8172C189.361 81.07 187.602 82.5535 184.69 82.5535H177.053V75.1359H184.69ZM187.778 76.5431C187.101 76.0111 186.068 75.6853 184.69 75.6853H177.602V82.004H184.69C186.059 82.004 187.092 81.6553 187.771 81.1036C188.439 80.5616 188.811 79.788 188.811 78.8172C188.811 77.8172 188.438 77.062 187.778 76.5431Z" fill="#111111"/>
<path fill-rule="evenodd" clip-rule="evenodd" d="M185.075 89.2568C188.811 89.2568 190.679 90.7952 190.679 93.3777C190.679 95.9601 188.811 97.5535 185.075 97.5535H177.053V89.2568H185.075ZM188.947 90.7868C188.145 90.1796 186.88 89.8062 185.075 89.8062H177.602V97.004H185.075C186.876 97.004 188.14 96.6185 188.943 95.9991C189.724 95.3961 190.13 94.5231 190.13 93.3777C190.13 92.2332 189.725 91.376 188.947 90.7868Z" fill="#111111"/>
<path d="M306.539 67.92V104.623H314.946V75.7772L323.627 104.623H330.77L339.506 75.7772V104.623H347.968V67.92H334.946L327.198 94.2387L319.561 67.92H306.539Z" fill="#111111"/>
<path d="M351.693 90.8871C351.693 100.722 358.561 105.283 366.143 105.283C373.616 105.283 380.539 100.722 380.539 90.8871C380.539 81.0519 373.616 76.6014 366.143 76.6014C358.561 76.6014 351.693 81.0519 351.693 90.8871ZM366.143 83.0849C369.385 83.0849 372.022 85.1178 372.022 90.8871C372.022 96.6014 369.495 98.7992 366.143 98.7992C362.737 98.7992 360.209 96.6014 360.209 90.8871C360.209 85.1178 362.847 83.0849 366.143 83.0849Z" fill="#111111"/>
<path d="M391.596 104.623H400.992L410.772 77.3706H402.146L396.321 95.942L390.497 77.3706H381.871L391.596 104.623Z" fill="#111111"/>
<path d="M411.574 90.8321C411.574 99.8431 417.673 105.283 426.519 105.283C430.97 105.283 435.585 103.36 438.442 99.1838L431.794 96.7662C430.75 97.975 428.882 98.7992 426.3 98.7992C423.223 98.7992 420.256 96.931 419.981 93.0849H440.146C440.695 83.4695 435.146 76.6014 426.19 76.6014C418.223 76.6014 411.574 82.1508 411.574 90.8321ZM426.409 82.8102C429.651 82.8102 432.289 84.6233 432.398 88.1398H419.981C420.475 84.4036 423.278 82.8102 426.409 82.8102Z" fill="#111111"/>
<path d="M455.882 105.283C463.19 105.283 469.234 102.151 469.234 95.7222C469.234 91.1618 466.157 89.2387 459.564 88.0299L454.509 87.0959C452.091 86.6563 451.157 85.997 451.157 84.8981C451.157 83.4695 452.695 82.7003 455.662 82.7003C458.135 82.7003 460.223 83.2497 460.772 85.2277L467.805 82.6453C465.772 78.3596 460.937 76.6014 455.717 76.6014C448.959 76.6014 443.19 79.5135 443.19 85.2277C443.19 89.7882 446.816 92.4805 452.091 93.3596L456.981 94.1838C460.113 94.7332 461.212 95.5025 461.212 96.6563C461.212 98.3596 458.739 99.1838 456.047 99.1838C452.915 99.1838 450.443 98.0849 449.619 95.7772L442.531 98.3596C444.619 102.92 449.509 105.283 455.882 105.283Z" fill="#111111"/>
<path fill-rule="evenodd" clip-rule="evenodd" d="M305.99 67.3706H319.974L327.203 92.2802L334.535 67.3706H348.518V105.173H338.957V79.487L331.178 105.173H323.219L315.496 79.5095V105.173H305.99V67.3706ZM314.946 75.7772L323.628 104.623H330.77L339.507 75.7772V104.623H347.968V67.9201H334.946L327.199 94.2387L319.562 67.9201H306.54V104.623H314.946V75.7772ZM391.209 105.173L381.092 76.8212H390.901L396.322 94.1059L401.743 76.8212H411.554L401.379 105.173H391.209ZM396.322 95.942L390.498 77.3706H381.871L391.597 104.623H400.992L410.773 77.3706H402.146L396.322 95.942ZM439.296 98.9095L438.896 99.4941C435.922 103.842 431.123 105.832 426.52 105.832C421.985 105.832 418.104 104.436 415.353 101.836C412.597 99.2316 411.025 95.4668 411.025 90.8321C411.025 81.8106 417.958 76.0519 426.19 76.0519C430.818 76.0519 434.604 77.8315 437.155 80.8851C439.699 83.9316 440.976 88.1982 440.695 93.1162L440.665 93.6343H420.596C420.829 95.1112 421.517 96.207 422.438 96.9588C423.486 97.8148 424.869 98.2497 426.3 98.2497C428.773 98.2497 430.468 97.4614 431.379 96.4071L431.626 96.1204L439.296 98.9095ZM420.041 93.6343C420.015 93.4559 419.995 93.2728 419.981 93.0849H440.146C440.696 83.4695 435.146 76.6014 426.19 76.6014C418.223 76.6014 411.575 82.1508 411.575 90.8321C411.575 99.8431 417.674 105.283 426.52 105.283C430.802 105.283 435.237 103.502 438.111 99.6479C438.224 99.4964 438.335 99.3417 438.443 99.1838L431.795 96.7662C430.751 97.975 428.883 98.7992 426.3 98.7992C423.374 98.7992 420.546 97.1091 420.041 93.6343ZM454.509 87.0959L459.564 88.0299C466.158 89.2387 469.235 91.1618 469.235 95.7223C469.235 102.151 463.191 105.283 455.883 105.283C449.745 105.283 444.982 103.091 442.774 98.8559C442.689 98.6935 442.608 98.5281 442.531 98.3596L449.619 95.7772C449.626 95.7956 449.632 95.8139 449.639 95.8321C450.483 98.1023 452.941 99.1838 456.048 99.1838C458.74 99.1838 461.213 98.3596 461.213 96.6563C461.213 95.5025 460.114 94.7332 456.982 94.1838L452.092 93.3596C446.817 92.4805 443.191 89.7882 443.191 85.2277C443.191 79.5135 448.96 76.6014 455.718 76.6014C460.733 76.6014 465.393 78.2244 467.554 82.1526C467.642 82.313 467.726 82.4772 467.806 82.6453L460.773 85.2277C460.725 85.0546 460.665 84.8923 460.594 84.7405C459.855 83.1577 457.919 82.7003 455.663 82.7003C452.696 82.7003 451.158 83.4695 451.158 84.8981C451.158 85.997 452.092 86.6563 454.509 87.0959ZM452.001 93.9016C452.001 93.9016 452.001 93.9015 452.001 93.9015C449.302 93.4517 446.971 92.5302 445.304 91.0899C443.621 89.636 442.641 87.6728 442.641 85.2277C442.641 82.1523 444.207 79.833 446.627 78.307C449.027 76.7931 452.27 76.0519 455.718 76.0519C461.024 76.0519 466.135 77.8401 468.302 82.4098L468.56 82.9536L460.403 85.9489L460.244 85.3748C460.022 84.5755 459.499 84.0593 458.723 83.7275C457.924 83.3858 456.871 83.2497 455.663 83.2497C454.211 83.2497 453.184 83.4405 452.54 83.7567C452.224 83.9117 452.02 84.0872 451.895 84.2665C451.773 84.441 451.707 84.6455 451.707 84.8981C451.707 85.2473 451.835 85.5223 452.232 85.7871C452.671 86.0796 453.416 86.3387 454.608 86.5553L454.609 86.5556L459.663 87.4895C459.663 87.4895 459.664 87.4896 459.664 87.4896C462.975 88.0967 465.501 88.8971 467.203 90.1806C468.951 91.499 469.784 93.2918 469.784 95.7223C469.784 99.1393 468.164 101.695 465.6 103.373C463.058 105.036 459.605 105.832 455.883 105.832C449.388 105.832 444.242 103.417 442.032 98.5883L441.784 98.0471L449.951 95.0716L450.137 95.5924C450.844 97.5718 453.005 98.6343 456.048 98.6343C457.349 98.6343 458.558 98.4336 459.419 98.0557C460.292 97.6724 460.663 97.1848 460.663 96.6563C460.663 96.4607 460.618 96.2992 460.526 96.1518C460.431 95.9994 460.267 95.8335 459.986 95.6628C459.411 95.3132 458.439 94.9973 456.889 94.7254C456.888 94.7252 456.888 94.7251 456.887 94.725L452.001 93.9016ZM355.71 102.184C352.914 99.6977 351.144 95.9422 351.144 90.8871C351.144 85.8316 352.915 82.1022 355.713 79.6433C358.499 77.1944 362.251 76.0519 366.144 76.0519C369.984 76.0519 373.721 77.1952 376.507 79.6433C379.304 82.1014 381.089 85.8302 381.089 90.8871C381.089 95.9436 379.304 99.6985 376.509 102.184C373.725 104.66 369.987 105.832 366.144 105.832C362.247 105.832 358.496 104.66 355.71 102.184ZM369.884 85.1822C368.948 84.1014 367.647 83.6343 366.144 83.6343C364.611 83.6343 363.297 84.103 362.355 85.1835C361.403 86.2761 360.759 88.0766 360.759 90.8871C360.759 93.6737 361.377 95.5056 362.321 96.6333C363.251 97.7454 364.564 98.2497 366.144 98.2497C367.693 98.2497 368.993 97.7471 369.918 96.6347C370.856 95.5064 371.474 93.6736 371.474 90.8871C371.474 88.0768 370.83 86.2753 369.884 85.1822ZM430.229 84.5795C429.27 83.7856 427.933 83.3596 426.41 83.3596C424.932 83.3596 423.573 83.7358 422.536 84.5135C421.638 85.1875 420.947 86.1876 420.636 87.5904H431.807C431.644 86.2646 431.062 85.2695 430.229 84.5795ZM432.36 87.5904C432.005 84.4346 429.478 82.8102 426.41 82.8102C423.436 82.8102 420.76 84.2468 420.074 87.5904C420.037 87.7681 420.006 87.9513 419.981 88.1398H432.399C432.393 87.9518 432.38 87.7687 432.36 87.5904ZM351.693 90.8871C351.693 100.722 358.561 105.283 366.144 105.283C373.616 105.283 380.54 100.722 380.54 90.8871C380.54 81.0519 373.616 76.6014 366.144 76.6014C358.561 76.6014 351.693 81.0519 351.693 90.8871ZM366.144 83.0849C369.386 83.0849 372.023 85.1179 372.023 90.8871C372.023 96.6014 369.496 98.7992 366.144 98.7992C362.737 98.7992 360.21 96.6014 360.21 90.8871C360.21 85.1179 362.847 83.0849 366.144 83.0849Z" fill="#111111"/>
<path d="M473.041 99.898C473.041 102.865 475.459 105.283 478.426 105.283C481.338 105.283 483.755 102.865 483.755 99.898C483.755 96.931 481.338 94.5684 478.426 94.5684C475.459 94.5684 473.041 96.931 473.041 99.898Z" fill="#5A16CA"/>
<path d="M3.45312 162.642V130.112L241.459 130.112L254.76 162.642H3.45312Z" fill="white"/>
<path d="M18.1994 152.577V147.909H20.1454C23.5459 147.909 26.1013 147.044 26.1013 143.523C26.1013 140.003 23.5459 139.138 20.1454 139.138H15.0938V152.577H18.1994ZM18.1994 141.813H20.2437C21.6786 141.813 22.8187 142.115 22.8187 143.523C22.8187 144.952 21.6786 145.274 20.2437 145.274H18.1994V141.813Z" fill="#111111"/>
<path d="M27.1585 147.547C27.1585 151.148 29.6156 152.818 32.3281 152.818C35.0014 152.818 37.4781 151.148 37.4781 147.547C37.4781 143.946 35.0014 142.316 32.3281 142.316C29.6156 142.316 27.1585 143.946 27.1585 147.547ZM32.3281 144.69C33.4879 144.69 34.4314 145.435 34.4314 147.547C34.4314 149.639 33.5272 150.444 32.3281 150.444C31.1095 150.444 30.2053 149.639 30.2053 147.547C30.2053 145.435 31.1488 144.69 32.3281 144.69Z" fill="#111111"/>
<path d="M40.392 152.577H43.6549L45.0505 145.415L46.4658 152.577H49.7287L52.1661 142.598H49.198L47.7238 149.358L46.4658 142.598H43.6353L42.3773 149.358L40.903 142.598H37.9546L40.392 152.577Z" fill="#111111"/>
<path d="M52.6311 147.527C52.6311 150.826 54.8129 152.818 57.9776 152.818C59.5697 152.818 61.2209 152.114 62.243 150.585L59.8646 149.7C59.4911 150.142 58.8228 150.444 57.8989 150.444C56.7982 150.444 55.7368 149.76 55.6385 148.352H62.8523C63.0489 144.831 61.0636 142.316 57.8596 142.316C55.0095 142.316 52.6311 144.348 52.6311 147.527ZM57.9383 144.59C59.098 144.59 60.0415 145.254 60.0808 146.541H55.6385C55.8154 145.173 56.8179 144.59 57.9383 144.59Z" fill="#111111"/>
<path d="M67.2633 152.577V147.547C67.2633 145.958 68.0496 145.314 69.5041 145.314C69.7793 145.314 69.9955 145.334 70.31 145.374V142.316C68.8162 142.236 67.7744 142.819 67.165 144.429L66.6343 142.598H64.2756V152.577H67.2633Z" fill="#111111"/>
<path d="M71.078 147.527C71.078 150.826 73.2599 152.818 76.4245 152.818C78.0167 152.818 79.6678 152.114 80.6899 150.585L78.3115 149.7C77.938 150.142 77.2697 150.444 76.3459 150.444C75.2451 150.444 74.1837 149.76 74.0854 148.352H81.2993C81.4958 144.831 79.5105 142.316 76.3066 142.316C73.4564 142.316 71.078 144.348 71.078 147.527ZM76.3852 144.59C77.5449 144.59 78.4884 145.254 78.5277 146.541H74.0854C74.2623 145.173 75.2648 144.59 76.3852 144.59Z" fill="#111111"/>
<path d="M86.5162 152.818C87.5776 152.818 88.7373 152.376 89.5629 151.229L89.956 152.577H92.8062C92.531 151.108 92.472 149.68 92.472 148.674V139.138H89.4843V143.966C88.8553 142.86 87.5776 142.316 86.5162 142.316C84.0002 142.316 82.2114 144.248 82.2114 147.507C82.2114 150.766 84.0002 152.818 86.5162 152.818ZM87.4793 144.69C88.639 144.69 89.6218 145.535 89.6218 147.567C89.6218 149.639 88.639 150.444 87.4793 150.444C86.2999 150.444 85.3171 149.358 85.3171 147.507C85.3171 145.676 86.2999 144.69 87.4793 144.69Z" fill="#111111"/>
<path d="M100.728 139.138V152.577H103.342L103.716 151.229C104.345 152.335 105.642 152.818 106.684 152.818C109.2 152.818 110.989 150.766 110.989 147.507C110.989 144.248 109.2 142.316 106.684 142.316C105.642 142.316 104.345 142.86 103.716 143.966V139.138H100.728ZM103.578 147.567C103.578 145.535 104.561 144.69 105.74 144.69C106.9 144.69 107.883 145.676 107.883 147.507C107.883 149.358 106.9 150.444 105.74 150.444C104.561 150.444 103.578 149.639 103.578 147.567Z" fill="#111111"/>
<path d="M111.454 142.598L115.189 152.516L115.091 152.778C114.796 153.542 114.58 153.603 113.322 153.603H112.732V155.816H113.695C116.231 155.816 116.958 155.112 117.902 152.577L121.636 142.598H118.432L116.565 148.835L114.658 142.598H111.454Z" fill="#111111"/>
<path fill-rule="evenodd" clip-rule="evenodd" d="M172.308 156.094H176.508V148.891L183.732 137.126H178.897L174.408 145.098L169.92 137.126H165.083L172.308 148.891V156.094ZM145.235 146.491C145.235 140.936 149.636 136.432 155.064 136.432C160.492 136.432 164.893 140.935 164.893 146.491C164.893 152.047 160.492 156.55 155.064 156.55C149.636 156.55 145.235 152.047 145.235 146.491ZM155.064 152.862C158.094 152.862 160.552 150.009 160.552 146.491C160.552 142.973 158.095 140.12 155.064 140.12C152.034 140.12 149.576 142.973 149.576 146.491C149.576 150.009 152.034 152.862 155.064 152.862ZM138.399 156.094H134.258V140.623H128.48V137.126H144.176V140.623H138.399V156.094ZM225.519 151.826L223.926 156.094H219.09L226.736 137.125H231.889L239.536 156.094H234.699L233.107 151.826L225.519 151.826ZM229.331 141.683H229.295L226.707 148.625H231.918L229.331 141.683ZM214.733 156.094H210.592V140.623H204.814V137.126H220.509V140.623H214.733V156.094ZM183.924 146.491C183.924 140.936 188.325 136.432 193.751 136.432C199.181 136.432 203.581 140.935 203.581 146.491C203.581 152.047 199.181 156.55 193.751 156.55C188.325 156.55 183.924 152.047 183.924 146.491ZM193.751 152.862C196.783 152.862 199.24 150.009 199.24 146.491C199.24 142.973 196.783 140.12 193.751 140.12C190.722 140.12 188.265 142.973 188.265 146.491C188.265 150.009 190.722 152.862 193.751 152.862Z" fill="#FF0022"/>
</g>
<rect y="0.764526" width="4" height="55" fill="#D1D1F9"/>
<path d="M210.756 10.4865V11.6925H213.96V20.7645H215.472V8.74053H214.464C213.942 10.2165 212.484 10.4865 210.756 10.4865ZM222.696 20.9805C225.27 20.9805 226.926 19.0725 226.926 16.8405C226.926 14.4285 225.288 12.7545 223.056 12.7545C221.454 12.7545 220.428 13.4925 219.888 14.4285C219.96 11.6385 220.968 9.78453 222.84 9.78453C223.794 9.78453 224.514 10.1985 224.874 10.9005L226.404 10.4505C225.882 9.37053 224.802 8.52453 223.02 8.52453C219.528 8.52453 218.322 11.7825 218.322 15.1845C218.322 18.8925 219.69 20.9805 222.696 20.9805ZM220.068 16.8945C220.068 15.2385 221.094 14.0865 222.696 14.0865C224.28 14.0865 225.306 15.2385 225.306 16.8945C225.306 18.5505 224.28 19.7025 222.696 19.7025C221.094 19.7025 220.068 18.5505 220.068 16.8945ZM233.832 20.9805C236.928 20.9805 238.584 18.7665 238.584 14.7345C238.584 10.7385 236.928 8.52453 233.832 8.52453C230.736 8.52453 229.08 10.7385 229.08 14.7345C229.08 18.7665 230.736 20.9805 233.832 20.9805ZM230.718 14.7345C230.718 13.6725 230.826 12.7545 231.078 12.0165L235.83 18.8385C235.344 19.3605 234.678 19.6485 233.832 19.6485C231.708 19.6485 230.718 17.8845 230.718 14.7345ZM233.832 9.85653C235.938 9.85653 236.946 11.6025 236.946 14.7345C236.946 15.7605 236.838 16.6425 236.64 17.3445L231.906 10.5765C232.392 10.1085 233.04 9.85653 233.832 9.85653ZM240.932 11.8365V23.6625H242.444V19.4145C242.984 20.3685 243.938 20.9805 245.342 20.9805C247.376 20.9805 249.176 19.2705 249.176 16.3365C249.176 13.3845 247.376 11.6925 245.342 11.6925C243.938 11.6925 242.984 12.3045 242.444 13.2405L242.03 11.8365H240.932ZM242.408 16.3365C242.408 14.2125 243.416 12.9885 244.946 12.9885C246.476 12.9885 247.484 14.2125 247.484 16.3365C247.484 18.4605 246.476 19.6845 244.946 19.6845C243.416 19.6845 242.408 18.4605 242.408 16.3365ZM249.867 20.7645H251.649L254.007 17.4345L256.383 20.7645H258.165L254.907 16.1745L258.003 11.8365H256.221L254.007 14.9325L251.811 11.8365H250.029L253.125 16.1745L249.867 20.7645ZM264.577 8.74053V20.7645H266.269V10.5045L269.761 20.7645H271.435L274.909 10.5045V20.7645H276.601V8.74053H273.793L270.589 18.5685L267.385 8.74053H264.577ZM278.785 11.8365V13.0425H280.027V20.7645H281.539V11.8365H278.785ZM280.783 10.1445C281.413 10.1445 281.917 9.64053 281.917 9.01053C281.917 8.39853 281.413 7.89453 280.783 7.89453C280.171 7.89453 279.667 8.39853 279.667 9.01053C279.667 9.64053 280.171 10.1445 280.783 10.1445ZM284.244 11.8365V20.7645H285.756V15.9225C285.756 14.0145 286.656 12.9885 288.114 12.9885C289.842 12.9885 290.076 14.1945 290.076 15.5625V20.7645H291.588V15.1125C291.588 13.0785 290.796 11.6925 288.636 11.6925C287.124 11.6925 286.26 12.3405 285.756 13.1865L285.36 11.8365H284.244Z" fill="#D1D1F9"/>
<rect x="4" y="28.7645" width="495" height="4" fill="#D1D1F9"/>
<rect x="499" y="0.764526" width="4" height="55" fill="#D1D1F9"/>
<defs>
<clipPath id="clip0_264_110834">
<rect width="500" height="108.425" fill="white" transform="translate(3.25 54.2876)"/>
</clipPath>
</defs>
</svg>
