<svg width="412" height="427" viewBox="0 0 412 427" fill="none" xmlns="http://www.w3.org/2000/svg">
<path d="M311.521 170.589H294.797L333.108 72.868H104.746L111.663 55.2599H4.32617V356.213H403.006L361.046 257.926H273.743L311.521 170.589Z" fill="white"/>
<path d="M348.357 325.311C348.357 331.011 353.047 335.655 358.801 335.655C364.45 335.655 369.139 331.011 369.139 325.311C369.139 319.612 364.45 315.073 358.801 315.073C353.047 315.073 348.357 319.612 348.357 325.311Z" fill="#5A16CA"/>
<path d="M25.4082 146.525H80.1862L74.9113 131.853H42.2466V117.604H65.3727V102.933H42.2466V90.6895H74.9113L80.1862 76.0183H25.4082V146.525Z" fill="#111111"/>
<path d="M101.402 146.525H119.626L138.596 94.1726H121.864L110.568 129.848L99.2709 94.1726H82.5391L101.402 146.525Z" fill="#111111"/>
<path d="M140.152 120.032C140.152 137.342 151.982 147.791 169.14 147.791C177.772 147.791 186.724 144.097 192.266 136.075L179.371 131.431C177.346 133.753 173.722 135.336 168.713 135.336C162.745 135.336 156.99 131.748 156.458 124.359H195.569C196.635 105.888 185.871 92.695 168.5 92.695C153.047 92.695 140.152 103.355 140.152 120.032ZM168.926 104.622C175.214 104.622 180.33 108.105 180.543 114.86H156.458C157.417 107.683 162.852 104.622 168.926 104.622Z" fill="#111111"/>
<path d="M219.485 146.525V120.138C219.485 111.799 223.748 108.422 231.634 108.422C233.126 108.422 234.298 108.527 236.004 108.738V92.695C227.904 92.2728 222.256 95.3337 218.952 103.778L216.075 94.1726H203.286V146.525H219.485Z" fill="#111111"/>
<path d="M240.42 94.1726L260.668 146.208L260.135 147.58C258.537 151.591 257.365 151.908 250.544 151.908H247.347L242.707 163.518H252.569C266.317 163.518 270.26 159.824 275.375 146.525L295.624 94.1726H278.253L268.128 126.893L257.791 94.1726H240.42Z" fill="#111111"/>
<path d="M275.375 146.525C275.332 146.635 275.29 146.745 275.247 146.854L276.37 146.9L297.173 93.1172H277.464L268.117 123.325L258.573 93.1172H238.866L259.526 146.208L260.649 146.255L260.668 146.208L240.419 94.1727H257.79L268.128 126.893L278.252 94.1727H295.623L275.375 146.525Z" fill="#111111"/>
<path d="M247.346 151.908H250.543C257.364 151.908 258.536 151.591 260.135 147.58L260.649 146.255L259.526 146.208L259.143 147.193L259.142 147.197C258.36 149.158 257.801 149.88 256.872 150.28C256.353 150.504 255.65 150.656 254.604 150.744C253.56 150.832 252.25 150.852 250.543 150.852H246.622L241.138 164.573H252.568C259.506 164.573 264.232 163.65 267.864 160.84C271.462 158.058 273.811 153.554 276.37 146.902L275.247 146.856C270.192 159.885 266.201 163.518 252.568 163.518H242.706L247.346 151.908Z" fill="#111111"/>
<path fill-rule="evenodd" clip-rule="evenodd" d="M225.111 94.0181C222.694 95.5242 220.72 97.7481 219.155 100.747L216.869 93.1172H202.22V147.58H220.55V120.138C220.55 116.134 221.571 113.54 223.327 111.926C225.098 110.298 227.818 109.477 231.633 109.477C233.063 109.477 234.186 109.577 235.871 109.786L237.069 109.934V91.6936L236.059 91.641C231.864 91.4223 228.189 92.1004 225.111 94.0181ZM236.003 92.695C228.414 92.2994 222.977 94.9618 219.604 102.245C219.377 102.735 219.16 103.246 218.951 103.778L216.074 94.1727H203.285V146.525H219.484V120.138C219.484 111.799 223.747 108.422 231.633 108.422C232.794 108.422 233.762 108.486 234.937 108.613C235.272 108.65 235.624 108.692 236.003 108.738V92.695Z" fill="#111111"/>
<path fill-rule="evenodd" clip-rule="evenodd" d="M193.145 136.671L193.92 135.548L179.044 130.191L178.563 130.741C176.797 132.767 173.51 134.281 168.713 134.281C165.936 134.281 163.254 133.446 161.221 131.801C159.435 130.357 158.102 128.252 157.65 125.415H196.575L196.633 124.42C197.178 114.972 194.702 106.776 189.766 100.924C184.819 95.058 177.476 91.6395 168.5 91.6395C152.532 91.6395 139.086 102.702 139.086 120.032C139.086 128.935 142.135 136.167 147.479 141.17C152.815 146.166 160.343 148.847 169.139 148.847C178.067 148.847 187.375 145.024 193.145 136.671ZM156.457 124.36C156.483 124.72 156.521 125.072 156.572 125.415C157.552 132.09 163.036 135.337 168.713 135.337C173.722 135.337 177.345 133.753 179.37 131.431L192.265 136.075C192.055 136.379 191.841 136.676 191.622 136.967C186.047 144.371 177.445 147.791 169.139 147.791C151.981 147.791 140.151 137.342 140.151 120.032C140.151 103.355 153.047 92.695 168.5 92.695C185.871 92.695 196.634 105.889 195.569 124.36H156.457Z" fill="#111111"/>
<path fill-rule="evenodd" clip-rule="evenodd" d="M168.926 104.622C174.877 104.622 179.779 107.743 180.466 113.805C180.505 114.147 180.531 114.499 180.542 114.86H156.457C156.505 114.498 156.565 114.146 156.636 113.805C157.966 107.382 163.158 104.622 168.926 104.622ZM176.332 108.021C174.473 106.496 171.88 105.677 168.926 105.677C166.06 105.677 163.424 106.4 161.412 107.894C159.669 109.189 158.33 111.11 157.725 113.805H179.393C179.077 111.258 177.948 109.346 176.332 108.021Z" fill="#111111"/>
<path fill-rule="evenodd" clip-rule="evenodd" d="M81.0266 93.1172L100.65 147.58H120.375L140.11 93.1172H121.081L110.567 126.321L100.053 93.1172H81.0266ZM101.402 146.525H119.625L138.595 94.1727H121.863L110.567 129.848L99.2702 94.1727H82.5384L101.402 146.525Z" fill="#111111"/>
<path fill-rule="evenodd" clip-rule="evenodd" d="M43.3116 101.878V91.7451H75.6624L81.6963 74.9629H24.3418V147.58H81.6963L75.6624 130.798H43.3116V118.66H66.4377V101.878H43.3116ZM42.2459 90.6896H74.9106L80.1855 76.0184H25.4075V146.525H80.1855L74.9106 131.853H42.2459V117.604H65.372V102.933H42.2459V90.6896Z" fill="#111111"/>
<path d="M25.4082 171.654V242.16H57.6995C74.9642 242.16 86.4739 236.249 86.4739 220.417C86.4739 211.868 81.7848 206.907 75.1773 204.69C80.5059 201.418 83.5965 196.458 83.5965 190.019C83.5965 175.242 71.9801 171.654 56.5272 171.654H25.4082ZM57.8061 212.395C65.053 212.395 68.6764 215.351 68.6764 220.311C68.6764 225.272 65.053 228.333 57.8061 228.333H42.2466V212.395H57.8061ZM57.0601 185.269C62.7084 185.269 66.1187 187.908 66.1187 192.341C66.1187 196.669 62.7084 199.518 57.0601 199.518H42.2466V185.269H57.0601Z" fill="#111111"/>
<path d="M92.2779 215.773C92.2779 234.666 105.599 243.427 120.306 243.427C134.8 243.427 148.228 234.666 148.228 215.773C148.228 196.88 134.8 188.33 120.306 188.33C105.599 188.33 92.2779 196.88 92.2779 215.773ZM120.306 200.785C126.594 200.785 131.71 204.69 131.71 215.773C131.71 226.75 126.807 230.972 120.306 230.972C113.699 230.972 108.797 226.75 108.797 215.773C108.797 204.69 113.912 200.785 120.306 200.785Z" fill="#111111"/>
<path d="M176.709 243.427C182.464 243.427 188.751 241.105 193.227 235.088L195.359 242.16H210.812C209.32 234.455 209 226.961 209 221.684V171.654H192.801V196.985C189.391 191.18 182.464 188.33 176.709 188.33C163.068 188.33 153.369 198.463 153.369 215.562C153.369 232.661 163.068 243.427 176.709 243.427ZM181.931 200.785C188.218 200.785 193.547 205.218 193.547 215.878C193.547 226.75 188.218 230.972 181.931 230.972C175.536 230.972 170.208 225.272 170.208 215.562C170.208 205.957 175.536 200.785 181.931 200.785Z" fill="#111111"/>
<path d="M214.297 189.808L234.546 241.843L234.013 243.215C232.414 247.226 231.242 247.543 224.421 247.543H221.224L216.357 259.153H226.446C240.194 259.153 244.137 255.459 249.253 242.16L269.501 189.808H252.13L242.006 222.528L231.668 189.808H214.297Z" fill="#111111"/>
<path d="M249.252 242.16C249.209 242.271 249.167 242.38 249.125 242.49L250.248 242.536L271.05 188.753H251.341L241.994 218.96L232.451 188.753H212.743L233.403 241.844L234.527 241.89L234.545 241.843L214.296 189.808H231.668L242.005 222.528L252.129 189.808H269.501L249.252 242.16Z" fill="#111111"/>
<path d="M221.223 247.543H224.421C231.241 247.543 232.413 247.226 234.012 243.216L234.527 241.89L233.403 241.844L233.021 242.828L233.019 242.833C232.237 244.793 231.678 245.515 230.749 245.916C230.231 246.139 229.527 246.291 228.481 246.379C227.438 246.467 226.127 246.488 224.421 246.488H220.512L214.76 260.209H226.445C233.384 260.209 238.109 259.285 241.742 256.476C245.34 253.693 247.688 249.19 250.247 242.538L249.124 242.491C244.07 255.521 240.078 259.153 226.445 259.153H216.356L221.223 247.543Z" fill="#111111"/>
<path fill-rule="evenodd" clip-rule="evenodd" d="M191.735 193.751C187.79 189.384 181.793 187.275 176.708 187.275C169.605 187.275 163.469 189.921 159.121 194.839C154.784 199.744 152.303 206.819 152.303 215.562C152.303 224.304 154.783 231.529 159.11 236.588C163.448 241.662 169.584 244.482 176.708 244.482C182.219 244.482 188.208 242.451 192.785 237.312L194.564 243.216H212.101L211.858 241.961C210.383 234.346 210.065 226.925 210.065 221.684V170.598H191.735V193.751ZM192.422 236.108C192.696 235.781 192.964 235.441 193.227 235.088L195.358 242.16H210.811C210.743 241.808 210.677 241.456 210.614 241.105C209.29 233.774 208.999 226.72 208.999 221.684V171.654H192.8V196.985C192.476 196.433 192.119 195.907 191.735 195.407C188.082 190.663 181.915 188.33 176.708 188.33C163.067 188.33 153.369 198.463 153.369 215.562C153.369 232.661 163.067 243.427 176.708 243.427C182.126 243.427 188.016 241.369 192.422 236.108Z" fill="#111111"/>
<path fill-rule="evenodd" clip-rule="evenodd" d="M193.546 215.879C193.546 205.218 188.218 200.785 181.93 200.785C175.536 200.785 170.207 205.957 170.207 215.562C170.207 225.272 175.536 230.972 181.93 230.972C188.218 230.972 193.546 226.75 193.546 215.879ZM189.288 205.022C187.401 202.847 184.81 201.841 181.93 201.841C179.039 201.841 176.409 203.002 174.484 205.254C172.551 207.515 171.273 210.949 171.273 215.562C171.273 224.921 176.334 229.916 181.93 229.916C184.824 229.916 187.412 228.953 189.292 226.81C191.187 224.649 192.481 221.156 192.481 215.879C192.481 210.712 191.19 207.213 189.288 205.022Z" fill="#111111"/>
<path fill-rule="evenodd" clip-rule="evenodd" d="M91.2115 215.773C91.2115 225.484 94.6454 232.698 100.068 237.474C105.471 242.231 112.748 244.482 120.306 244.482C127.76 244.482 135.009 242.23 140.41 237.474C145.831 232.7 149.293 225.486 149.293 215.773C149.293 206.059 145.83 198.896 140.405 194.174C135.002 189.471 127.753 187.275 120.306 187.275C112.754 187.275 105.478 189.47 100.073 194.174C94.6461 198.897 91.2115 206.061 91.2115 215.773ZM120.306 243.427C105.599 243.427 92.2772 234.666 92.2772 215.773C92.2772 196.88 105.599 188.33 120.306 188.33C134.799 188.33 148.228 196.88 148.228 215.773C148.228 234.666 134.799 243.427 120.306 243.427Z" fill="#111111"/>
<path fill-rule="evenodd" clip-rule="evenodd" d="M120.306 200.785C126.593 200.785 131.709 204.69 131.709 215.773C131.709 226.75 126.807 230.972 120.306 230.972C113.698 230.972 108.796 226.75 108.796 215.773C108.796 204.69 113.911 200.785 120.306 200.785ZM127.56 204.814C125.744 202.738 123.22 201.841 120.306 201.841C117.333 201.841 114.783 202.741 112.956 204.817C111.109 206.915 109.862 210.374 109.862 215.773C109.862 221.126 111.059 224.645 112.89 226.811C114.695 228.948 117.242 229.916 120.306 229.916C123.311 229.916 125.832 228.951 127.626 226.814C129.445 224.647 130.643 221.126 130.643 215.773C130.643 210.374 129.395 206.914 127.56 204.814Z" fill="#111111"/>
<path fill-rule="evenodd" clip-rule="evenodd" d="M76.3858 174.379C71.2967 171.491 64.2915 170.598 56.5265 170.598H24.3418V243.216H57.6988C66.4209 243.216 73.8717 241.728 79.1674 238.093C84.5341 234.409 87.539 228.623 87.539 220.417C87.539 215.942 86.3078 212.331 84.149 209.537C82.4051 207.281 80.0932 205.605 77.4396 204.433C82.0165 201.004 84.6615 196.13 84.6615 190.019C84.6615 186.188 83.9079 183.011 82.4748 180.41C81.0386 177.804 78.9529 175.836 76.3858 174.379ZM75.1766 204.69C75.6 204.832 76.0156 204.986 76.4225 205.151C82.3658 207.557 86.4732 212.416 86.4732 220.417C86.4732 236.249 74.9635 242.16 57.6988 242.16H25.4075V171.654H56.5265C71.9795 171.654 83.5958 175.242 83.5958 190.019C83.5958 195.997 80.9314 200.701 76.2849 203.963C75.9271 204.214 75.5576 204.456 75.1766 204.69Z" fill="#111111"/>
<path fill-rule="evenodd" clip-rule="evenodd" d="M57.0594 185.269C62.7077 185.269 66.118 187.908 66.118 192.341C66.118 196.669 62.7077 199.519 57.0594 199.519H42.2459V185.269H57.0594ZM63.0481 187.973C61.7358 186.951 59.7316 186.325 57.0594 186.325H43.3116V198.463H57.0594C59.7134 198.463 61.7171 197.793 63.035 196.733C64.3298 195.692 65.0523 194.206 65.0523 192.341C65.0523 190.42 64.328 188.969 63.0481 187.973Z" fill="#111111"/>
<path fill-rule="evenodd" clip-rule="evenodd" d="M57.8054 212.395C65.0523 212.395 68.6757 215.351 68.6757 220.312C68.6757 225.272 65.0523 228.333 57.8054 228.333H42.2459V212.395H57.8054ZM65.3147 215.335C63.7597 214.168 61.306 213.451 57.8054 213.451H43.3116V227.278H57.8054C61.2986 227.278 63.7508 226.537 65.3069 225.347C66.8218 224.189 67.61 222.512 67.61 220.312C67.61 218.113 66.8237 216.466 65.3147 215.335Z" fill="#111111"/>
<path d="M25.4082 263.882V334.388H41.7137V278.975L58.5521 334.388H72.4064L89.3514 278.975V334.388H105.763V263.882H80.5059L65.4792 314.44L50.6658 263.882H25.4082Z" fill="#111111"/>
<path d="M112.989 308.001C112.989 326.894 126.31 335.655 141.017 335.655C155.511 335.655 168.939 326.894 168.939 308.001C168.939 289.108 155.511 280.559 141.017 280.559C126.31 280.559 112.989 289.108 112.989 308.001ZM141.017 293.013C147.305 293.013 152.42 296.919 152.42 308.001C152.42 318.978 147.518 323.2 141.017 323.2C134.41 323.2 129.507 318.978 129.507 308.001C129.507 296.919 134.623 293.013 141.017 293.013Z" fill="#111111"/>
<path d="M190.386 334.388H208.61L227.579 282.036H210.848L199.551 317.712L188.254 282.036H171.522L190.386 334.388Z" fill="#111111"/>
<path d="M229.135 307.896C229.135 325.206 240.965 335.655 258.123 335.655C266.755 335.655 275.707 331.961 281.249 323.939L268.354 319.295C266.329 321.617 262.706 323.2 257.697 323.2C251.729 323.2 245.974 319.612 245.441 312.223H284.553C285.619 293.752 274.855 280.559 257.484 280.559C242.031 280.559 229.135 291.219 229.135 307.896ZM257.91 292.486C264.198 292.486 269.313 295.969 269.526 302.724H245.441C246.4 295.547 251.835 292.486 257.91 292.486Z" fill="#111111"/>
<path d="M315.076 335.655C329.25 335.655 340.973 329.639 340.973 317.29C340.973 308.529 335.005 304.835 322.216 302.513L312.411 300.718C307.722 299.874 305.911 298.607 305.911 296.497C305.911 293.752 308.895 292.275 314.649 292.275C319.445 292.275 323.495 293.33 324.561 297.13L338.202 292.169C334.259 283.936 324.88 280.559 314.756 280.559C301.648 280.559 290.458 286.153 290.458 297.13C290.458 305.89 297.491 311.062 307.722 312.751L317.207 314.334C323.282 315.39 325.413 316.867 325.413 319.084C325.413 322.356 320.617 323.939 315.395 323.939C309.321 323.939 304.525 321.828 302.926 317.395L289.179 322.356C293.228 331.116 302.713 335.655 315.076 335.655Z" fill="#111111"/>
<path fill-rule="evenodd" clip-rule="evenodd" d="M24.3418 262.827H51.4655L65.4859 310.677L79.708 262.827H106.828V335.444H88.285V286.102L73.1965 335.444H57.7592L42.7787 286.145V335.444H24.3418V262.827ZM41.713 278.976L58.5514 334.388H72.4057L89.3507 278.976V334.388H105.763V263.882H80.5052L65.4786 314.44L50.6651 263.882H25.4075V334.388H41.713V278.976ZM189.634 335.444L170.01 280.981H189.036L199.55 314.185L210.064 280.981H229.093L209.359 335.444H189.634ZM199.55 317.712L188.254 282.036H171.522L190.385 334.388H208.609L227.579 282.036H210.847L199.55 317.712ZM282.904 323.412L282.128 324.535C276.358 332.887 267.05 336.711 258.122 336.711C249.326 336.711 241.799 334.029 236.462 329.034C231.118 324.031 228.069 316.799 228.069 307.896C228.069 290.566 241.515 279.503 257.483 279.503C266.459 279.503 273.802 282.922 278.749 288.788C283.685 294.64 286.161 302.836 285.616 312.284L285.559 313.279H246.633C247.085 316.116 248.418 318.221 250.204 319.665C252.237 321.309 254.919 322.145 257.696 322.145C262.493 322.145 265.781 320.63 267.547 318.605L268.027 318.054L282.904 323.412ZM245.555 313.279C245.505 312.936 245.466 312.584 245.44 312.223H284.552C285.618 293.752 274.854 280.559 257.483 280.559C242.03 280.559 229.135 291.219 229.135 307.896C229.135 325.206 240.964 335.655 258.122 335.655C266.428 335.655 275.03 332.235 280.605 324.831C280.824 324.54 281.039 324.242 281.248 323.939L268.353 319.295C266.328 321.617 262.705 323.2 257.696 323.2C252.02 323.2 246.536 319.954 245.555 313.279ZM312.411 300.719L322.215 302.513C335.004 304.835 340.972 308.529 340.972 317.29C340.972 329.639 329.249 335.655 315.075 335.655C303.169 335.655 293.932 331.446 289.649 323.309C289.485 322.997 289.328 322.68 289.178 322.356L302.926 317.395C302.939 317.43 302.951 317.466 302.965 317.501C304.601 321.862 309.368 323.939 315.395 323.939C320.617 323.939 325.413 322.356 325.413 319.084C325.413 316.867 323.281 315.39 317.206 314.334L307.722 312.751C297.491 311.062 290.457 305.89 290.457 297.13C290.457 286.153 301.647 280.559 314.755 280.559C324.482 280.559 333.521 283.677 337.712 291.223C337.883 291.531 338.046 291.846 338.201 292.169L324.56 297.13C324.467 296.797 324.35 296.486 324.213 296.194C322.779 293.153 319.025 292.275 314.649 292.275C308.894 292.275 305.91 293.752 305.91 296.497C305.91 298.608 307.722 299.874 312.411 300.719ZM307.546 313.792C307.546 313.792 307.546 313.792 307.545 313.792C302.311 312.928 297.789 311.158 294.556 308.391C291.292 305.598 289.391 301.827 289.391 297.13C289.391 291.222 292.428 286.767 297.122 283.835C301.778 280.927 308.068 279.503 314.755 279.503C325.047 279.503 334.96 282.938 339.164 291.717L339.664 292.761L323.842 298.515L323.533 297.412C323.102 295.877 322.09 294.885 320.584 294.248C319.034 293.591 316.991 293.33 314.649 293.33C311.832 293.33 309.84 293.697 308.591 294.304C307.978 294.602 307.583 294.939 307.34 295.283C307.104 295.619 306.976 296.011 306.976 296.497C306.976 297.167 307.223 297.696 307.993 298.204C308.844 298.766 310.291 299.264 312.601 299.68L312.604 299.681L322.408 301.475C322.408 301.475 322.408 301.475 322.408 301.475C328.831 302.641 333.731 304.179 337.031 306.644C340.421 309.177 342.038 312.621 342.038 317.29C342.038 323.854 338.896 328.763 333.922 331.986C328.992 335.182 322.293 336.711 315.075 336.711C302.477 336.711 292.497 332.071 288.209 322.795L287.728 321.756L303.569 316.04L303.929 317.04C305.301 320.843 309.493 322.884 315.395 322.884C317.919 322.884 320.263 322.498 321.934 321.772C323.627 321.036 324.347 320.099 324.347 319.084C324.347 318.708 324.26 318.398 324.081 318.115C323.896 317.822 323.578 317.503 323.034 317.175C321.919 316.504 320.032 315.897 317.027 315.375C317.025 315.374 317.024 315.374 317.022 315.374L307.546 313.792ZM120.779 329.702C115.356 324.926 111.922 317.712 111.922 308.001C111.922 298.29 115.357 291.126 120.784 286.402C126.188 281.698 133.465 279.503 141.016 279.503C148.464 279.503 155.713 281.7 161.116 286.402C166.541 291.124 170.004 298.287 170.004 308.001C170.004 317.715 166.542 324.928 161.121 329.702C155.72 334.458 148.47 336.711 141.016 336.711C133.459 336.711 126.182 334.46 120.779 329.702ZM148.27 297.042C146.455 294.966 143.931 294.069 141.016 294.069C138.044 294.069 135.494 294.969 133.667 297.045C131.82 299.144 130.572 302.603 130.572 308.001C130.572 313.354 131.77 316.873 133.601 319.04C135.406 321.176 137.953 322.145 141.016 322.145C144.022 322.145 146.542 321.179 148.336 319.042C150.156 316.875 151.354 313.354 151.354 308.001C151.354 302.603 150.106 299.142 148.27 297.042ZM265.316 295.885C263.456 294.36 260.863 293.541 257.909 293.541C255.043 293.541 252.407 294.264 250.396 295.758C248.653 297.053 247.314 298.974 246.709 301.668H268.377C268.061 299.122 266.932 297.21 265.316 295.885ZM269.45 301.668C268.762 295.606 263.861 292.486 257.909 292.486C252.141 292.486 246.95 295.245 245.619 301.668C245.548 302.01 245.489 302.362 245.44 302.724H269.525C269.514 302.363 269.489 302.011 269.45 301.668ZM112.988 308.001C112.988 326.895 126.309 335.655 141.016 335.655C155.51 335.655 168.938 326.895 168.938 308.001C168.938 289.108 155.51 280.559 141.016 280.559C126.309 280.559 112.988 289.108 112.988 308.001ZM141.016 293.013C147.304 293.013 152.42 296.919 152.42 308.001C152.42 318.978 147.517 323.2 141.016 323.2C134.409 323.2 129.507 318.978 129.507 308.001C129.507 296.919 134.622 293.013 141.016 293.013Z" fill="#111111"/>
<path d="M4.48828 425.079V373.121L380.479 373.121L402.411 425.079H4.48828Z" fill="white"/>
<path d="M27.9325 407.522V401.134H30.7269C35.6101 401.134 39.2796 399.95 39.2796 395.131C39.2796 390.313 35.6101 389.129 30.7269 389.129H23.4727V407.522H27.9325ZM27.9325 392.791H30.868C32.9286 392.791 34.5657 393.204 34.5657 395.131C34.5657 397.086 32.9286 397.527 30.868 397.527H27.9325V392.791Z" fill="#111111"/>
<path d="M40.7978 400.638C40.7978 405.567 44.3262 407.852 48.2214 407.852C52.0602 407.852 55.6168 405.567 55.6168 400.638C55.6168 395.709 52.0602 393.479 48.2214 393.479C44.3262 393.479 40.7978 395.709 40.7978 400.638ZM48.2214 396.728C49.8868 396.728 51.2417 397.747 51.2417 400.638C51.2417 403.502 49.9433 404.603 48.2214 404.603C46.4714 404.603 45.173 403.502 45.173 400.638C45.173 397.747 46.5278 396.728 48.2214 396.728Z" fill="#111111"/>
<path d="M59.8012 407.522H64.4868L66.4909 397.72L68.5232 407.522H73.2088L76.7089 393.865H72.4467L70.3297 403.116L68.5232 393.865H64.4586L62.6521 403.116L60.5351 393.865H56.3011L59.8012 407.522Z" fill="#111111"/>
<path d="M77.3766 400.611C77.3766 405.126 80.5098 407.852 85.0543 407.852C87.3406 407.852 89.7117 406.888 91.1794 404.796L87.764 403.584C87.2277 404.19 86.268 404.603 84.9414 404.603C83.3607 404.603 81.8364 403.667 81.6953 401.74H92.0545C92.3367 396.921 89.4858 393.479 84.8849 393.479C80.7921 393.479 77.3766 396.26 77.3766 400.611ZM84.9978 396.591C86.6632 396.591 88.0181 397.499 88.0745 399.261H81.6953C81.9493 397.389 83.3889 396.591 84.9978 396.591Z" fill="#111111"/>
<path d="M98.3887 407.522V400.638C98.3887 398.463 99.5178 397.582 101.607 397.582C102.002 397.582 102.312 397.609 102.764 397.664V393.479C100.619 393.369 99.1226 394.168 98.2476 396.37L97.4854 393.865H94.0983V407.522H98.3887Z" fill="#111111"/>
<path d="M103.867 400.611C103.867 405.126 107 407.852 111.544 407.852C113.831 407.852 116.202 406.888 117.669 404.796L114.254 403.584C113.718 404.19 112.758 404.603 111.431 404.603C109.851 404.603 108.326 403.667 108.185 401.74H118.544C118.827 396.921 115.976 393.479 111.375 393.479C107.282 393.479 103.867 396.26 103.867 400.611ZM111.488 396.591C113.153 396.591 114.508 397.499 114.565 399.261H108.185C108.439 397.389 109.879 396.591 111.488 396.591Z" fill="#111111"/>
<path d="M126.036 407.852C127.56 407.852 129.226 407.246 130.411 405.677L130.976 407.522H135.068C134.673 405.512 134.589 403.557 134.589 402.18V389.129H130.298V395.737C129.395 394.223 127.56 393.479 126.036 393.479C122.423 393.479 119.854 396.123 119.854 400.583C119.854 405.044 122.423 407.852 126.036 407.852ZM127.419 396.728C129.084 396.728 130.496 397.885 130.496 400.666C130.496 403.502 129.084 404.603 127.419 404.603C125.725 404.603 124.314 403.116 124.314 400.583C124.314 398.077 125.725 396.728 127.419 396.728Z" fill="#111111"/>
<path d="M146.444 389.129V407.522H150.198L150.735 405.677C151.638 407.191 153.501 407.852 154.997 407.852C158.61 407.852 161.179 405.044 161.179 400.583C161.179 396.123 158.61 393.479 154.997 393.479C153.501 393.479 151.638 394.223 150.735 395.737V389.129H146.444ZM150.537 400.666C150.537 397.885 151.948 396.728 153.642 396.728C155.307 396.728 156.719 398.077 156.719 400.583C156.719 403.116 155.307 404.603 153.642 404.603C151.948 404.603 150.537 403.502 150.537 400.666Z" fill="#111111"/>
<path d="M161.848 393.865L167.211 407.439L167.07 407.797C166.646 408.843 166.336 408.926 164.529 408.926H163.682V411.955H165.065C168.707 411.955 169.751 410.991 171.106 407.522L176.469 393.865H171.868L169.187 402.4L166.449 393.865H161.848Z" fill="#111111"/>
<path fill-rule="evenodd" clip-rule="evenodd" d="M261.822 414.807H269.058V402.978L281.507 383.655H273.175L265.44 396.749L257.706 383.655H249.371L261.822 402.978V414.807ZM215.168 399.037C215.168 389.913 222.752 382.516 232.107 382.516C241.46 382.516 249.043 389.913 249.043 399.037C249.043 408.162 241.46 415.557 232.107 415.557C222.752 415.557 215.168 408.162 215.168 399.037ZM232.107 409.499C237.328 409.499 241.563 404.815 241.563 399.037C241.563 393.259 237.328 388.574 232.107 388.574C226.884 388.574 222.649 393.259 222.649 399.037C222.649 404.814 226.884 409.499 232.107 409.499ZM203.389 414.807H196.253V389.4H186.297V383.655H213.343V389.4H203.389V414.807ZM353.514 407.798L350.77 414.807H342.437L355.612 383.655H364.492L377.669 414.807H369.334L366.59 407.798L353.514 407.798ZM360.084 391.14H360.022L355.562 402.541H364.542L360.084 391.14ZM334.928 414.807H327.792V389.4H317.836V383.655H344.882V389.4H334.928V414.807ZM281.837 399.037C281.837 389.913 289.421 382.516 298.772 382.516C308.128 382.516 315.711 389.913 315.711 399.037C315.711 408.162 308.128 415.557 298.772 415.557C289.421 415.557 281.837 408.162 281.837 399.037ZM298.772 409.499C303.996 409.499 308.231 404.815 308.231 399.037C308.231 393.259 303.996 388.574 298.772 388.574C293.552 388.574 289.318 393.259 289.318 399.037C289.318 404.814 293.552 409.499 298.772 409.499Z" fill="#FF0022"/>
<path d="M275.375 146.525C275.332 146.635 275.29 146.745 275.247 146.854L276.37 146.9L297.173 93.1172H277.464L268.117 123.325L258.573 93.1172H238.866L259.526 146.208L260.649 146.255L260.668 146.208L240.419 94.1727H257.79L268.128 126.893L278.252 94.1727H295.623L275.375 146.525Z" fill="#111111"/>
<path d="M247.346 151.908H250.543C257.364 151.908 258.536 151.591 260.135 147.58L260.649 146.255L259.526 146.208L259.143 147.193L259.142 147.197C258.36 149.158 257.801 149.88 256.872 150.28C256.353 150.504 255.65 150.656 254.604 150.744C253.56 150.832 252.25 150.852 250.543 150.852H246.622L241.138 164.573H252.568C259.506 164.573 264.232 163.65 267.864 160.84C271.462 158.058 273.811 153.554 276.37 146.902L275.247 146.856C270.192 159.885 266.201 163.518 252.568 163.518H242.706L247.346 151.908Z" fill="#111111"/>
<path fill-rule="evenodd" clip-rule="evenodd" d="M225.111 94.0181C222.694 95.5242 220.72 97.7481 219.155 100.747L216.869 93.1172H202.22V147.58H220.55V120.138C220.55 116.134 221.571 113.54 223.327 111.926C225.098 110.298 227.818 109.477 231.633 109.477C233.063 109.477 234.186 109.577 235.871 109.786L237.069 109.934V91.6936L236.059 91.641C231.864 91.4223 228.189 92.1004 225.111 94.0181ZM236.003 92.695C228.414 92.2994 222.977 94.9618 219.604 102.245C219.377 102.735 219.16 103.246 218.951 103.778L216.074 94.1727H203.285V146.525H219.484V120.138C219.484 111.799 223.747 108.422 231.633 108.422C232.794 108.422 233.762 108.486 234.937 108.613C235.272 108.65 235.624 108.692 236.003 108.738V92.695Z" fill="#111111"/>
<path fill-rule="evenodd" clip-rule="evenodd" d="M193.145 136.671L193.92 135.548L179.044 130.191L178.563 130.741C176.797 132.767 173.51 134.281 168.713 134.281C165.936 134.281 163.254 133.446 161.221 131.801C159.435 130.357 158.102 128.252 157.65 125.415H196.575L196.633 124.42C197.178 114.972 194.702 106.776 189.766 100.924C184.819 95.058 177.476 91.6395 168.5 91.6395C152.532 91.6395 139.086 102.702 139.086 120.032C139.086 128.935 142.135 136.167 147.479 141.17C152.815 146.166 160.343 148.847 169.139 148.847C178.067 148.847 187.375 145.024 193.145 136.671ZM156.457 124.36C156.483 124.72 156.521 125.072 156.572 125.415C157.552 132.09 163.036 135.337 168.713 135.337C173.722 135.337 177.345 133.753 179.37 131.431L192.265 136.075C192.055 136.379 191.841 136.676 191.622 136.967C186.047 144.371 177.445 147.791 169.139 147.791C151.981 147.791 140.151 137.342 140.151 120.032C140.151 103.355 153.047 92.695 168.5 92.695C185.871 92.695 196.634 105.889 195.569 124.36H156.457Z" fill="#111111"/>
<path fill-rule="evenodd" clip-rule="evenodd" d="M168.926 104.622C174.877 104.622 179.779 107.743 180.466 113.805C180.505 114.147 180.531 114.499 180.542 114.86H156.457C156.505 114.498 156.565 114.146 156.636 113.805C157.966 107.382 163.158 104.622 168.926 104.622ZM176.332 108.021C174.473 106.496 171.88 105.677 168.926 105.677C166.06 105.677 163.424 106.4 161.412 107.894C159.669 109.189 158.33 111.11 157.725 113.805H179.393C179.077 111.258 177.948 109.346 176.332 108.021Z" fill="#111111"/>
<path fill-rule="evenodd" clip-rule="evenodd" d="M81.0266 93.1172L100.65 147.58H120.375L140.11 93.1172H121.081L110.567 126.321L100.053 93.1172H81.0266ZM101.402 146.525H119.625L138.595 94.1727H121.863L110.567 129.848L99.2702 94.1727H82.5384L101.402 146.525Z" fill="#111111"/>
<path fill-rule="evenodd" clip-rule="evenodd" d="M43.3116 101.878V91.7451H75.6624L81.6963 74.9629H24.3418V147.58H81.6963L75.6624 130.798H43.3116V118.66H66.4377V101.878H43.3116ZM42.2459 90.6896H74.9106L80.1855 76.0184H25.4075V146.525H80.1855L74.9106 131.853H42.2459V117.604H65.372V102.933H42.2459V90.6896Z" fill="#111111"/>
<rect y="0.764526" width="4" height="55" fill="#D1D1F9"/>
<path d="M169.08 17.3805C169.08 19.6845 171.024 20.9805 173.526 20.9805C176.046 20.9805 177.99 19.6845 177.99 17.3805C177.99 15.8325 177.108 14.7165 175.776 14.1765C176.406 13.5825 176.802 12.7365 176.802 11.7825C176.802 9.98253 175.344 8.52453 173.526 8.52453C171.726 8.52453 170.268 9.98253 170.268 11.7825C170.268 12.7365 170.664 13.5825 171.294 14.1765C169.962 14.7165 169.08 15.8325 169.08 17.3805ZM170.718 17.3805C170.718 15.9765 171.816 15.0585 173.526 15.0585C175.254 15.0585 176.352 15.9765 176.352 17.3805C176.352 18.7845 175.254 19.6485 173.526 19.6485C171.816 19.6485 170.718 18.7845 170.718 17.3805ZM171.6 11.7645C171.6 10.7025 172.464 9.85653 173.526 9.85653C174.588 9.85653 175.452 10.7025 175.452 11.7645C175.452 12.8625 174.588 13.7265 173.526 13.7265C172.464 13.7265 171.6 12.8625 171.6 11.7645ZM184.906 20.9805C188.002 20.9805 189.658 18.7665 189.658 14.7345C189.658 10.7385 188.002 8.52453 184.906 8.52453C181.81 8.52453 180.154 10.7385 180.154 14.7345C180.154 18.7665 181.81 20.9805 184.906 20.9805ZM181.792 14.7345C181.792 13.6725 181.9 12.7545 182.152 12.0165L186.904 18.8385C186.418 19.3605 185.752 19.6485 184.906 19.6485C182.782 19.6485 181.792 17.8845 181.792 14.7345ZM184.906 9.85653C187.012 9.85653 188.02 11.6025 188.02 14.7345C188.02 15.7605 187.912 16.6425 187.714 17.3445L182.98 10.5765C183.466 10.1085 184.114 9.85653 184.906 9.85653ZM192.006 11.8365V23.6625H193.518V19.4145C194.058 20.3685 195.012 20.9805 196.416 20.9805C198.45 20.9805 200.25 19.2705 200.25 16.3365C200.25 13.3845 198.45 11.6925 196.416 11.6925C195.012 11.6925 194.058 12.3045 193.518 13.2405L193.104 11.8365H192.006ZM193.482 16.3365C193.482 14.2125 194.49 12.9885 196.02 12.9885C197.55 12.9885 198.558 14.2125 198.558 16.3365C198.558 18.4605 197.55 19.6845 196.02 19.6845C194.49 19.6845 193.482 18.4605 193.482 16.3365ZM200.941 20.7645H202.723L205.081 17.4345L207.457 20.7645H209.239L205.981 16.1745L209.077 11.8365H207.295L205.081 14.9325L202.885 11.8365H201.103L204.199 16.1745L200.941 20.7645ZM215.651 8.74053V20.7645H217.343V10.5045L220.835 20.7645H222.509L225.983 10.5045V20.7645H227.675V8.74053H224.867L221.663 18.5685L218.459 8.74053H215.651ZM229.859 11.8365V13.0425H231.101V20.7645H232.613V11.8365H229.859ZM231.857 10.1445C232.487 10.1445 232.991 9.64053 232.991 9.01053C232.991 8.39853 232.487 7.89453 231.857 7.89453C231.245 7.89453 230.741 8.39853 230.741 9.01053C230.741 9.64053 231.245 10.1445 231.857 10.1445ZM235.319 11.8365V20.7645H236.831V15.9225C236.831 14.0145 237.731 12.9885 239.189 12.9885C240.917 12.9885 241.151 14.1945 241.151 15.5625V20.7645H242.663V15.1125C242.663 13.0785 241.871 11.6925 239.711 11.6925C238.199 11.6925 237.335 12.3405 236.831 13.1865L236.435 11.8365H235.319Z" fill="#D1D1F9"/>
<rect x="4" y="28.7645" width="404" height="4" fill="#D1D1F9"/>
<rect x="408" y="0.764526" width="4" height="55" fill="#D1D1F9"/>
</svg>
