<svg width="562" height="430" viewBox="0 0 562 430" fill="none" xmlns="http://www.w3.org/2000/svg">
<path d="M433.188 164.699H409.649L463.571 25.8221H142.152L151.887 0.79834H0.810974V428.498H561.953L502.894 288.817H380.015L433.188 164.699Z" fill="white"/>
<path d="M485.034 384.582C485.034 392.682 491.634 399.282 499.734 399.282C507.684 399.282 514.284 392.682 514.284 384.582C514.284 376.482 507.684 370.032 499.734 370.032C491.634 370.032 485.034 376.482 485.034 384.582Z" fill="#5A16CA"/>
<path d="M30.4844 130.499H107.584L100.16 109.649H54.1844V89.3993H86.7344V68.5493H54.1844V51.1493H100.16L107.584 30.2993H30.4844V130.499Z" fill="#111111"/>
<path d="M137.446 130.499H163.096L189.796 56.0993H166.246L150.346 106.799L134.446 56.0993H110.896L137.446 130.499Z" fill="#111111"/>
<path d="M191.986 92.8493C191.986 117.449 208.636 132.299 232.786 132.299C244.936 132.299 257.536 127.049 265.336 115.649L247.186 109.049C244.336 112.349 239.236 114.599 232.186 114.599C223.786 114.599 215.686 109.499 214.936 98.9993H269.986C271.486 72.7493 256.336 53.9993 231.886 53.9993C210.136 53.9993 191.986 69.1493 191.986 92.8493ZM232.486 70.9493C241.336 70.9493 248.536 75.8993 248.836 85.4993H214.936C216.286 75.2993 223.936 70.9493 232.486 70.9493Z" fill="#111111"/>
<path d="M303.647 130.499V92.9993C303.647 81.1493 309.647 76.3493 320.747 76.3493C322.847 76.3493 324.497 76.4993 326.897 76.7993V53.9993C315.497 53.3993 307.547 57.7493 302.897 69.7493L298.847 56.0993H280.847V130.499H303.647Z" fill="#111111"/>
<path d="M333.113 56.0993L361.613 130.049L360.863 131.999C358.613 137.699 356.963 138.149 347.363 138.149H342.863L336.332 154.649H350.213C369.563 154.649 375.113 149.399 382.313 130.499L410.813 56.0993H386.363L372.113 102.599L357.563 56.0993H333.113Z" fill="#111111"/>
<path d="M382.313 130.499C382.253 130.656 382.193 130.813 382.134 130.968L383.715 131.033L412.994 54.5993H385.254L372.098 97.5286L358.665 54.5993H330.927L360.006 130.05L361.587 130.116L361.613 130.049L333.113 56.0993H357.563L372.113 102.599L386.363 56.0993H410.813L382.313 130.499Z" fill="#111111"/>
<path d="M342.863 138.149H347.363C356.963 138.149 358.613 137.699 360.863 131.999L361.587 130.116L360.006 130.05L359.468 131.449L359.465 131.455C358.364 134.242 357.577 135.267 356.27 135.837C355.541 136.154 354.551 136.37 353.078 136.495C351.61 136.621 349.765 136.649 347.363 136.649H341.843L334.125 156.149H350.213C359.978 156.149 366.629 154.837 371.742 150.844C376.806 146.89 380.112 140.489 383.714 131.036L382.133 130.97C375.019 149.487 369.401 154.649 350.213 154.649H336.332L342.863 138.149Z" fill="#111111"/>
<path fill-rule="evenodd" clip-rule="evenodd" d="M311.567 55.8797C308.165 58.02 305.386 61.1805 303.184 65.4427L299.967 54.5993H279.347V131.999H305.147V92.9993C305.147 87.3099 306.585 83.6236 309.055 81.3298C311.548 79.0152 315.378 77.8493 320.747 77.8493C322.759 77.8493 324.341 77.9914 326.711 78.2877L328.397 78.4985V52.5762L326.976 52.5014C321.072 52.1906 315.9 53.1542 311.567 55.8797ZM326.897 53.9993C316.216 53.4371 308.563 57.2207 303.816 67.5712C303.496 68.2673 303.19 68.9931 302.897 69.7493L298.847 56.0993H280.847V130.499H303.647V92.9993C303.647 81.1493 309.647 76.3493 320.747 76.3493C322.381 76.3493 323.743 76.4401 325.397 76.6218C325.869 76.6736 326.365 76.7327 326.897 76.7993V53.9993Z" fill="#111111"/>
<path fill-rule="evenodd" clip-rule="evenodd" d="M266.574 116.496L267.666 114.9L246.727 107.286L246.051 108.069C243.565 110.947 238.939 113.099 232.186 113.099C228.278 113.099 224.503 111.912 221.641 109.575C219.128 107.523 217.251 104.531 216.615 100.499H271.403L271.484 99.0849C272.251 85.6586 268.766 74.0107 261.819 65.694C254.855 57.3575 244.52 52.4993 231.886 52.4993C209.412 52.4993 190.486 68.2206 190.486 92.8493C190.486 105.502 194.778 115.78 202.3 122.889C209.811 129.989 220.406 133.799 232.786 133.799C245.353 133.799 258.453 128.366 266.574 116.496ZM214.936 98.9993C214.973 99.5122 215.027 100.012 215.098 100.499C216.478 109.985 224.197 114.599 232.186 114.599C239.236 114.599 244.336 112.349 247.186 109.049L265.336 115.649C265.041 116.08 264.74 116.503 264.431 116.916C256.584 127.439 244.477 132.299 232.786 132.299C208.636 132.299 191.986 117.449 191.986 92.8493C191.986 69.1493 210.136 53.9993 231.886 53.9993C256.336 53.9993 271.486 72.7493 269.986 98.9993H214.936Z" fill="#111111"/>
<path fill-rule="evenodd" clip-rule="evenodd" d="M232.486 70.9493C240.863 70.9493 247.762 75.3841 248.73 83.9993C248.785 84.486 248.82 84.986 248.836 85.4993H214.936C215.004 84.9845 215.089 84.4845 215.188 83.9993C217.061 74.8713 224.368 70.9493 232.486 70.9493ZM242.911 75.7797C240.294 73.6124 236.644 72.4493 232.486 72.4493C228.453 72.4493 224.742 73.4762 221.911 75.5993C219.458 77.4394 217.573 80.1698 216.722 83.9993H247.22C246.775 80.3799 245.186 77.6632 242.911 75.7797Z" fill="#111111"/>
<path fill-rule="evenodd" clip-rule="evenodd" d="M108.768 54.5993L136.389 131.999H164.151L191.928 54.5993H165.144L150.346 101.787L135.548 54.5993H108.768ZM137.446 130.499H163.096L189.796 56.0993H166.246L150.346 106.799L134.446 56.0993H110.896L137.446 130.499Z" fill="#111111"/>
<path fill-rule="evenodd" clip-rule="evenodd" d="M55.6844 67.0493V52.6493H101.218L109.711 28.7993H28.9844V131.999H109.711L101.218 108.149H55.6844V90.8993H88.2344V67.0493H55.6844ZM54.1844 51.1493H100.16L107.584 30.2993H30.4844V130.499H107.584L100.16 109.649H54.1844V89.3993H86.7344V68.5493H54.1844V51.1493Z" fill="#111111"/>
<path d="M30.4844 166.211V266.411H75.9344C100.234 266.411 116.434 258.011 116.434 235.511C116.434 223.361 109.834 216.311 100.534 213.161C108.034 208.511 112.384 201.461 112.384 192.311C112.384 171.311 96.0344 166.211 74.2844 166.211H30.4844ZM76.0844 224.111C86.2844 224.111 91.3844 228.311 91.3844 235.361C91.3844 242.411 86.2844 246.761 76.0844 246.761H54.1844V224.111H76.0844ZM75.0344 185.561C82.9844 185.561 87.7844 189.311 87.7844 195.611C87.7844 201.761 82.9844 205.811 75.0344 205.811H54.1844V185.561H75.0344Z" fill="#111111"/>
<path d="M124.604 228.911C124.604 255.761 143.354 268.211 164.054 268.211C184.454 268.211 203.354 255.761 203.354 228.911C203.354 202.061 184.454 189.911 164.054 189.911C143.354 189.911 124.604 202.061 124.604 228.911ZM164.054 207.611C172.904 207.611 180.104 213.161 180.104 228.911C180.104 244.511 173.204 250.511 164.054 250.511C154.754 250.511 147.854 244.511 147.854 228.911C147.854 213.161 155.054 207.611 164.054 207.611Z" fill="#111111"/>
<path d="M243.44 268.211C251.54 268.211 260.39 264.911 266.69 256.361L269.69 266.411H291.44C289.34 255.461 288.89 244.811 288.89 237.311V166.211H266.09V202.211C261.29 193.961 251.54 189.911 243.44 189.911C224.24 189.911 210.59 204.311 210.59 228.611C210.59 252.911 224.24 268.211 243.44 268.211ZM250.79 207.611C259.64 207.611 267.14 213.911 267.14 229.061C267.14 244.511 259.64 250.511 250.79 250.511C241.79 250.511 234.29 242.411 234.29 228.611C234.29 214.961 241.79 207.611 250.79 207.611Z" fill="#111111"/>
<path d="M296.345 192.011L324.845 265.961L324.095 267.911C321.845 273.611 320.195 274.061 310.595 274.061H306.095L299.245 290.561H313.445C332.795 290.561 338.345 285.311 345.545 266.411L374.045 192.011H349.595L335.345 238.511L320.795 192.011H296.345Z" fill="#111111"/>
<path d="M345.545 266.411C345.485 266.569 345.426 266.725 345.366 266.88L346.947 266.945L376.226 190.511H348.486L335.33 233.441L321.898 190.511H294.16L323.238 265.962L324.82 266.028L324.845 265.961L296.345 192.011H320.795L335.345 238.511L349.595 192.011H374.045L345.545 266.411Z" fill="#111111"/>
<path d="M306.095 274.061H310.595C320.195 274.061 321.845 273.611 324.095 267.911L324.82 266.028L323.238 265.962L322.7 267.361L322.697 267.367C321.597 270.154 320.81 271.179 319.502 271.749C318.773 272.067 317.783 272.282 316.311 272.407C314.842 272.533 312.997 272.561 310.595 272.561H305.094L296.998 292.061H313.445C323.211 292.061 329.862 290.749 334.975 286.756C340.039 282.802 343.345 276.402 346.946 266.948L345.365 266.882C338.252 285.399 332.634 290.561 313.445 290.561H299.245L306.095 274.061Z" fill="#111111"/>
<path fill-rule="evenodd" clip-rule="evenodd" d="M264.59 197.615C259.038 191.409 250.597 188.411 243.44 188.411C233.443 188.411 224.806 192.172 218.686 199.161C212.582 206.132 209.09 216.187 209.09 228.611C209.09 241.035 212.58 251.303 218.67 258.493C224.777 265.703 233.413 269.711 243.44 269.711C251.196 269.711 259.625 266.824 266.068 259.521L268.572 267.911H293.255L292.913 266.129C290.837 255.306 290.39 244.76 290.39 237.311V164.711H264.59V197.615ZM265.557 257.81C265.943 257.345 266.321 256.862 266.69 256.361L269.69 266.411H291.44C291.344 265.911 291.251 265.411 291.162 264.911C289.3 254.494 288.89 244.468 288.89 237.311V166.211H266.09V202.211C265.633 201.426 265.131 200.678 264.59 199.969C259.448 193.227 250.769 189.911 243.44 189.911C224.24 189.911 210.59 204.311 210.59 228.611C210.59 252.911 224.24 268.211 243.44 268.211C251.065 268.211 259.355 265.287 265.557 257.81Z" fill="#111111"/>
<path fill-rule="evenodd" clip-rule="evenodd" d="M267.14 229.061C267.14 213.911 259.64 207.611 250.79 207.611C241.79 207.611 234.29 214.961 234.29 228.611C234.29 242.411 241.79 250.511 250.79 250.511C259.64 250.511 267.14 244.511 267.14 229.061ZM261.146 213.633C258.49 210.542 254.843 209.111 250.79 209.111C246.721 209.111 243.018 210.762 240.31 213.962C237.589 217.176 235.79 222.055 235.79 228.611C235.79 241.913 242.913 249.011 250.79 249.011C254.863 249.011 258.505 247.642 261.151 244.596C263.819 241.526 265.64 236.561 265.64 229.061C265.64 221.719 263.823 216.747 261.146 213.633Z" fill="#111111"/>
<path fill-rule="evenodd" clip-rule="evenodd" d="M123.104 228.911C123.104 242.712 127.937 252.964 135.569 259.751C143.173 266.513 153.416 269.711 164.054 269.711C174.545 269.711 184.749 266.51 192.35 259.751C199.98 252.967 204.854 242.716 204.854 228.911C204.854 215.106 199.979 204.927 192.344 198.216C184.739 191.533 174.536 188.411 164.054 188.411C153.425 188.411 143.183 191.53 135.576 198.216C127.938 204.929 123.104 215.11 123.104 228.911ZM164.054 268.211C143.354 268.211 124.604 255.761 124.604 228.911C124.604 202.061 143.354 189.911 164.054 189.911C184.454 189.911 203.354 202.061 203.354 228.911C203.354 255.761 184.454 268.211 164.054 268.211Z" fill="#111111"/>
<path fill-rule="evenodd" clip-rule="evenodd" d="M164.054 207.611C172.904 207.611 180.104 213.161 180.104 228.911C180.104 244.511 173.204 250.511 164.054 250.511C154.754 250.511 147.854 244.511 147.854 228.911C147.854 213.161 155.054 207.611 164.054 207.611ZM174.263 213.337C171.708 210.386 168.156 209.111 164.054 209.111C159.869 209.111 156.28 210.391 153.709 213.341C151.11 216.324 149.354 221.239 149.354 228.911C149.354 236.519 151.039 241.52 153.616 244.599C156.157 247.635 159.742 249.011 164.054 249.011C168.283 249.011 171.831 247.639 174.356 244.602C176.918 241.522 178.604 236.519 178.604 228.911C178.604 221.239 176.847 216.321 174.263 213.337Z" fill="#111111"/>
<path fill-rule="evenodd" clip-rule="evenodd" d="M102.236 170.085C95.0734 165.981 85.2136 164.711 74.2844 164.711H28.9844V267.911H75.9344C88.2107 267.911 98.6977 265.798 106.151 260.632C113.705 255.396 117.934 247.173 117.934 235.511C117.934 229.152 116.202 224.02 113.163 220.05C110.708 216.842 107.454 214.461 103.72 212.796C110.161 207.923 113.884 200.996 113.884 192.311C113.884 186.866 112.824 182.351 110.807 178.655C108.785 174.952 105.85 172.155 102.236 170.085ZM100.534 213.161C101.13 213.363 101.715 213.581 102.288 213.815C110.653 217.236 116.434 224.14 116.434 235.511C116.434 258.011 100.234 266.411 75.9344 266.411H30.4844V166.211H74.2844C96.0344 166.211 112.384 171.311 112.384 192.311C112.384 200.807 108.634 207.493 102.094 212.127C101.591 212.484 101.071 212.829 100.534 213.161Z" fill="#111111"/>
<path fill-rule="evenodd" clip-rule="evenodd" d="M75.0344 185.561C82.9844 185.561 87.7844 189.311 87.7844 195.611C87.7844 201.761 82.9844 205.811 75.0344 205.811H54.1844V185.561H75.0344ZM83.4635 189.403C81.6164 187.951 78.7955 187.061 75.0344 187.061H55.6844V204.311H75.0344C78.7699 204.311 81.5901 203.359 83.4451 201.853C85.2675 200.373 86.2844 198.262 86.2844 195.611C86.2844 192.881 85.265 190.82 83.4635 189.403Z" fill="#111111"/>
<path fill-rule="evenodd" clip-rule="evenodd" d="M76.0844 224.111C86.2844 224.111 91.3844 228.311 91.3844 235.361C91.3844 242.411 86.2844 246.761 76.0844 246.761H54.1844V224.111H76.0844ZM86.6538 228.288C84.4651 226.631 81.0114 225.611 76.0844 225.611H55.6844V245.261H76.0844C81.0011 245.261 84.4525 244.209 86.6427 242.518C88.7749 240.872 89.8844 238.489 89.8844 235.361C89.8844 232.237 88.7776 229.897 86.6538 228.288Z" fill="#111111"/>
<path d="M30.4843 297.282V397.482H53.4343V318.732L77.1343 397.482H96.6343L120.484 318.732V397.482H143.584V297.282H108.034L86.8843 369.132L66.0343 297.282H30.4843Z" fill="#111111"/>
<path d="M153.754 359.982C153.754 386.832 172.504 399.282 193.204 399.282C213.604 399.282 232.504 386.832 232.504 359.982C232.504 333.132 213.604 320.982 193.204 320.982C172.504 320.982 153.754 333.132 153.754 359.982ZM193.204 338.682C202.054 338.682 209.254 344.232 209.254 359.982C209.254 375.582 202.354 381.582 193.204 381.582C183.904 381.582 177.004 375.582 177.004 359.982C177.004 344.232 184.204 338.682 193.204 338.682Z" fill="#111111"/>
<path d="M262.69 397.482H288.34L315.04 323.082H291.49L275.59 373.782L259.69 323.082H236.14L262.69 397.482Z" fill="#111111"/>
<path d="M317.23 359.832C317.23 384.432 333.88 399.282 358.03 399.282C370.18 399.282 382.78 394.032 390.58 382.632L372.43 376.032C369.58 379.332 364.48 381.582 357.43 381.582C349.03 381.582 340.93 376.482 340.18 365.982H395.23C396.73 339.732 381.58 320.982 357.13 320.982C335.38 320.982 317.23 336.132 317.23 359.832ZM357.73 337.932C366.58 337.932 373.78 342.882 374.08 352.482H340.18C341.53 342.282 349.18 337.932 357.73 337.932Z" fill="#111111"/>
<path d="M438.191 399.282C458.141 399.282 474.641 390.732 474.641 373.182C474.641 360.732 466.241 355.482 448.241 352.182L434.441 349.632C427.841 348.432 425.291 346.632 425.291 343.632C425.291 339.732 429.491 337.632 437.591 337.632C444.341 337.632 450.041 339.132 451.541 344.532L470.741 337.482C465.191 325.782 451.991 320.982 437.741 320.982C419.291 320.982 403.541 328.932 403.541 344.532C403.541 356.982 413.441 364.332 427.841 366.732L441.191 368.982C449.741 370.482 452.741 372.582 452.741 375.732C452.741 380.382 445.991 382.632 438.641 382.632C430.091 382.632 423.341 379.632 421.091 373.332L401.741 380.382C407.441 392.832 420.791 399.282 438.191 399.282Z" fill="#111111"/>
<path fill-rule="evenodd" clip-rule="evenodd" d="M28.9843 295.782H67.1609L86.8946 363.785L106.912 295.782H145.084V398.982H118.984V328.86L97.7473 398.982H76.0193L54.9343 328.921V398.982H28.9843V295.782ZM53.4343 318.732L77.1343 397.482H96.6343L120.484 318.732V397.482H143.584V297.282H108.034L86.8843 369.132L66.0343 297.282H30.4843V397.482H53.4343V318.732ZM261.633 398.982L234.012 321.582H260.792L275.59 368.769L290.389 321.582H317.172L289.396 398.982H261.633ZM275.59 373.782L259.69 323.082H236.14L262.69 397.482H288.34L315.04 323.082H291.49L275.59 373.782ZM392.91 381.883L391.818 383.479C383.697 395.348 370.597 400.782 358.03 400.782C345.65 400.782 335.055 396.971 327.544 389.872C320.022 382.762 315.73 372.484 315.73 359.832C315.73 335.203 334.656 319.482 357.13 319.482C369.764 319.482 380.099 324.34 387.063 332.676C394.01 340.993 397.495 352.641 396.728 366.067L396.647 367.482H341.859C342.495 371.514 344.372 374.505 346.885 376.557C349.747 378.894 353.522 380.082 357.43 380.082C364.183 380.082 368.809 377.929 371.295 375.051L371.971 374.269L392.91 381.883ZM340.342 367.482C340.271 366.995 340.217 366.495 340.18 365.982H395.23C396.73 339.732 381.58 320.982 357.13 320.982C335.38 320.982 317.23 336.132 317.23 359.832C317.23 384.432 333.88 399.282 358.03 399.282C369.721 399.282 381.828 394.421 389.675 383.899C389.984 383.485 390.285 383.063 390.58 382.632L372.43 376.032C369.58 379.332 364.48 381.582 357.43 381.582C349.441 381.582 341.722 376.968 340.342 367.482ZM434.441 349.632L448.241 352.182C466.241 355.482 474.641 360.732 474.641 373.182C474.641 390.732 458.141 399.282 438.191 399.282C421.434 399.282 408.433 393.299 402.404 381.737C402.173 381.293 401.952 380.842 401.741 380.382L421.091 373.332C421.109 373.382 421.127 373.432 421.146 373.482C423.449 379.679 430.159 382.632 438.641 382.632C445.991 382.632 452.741 380.382 452.741 375.732C452.741 372.582 449.741 370.482 441.191 368.982L427.841 366.732C413.441 364.332 403.541 356.982 403.541 344.532C403.541 328.932 419.291 320.982 437.741 320.982C451.432 320.982 464.154 325.413 470.053 336.136C470.294 336.574 470.524 337.023 470.741 337.482L451.541 344.532C451.41 344.059 451.246 343.616 451.053 343.201C449.035 338.881 443.75 337.632 437.591 337.632C429.491 337.632 425.291 339.732 425.291 343.632C425.291 346.632 427.841 348.432 434.441 349.632ZM427.595 368.211C427.594 368.211 427.594 368.211 427.593 368.211C420.226 366.983 413.861 364.467 409.311 360.536C404.717 356.566 402.041 351.207 402.041 344.532C402.041 336.136 406.316 329.804 412.922 325.638C419.476 321.505 428.329 319.482 437.741 319.482C452.227 319.482 466.179 324.364 472.097 336.839L472.801 338.323L450.531 346.5L450.096 344.933C449.49 342.751 448.064 341.342 445.945 340.436C443.763 339.503 440.888 339.132 437.591 339.132C433.627 339.132 430.823 339.653 429.065 340.516C428.203 340.939 427.646 341.418 427.304 341.908C426.972 342.384 426.791 342.942 426.791 343.632C426.791 344.585 427.139 345.336 428.223 346.059C429.422 346.857 431.458 347.565 434.71 348.156L434.714 348.157L448.512 350.706C448.512 350.706 448.513 350.707 448.513 350.707C457.553 352.364 464.449 354.549 469.095 358.053C473.866 361.652 476.141 366.547 476.141 373.182C476.141 382.51 471.72 389.487 464.719 394.068C457.78 398.609 448.351 400.782 438.191 400.782C420.46 400.782 406.413 394.188 400.377 381.006L399.701 379.529L421.996 371.406L422.504 372.827C424.434 378.231 430.334 381.132 438.641 381.132C442.194 381.132 445.494 380.584 447.845 379.552C450.229 378.506 451.241 377.175 451.241 375.732C451.241 375.198 451.119 374.757 450.867 374.354C450.607 373.938 450.159 373.485 449.393 373.02C447.824 372.065 445.168 371.203 440.938 370.46C440.936 370.46 440.934 370.46 440.932 370.459L427.595 368.211ZM164.72 390.821C157.087 384.035 152.254 373.782 152.254 359.982C152.254 346.18 157.088 335.999 164.726 329.286C172.333 322.601 182.575 319.482 193.204 319.482C203.687 319.482 213.89 322.603 221.494 329.286C229.13 335.997 234.004 346.176 234.004 359.982C234.004 373.786 229.131 384.037 221.501 390.821C213.899 397.58 203.695 400.782 193.204 400.782C182.567 400.782 172.324 397.583 164.72 390.821ZM203.414 344.407C200.859 341.457 197.306 340.182 193.204 340.182C189.019 340.182 185.43 341.461 182.86 344.411C180.26 347.394 178.504 352.309 178.504 359.982C178.504 367.589 180.19 372.59 182.767 375.669C185.307 378.705 188.892 380.082 193.204 380.082C197.434 380.082 200.982 378.71 203.507 375.673C206.068 372.592 207.754 367.589 207.754 359.982C207.754 352.31 205.998 347.392 203.414 344.407ZM368.155 342.762C365.538 340.595 361.889 339.432 357.73 339.432C353.697 339.432 349.986 340.459 347.155 342.582C344.702 344.422 342.817 347.152 341.966 350.982H372.464C372.019 347.362 370.43 344.646 368.155 342.762ZM373.974 350.982C373.006 342.367 366.107 337.932 357.73 337.932C349.612 337.932 342.305 341.854 340.432 350.982C340.333 351.467 340.249 351.967 340.18 352.482H374.08C374.064 351.968 374.029 351.468 373.974 350.982ZM153.754 359.982C153.754 386.832 172.504 399.282 193.204 399.282C213.604 399.282 232.504 386.832 232.504 359.982C232.504 333.132 213.604 320.982 193.204 320.982C172.504 320.982 153.754 333.132 153.754 359.982ZM193.204 338.682C202.054 338.682 209.254 344.232 209.254 359.982C209.254 375.582 202.354 381.582 193.204 381.582C183.904 381.582 177.004 375.582 177.004 359.982C177.004 344.232 184.204 338.682 193.204 338.682Z" fill="#111111"/>
</svg>
