<svg width="1234" height="657" viewBox="0 0 1234 657" fill="none" xmlns="http://www.w3.org/2000/svg">
<path d="M1.40234 155.223H35.8023L43.8023 131.423H95.0023L103.002 155.223H137.402L86.8023 21.6226H52.0023L1.40234 155.223ZM69.2023 55.0226L86.4023 105.823H52.4023L69.2023 55.0226ZM132.69 79.2227H149.09V127.223C149.09 150.623 157.49 155.223 181.89 155.223H201.09V130.423H192.29C182.49 130.423 179.49 128.623 179.49 119.223V79.2227H201.09V56.0227H179.49V31.2227H149.09V56.0227H132.69V79.2227ZM215.871 21.6226V155.223H246.271V130.223L256.671 119.223L282.471 155.223H318.471L276.671 97.4227L315.471 56.0227H279.471L246.271 93.6227V21.6226H215.871ZM321.804 79.2227H340.604V155.223H371.204V56.0227H321.804V79.2227ZM356.004 39.6227C366.004 39.6227 374.004 31.4227 374.004 21.6226C374.004 11.6226 366.004 3.62265 356.004 3.62265C346.004 3.62265 338.004 11.6226 338.004 21.6226C338.004 31.4227 346.004 39.6227 356.004 39.6227ZM390.09 56.0227V155.223H420.49V104.223C420.49 86.2227 426.09 76.8227 438.89 76.8227C453.49 76.8227 454.09 88.4227 454.09 102.423V155.223H484.49V94.8227C484.49 68.0227 476.69 53.2226 451.09 53.2226C435.89 53.2226 424.89 61.8227 420.49 69.2227L416.69 56.0227H390.09ZM547.343 157.623C573.943 157.623 595.943 146.223 595.943 122.823C595.943 106.223 584.743 99.2227 560.743 94.8227L542.343 91.4227C533.543 89.8227 530.143 87.4227 530.143 83.4227C530.143 78.2227 535.743 75.4227 546.543 75.4227C555.543 75.4227 563.143 77.4227 565.143 84.6227L590.743 75.2227C583.343 59.6227 565.743 53.2226 546.743 53.2226C522.143 53.2226 501.143 63.8227 501.143 84.6227C501.143 101.223 514.343 111.023 533.543 114.223L551.343 117.223C562.743 119.223 566.743 122.023 566.743 126.223C566.743 132.423 557.743 135.423 547.943 135.423C536.543 135.423 527.543 131.423 524.543 123.023L498.743 132.423C506.343 149.023 524.143 157.623 547.343 157.623ZM606.179 105.223C606.179 141.023 631.179 157.623 658.779 157.623C685.979 157.623 711.179 141.023 711.179 105.223C711.179 69.4227 685.979 53.2226 658.779 53.2226C631.179 53.2226 606.179 69.4227 606.179 105.223ZM658.779 76.8227C670.579 76.8227 680.179 84.2227 680.179 105.223C680.179 126.023 670.979 134.023 658.779 134.023C646.379 134.023 637.179 126.023 637.179 105.223C637.179 84.2227 646.779 76.8227 658.779 76.8227ZM726.027 56.0227V155.223H756.427V104.223C756.427 86.2227 762.027 76.8227 774.827 76.8227C789.427 76.8227 790.027 88.4227 790.027 102.423V155.223H820.427V94.8227C820.427 68.0227 812.627 53.2226 787.027 53.2226C771.827 53.2226 760.827 61.8227 756.427 69.2227L752.627 56.0227H726.027ZM40.8023 355.223V300.423H95.8023V355.223H127.402V221.623H95.8023V272.623H40.8023V221.623H9.20234V355.223H40.8023ZM136.145 256.023L174.145 354.623L173.145 357.223C170.145 364.823 167.945 365.423 155.145 365.423H149.145V387.423H158.945C184.745 387.423 192.145 380.423 201.745 355.223L239.745 256.023H207.145L188.145 318.023L168.745 256.023H136.145ZM280.06 387.423V341.023C286.46 352.023 299.66 357.623 310.26 357.623C335.86 357.623 354.06 338.223 354.06 305.623C354.06 273.423 335.86 253.223 310.26 253.223C299.66 253.223 286.46 258.623 280.06 269.623L276.06 256.023H249.66V387.423H280.06ZM278.66 305.023C278.66 284.623 288.66 276.823 300.66 276.823C312.46 276.823 322.46 287.423 322.46 305.623C322.46 324.223 312.46 334.023 300.66 334.023C288.66 334.023 278.66 325.423 278.66 305.023ZM363.601 305.023C363.601 337.823 385.801 357.623 418.001 357.623C434.201 357.623 451.001 350.623 461.401 335.423L437.201 326.623C433.401 331.023 426.601 334.023 417.201 334.023C406.001 334.023 395.201 327.223 394.201 313.223H467.601C469.601 278.223 449.401 253.223 416.801 253.223C387.801 253.223 363.601 273.423 363.601 305.023ZM417.601 275.823C429.401 275.823 439.001 282.423 439.401 295.223H394.201C396.001 281.623 406.201 275.823 417.601 275.823ZM512.482 355.223V305.223C512.482 289.423 520.482 283.023 535.282 283.023C538.082 283.023 540.282 283.223 543.482 283.623V253.223C528.282 252.423 517.682 258.223 511.482 274.223L506.082 256.023H482.082V355.223H512.482ZM556.496 327.223C556.496 350.623 564.896 355.223 589.296 355.223H608.696V330.423H600.096C589.896 330.423 586.896 328.623 586.896 319.223V221.623H556.496V327.223ZM614.187 305.023C614.187 337.823 636.387 357.623 668.587 357.623C684.787 357.623 701.587 350.623 711.987 335.423L687.787 326.623C683.987 331.023 677.187 334.023 667.787 334.023C656.587 334.023 645.787 327.223 644.787 313.223H718.187C720.187 278.223 699.987 253.223 667.387 253.223C638.387 253.223 614.187 273.423 614.187 305.023ZM668.187 275.823C679.987 275.823 689.587 282.423 689.987 295.223H644.787C646.587 281.623 656.787 275.823 668.187 275.823ZM727.468 303.423C727.468 333.623 748.668 351.623 770.268 351.623C781.468 351.623 793.068 346.623 801.668 336.023V353.823C801.668 367.423 792.668 372.623 780.468 372.623C773.468 372.623 765.668 370.423 762.068 363.223L737.268 372.223C746.468 390.423 764.868 395.823 781.268 395.823C812.268 395.823 831.868 381.223 831.868 347.823V256.023H805.668L801.668 269.623C794.068 258.823 781.868 253.023 769.268 253.023C748.668 253.023 727.468 268.823 727.468 303.423ZM759.068 301.823C759.068 284.423 769.068 276.823 781.068 276.823C792.868 276.823 802.868 283.223 802.868 302.623C802.868 322.023 792.868 328.023 781.068 328.023C769.068 328.023 759.068 319.423 759.068 301.823ZM846.804 279.223H865.604V355.223H896.204V256.023H846.804V279.223ZM881.004 239.623C891.004 239.623 899.004 231.423 899.004 221.623C899.004 211.623 891.004 203.623 881.004 203.623C871.004 203.623 863.004 211.623 863.004 221.623C863.004 231.423 871.004 239.623 881.004 239.623ZM915.09 221.623V355.223H941.69L945.49 341.823C951.89 352.823 965.09 357.623 975.69 357.623C1001.29 357.623 1019.49 337.223 1019.49 304.823C1019.49 272.423 1001.29 253.223 975.69 253.223C965.09 253.223 951.89 258.623 945.49 269.623V221.623H915.09ZM944.09 305.423C944.09 285.223 954.09 276.823 966.09 276.823C977.89 276.823 987.89 286.623 987.89 304.823C987.89 323.223 977.89 334.023 966.09 334.023C954.09 334.023 944.09 326.023 944.09 305.423ZM1034.23 327.223C1034.23 350.623 1042.63 355.223 1067.03 355.223H1086.43V330.423H1077.83C1067.63 330.423 1064.63 328.623 1064.63 319.223V221.623H1034.23V327.223ZM1091.92 305.023C1091.92 337.823 1114.12 357.623 1146.32 357.623C1162.52 357.623 1179.32 350.623 1189.72 335.423L1165.52 326.623C1161.72 331.023 1154.92 334.023 1145.52 334.023C1134.32 334.023 1123.52 327.223 1122.52 313.223H1195.92C1197.92 278.223 1177.72 253.223 1145.12 253.223C1116.12 253.223 1091.92 273.423 1091.92 305.023ZM1145.92 275.823C1157.72 275.823 1167.32 282.423 1167.72 295.223H1122.52C1124.32 281.623 1134.52 275.823 1145.92 275.823Z" fill="black"/>
<path d="M20.4 590V556.28H32.4L56.76 590H70.56L45.72 555.44C64.32 552.8 67.92 543.8 67.92 532.88C67.92 513.68 54.12 509.84 34.56 509.84H9.12V590H20.4ZM35.4 519.32C47.16 519.32 56.4 520.76 56.4 533.12C56.4 545.48 47.16 546.8 35.4 546.8H20.4V519.32H35.4ZM107.9 591.44C119.06 591.44 127.22 586.52 131.54 579.56L121.82 576.68C119.06 580.28 114.62 582.56 107.9 582.56C100.58 582.56 90.0197 578 89.5397 563H135.38C136.58 545.96 126.62 529.52 107.66 529.52C91.3397 529.52 78.7397 541.52 78.7397 560.36C78.7397 577.88 89.1797 591.44 107.9 591.44ZM107.66 538.16C118.22 538.16 124.58 546.56 124.7 554.96H89.6597C90.6197 542.96 98.6597 538.16 107.66 538.16ZM168.627 588.92C178.107 588.92 183.867 584.96 187.587 578.72V586.64C187.587 596.36 185.787 600.68 178.467 603.2C177.387 603.56 174.747 604.16 171.747 604.16C166.827 604.16 160.827 602.6 158.667 596.36L148.587 599.12C151.707 609.08 162.027 613.04 171.747 613.04C175.827 613.04 179.787 612.32 183.147 611.12C196.947 606.08 197.667 596.12 197.667 584.36V530.48H190.347L187.587 539.84C183.867 533.6 178.107 529.52 168.627 529.52C155.427 529.52 143.427 540.2 143.427 559.28C143.427 578.36 155.427 588.92 168.627 588.92ZM171.147 538.16C180.147 538.16 187.947 544.16 187.947 559.28C187.947 574.4 180.147 580.52 171.147 580.52C161.307 580.52 154.347 572.84 154.347 559.28C154.347 545.72 161.307 538.16 171.147 538.16ZM233.256 591.44C243.096 591.44 248.496 587.12 251.856 581.36L254.376 590H261.936V530.36H251.856V563.12C251.856 575.84 246.216 582.56 236.736 582.56C225.816 582.56 224.256 574.64 224.256 565.4V530.36H214.176V568.4C214.176 581.96 219.336 591.44 233.256 591.44ZM278.752 575.12C278.752 587.48 281.392 590 292.792 590H297.232V581.12H294.952C289.312 581.12 288.832 579.56 288.832 573.44V509.96H278.752V575.12ZM324.143 591.44C334.583 591.44 340.823 587.84 344.423 581.84L346.823 590H356.063C354.983 584.36 354.143 577.52 354.023 567.56L353.903 553.64C353.783 536.96 346.703 529.52 330.263 529.52C319.583 529.52 310.703 534.8 307.463 543.92L317.183 546.8C318.503 541.04 323.183 537.56 330.383 537.56C339.983 537.56 344.183 543.2 343.823 553.28C319.463 556.04 303.623 560.12 303.623 574.28C303.623 585.2 312.863 591.44 324.143 591.44ZM344.663 561.32V565.04C344.663 579.08 335.663 583.4 326.303 583.4C319.103 583.4 314.783 579.68 314.783 574.04C314.783 565.88 326.423 563.24 344.663 561.32ZM370.627 530.48V590H380.707V564.44C380.707 548.6 386.107 539.96 402.427 539.96V529.52C392.467 529.52 385.387 534.32 381.187 541.52L377.947 530.48H370.627Z" fill="black"/>
<path d="M571.28 509.84V590H607.64C627.08 590 640.04 583.28 640.04 565.28C640.04 555.56 634.76 549.92 627.32 547.4C633.32 543.68 636.8 538.04 636.8 530.72C636.8 513.92 623.72 509.84 606.32 509.84H571.28ZM607.76 556.16C615.92 556.16 620 559.52 620 565.16C620 570.8 615.92 574.28 607.76 574.28H590.24V556.16H607.76ZM606.92 525.32C613.28 525.32 617.12 528.32 617.12 533.36C617.12 538.28 613.28 541.52 606.92 541.52H590.24V525.32H606.92ZM646.575 560C646.575 581.48 661.575 591.44 678.135 591.44C694.455 591.44 709.575 581.48 709.575 560C709.575 538.52 694.455 528.8 678.135 528.8C661.575 528.8 646.575 538.52 646.575 560ZM678.135 542.96C685.215 542.96 690.975 547.4 690.975 560C690.975 572.48 685.455 577.28 678.135 577.28C670.695 577.28 665.175 572.48 665.175 560C665.175 547.4 670.935 542.96 678.135 542.96ZM718.484 573.2C718.484 587.24 723.524 590 738.164 590H749.804V575.12H744.644C738.524 575.12 736.724 574.04 736.724 568.4V509.84H718.484V573.2ZM779.379 591.44C785.859 591.44 792.939 588.8 797.979 581.96L800.379 590H817.779C816.099 581.24 815.739 572.72 815.739 566.72V509.84H797.499V538.64C793.659 532.04 785.859 528.8 779.379 528.8C764.019 528.8 753.099 540.32 753.099 559.76C753.099 579.2 764.019 591.44 779.379 591.44ZM785.259 542.96C792.339 542.96 798.339 548 798.339 560.12C798.339 572.48 792.339 577.28 785.259 577.28C778.059 577.28 772.059 570.8 772.059 559.76C772.059 548.84 778.059 542.96 785.259 542.96Z" fill="black"/>
</svg>
