<svg width="983" height="820" viewBox="0 0 983 820" fill="none" xmlns="http://www.w3.org/2000/svg">
<path opacity="0.2" d="M399.771 417.048C409.16 417.048 416.771 409.101 416.771 399.298C416.771 389.495 409.16 381.548 399.771 381.548C390.383 381.548 382.771 389.495 382.771 399.298C382.771 409.101 390.383 417.048 399.771 417.048Z" fill="#5A16CA"/>
<path d="M399.771 417.048C409.16 417.048 416.771 409.101 416.771 399.298C416.771 389.495 409.16 381.548 399.771 381.548C390.383 381.548 382.771 389.495 382.771 399.298C382.771 409.101 390.383 417.048 399.771 417.048Z" stroke="#5A16CA" stroke-width="2" stroke-miterlimit="10"/>
<path d="M374.006 432.58C376.617 427.857 380.372 423.935 384.895 421.208C389.418 418.481 394.549 417.046 399.771 417.046C404.994 417.046 410.125 418.481 414.648 421.208C419.171 423.935 422.926 427.857 425.537 432.58" stroke="#5A16CA" stroke-width="2" stroke-linecap="round" stroke-linejoin="round"/>
<path opacity="0.2" d="M388.834 31.4861H383.365C381.917 31.4931 380.53 32.055 379.506 33.0498C378.482 34.0446 377.904 35.3918 377.896 36.7986V41.0486C377.896 46.6844 380.201 52.0895 384.304 56.0746C388.406 60.0598 393.97 62.2986 399.771 62.2986C405.573 62.2986 411.137 60.0598 415.239 56.0746C419.342 52.0895 421.646 46.6844 421.646 41.0486V29.3611C421.646 27.9521 421.07 26.6009 420.045 25.6046C419.019 24.6083 417.628 24.0486 416.178 24.0486C414.727 24.0486 413.336 24.6083 412.311 25.6046C411.285 26.6009 410.709 27.9521 410.709 29.3611V25.1111C410.709 23.7021 410.133 22.3509 409.107 21.3546C408.082 20.3583 406.691 19.7986 405.24 19.7986C403.79 19.7986 402.399 20.3583 401.373 21.3546C400.348 22.3509 399.771 23.7021 399.771 25.1111C399.771 23.7021 399.195 22.3509 398.17 21.3546C397.144 20.3583 395.753 19.7986 394.303 19.7986C392.852 19.7986 391.461 20.3583 390.436 21.3546C389.41 22.3509 388.834 23.7021 388.834 25.1111V31.4861Z" fill="#5A16CA"/>
<path d="M399.771 25.1111C399.771 23.7021 399.195 22.3509 398.17 21.3546C397.144 20.3583 395.753 19.7986 394.303 19.7986C392.852 19.7986 391.461 20.3583 390.436 21.3546C389.41 22.3509 388.834 23.7021 388.834 25.1111V31.4861" stroke="#5A16CA" stroke-width="2" stroke-linecap="round" stroke-linejoin="round"/>
<path d="M410.709 29.3611V25.1111C410.709 23.7021 410.133 22.3509 409.107 21.3546C408.082 20.3583 406.691 19.7986 405.24 19.7986C403.79 19.7986 402.399 20.3583 401.373 21.3546C400.348 22.3509 399.771 23.7021 399.771 25.1111V33.6111" stroke="#5A16CA" stroke-width="2" stroke-linecap="round" stroke-linejoin="round"/>
<path d="M388.834 39.9861V31.4861H383.365C381.917 31.4931 380.53 32.055 379.506 33.0498C378.482 34.0446 377.904 35.3918 377.896 36.7986V41.0486C377.896 46.6844 380.201 52.0895 384.304 56.0746C388.406 60.0598 393.97 62.2986 399.771 62.2986C405.573 62.2986 411.137 60.0598 415.239 56.0746C419.342 52.0895 421.646 46.6844 421.646 41.0486V29.3611C421.646 27.9521 421.07 26.6009 420.045 25.6046C419.019 24.6083 417.628 24.0486 416.178 24.0486C414.727 24.0486 413.336 24.6083 412.311 25.6046C411.285 26.6009 410.709 27.9521 410.709 29.3611V33.6111" stroke="#5A16CA" stroke-width="2" stroke-linecap="round" stroke-linejoin="round"/>
<path opacity="0.2" d="M36.8574 185.173C50.9407 185.173 62.3574 173.757 62.3574 159.673C62.3574 145.59 50.9407 134.173 36.8574 134.173C22.7742 134.173 11.3574 145.59 11.3574 159.673C11.3574 173.757 22.7742 185.173 36.8574 185.173Z" fill="#5A16CA"/>
<path d="M48.5449 153.298L32.9527 168.173L25.1699 160.736" stroke="#5A16CA" stroke-width="2" stroke-linecap="round" stroke-linejoin="round"/>
<path d="M36.8574 185.173C50.9407 185.173 62.3574 173.757 62.3574 159.673C62.3574 145.59 50.9407 134.173 36.8574 134.173C22.7742 134.173 11.3574 145.59 11.3574 159.673C11.3574 173.757 22.7742 185.173 36.8574 185.173Z" stroke="#5A16CA" stroke-width="2" stroke-linecap="round" stroke-linejoin="round"/>
<path opacity="0.2" d="M218.814 133.173C213.771 133.173 208.841 134.669 204.647 137.471C200.454 140.273 197.186 144.255 195.256 148.915C193.326 153.574 192.821 158.702 193.804 163.648C194.788 168.595 197.217 173.138 200.783 176.705C204.349 180.271 208.893 182.699 213.84 183.683C218.786 184.667 223.913 184.162 228.573 182.232C233.232 180.302 237.215 177.034 240.017 172.84C242.819 168.647 244.314 163.717 244.314 158.673C244.314 151.91 241.628 145.424 236.846 140.642C232.064 135.86 225.577 133.173 218.814 133.173ZM223.33 163.189L207.552 169.936L214.299 154.158L230.794 146.667L223.33 163.189Z" fill="#5A16CA"/>
<path d="M218.814 184.173C232.898 184.173 244.314 172.757 244.314 158.673C244.314 144.59 232.898 133.173 218.814 133.173C204.731 133.173 193.314 144.59 193.314 158.673C193.314 172.757 204.731 184.173 218.814 184.173Z" stroke="#5A16CA" stroke-width="2" stroke-miterlimit="10"/>
<path d="M223.33 163.189L230.794 146.667L214.299 154.158L207.552 169.936L223.33 163.189Z" stroke="#5A16CA" stroke-width="2" stroke-linecap="round" stroke-linejoin="round"/>
<path opacity="0.2" d="M408.271 182.048L391.271 173.548V135.298L408.271 143.798V182.048Z" fill="#5A16CA"/>
<path d="M391.271 173.548L374.271 177.798V139.548L391.271 135.298" stroke="#5A16CA" stroke-width="2" stroke-linecap="round" stroke-linejoin="round"/>
<path d="M408.271 182.048L391.271 173.548V135.298L408.271 143.798V182.048Z" stroke="#5A16CA" stroke-width="2" stroke-linecap="round" stroke-linejoin="round"/>
<path d="M408.271 143.798L425.271 139.548V177.798L408.271 182.048" stroke="#5A16CA" stroke-width="2" stroke-linecap="round" stroke-linejoin="round"/>
<path opacity="0.2" d="M765.916 673.512C767.923 674.86 770.192 675.781 772.58 676.217C774.968 676.653 777.421 676.594 779.784 676.044C782.148 675.495 784.369 674.467 786.308 673.025C788.246 671.583 789.859 669.76 791.044 667.67C792.228 665.581 792.959 663.271 793.189 660.889C793.418 658.506 793.143 656.102 792.379 653.83C791.615 651.558 790.38 649.467 788.752 647.691C787.125 645.915 785.14 644.492 782.924 643.513C782.437 643.272 782.05 642.872 781.83 642.381C780.412 639.053 778.029 636.211 774.979 634.212C771.929 632.213 768.348 631.147 764.685 631.147C761.023 631.147 757.442 632.213 754.392 634.212C751.342 636.211 748.958 639.053 747.541 642.381C747.32 642.872 746.934 643.272 746.447 643.513C744.231 644.492 742.246 645.915 740.618 647.691C738.99 649.467 737.755 651.558 736.992 653.83C736.228 656.102 735.952 658.506 736.182 660.889C736.412 663.271 737.143 665.581 738.327 667.67C739.512 669.76 741.125 671.583 743.063 673.025C745.001 674.467 747.223 675.495 749.586 676.044C751.95 676.594 754.403 676.653 756.791 676.217C759.178 675.781 761.448 674.86 763.455 673.512C763.82 673.276 764.248 673.15 764.685 673.15C765.123 673.15 765.55 673.276 765.916 673.512Z" fill="#5A16CA"/>
<path d="M764.686 687.205V648.392" stroke="#5A16CA" stroke-width="2" stroke-linecap="round" stroke-linejoin="round"/>
<path d="M764.686 665.642L751.561 659.173" stroke="#5A16CA" stroke-width="2" stroke-linecap="round" stroke-linejoin="round"/>
<path d="M764.686 659.173L777.811 652.705" stroke="#5A16CA" stroke-width="2" stroke-linecap="round" stroke-linejoin="round"/>
<path d="M765.916 673.512C767.923 674.86 770.192 675.781 772.58 676.217C774.968 676.653 777.421 676.594 779.784 676.044C782.148 675.495 784.369 674.467 786.308 673.025C788.246 671.583 789.859 669.76 791.044 667.67C792.228 665.581 792.959 663.271 793.189 660.889C793.418 658.506 793.143 656.102 792.379 653.83C791.615 651.558 790.38 649.467 788.752 647.691C787.125 645.915 785.14 644.492 782.924 643.513C782.437 643.272 782.05 642.872 781.83 642.381C780.412 639.053 778.029 636.211 774.979 634.212C771.929 632.213 768.348 631.147 764.685 631.147C761.023 631.147 757.442 632.213 754.392 634.212C751.342 636.211 748.958 639.053 747.541 642.381C747.32 642.872 746.934 643.272 746.447 643.513C744.231 644.492 742.246 645.915 740.618 647.691C738.99 649.467 737.755 651.558 736.992 653.83C736.228 656.102 735.952 658.506 736.182 660.889C736.412 663.271 737.143 665.581 738.327 667.67C739.512 669.76 741.125 671.583 743.063 673.025C745.001 674.467 747.223 675.495 749.586 676.044C751.95 676.594 754.403 676.653 756.791 676.217C759.178 675.781 761.448 674.86 763.455 673.512C763.82 673.276 764.248 673.15 764.685 673.15C765.123 673.15 765.55 673.276 765.916 673.512Z" stroke="#5A16CA" stroke-width="2" stroke-linecap="round" stroke-linejoin="round"/>
<path opacity="0.2" d="M946.643 307.736C959.552 307.736 970.018 296.963 970.018 283.673C970.018 270.384 959.552 259.611 946.643 259.611C933.733 259.611 923.268 270.384 923.268 283.673C923.268 296.963 933.733 307.736 946.643 307.736Z" fill="#5A16CA"/>
<path d="M946.643 307.736C959.552 307.736 970.018 296.963 970.018 283.673C970.018 270.384 959.552 259.611 946.643 259.611C933.733 259.611 923.268 270.384 923.268 283.673C923.268 296.963 933.733 307.736 946.643 307.736Z" stroke="#5A16CA" stroke-width="2" stroke-miterlimit="10"/>
<path d="M946.643 283.673L957.161 272.845" stroke="#5A16CA" stroke-width="2" stroke-linecap="round" stroke-linejoin="round"/>
<path d="M940.268 250.861H953.018" stroke="#5A16CA" stroke-width="2" stroke-linecap="round" stroke-linejoin="round"/>
<path opacity="0.2" d="M764.686 549.814C773.229 549.814 780.154 542.364 780.154 533.173C780.154 523.983 773.229 516.533 764.686 516.533C756.142 516.533 749.217 523.983 749.217 533.173C749.217 542.364 756.142 549.814 764.686 549.814Z" fill="#5A16CA"/>
<path d="M764.686 549.814C773.229 549.814 780.154 542.364 780.154 533.173C780.154 523.983 773.229 516.533 764.686 516.533C756.142 516.533 749.217 523.983 749.217 533.173C749.217 542.364 756.142 549.814 764.686 549.814Z" stroke="#5A16CA" stroke-width="2" stroke-linecap="round" stroke-linejoin="round"/>
<path d="M764.686 507.658V502.111" stroke="#5A16CA" stroke-width="2" stroke-linecap="round" stroke-linejoin="round"/>
<path d="M747.902 515.118L744.267 511.208" stroke="#5A16CA" stroke-width="2" stroke-linecap="round" stroke-linejoin="round"/>
<path d="M740.967 533.173H735.811" stroke="#5A16CA" stroke-width="2" stroke-linecap="round" stroke-linejoin="round"/>
<path d="M747.902 551.229L744.267 555.139" stroke="#5A16CA" stroke-width="2" stroke-linecap="round" stroke-linejoin="round"/>
<path d="M764.686 558.689V564.236" stroke="#5A16CA" stroke-width="2" stroke-linecap="round" stroke-linejoin="round"/>
<path d="M781.469 551.229L785.104 555.139" stroke="#5A16CA" stroke-width="2" stroke-linecap="round" stroke-linejoin="round"/>
<path d="M788.404 533.173H793.561" stroke="#5A16CA" stroke-width="2" stroke-linecap="round" stroke-linejoin="round"/>
<path d="M781.469 515.118L785.104 511.208" stroke="#5A16CA" stroke-width="2" stroke-linecap="round" stroke-linejoin="round"/>
<path opacity="0.2" d="M968.627 657.173C971.518 657.173 973.861 654.76 973.861 651.783C973.861 648.806 971.518 646.392 968.627 646.392C965.736 646.392 963.393 648.806 963.393 651.783C963.393 654.76 965.736 657.173 968.627 657.173Z" fill="#5A16CA"/>
<path opacity="0.2" d="M924.658 657.173C927.549 657.173 929.893 654.76 929.893 651.783C929.893 648.806 927.549 646.392 924.658 646.392C921.767 646.392 919.424 648.806 919.424 651.783C919.424 654.76 921.767 657.173 924.658 657.173Z" fill="#5A16CA"/>
<path opacity="0.2" d="M937.221 644.236C940.112 644.236 942.455 641.822 942.455 638.845C942.455 635.868 940.112 633.455 937.221 633.455C934.33 633.455 931.986 635.868 931.986 638.845C931.986 641.822 934.33 644.236 937.221 644.236Z" fill="#5A16CA"/>
<path opacity="0.2" d="M956.064 644.236C958.955 644.236 961.299 641.822 961.299 638.845C961.299 635.868 958.955 633.455 956.064 633.455C953.174 633.455 950.83 635.868 950.83 638.845C950.83 641.822 953.174 644.236 956.064 644.236Z" fill="#5A16CA"/>
<path opacity="0.2" d="M961.089 664.693C958.466 663.18 956.528 660.662 955.698 657.685V657.685C955.133 655.661 953.944 653.881 952.31 652.614C950.677 651.347 948.687 650.662 946.642 650.662C944.597 650.662 942.608 651.347 940.974 652.614C939.34 653.881 938.152 655.661 937.587 657.685C936.756 660.662 934.819 663.18 932.195 664.693C930.563 665.609 929.273 667.058 928.528 668.812C927.784 670.566 927.627 672.526 928.083 674.382C928.539 676.238 929.581 677.885 931.046 679.064C932.511 680.242 934.315 680.885 936.174 680.892C937.297 680.893 938.409 680.664 939.445 680.218C941.727 679.244 944.172 678.742 946.642 678.742C949.112 678.742 951.558 679.244 953.84 680.218C954.876 680.664 955.988 680.893 957.111 680.892C958.97 680.885 960.774 680.242 962.239 679.064C963.704 677.885 964.746 676.238 965.202 674.382C965.657 672.526 965.501 670.566 964.756 668.812C964.012 667.058 962.722 665.609 961.089 664.693Z" fill="#5A16CA"/>
<path d="M968.627 657.173C971.518 657.173 973.861 654.76 973.861 651.783C973.861 648.806 971.518 646.392 968.627 646.392C965.736 646.392 963.393 648.806 963.393 651.783C963.393 654.76 965.736 657.173 968.627 657.173Z" stroke="#5A16CA" stroke-width="2" stroke-linecap="round" stroke-linejoin="round"/>
<path d="M924.658 657.173C927.549 657.173 929.893 654.76 929.893 651.783C929.893 648.806 927.549 646.392 924.658 646.392C921.767 646.392 919.424 648.806 919.424 651.783C919.424 654.76 921.767 657.173 924.658 657.173Z" stroke="#5A16CA" stroke-width="2" stroke-linecap="round" stroke-linejoin="round"/>
<path d="M937.221 644.236C940.112 644.236 942.455 641.822 942.455 638.845C942.455 635.868 940.112 633.455 937.221 633.455C934.33 633.455 931.986 635.868 931.986 638.845C931.986 641.822 934.33 644.236 937.221 644.236Z" stroke="#5A16CA" stroke-width="2" stroke-linecap="round" stroke-linejoin="round"/>
<path d="M956.064 644.236C958.955 644.236 961.299 641.822 961.299 638.845C961.299 635.868 958.955 633.455 956.064 633.455C953.174 633.455 950.83 635.868 950.83 638.845C950.83 641.822 953.174 644.236 956.064 644.236Z" stroke="#5A16CA" stroke-width="2" stroke-linecap="round" stroke-linejoin="round"/>
<path d="M961.089 664.693C958.466 663.18 956.528 660.662 955.698 657.685V657.685C955.133 655.661 953.944 653.881 952.31 652.614C950.677 651.347 948.687 650.662 946.642 650.662C944.597 650.662 942.608 651.347 940.974 652.614C939.34 653.881 938.152 655.661 937.587 657.685C936.756 660.662 934.819 663.18 932.195 664.693C930.563 665.609 929.273 667.058 928.528 668.812C927.784 670.566 927.627 672.526 928.083 674.382C928.539 676.238 929.581 677.885 931.046 679.064C932.511 680.242 934.315 680.885 936.174 680.892C937.297 680.893 938.409 680.664 939.445 680.218C941.727 679.244 944.172 678.742 946.642 678.742C949.112 678.742 951.558 679.244 953.84 680.218C954.876 680.664 955.988 680.893 957.111 680.892C958.97 680.885 960.774 680.242 962.239 679.064C963.704 677.885 964.746 676.238 965.202 674.382C965.657 672.526 965.501 670.566 964.756 668.812C964.012 667.058 962.722 665.609 961.089 664.693Z" stroke="#5A16CA" stroke-width="2" stroke-linecap="round" stroke-linejoin="round"/>
<path opacity="0.2" d="M971.243 538.804C966.887 539.991 962.284 540.03 957.908 538.916C953.531 537.803 949.538 535.578 946.339 532.469C943.14 529.36 940.85 525.479 939.704 521.226C938.559 516.972 938.599 512.499 939.82 508.266C935.526 509.428 931.619 511.663 928.49 514.748C925.36 517.834 923.117 521.662 921.984 525.853C920.851 530.043 920.868 534.448 922.032 538.63C923.196 542.813 925.468 546.625 928.62 549.689C931.772 552.752 935.695 554.96 939.999 556.091C944.302 557.222 948.835 557.238 953.147 556.137C957.459 555.036 961.398 552.857 964.573 549.815C967.748 546.774 970.048 542.978 971.243 538.804V538.804Z" fill="#5A16CA"/>
<path d="M971.049 527.861V514.923" stroke="#5A16CA" stroke-width="2" stroke-linecap="round" stroke-linejoin="round"/>
<path d="M977.705 521.392H964.393" stroke="#5A16CA" stroke-width="2" stroke-linecap="round" stroke-linejoin="round"/>
<path d="M957.736 504.142V512.767" stroke="#5A16CA" stroke-width="2" stroke-linecap="round" stroke-linejoin="round"/>
<path d="M962.174 508.455H953.299" stroke="#5A16CA" stroke-width="2" stroke-linecap="round" stroke-linejoin="round"/>
<path d="M971.243 538.804C966.887 539.991 962.284 540.03 957.908 538.916C953.531 537.803 949.538 535.578 946.339 532.469C943.14 529.36 940.85 525.479 939.704 521.226C938.559 516.972 938.599 512.499 939.82 508.266C935.526 509.428 931.619 511.663 928.49 514.748C925.36 517.834 923.117 521.662 921.984 525.853C920.851 530.043 920.868 534.448 922.032 538.63C923.196 542.813 925.468 546.625 928.62 549.689C931.772 552.752 935.695 554.96 939.999 556.091C944.302 557.222 948.835 557.238 953.147 556.137C957.459 555.036 961.398 552.857 964.573 549.815C967.748 546.774 970.048 542.978 971.243 538.804V538.804Z" stroke="#5A16CA" stroke-width="2" stroke-linecap="round" stroke-linejoin="round"/>
<path opacity="0.2" d="M764.686 307.736C777.785 307.736 788.404 296.963 788.404 283.673C788.404 270.384 777.785 259.611 764.686 259.611C751.586 259.611 740.967 270.384 740.967 283.673C740.967 296.963 751.586 307.736 764.686 307.736Z" fill="#5A16CA"/>
<path d="M764.686 270.548V283.673" stroke="#5A16CA" stroke-width="2" stroke-linecap="round" stroke-linejoin="round"/>
<path d="M775.898 290.236L764.686 283.673" stroke="#5A16CA" stroke-width="2" stroke-linecap="round" stroke-linejoin="round"/>
<path d="M749.538 275.935H738.757V264.998" stroke="#5A16CA" stroke-width="2" stroke-linecap="round" stroke-linejoin="round"/>
<path d="M747.921 300.681C751.237 304.048 755.463 306.342 760.065 307.272C764.667 308.202 769.437 307.727 773.772 305.906C778.107 304.085 781.812 301.001 784.419 297.044C787.027 293.086 788.418 288.433 788.418 283.673C788.418 278.913 787.027 274.26 784.419 270.303C781.812 266.345 778.107 263.261 773.772 261.441C769.437 259.62 764.667 259.145 760.065 260.075C755.463 261.005 751.237 263.298 747.921 266.666L738.757 275.935" stroke="#5A16CA" stroke-width="2" stroke-linecap="round" stroke-linejoin="round"/>
<path opacity="0.2" d="M582.229 310.736C595.708 310.736 606.635 299.963 606.635 286.673C606.635 273.384 595.708 262.611 582.229 262.611C568.749 262.611 557.822 273.384 557.822 286.673C557.822 299.963 568.749 310.736 582.229 310.736Z" fill="#5A16CA"/>
<path d="M582.229 273.548V286.673" stroke="#5A16CA" stroke-width="2" stroke-linecap="round" stroke-linejoin="round"/>
<path d="M593.766 293.236L582.229 286.673" stroke="#5A16CA" stroke-width="2" stroke-linecap="round" stroke-linejoin="round"/>
<path d="M597.815 278.935H608.909V267.998" stroke="#5A16CA" stroke-width="2" stroke-linecap="round" stroke-linejoin="round"/>
<path d="M599.48 303.681C596.067 307.048 591.718 309.342 586.984 310.272C582.249 311.202 577.34 310.727 572.88 308.906C568.419 307.085 564.606 304.001 561.923 300.044C559.24 296.086 557.809 291.433 557.809 286.673C557.809 281.913 559.24 277.26 561.923 273.303C564.606 269.345 568.419 266.261 572.88 264.441C577.34 262.62 582.249 262.145 586.984 263.075C591.718 264.005 596.067 266.298 599.48 269.666L608.909 278.935" stroke="#5A16CA" stroke-width="2" stroke-linecap="round" stroke-linejoin="round"/>
<path opacity="0.2" d="M376.396 272.048H423.146V261.423C423.146 260.86 422.923 260.319 422.524 259.921C422.126 259.522 421.585 259.298 421.021 259.298H378.521C377.958 259.298 377.417 259.522 377.019 259.921C376.62 260.319 376.396 260.86 376.396 261.423V272.048Z" fill="#5A16CA"/>
<path d="M421.021 259.298H378.521C377.348 259.298 376.396 260.25 376.396 261.423V303.923C376.396 305.097 377.348 306.048 378.521 306.048H421.021C422.195 306.048 423.146 305.097 423.146 303.923V261.423C423.146 260.25 422.195 259.298 421.021 259.298Z" stroke="#5A16CA" stroke-width="2" stroke-linecap="round" stroke-linejoin="round"/>
<path d="M412.521 255.048V263.548" stroke="#5A16CA" stroke-width="2" stroke-linecap="round" stroke-linejoin="round"/>
<path d="M387.021 255.048V263.548" stroke="#5A16CA" stroke-width="2" stroke-linecap="round" stroke-linejoin="round"/>
<path d="M376.396 272.048H423.146" stroke="#5A16CA" stroke-width="2" stroke-linecap="round" stroke-linejoin="round"/>
<path opacity="0.2" d="M13.1387 273.048H60.5762V262.423C60.5762 261.86 60.349 261.319 59.9446 260.921C59.5402 260.522 58.9918 260.298 58.4199 260.298H15.2949C14.723 260.298 14.1746 260.522 13.7702 260.921C13.3658 261.319 13.1387 261.86 13.1387 262.423V273.048Z" fill="#5A16CA"/>
<path d="M58.4199 260.298H15.2949C14.1041 260.298 13.1387 261.25 13.1387 262.423V304.923C13.1387 306.097 14.1041 307.048 15.2949 307.048H58.4199C59.6108 307.048 60.5762 306.097 60.5762 304.923V262.423C60.5762 261.25 59.6108 260.298 58.4199 260.298Z" stroke="#5A16CA" stroke-width="2" stroke-linecap="round" stroke-linejoin="round"/>
<path d="M49.7949 256.048V264.548" stroke="#5A16CA" stroke-width="2" stroke-linecap="round" stroke-linejoin="round"/>
<path d="M23.9199 256.048V264.548" stroke="#5A16CA" stroke-width="2" stroke-linecap="round" stroke-linejoin="round"/>
<path d="M13.1387 273.048H60.5762" stroke="#5A16CA" stroke-width="2" stroke-linecap="round" stroke-linejoin="round"/>
<path d="M27.1543 283.673H34.7012L30.3887 288.986C31.0984 288.985 31.7975 289.156 32.4238 289.485C33.0502 289.814 33.5845 290.29 33.9794 290.871C34.3743 291.452 34.6175 292.121 34.6875 292.817C34.7575 293.513 34.6521 294.215 34.3807 294.861C34.1093 295.508 33.6802 296.078 33.1315 296.521C32.5828 296.965 31.9315 297.268 31.2354 297.405C30.5392 297.541 29.8197 297.505 29.1407 297.302C28.4617 297.098 27.8442 296.733 27.343 296.237" stroke="#5A16CA" stroke-width="2" stroke-linecap="round" stroke-linejoin="round"/>
<path d="M41.1699 286.861L45.4824 283.673V297.486" stroke="#5A16CA" stroke-width="2" stroke-linecap="round" stroke-linejoin="round"/>
<path opacity="0.2" d="M218.814 306.048C231.914 306.048 242.533 295.583 242.533 282.673C242.533 269.764 231.914 259.298 218.814 259.298C205.715 259.298 195.096 269.764 195.096 282.673C195.096 295.583 205.715 306.048 218.814 306.048Z" fill="#5A16CA"/>
<path d="M218.814 267.798V282.673H233.908" stroke="#5A16CA" stroke-width="2" stroke-linecap="round" stroke-linejoin="round"/>
<path d="M218.814 306.048C231.914 306.048 242.533 295.583 242.533 282.673C242.533 269.764 231.914 259.298 218.814 259.298C205.715 259.298 195.096 269.764 195.096 282.673C195.096 295.583 205.715 306.048 218.814 306.048Z" stroke="#5A16CA" stroke-width="2" stroke-miterlimit="10"/>
<path d="M237.115 255.633L246.252 264.637" stroke="#5A16CA" stroke-width="2" stroke-linecap="round" stroke-linejoin="round"/>
<path d="M191.376 264.637L200.513 255.633" stroke="#5A16CA" stroke-width="2" stroke-linecap="round" stroke-linejoin="round"/>
<path opacity="0.2" d="M202.064 549.58C207.846 549.58 212.533 539.926 212.533 528.017C212.533 516.108 207.846 506.455 202.064 506.455C196.283 506.455 191.596 516.108 191.596 528.017C191.596 539.926 196.283 549.58 202.064 549.58Z" fill="#5A16CA"/>
<path d="M202.064 531.251C203.799 531.251 205.205 529.803 205.205 528.017C205.205 526.231 203.799 524.783 202.064 524.783C200.33 524.783 198.924 526.231 198.924 528.017C198.924 529.803 200.33 531.251 202.064 531.251Z" fill="#5A16CA"/>
<path d="M202.064 549.58C207.846 549.58 212.533 539.926 212.533 528.017C212.533 516.108 207.846 506.455 202.064 506.455C196.283 506.455 191.596 516.108 191.596 528.017C191.596 539.926 196.283 549.58 202.064 549.58Z" stroke="#5A16CA" stroke-width="2" stroke-linecap="round" stroke-linejoin="round"/>
<path d="M212.533 528.017V551.736C212.533 552.308 212.754 552.856 213.146 553.261C213.539 553.665 214.072 553.892 214.627 553.892H243.939C244.495 553.892 245.027 553.665 245.42 553.261C245.813 552.856 246.033 552.308 246.033 551.736V528.017C246.033 516.104 241.348 506.455 235.564 506.455H202.064" stroke="#5A16CA" stroke-width="2" stroke-linecap="round" stroke-linejoin="round"/>
<path d="M212.533 528.017H218.814" stroke="#5A16CA" stroke-width="2" stroke-linecap="round" stroke-linejoin="round"/>
<path d="M227.189 528.017H231.377" stroke="#5A16CA" stroke-width="2" stroke-linecap="round" stroke-linejoin="round"/>
<path d="M239.752 528.017H246.033" stroke="#5A16CA" stroke-width="2" stroke-linecap="round" stroke-linejoin="round"/>
<path opacity="0.2" d="M19.1074 526.861V507.455C19.1074 506.883 19.3412 506.334 19.7573 505.93C20.1734 505.526 20.7377 505.298 21.3262 505.298H52.3887C52.9771 505.298 53.5415 505.526 53.9576 505.93C54.3737 506.334 54.6074 506.883 54.6074 507.455V526.861H19.1074Z" fill="#5A16CA"/>
<path opacity="0.2" d="M27.3172 548.693L26.1246 556.752C26.0811 557.057 26.1051 557.367 26.1952 557.662C26.2853 557.957 26.4393 558.23 26.6468 558.462C26.8543 558.694 27.1106 558.881 27.3985 559.009C27.6863 559.137 27.999 559.204 28.3156 559.205H45.4C45.7166 559.204 46.0293 559.137 46.3171 559.009C46.605 558.881 46.8613 558.694 47.0688 558.462C47.2763 558.23 47.4303 557.957 47.5204 557.662C47.6105 557.367 47.6345 557.057 47.591 556.752L46.3984 548.693C43.3809 549.938 40.1362 550.58 36.8578 550.58C33.5794 550.58 30.3347 549.938 27.3172 548.693Z" fill="#5A16CA"/>
<path d="M19.1074 526.861V507.455C19.1074 506.883 19.3412 506.334 19.7573 505.93C20.1734 505.526 20.7377 505.298 21.3262 505.298H52.3887C52.9771 505.298 53.5415 505.526 53.9576 505.93C54.3737 506.334 54.6074 506.883 54.6074 507.455V526.861" stroke="#5A16CA" stroke-width="2" stroke-linecap="round" stroke-linejoin="round"/>
<path d="M27.9824 513.923H32.4199" stroke="#5A16CA" stroke-width="2" stroke-linecap="round" stroke-linejoin="round"/>
<path d="M61.2637 526.861C61.2637 533.151 58.6923 539.184 54.1152 543.633C49.5382 548.081 43.3304 550.58 36.8574 550.58C30.3845 550.58 24.1767 548.081 19.5996 543.633C15.0225 539.184 12.4512 533.151 12.4512 526.861H61.2637Z" stroke="#5A16CA" stroke-width="2" stroke-linecap="round" stroke-linejoin="round"/>
<path d="M27.3172 548.693L26.1246 556.752C26.0811 557.057 26.1051 557.367 26.1952 557.662C26.2853 557.957 26.4393 558.23 26.6468 558.462C26.8543 558.694 27.1106 558.881 27.3985 559.009C27.6863 559.137 27.999 559.204 28.3156 559.205H45.4C45.7166 559.204 46.0293 559.137 46.3171 559.009C46.605 558.881 46.8613 558.694 47.0688 558.462C47.2763 558.23 47.4303 557.957 47.5204 557.662C47.6105 557.367 47.6345 557.057 47.591 556.752L46.3984 548.693" stroke="#5A16CA" stroke-width="2" stroke-linecap="round" stroke-linejoin="round"/>
<path opacity="0.2" d="M399.771 557.892C399.771 557.892 372.428 542.798 372.428 524.47C372.428 521.23 373.567 518.09 375.651 515.584C377.734 513.079 380.635 511.362 383.858 510.727C387.081 510.091 390.428 510.576 393.329 512.099C396.231 513.622 398.507 516.089 399.771 519.08V519.08C401.036 516.089 403.312 513.622 406.213 512.099C409.115 510.576 412.462 510.091 415.685 510.727C418.908 511.362 421.809 513.079 423.892 515.584C425.976 518.09 427.115 521.23 427.115 524.47C427.115 542.798 399.771 557.892 399.771 557.892Z" fill="#5A16CA"/>
<path d="M373.521 534.173H384.459L388.834 527.705L397.584 540.642L401.959 534.173H408.521" stroke="#5A16CA" stroke-width="2" stroke-linecap="round" stroke-linejoin="round"/>
<path d="M372.455 525.548C372.428 525.198 372.428 524.821 372.428 524.47C372.428 521.23 373.567 518.09 375.651 515.584C377.734 513.079 380.635 511.362 383.858 510.727C387.081 510.091 390.428 510.576 393.329 512.099C396.231 513.622 398.507 516.089 399.771 519.08V519.08C401.036 516.089 403.312 513.622 406.213 512.099C409.115 510.576 412.462 510.091 415.685 510.727C418.908 511.362 421.809 513.079 423.892 515.584C425.976 518.09 427.115 521.23 427.115 524.47C427.115 542.798 399.771 557.892 399.771 557.892C399.771 557.892 388.861 551.855 380.822 542.798" stroke="#5A16CA" stroke-width="2" stroke-linecap="round" stroke-linejoin="round"/>
<path opacity="0.2" d="M571.291 516.205H564.729C563.52 516.205 562.541 517.198 562.541 518.423V553.923C562.541 555.149 563.52 556.142 564.729 556.142H571.291C572.499 556.142 573.479 555.149 573.479 553.923V518.423C573.479 517.198 572.499 516.205 571.291 516.205Z" fill="#5A16CA"/>
<path opacity="0.2" d="M599.729 516.205H593.166C591.958 516.205 590.979 517.198 590.979 518.423V553.923C590.979 555.149 591.958 556.142 593.166 556.142H599.729C600.937 556.142 601.916 555.149 601.916 553.923V518.423C601.916 517.198 600.937 516.205 599.729 516.205Z" fill="#5A16CA"/>
<path d="M571.291 516.205H564.729C563.52 516.205 562.541 517.198 562.541 518.423V553.923C562.541 555.149 563.52 556.142 564.729 556.142H571.291C572.499 556.142 573.479 555.149 573.479 553.923V518.423C573.479 517.198 572.499 516.205 571.291 516.205Z" stroke="#5A16CA" stroke-width="2" stroke-linecap="round" stroke-linejoin="round"/>
<path d="M599.729 516.205H593.166C591.958 516.205 590.979 517.198 590.979 518.423V553.923C590.979 555.149 591.958 556.142 593.166 556.142H599.729C600.937 556.142 601.916 555.149 601.916 553.923V518.423C601.916 517.198 600.937 516.205 599.729 516.205Z" stroke="#5A16CA" stroke-width="2" stroke-linecap="round" stroke-linejoin="round"/>
<path d="M601.916 522.861H608.479C609.059 522.861 609.615 523.095 610.025 523.511C610.436 523.927 610.666 524.491 610.666 525.08V547.267C610.666 547.856 610.436 548.42 610.025 548.836C609.615 549.252 609.059 549.486 608.479 549.486H601.916" stroke="#5A16CA" stroke-width="2" stroke-linecap="round" stroke-linejoin="round"/>
<path d="M562.541 549.486H555.979C555.398 549.486 554.842 549.252 554.432 548.836C554.021 548.42 553.791 547.856 553.791 547.267V525.08C553.791 524.491 554.021 523.927 554.432 523.511C554.842 523.095 555.398 522.861 555.979 522.861H562.541" stroke="#5A16CA" stroke-width="2" stroke-linecap="round" stroke-linejoin="round"/>
<path d="M573.479 536.173H590.979" stroke="#5A16CA" stroke-width="2" stroke-linecap="round" stroke-linejoin="round"/>
<path d="M610.666 536.173H615.041" stroke="#5A16CA" stroke-width="2" stroke-linecap="round" stroke-linejoin="round"/>
<path d="M549.416 536.173H553.791" stroke="#5A16CA" stroke-width="2" stroke-linecap="round" stroke-linejoin="round"/>
<path opacity="0.2" d="M28.2051 389.376C31.1822 389.376 33.5957 387.033 33.5957 384.142C33.5957 381.251 31.1822 378.908 28.2051 378.908C25.2279 378.908 22.8145 381.251 22.8145 384.142C22.8145 387.033 25.2279 389.376 28.2051 389.376Z" fill="#5A16CA"/>
<path d="M28.2051 389.376C31.1822 389.376 33.5957 387.033 33.5957 384.142C33.5957 381.251 31.1822 378.908 28.2051 378.908C25.2279 378.908 22.8145 381.251 22.8145 384.142C22.8145 387.033 25.2279 389.376 28.2051 389.376Z" stroke="#5A16CA" stroke-width="2" stroke-linecap="round" stroke-linejoin="round"/>
<path d="M28.2051 389.376V408.22H51.9238L60.5488 424.97L67.0176 422.876" stroke="#5A16CA" stroke-width="2" stroke-linecap="round" stroke-linejoin="round"/>
<path d="M47.5845 416.595C47.3741 419.857 46.1858 422.987 44.1659 425.601C42.146 428.215 39.3827 430.198 36.2165 431.306C33.0504 432.414 29.6195 432.599 26.3468 431.837C23.074 431.075 20.1022 429.4 17.7975 427.019C15.4928 424.637 13.9559 421.653 13.3761 418.434C12.7963 415.215 13.1989 411.901 14.5344 408.902C15.8699 405.902 18.0798 403.347 20.8921 401.552C23.7043 399.757 26.9959 398.8 30.3614 398.798H45.4552" stroke="#5A16CA" stroke-width="2" stroke-linecap="round" stroke-linejoin="round"/>
<path opacity="0.2" d="M946.643 421.783C952.597 421.783 957.424 417.096 957.424 411.314C957.424 405.532 952.597 400.845 946.643 400.845C940.688 400.845 935.861 405.532 935.861 411.314C935.861 417.096 940.688 421.783 946.643 421.783Z" fill="#5A16CA"/>
<path opacity="0.2" d="M928.314 405.033C933.078 405.033 936.939 401.283 936.939 396.658C936.939 392.032 933.078 388.283 928.314 388.283C923.551 388.283 919.689 392.032 919.689 396.658C919.689 401.283 923.551 405.033 928.314 405.033Z" fill="#5A16CA"/>
<path opacity="0.2" d="M964.971 405.033C969.734 405.033 973.596 401.283 973.596 396.658C973.596 392.032 969.734 388.283 964.971 388.283C960.207 388.283 956.346 392.032 956.346 396.658C956.346 401.283 960.207 405.033 964.971 405.033Z" fill="#5A16CA"/>
<path d="M946.643 421.783C952.597 421.783 957.424 417.096 957.424 411.314C957.424 405.532 952.597 400.845 946.643 400.845C940.688 400.845 935.861 405.532 935.861 411.314C935.861 417.096 940.688 421.783 946.643 421.783Z" stroke="#5A16CA" stroke-width="2" stroke-linecap="round" stroke-linejoin="round"/>
<path d="M964.971 405.033C967.482 405.029 969.96 405.594 972.206 406.685C974.452 407.776 976.405 409.361 977.908 411.314" stroke="#5A16CA" stroke-width="2" stroke-linecap="round" stroke-linejoin="round"/>
<path d="M915.377 411.314C916.88 409.361 918.833 407.776 921.079 406.685C923.326 405.594 925.803 405.029 928.314 405.033" stroke="#5A16CA" stroke-width="2" stroke-linecap="round" stroke-linejoin="round"/>
<path d="M931.117 431.204C932.537 428.381 934.745 426.001 937.49 424.336C940.235 422.672 943.406 421.789 946.642 421.789C949.878 421.789 953.049 422.672 955.794 424.336C958.539 426.001 960.747 428.381 962.167 431.204" stroke="#5A16CA" stroke-width="2" stroke-linecap="round" stroke-linejoin="round"/>
<path d="M928.314 405.033C926.677 405.034 925.074 404.584 923.691 403.733C922.308 402.882 921.203 401.667 920.504 400.23C919.806 398.792 919.544 397.191 919.748 395.614C919.952 394.037 920.614 392.548 921.657 391.323C922.7 390.098 924.08 389.186 925.637 388.694C927.193 388.202 928.862 388.15 930.448 388.545C932.033 388.94 933.471 389.765 934.592 390.923C935.713 392.082 936.471 393.526 936.778 395.087" stroke="#5A16CA" stroke-width="2" stroke-linecap="round" stroke-linejoin="round"/>
<path d="M956.508 395.087C956.815 393.526 957.573 392.082 958.694 390.923C959.815 389.765 961.252 388.94 962.838 388.545C964.424 388.15 966.092 388.202 967.649 388.694C969.206 389.186 970.586 390.098 971.629 391.323C972.671 392.548 973.333 394.037 973.538 395.614C973.742 397.191 973.479 398.792 972.781 400.23C972.083 401.667 970.978 402.882 969.595 403.733C968.212 404.584 966.608 405.034 964.971 405.033" stroke="#5A16CA" stroke-width="2" stroke-linecap="round" stroke-linejoin="round"/>
<path opacity="0.2" d="M239.752 383.142H197.877C197.322 383.142 196.789 383.363 196.396 383.755C196.004 384.148 195.783 384.681 195.783 385.236V427.111C195.783 427.666 196.004 428.199 196.396 428.591C196.789 428.984 197.322 429.205 197.877 429.205H239.752C240.307 429.205 240.84 428.984 241.232 428.591C241.625 428.199 241.846 427.666 241.846 427.111V385.236C241.846 384.681 241.625 384.148 241.232 383.755C240.84 383.363 240.307 383.142 239.752 383.142ZM200.442 429.205C201.391 425.041 203.725 421.324 207.063 418.661C210.401 415.998 214.545 414.548 218.814 414.548C216.744 414.548 214.72 413.934 212.998 412.784C211.277 411.634 209.935 409.999 209.143 408.086C208.35 406.173 208.143 404.068 208.547 402.037C208.951 400.006 209.948 398.141 211.412 396.677C212.876 395.213 214.741 394.216 216.772 393.812C218.803 393.408 220.908 393.615 222.821 394.408C224.734 395.2 226.369 396.542 227.519 398.263C228.669 399.985 229.283 402.009 229.283 404.08C229.283 406.856 228.18 409.519 226.217 411.482C224.254 413.445 221.591 414.548 218.814 414.548C223.084 414.548 227.228 415.998 230.566 418.661C233.904 421.324 236.238 425.041 237.187 429.205H200.442Z" fill="#5A16CA"/>
<path d="M218.814 414.548C224.596 414.548 229.283 409.861 229.283 404.08C229.283 398.298 224.596 393.611 218.814 393.611C213.033 393.611 208.346 398.298 208.346 404.08C208.346 409.861 213.033 414.548 218.814 414.548Z" stroke="#5A16CA" stroke-width="2" stroke-linecap="round" stroke-linejoin="round"/>
<path d="M239.752 383.142H197.877C196.721 383.142 195.783 384.079 195.783 385.236V427.111C195.783 428.267 196.721 429.205 197.877 429.205H239.752C240.908 429.205 241.846 428.267 241.846 427.111V385.236C241.846 384.079 240.908 383.142 239.752 383.142Z" stroke="#5A16CA" stroke-width="2" stroke-linecap="round" stroke-linejoin="round"/>
<path d="M200.441 429.205C201.39 425.041 203.725 421.324 207.063 418.661C210.401 415.998 214.544 414.548 218.814 414.548C223.084 414.548 227.227 415.998 230.565 418.661C233.903 421.324 236.238 425.041 237.187 429.205" stroke="#5A16CA" stroke-width="2" stroke-linecap="round" stroke-linejoin="round"/>
<path opacity="0.2" d="M571.604 419.548C579.232 419.548 585.416 413.455 585.416 405.939C585.416 398.423 579.232 392.33 571.604 392.33C563.975 392.33 557.791 398.423 557.791 405.939C557.791 413.455 563.975 419.548 571.604 419.548Z" fill="#5A16CA"/>
<path d="M571.604 419.548C579.232 419.548 585.416 413.455 585.416 405.939C585.416 398.423 579.232 392.33 571.604 392.33C563.975 392.33 557.791 398.423 557.791 405.939C557.791 413.455 563.975 419.548 571.604 419.548Z" stroke="#5A16CA" stroke-width="2" stroke-miterlimit="10"/>
<path d="M589.507 392.827C590.728 392.501 591.987 392.333 593.252 392.33C596.915 392.33 600.429 393.763 603.019 396.316C605.609 398.868 607.065 402.33 607.065 405.939C607.065 409.548 605.609 413.01 603.019 415.562C600.429 418.114 596.915 419.548 593.252 419.548" stroke="#5A16CA" stroke-width="2" stroke-linecap="round" stroke-linejoin="round"/>
<path d="M552.479 429.337C554.635 426.313 557.499 423.844 560.828 422.141C564.156 420.437 567.852 419.547 571.604 419.547C575.355 419.547 579.051 420.437 582.379 422.141C585.708 423.844 588.572 426.313 590.729 429.337" stroke="#5A16CA" stroke-width="2" stroke-linecap="round" stroke-linejoin="round"/>
<path d="M593.252 419.548C597.003 419.546 600.7 420.434 604.029 422.138C607.358 423.842 610.222 426.311 612.377 429.337" stroke="#5A16CA" stroke-width="2" stroke-linecap="round" stroke-linejoin="round"/>
<path opacity="0.2" d="M589.719 185.634C587.291 186.404 584.767 186.797 582.229 186.798C577.185 186.798 572.255 185.237 568.061 182.311C563.868 179.386 560.6 175.227 558.67 170.362C556.74 165.497 556.235 160.144 557.219 154.979C558.202 149.814 560.631 145.07 564.197 141.347C567.764 137.623 572.307 135.087 577.254 134.06C582.2 133.033 587.327 133.56 591.987 135.575C596.646 137.59 600.629 141.003 603.431 145.381C606.233 149.76 607.729 154.907 607.729 160.173C607.727 162.823 607.351 165.459 606.613 167.994L589.719 185.634Z" fill="#5A16CA"/>
<path d="M589.719 185.634C587.291 186.404 584.767 186.797 582.229 186.798C577.185 186.798 572.255 185.237 568.061 182.311C563.868 179.386 560.6 175.227 558.67 170.362C556.74 165.497 556.235 160.144 557.219 154.979C558.202 149.814 560.631 145.07 564.197 141.347C567.764 137.623 572.307 135.087 577.254 134.06C582.2 133.033 587.327 133.56 591.987 135.575C596.646 137.59 600.629 141.003 603.431 145.381C606.233 149.76 607.729 154.907 607.729 160.173C607.727 162.823 607.351 165.459 606.613 167.994L589.719 185.634Z" stroke="#5A16CA" stroke-width="2" stroke-linecap="round" stroke-linejoin="round"/>
<path d="M572.666 157.955C574.426 157.955 575.854 156.465 575.854 154.626C575.854 152.788 574.426 151.298 572.666 151.298C570.906 151.298 569.479 152.788 569.479 154.626C569.479 156.465 570.906 157.955 572.666 157.955Z" fill="#5A16CA"/>
<path d="M591.791 157.955C593.551 157.955 594.979 156.465 594.979 154.626C594.979 152.788 593.551 151.298 591.791 151.298C590.031 151.298 588.604 152.788 588.604 154.626C588.604 156.465 590.031 157.955 591.791 157.955Z" fill="#5A16CA"/>
<path d="M593.279 166.83C592.155 168.85 590.543 170.528 588.604 171.693C586.665 172.859 584.466 173.473 582.229 173.473C579.991 173.473 577.792 172.859 575.853 171.693C573.914 170.528 572.302 168.85 571.179 166.83" stroke="#5A16CA" stroke-width="2" stroke-linecap="round" stroke-linejoin="round"/>
<path opacity="0.2" d="M36.8291 20.0798C41.1783 20.0798 44.7041 16.701 44.7041 12.533C44.7041 8.36493 41.1783 4.98608 36.8291 4.98608C32.4799 4.98608 28.9541 8.36493 28.9541 12.533C28.9541 16.701 32.4799 20.0798 36.8291 20.0798Z" fill="#5A16CA"/>
<path opacity="0.2" d="M44.1413 36.9794L53.9288 44.2568C54.5759 44.7729 55.4009 45.0387 56.2419 45.0019C57.0829 44.9651 57.8792 44.6284 58.4745 44.058C59.0698 43.4875 59.4211 42.7243 59.4595 41.9184C59.4978 41.1124 59.2205 40.3218 58.6819 39.7017L47.5444 25.9826C47.0254 25.4801 46.4079 25.0809 45.7273 24.808C45.0467 24.5351 44.3166 24.3938 43.5788 24.3923H30.0788C28.5815 24.4 27.1472 24.9711 26.0851 25.9826L14.9476 39.7017C14.3677 40.3186 14.0575 41.1256 14.0814 41.9556C14.1052 42.7856 14.4612 43.575 15.0756 44.1604C15.6901 44.7457 16.5159 45.0822 17.3821 45.1002C18.2483 45.1181 19.0885 44.8162 19.7288 44.2568L29.5163 36.9794L21.6976 60.5904C21.5092 60.9762 21.402 61.3938 21.382 61.8193C21.362 62.2448 21.4297 62.6699 21.5812 63.0704C21.7327 63.4709 21.965 63.8388 22.2648 64.1532C22.5647 64.4676 22.9262 64.7224 23.3288 64.9029C23.7314 65.0834 24.1671 65.1862 24.6112 65.2053C25.0552 65.2244 25.4988 65.1596 25.9167 65.0144C26.3345 64.8692 26.7185 64.6466 27.0465 64.3592C27.3746 64.0719 27.6405 63.7254 27.8288 63.3396L36.8288 49.7552L45.8288 63.3396C46.0046 63.7423 46.2636 64.1066 46.5903 64.4108C46.9169 64.715 47.3045 64.9527 47.7295 65.1095C48.1545 65.2663 48.6083 65.3391 49.0635 65.3234C49.5186 65.3078 49.9658 65.204 50.378 65.0183C50.7902 64.8326 51.1589 64.5689 51.4619 64.243C51.7649 63.9172 51.996 63.5359 52.1412 63.1222C52.2864 62.7085 52.3427 62.2709 52.3067 61.8358C52.2708 61.4007 52.1433 60.977 51.9319 60.5904L44.1413 36.9794Z" fill="#5A16CA"/>
<path d="M36.8291 20.0798C41.1783 20.0798 44.7041 16.701 44.7041 12.533C44.7041 8.36493 41.1783 4.98608 36.8291 4.98608C32.4799 4.98608 28.9541 8.36493 28.9541 12.533C28.9541 16.701 32.4799 20.0798 36.8291 20.0798Z" stroke="#5A16CA" stroke-width="2" stroke-linecap="round" stroke-linejoin="round"/>
<path d="M44.1413 36.9794L53.9288 44.2568C54.5759 44.7729 55.4009 45.0387 56.2419 45.0019C57.0829 44.9651 57.8792 44.6284 58.4745 44.058C59.0698 43.4875 59.4211 42.7243 59.4595 41.9184C59.4978 41.1124 59.2205 40.3218 58.6819 39.7017L47.5444 25.9826C47.0254 25.4801 46.4079 25.0809 45.7273 24.808C45.0467 24.5351 44.3166 24.3938 43.5788 24.3923H30.0788C28.5815 24.4 27.1472 24.9711 26.0851 25.9826L14.9476 39.7017C14.3677 40.3186 14.0575 41.1256 14.0814 41.9556C14.1052 42.7856 14.4612 43.575 15.0756 44.1604C15.6901 44.7457 16.5159 45.0822 17.3821 45.1002C18.2483 45.1181 19.0885 44.8162 19.7288 44.2568L29.5163 36.9794L21.6976 60.5904C21.5092 60.9762 21.402 61.3938 21.382 61.8193C21.362 62.2448 21.4297 62.6699 21.5812 63.0704C21.7327 63.4709 21.965 63.8388 22.2648 64.1532C22.5647 64.4676 22.9262 64.7224 23.3288 64.9029C23.7314 65.0834 24.1671 65.1862 24.6112 65.2053C25.0552 65.2244 25.4988 65.1596 25.9167 65.0144C26.3345 64.8692 26.7185 64.6466 27.0465 64.3592C27.3746 64.0719 27.6405 63.7254 27.8288 63.3396L36.8288 49.7552L45.8288 63.3396C46.0046 63.7423 46.2636 64.1066 46.5903 64.4108C46.9169 64.715 47.3045 64.9527 47.7295 65.1095C48.1545 65.2663 48.6083 65.3391 49.0635 65.3234C49.5186 65.3078 49.9658 65.204 50.378 65.0183C50.7902 64.8326 51.1589 64.5689 51.4619 64.243C51.7649 63.9172 51.996 63.5359 52.1412 63.1222C52.2864 62.7085 52.3427 62.2709 52.3067 61.8358C52.2708 61.4007 52.1433 60.977 51.9319 60.5904L44.1413 36.9794Z" stroke="#5A16CA" stroke-width="2" stroke-linecap="round" stroke-linejoin="round"/>
<path opacity="0.2" d="M784.373 414.69L774.311 424.321C774.036 424.567 773.704 424.745 773.342 424.841C772.98 424.936 772.599 424.947 772.232 424.871L756.373 421.076C756.083 420.999 755.813 420.865 755.58 420.683L740.623 409.508L749.537 393.465L763.564 389.539C764.063 389.402 764.596 389.439 765.068 389.644L774.529 393.753H768.869C768.585 393.752 768.304 393.804 768.041 393.908C767.778 394.011 767.539 394.163 767.338 394.355L756.619 404.588C756.4 404.803 756.232 405.06 756.124 405.342C756.017 405.624 755.974 405.925 755.997 406.224C756.02 406.524 756.11 406.815 756.259 407.079C756.409 407.342 756.616 407.573 756.865 407.755L758.342 408.828C759.858 409.911 761.7 410.496 763.592 410.496C765.484 410.496 767.325 409.911 768.842 408.828L772.342 406.315L784.373 414.69Z" fill="#5A16CA"/>
<path d="M795.502 406.551L788.748 409.77L779.998 393.753L786.834 390.481C787.342 390.233 787.932 390.188 788.475 390.354C789.018 390.521 789.47 390.887 789.732 391.371L796.459 403.698C796.595 403.945 796.679 404.215 796.704 404.493C796.73 404.771 796.697 405.051 796.608 405.317C796.519 405.583 796.375 405.829 796.185 406.041C795.995 406.253 795.763 406.426 795.502 406.551V406.551Z" stroke="#5A16CA" stroke-width="2" stroke-linecap="round" stroke-linejoin="round"/>
<path d="M740.623 409.508L733.869 406.263C733.609 406.141 733.377 405.97 733.187 405.761C732.997 405.551 732.854 405.307 732.764 405.044C732.675 404.78 732.642 404.502 732.667 404.226C732.693 403.95 732.776 403.681 732.912 403.436L739.638 391.109C739.901 390.625 740.352 390.259 740.893 390.088C741.434 389.916 742.024 389.954 742.537 390.193L749.373 393.465L740.623 409.508Z" stroke="#5A16CA" stroke-width="2" stroke-linecap="round" stroke-linejoin="round"/>
<path d="M788.748 409.77L784.373 414.69L774.311 424.321C774.036 424.567 773.704 424.745 773.342 424.841C772.98 424.936 772.599 424.947 772.232 424.871L756.373 421.076C756.083 420.999 755.813 420.865 755.58 420.683L740.623 409.508" stroke="#5A16CA" stroke-width="2" stroke-linecap="round" stroke-linejoin="round"/>
<path d="M784.373 414.69L772.342 406.315L768.842 408.828C767.326 409.911 765.484 410.496 763.592 410.496C761.7 410.496 759.859 409.911 758.342 408.828L756.866 407.755C756.616 407.573 756.409 407.343 756.26 407.079C756.11 406.815 756.021 406.524 755.997 406.224C755.974 405.925 756.017 405.624 756.125 405.342C756.232 405.06 756.401 404.803 756.62 404.588L767.338 394.355C767.54 394.163 767.778 394.011 768.041 393.908C768.304 393.804 768.585 393.752 768.87 393.753H779.998" stroke="#5A16CA" stroke-width="2" stroke-linecap="round" stroke-linejoin="round"/>
<path d="M749.537 393.465L763.564 389.539C764.063 389.402 764.596 389.439 765.068 389.644L774.529 393.753" stroke="#5A16CA" stroke-width="2" stroke-linecap="round" stroke-linejoin="round"/>
<path d="M760.311 430.393L752.08 428.404C751.745 428.332 751.434 428.179 751.178 427.959L744.998 422.83" stroke="#5A16CA" stroke-width="2" stroke-linecap="round" stroke-linejoin="round"/>
<path opacity="0.2" d="M593.479 30.4236V27.2361C593.479 25.8271 592.886 24.4759 591.831 23.4796C590.776 22.4833 589.346 21.9236 587.854 21.9236C586.362 21.9236 584.931 22.4833 583.876 23.4796C582.822 24.4759 582.229 25.8271 582.229 27.2361V10.2361C582.229 8.82712 581.636 7.47587 580.581 6.47958C579.526 5.48329 578.096 4.92358 576.604 4.92358C575.112 4.92358 573.681 5.48329 572.626 6.47958C571.572 7.47587 570.979 8.82712 570.979 10.2361V42.4564L564.82 32.3626C564.074 31.1404 562.844 30.248 561.402 29.8819C559.959 29.5157 558.421 29.7058 557.127 30.4103C555.833 31.1148 554.888 32.276 554.501 33.6384C554.113 35.0008 554.314 36.4529 555.06 37.6751C564.229 55.9236 569.798 62.2986 582.229 62.2986C585.184 62.2986 588.109 61.7489 590.839 60.681C593.569 59.6131 596.049 58.0478 598.139 56.0746C600.228 54.1014 601.885 51.7588 603.016 49.1806C604.147 46.6024 604.729 43.8392 604.729 41.0486V30.4236C604.729 29.0146 604.136 27.6634 603.081 26.6671C602.026 25.6708 600.596 25.1111 599.104 25.1111C597.612 25.1111 596.181 25.6708 595.126 26.6671C594.072 27.6634 593.479 29.0146 593.479 30.4236V30.4236Z" fill="#5A16CA"/>
<path d="M593.479 30.4236V27.2361C593.479 25.8271 592.886 24.4759 591.831 23.4796C590.776 22.4833 589.346 21.9236 587.854 21.9236C586.362 21.9236 584.931 22.4833 583.876 23.4796C582.822 24.4759 582.229 25.8271 582.229 27.2361V10.2361C582.229 8.82712 581.636 7.47587 580.581 6.47958C579.526 5.48329 578.096 4.92358 576.604 4.92358C575.112 4.92358 573.681 5.48329 572.626 6.47958C571.572 7.47587 570.979 8.82712 570.979 10.2361V42.4564L564.82 32.3626C564.074 31.1404 562.844 30.248 561.402 29.8819C559.959 29.5157 558.421 29.7058 557.127 30.4103C555.833 31.1148 554.888 32.276 554.501 33.6384C554.113 35.0008 554.314 36.4529 555.06 37.6751C564.229 55.9236 569.798 62.2986 582.229 62.2986C585.184 62.2986 588.109 61.7489 590.839 60.681C593.569 59.6131 596.049 58.0478 598.139 56.0746C600.228 54.1014 601.885 51.7588 603.016 49.1806C604.147 46.6024 604.729 43.8392 604.729 41.0486V30.4236C604.729 29.0146 604.136 27.6634 603.081 26.6671C602.026 25.6708 600.596 25.1111 599.104 25.1111C597.612 25.1111 596.181 25.6708 595.126 26.6671C594.072 27.6634 593.479 29.0146 593.479 30.4236V30.4236Z" stroke="#5A16CA" stroke-width="2" stroke-linecap="round" stroke-linejoin="round"/>
<path opacity="0.2" d="M218.815 14.4861V10.2361C218.815 8.82712 219.382 7.47587 220.393 6.47958C221.404 5.48329 222.775 4.92358 224.205 4.92358C225.635 4.92358 227.006 5.48329 228.017 6.47958C229.028 7.47587 229.596 8.82712 229.596 10.2361V18.7361C229.596 17.3271 230.164 15.9759 231.175 14.9796C232.186 13.9833 233.557 13.4236 234.986 13.4236C236.416 13.4236 237.787 13.9833 238.798 14.9796C239.809 15.9759 240.377 17.3271 240.377 18.7361V41.0486C240.377 43.8392 239.819 46.6024 238.736 49.1806C237.652 51.7588 236.064 54.1014 234.062 56.0746C232.059 58.0478 229.682 59.6131 227.066 60.681C224.45 61.7489 221.646 62.2986 218.815 62.2986C206.901 62.2986 201.565 55.9236 192.778 37.6751C192.063 36.4529 191.87 35.0008 192.242 33.6384C192.613 32.276 193.519 31.1148 194.759 30.4103C195.999 29.7058 197.473 29.5157 198.855 29.8819C200.237 30.248 201.416 31.1404 202.131 32.3626L208.033 42.4564V14.4861C208.033 13.0771 208.601 11.7259 209.612 10.7296C210.623 9.73329 211.994 9.17358 213.424 9.17358C214.854 9.17358 216.225 9.73329 217.236 10.7296C218.247 11.7259 218.815 13.0771 218.815 14.4861V14.4861Z" fill="#5A16CA"/>
<path d="M229.596 32.5486V18.7361C229.596 17.3271 230.164 15.9759 231.175 14.9796C232.186 13.9833 233.557 13.4236 234.986 13.4236C236.416 13.4236 237.787 13.9833 238.798 14.9796C239.809 15.9759 240.377 17.3271 240.377 18.7361V41.0486C240.377 43.8392 239.819 46.6024 238.736 49.1806C237.652 51.7588 236.064 54.1014 234.062 56.0746C232.059 58.0478 229.682 59.6131 227.066 60.681C224.45 61.7489 221.646 62.2986 218.815 62.2986C206.901 62.2986 201.565 55.9236 192.778 37.6751C192.063 36.4529 191.87 35.0008 192.242 33.6384C192.613 32.276 193.519 31.1148 194.759 30.4103C195.999 29.7058 197.473 29.5157 198.855 29.8819C200.237 30.248 201.416 31.1404 202.131 32.3626L208.033 42.4564V14.4861C208.033 13.0771 208.601 11.7259 209.612 10.7296C210.623 9.73329 211.994 9.17358 213.424 9.17358C214.854 9.17358 216.225 9.73329 217.236 10.7296C218.247 11.7259 218.815 13.0771 218.815 14.4861V32.5486" stroke="#5A16CA" stroke-width="2" stroke-linecap="round" stroke-linejoin="round"/>
<path d="M229.596 18.7361V10.2361C229.596 8.82712 229.028 7.47587 228.017 6.47958C227.006 5.48329 225.635 4.92358 224.205 4.92358C222.775 4.92358 221.404 5.48329 220.393 6.47958C219.382 7.47587 218.814 8.82712 218.814 10.2361V14.4861" stroke="#5A16CA" stroke-width="2" stroke-linecap="round" stroke-linejoin="round"/>
<path opacity="0.2" d="M24.1074 677.773C27.2322 679.569 30.7013 680.683 34.2872 681.043C37.873 681.403 41.4944 681 44.9135 679.861C48.3327 678.722 51.4723 676.873 54.1262 674.435C56.78 671.996 58.8882 669.024 60.3121 665.714C56.0409 668.802 50.9176 670.491 45.6471 670.548C40.3766 670.605 35.218 669.028 30.8809 666.033L24.1074 677.747V677.773Z" fill="#5A16CA"/>
<path opacity="0.2" d="M24.1078 677.747C21.1186 676.029 18.5075 673.725 16.4312 670.973C15.8906 665.727 16.99 660.442 19.5779 655.847C22.1658 651.252 26.1149 647.572 30.8812 645.314L36.8578 655.673L24.1078 677.747Z" fill="#5A16CA"/>
<path opacity="0.2" d="M24.1074 633.6C27.0954 631.873 30.4028 630.771 33.8293 630.359C38.6375 632.514 42.6612 636.104 45.3482 640.636C48.0352 645.168 49.2539 650.421 48.8371 655.673H36.8574L24.1074 633.6Z" fill="#5A16CA"/>
<path d="M36.8574 681.173C50.9407 681.173 62.3574 669.757 62.3574 655.673C62.3574 641.59 50.9407 630.173 36.8574 630.173C22.7742 630.173 11.3574 641.59 11.3574 655.673C11.3574 669.757 22.7742 681.173 36.8574 681.173Z" stroke="#5A16CA" stroke-width="2" stroke-linecap="round" stroke-linejoin="round"/>
<path d="M24.1074 633.6L36.8574 655.673" stroke="#5A16CA" stroke-width="2" stroke-linecap="round" stroke-linejoin="round"/>
<path d="M24.1074 677.747L36.8574 655.673" stroke="#5A16CA" stroke-width="2" stroke-linecap="round" stroke-linejoin="round"/>
<path d="M62.3574 655.673H36.8574" stroke="#5A16CA" stroke-width="2" stroke-linecap="round" stroke-linejoin="round"/>
<path d="M33.8291 630.359C38.6373 632.514 42.661 636.104 45.348 640.636C48.035 645.168 49.2538 650.421 48.8369 655.673" stroke="#5A16CA" stroke-width="2" stroke-linecap="round" stroke-linejoin="round"/>
<path d="M16.4312 670.973C15.8906 665.727 16.99 660.442 19.5779 655.847C22.1658 651.252 26.1149 647.572 30.8812 645.314" stroke="#5A16CA" stroke-width="2" stroke-linecap="round" stroke-linejoin="round"/>
<path d="M60.3121 665.714C56.0409 668.802 50.9176 670.491 45.6471 670.548C40.3766 670.605 35.218 669.028 30.8809 666.033" stroke="#5A16CA" stroke-width="2" stroke-linecap="round" stroke-linejoin="round"/>
<path opacity="0.2" d="M17.7324 760.548V775.184C17.7324 785.729 26.1793 794.468 36.7246 794.548C39.2473 794.566 41.7485 794.084 44.0842 793.131C46.4199 792.177 48.544 790.771 50.334 788.994C52.124 787.216 53.5446 785.102 54.514 782.773C55.4834 780.444 55.9825 777.946 55.9824 775.423V760.548C55.9824 759.985 55.7585 759.444 55.36 759.045C54.9615 758.647 54.421 758.423 53.8574 758.423H19.8574C19.2938 758.423 18.7533 758.647 18.3548 759.045C17.9563 759.444 17.7324 759.985 17.7324 760.548Z" fill="#5A16CA"/>
<path d="M17.7324 760.548V775.184C17.7324 785.729 26.1793 794.468 36.7246 794.548C39.2473 794.566 41.7485 794.084 44.0842 793.131C46.4199 792.177 48.544 790.771 50.334 788.994C52.124 787.216 53.5446 785.102 54.514 782.773C55.4834 780.444 55.9825 777.946 55.9824 775.423V760.548C55.9824 759.985 55.7585 759.444 55.36 759.045C54.9615 758.647 54.421 758.423 53.8574 758.423H19.8574C19.2938 758.423 18.7533 758.647 18.3548 759.045C17.9563 759.444 17.7324 759.985 17.7324 760.548Z" stroke="#5A16CA" stroke-width="2" stroke-linecap="round" stroke-linejoin="round"/>
<path d="M28.3574 805.173H45.3574" stroke="#5A16CA" stroke-width="2" stroke-linecap="round" stroke-linejoin="round"/>
<path d="M36.8574 794.548V805.173" stroke="#5A16CA" stroke-width="2" stroke-linecap="round" stroke-linejoin="round"/>
<path d="M55.5039 779.673H58.107C60.3614 779.673 62.5234 778.778 64.1174 777.184C65.7115 775.589 66.607 773.427 66.607 771.173V766.923C66.607 766.36 66.3832 765.819 65.9846 765.42C65.5861 765.022 65.0456 764.798 64.482 764.798H55.982" stroke="#5A16CA" stroke-width="2" stroke-linecap="round" stroke-linejoin="round"/>
<path d="M18.2639 779.673H15.5811C13.3267 779.673 11.1647 778.778 9.57065 777.184C7.97659 775.589 7.08105 773.427 7.08105 771.173V766.923C7.08105 766.36 7.30494 765.819 7.70345 765.42C8.10197 765.022 8.64247 764.798 9.20605 764.798H17.7061" stroke="#5A16CA" stroke-width="2" stroke-linecap="round" stroke-linejoin="round"/>
<path opacity="0.2" d="M193.314 778.673C193.311 775.328 193.966 772.015 195.243 768.923C196.52 765.831 198.394 763.021 200.757 760.653C203.12 758.285 205.926 756.406 209.015 755.122C212.104 753.839 215.416 753.177 218.761 753.173C218.754 759.92 216.071 766.388 211.3 771.159C206.53 775.93 200.061 778.613 193.314 778.62V778.673Z" fill="#5A16CA"/>
<path opacity="0.2" d="M218.867 804.226C218.864 800.881 219.519 797.568 220.796 794.476C222.073 791.384 223.946 788.574 226.309 786.206C228.672 783.838 231.479 781.959 234.568 780.676C237.657 779.392 240.969 778.73 244.314 778.726C244.307 785.473 241.624 791.942 236.853 796.712C232.082 801.483 225.614 804.166 218.867 804.173V804.226Z" fill="#5A16CA"/>
<path d="M218.814 804.173C232.898 804.173 244.314 792.756 244.314 778.673C244.314 764.59 232.898 753.173 218.814 753.173C204.731 753.173 193.314 764.59 193.314 778.673C193.314 792.756 204.731 804.173 218.814 804.173Z" stroke="#5A16CA" stroke-width="2" stroke-linecap="round" stroke-linejoin="round"/>
<path d="M218.761 753.173C218.754 759.92 216.071 766.388 211.3 771.159C206.53 775.93 200.061 778.613 193.314 778.62" stroke="#5A16CA" stroke-width="2" stroke-linecap="round" stroke-linejoin="round"/>
<path d="M244.314 778.726C237.567 778.733 231.099 781.417 226.328 786.187C221.557 790.958 218.874 797.426 218.867 804.173" stroke="#5A16CA" stroke-width="2" stroke-linecap="round" stroke-linejoin="round"/>
<path opacity="0.2" d="M582.229 674.423C589.27 674.423 594.979 668.715 594.979 661.673C594.979 654.632 589.27 648.923 582.229 648.923C575.187 648.923 569.479 654.632 569.479 661.673C569.479 668.715 575.187 674.423 582.229 674.423Z" fill="#5A16CA"/>
<path d="M582.229 661.673L607.729 636.173" stroke="#5A16CA" stroke-width="2" stroke-linecap="round" stroke-linejoin="round"/>
<path d="M600.264 643.637C595.744 639.103 589.685 636.431 583.288 636.151C576.892 635.87 570.623 638.001 565.722 642.122C560.822 646.243 557.647 652.054 556.826 658.404C556.005 664.754 557.598 671.181 561.29 676.412C564.982 681.644 570.503 685.299 576.761 686.654C583.019 688.009 589.557 686.965 595.082 683.729C600.608 680.493 604.716 675.301 606.596 669.18C608.475 663.059 607.988 656.456 605.232 650.677" stroke="#5A16CA" stroke-width="2" stroke-linecap="round" stroke-linejoin="round"/>
<path d="M591.233 652.669C589.127 650.569 586.352 649.273 583.39 649.006C580.429 648.739 577.467 649.518 575.02 651.208C572.572 652.898 570.794 655.391 569.994 658.255C569.194 661.12 569.423 664.174 570.64 666.887C571.858 669.6 573.987 671.801 576.659 673.108C579.33 674.414 582.375 674.744 585.264 674.039C588.153 673.334 590.704 671.64 592.474 669.25C594.244 666.86 595.121 663.925 594.952 660.956" stroke="#5A16CA" stroke-width="2" stroke-linecap="round" stroke-linejoin="round"/>
<path opacity="0.2" d="M383.834 682.048C387.942 682.048 391.271 678.718 391.271 674.611C391.271 670.503 387.942 667.173 383.834 667.173C379.726 667.173 376.396 670.503 376.396 674.611C376.396 678.718 379.726 682.048 383.834 682.048Z" fill="#5A16CA"/>
<path d="M383.834 682.048C387.942 682.048 391.271 678.718 391.271 674.611C391.271 670.503 387.942 667.173 383.834 667.173C379.726 667.173 376.396 670.503 376.396 674.611C376.396 678.718 379.726 682.048 383.834 682.048Z" stroke="#5A16CA" stroke-width="2" stroke-linecap="round" stroke-linejoin="round"/>
<path d="M376.396 643.798L387.021 654.423" stroke="#5A16CA" stroke-width="2" stroke-linecap="round" stroke-linejoin="round"/>
<path d="M387.021 643.798L376.396 654.423" stroke="#5A16CA" stroke-width="2" stroke-linecap="round" stroke-linejoin="round"/>
<path d="M412.521 669.298L423.146 679.923" stroke="#5A16CA" stroke-width="2" stroke-linecap="round" stroke-linejoin="round"/>
<path d="M423.146 669.298L412.521 679.923" stroke="#5A16CA" stroke-width="2" stroke-linecap="round" stroke-linejoin="round"/>
<path d="M401.896 645.923V635.298H412.521" stroke="#5A16CA" stroke-width="2" stroke-linecap="round" stroke-linejoin="round"/>
<path d="M401.896 635.298L406.146 639.548C416.771 650.173 408.271 662.923 399.771 665.048" stroke="#5A16CA" stroke-width="2" stroke-linecap="round" stroke-linejoin="round"/>
<path opacity="0.2" d="M399.771 771.517L389.173 779.22L393.21 791.704H406.332L410.37 779.22L399.771 771.517Z" fill="#5A16CA"/>
<path opacity="0.2" d="M390.475 758.926C396.452 756.589 403.091 756.589 409.068 758.926L399.771 765.673L390.475 758.926Z" fill="#5A16CA"/>
<path opacity="0.2" d="M374.298 784.187C374.128 781.005 374.542 777.818 375.52 774.784C376.501 771.761 378.042 768.95 380.062 766.497L383.595 777.414L374.298 784.187Z" fill="#5A16CA"/>
<path opacity="0.2" d="M393.343 807.35C390.265 806.549 387.364 805.18 384.79 803.312C382.214 801.441 380.008 799.108 378.282 796.432H389.784L393.343 807.35Z" fill="#5A16CA"/>
<path opacity="0.2" d="M421.26 796.432C419.535 799.108 417.328 801.441 414.752 803.312C412.178 805.18 409.277 806.549 406.199 807.35L409.759 796.432H421.26Z" fill="#5A16CA"/>
<path opacity="0.2" d="M419.481 766.497C421.501 768.95 423.042 771.761 424.023 774.784C425 777.818 425.415 781.005 425.245 784.187L415.948 777.414L419.481 766.497Z" fill="#5A16CA"/>
<path d="M399.771 808.173C413.855 808.173 425.271 796.756 425.271 782.673C425.271 768.59 413.855 757.173 399.771 757.173C385.688 757.173 374.271 768.59 374.271 782.673C374.271 796.756 385.688 808.173 399.771 808.173Z" stroke="#5A16CA" stroke-width="2" stroke-linecap="round" stroke-linejoin="round"/>
<path d="M399.771 771.517L389.173 779.22L393.21 791.704H406.332L410.37 779.22L399.771 771.517Z" stroke="#5A16CA" stroke-width="2" stroke-linecap="round" stroke-linejoin="round"/>
<path d="M399.771 765.673V771.517" stroke="#5A16CA" stroke-width="2" stroke-linecap="round" stroke-linejoin="round"/>
<path d="M409.068 758.926L399.771 765.673L390.475 758.926" stroke="#5A16CA" stroke-width="2" stroke-linecap="round" stroke-linejoin="round"/>
<path d="M383.595 777.414L389.173 779.22" stroke="#5A16CA" stroke-width="2" stroke-linecap="round" stroke-linejoin="round"/>
<path d="M380.062 766.497L383.595 777.414L374.298 784.187" stroke="#5A16CA" stroke-width="2" stroke-linecap="round" stroke-linejoin="round"/>
<path d="M389.784 796.432L393.211 791.704" stroke="#5A16CA" stroke-width="2" stroke-linecap="round" stroke-linejoin="round"/>
<path d="M378.282 796.432H389.784L393.343 807.35" stroke="#5A16CA" stroke-width="2" stroke-linecap="round" stroke-linejoin="round"/>
<path d="M409.759 796.432L406.332 791.704" stroke="#5A16CA" stroke-width="2" stroke-linecap="round" stroke-linejoin="round"/>
<path d="M406.199 807.35L409.759 796.432H421.26" stroke="#5A16CA" stroke-width="2" stroke-linecap="round" stroke-linejoin="round"/>
<path d="M415.948 777.414L410.37 779.22" stroke="#5A16CA" stroke-width="2" stroke-linecap="round" stroke-linejoin="round"/>
<path d="M425.245 784.187L415.948 777.414L419.481 766.497" stroke="#5A16CA" stroke-width="2" stroke-linecap="round" stroke-linejoin="round"/>
<path opacity="0.2" d="M218.814 627.048C212.051 627.048 205.565 629.735 200.783 634.517C196.001 639.299 193.314 645.785 193.314 652.548H208.189C208.189 633.423 218.814 627.048 218.814 627.048Z" fill="#5A16CA"/>
<path opacity="0.2" d="M218.814 627.048C218.814 627.048 229.439 633.423 229.439 652.548H244.314C244.314 645.785 241.628 639.299 236.846 634.517C232.063 629.735 225.577 627.048 218.814 627.048Z" fill="#5A16CA"/>
<path d="M244.314 652.548C244.314 645.785 241.628 639.299 236.846 634.517C232.063 629.735 225.577 627.048 218.814 627.048C212.051 627.048 205.565 629.735 200.783 634.517C196.001 639.299 193.314 645.785 193.314 652.548H244.314Z" stroke="#5A16CA" stroke-width="2" stroke-linecap="round" stroke-linejoin="round"/>
<path d="M244.314 652.548L218.814 671.673L193.314 652.548" stroke="#5A16CA" stroke-width="2" stroke-linecap="round" stroke-linejoin="round"/>
<path d="M218.814 671.673V680.173" stroke="#5A16CA" stroke-width="2" stroke-linecap="round" stroke-linejoin="round"/>
<path d="M214.564 680.173H223.064" stroke="#5A16CA" stroke-width="2" stroke-linecap="round" stroke-linejoin="round"/>
<path d="M218.814 671.673L208.189 652.548C208.189 633.423 218.814 627.048 218.814 627.048C218.814 627.048 229.439 633.423 229.439 652.548L218.814 671.673Z" stroke="#5A16CA" stroke-width="2" stroke-linecap="round" stroke-linejoin="round"/>
<path opacity="0.2" d="M946.643 162.923C953.684 162.923 959.393 157.215 959.393 150.173C959.393 143.132 953.684 137.423 946.643 137.423C939.601 137.423 933.893 143.132 933.893 150.173C933.893 157.215 939.601 162.923 946.643 162.923Z" fill="#5A16CA"/>
<path d="M946.643 171.423C958.379 171.423 967.893 161.909 967.893 150.173C967.893 138.437 958.379 128.923 946.643 128.923C934.907 128.923 925.393 138.437 925.393 150.173C925.393 161.909 934.907 171.423 946.643 171.423Z" stroke="#5A16CA" stroke-width="2" stroke-linecap="round" stroke-linejoin="round"/>
<path d="M946.643 162.923C953.684 162.923 959.393 157.215 959.393 150.173C959.393 143.132 953.684 137.423 946.643 137.423C939.601 137.423 933.893 143.132 933.893 150.173C933.893 157.215 939.601 162.923 946.643 162.923Z" stroke="#5A16CA" stroke-width="2" stroke-linecap="round" stroke-linejoin="round"/>
<path d="M959.393 167.173V188.423L946.643 182.048L933.893 188.423V167.173" stroke="#5A16CA" stroke-width="2" stroke-linecap="round" stroke-linejoin="round"/>
<path d="M597.263 800.708C586.213 811.731 570.913 810.854 563.529 809.606C562.221 809.387 561.013 808.765 560.075 807.827C559.137 806.889 558.515 805.681 558.296 804.373C557.048 796.989 556.171 781.689 567.194 770.639C578.218 759.589 593.544 760.492 600.929 761.74C602.237 761.96 603.444 762.582 604.382 763.52C605.32 764.458 605.942 765.665 606.162 766.973C607.41 774.358 608.287 789.658 597.263 800.708Z" stroke="#5A16CA" stroke-width="2" stroke-linecap="round" stroke-linejoin="round"/>
<path d="M590.729 777.173L573.729 794.173" stroke="#5A16CA" stroke-width="2" stroke-linecap="round" stroke-linejoin="round"/>
<path d="M581.352 778.793L589.108 786.55" stroke="#5A16CA" stroke-width="2" stroke-linecap="round" stroke-linejoin="round"/>
<path d="M575.349 784.797L583.105 792.553" stroke="#5A16CA" stroke-width="2" stroke-linecap="round" stroke-linejoin="round"/>
<path d="M587.594 761.289L606.613 780.308" stroke="#5A16CA" stroke-width="2" stroke-linecap="round" stroke-linejoin="round"/>
<path d="M557.844 791.039L576.863 810.058" stroke="#5A16CA" stroke-width="2" stroke-linecap="round" stroke-linejoin="round"/>
<path opacity="0.2" d="M557.844 791.039C558.587 784.345 561.031 776.828 567.194 770.639C573.356 764.45 580.9 762.033 587.594 761.289L606.613 780.308C605.869 787.001 603.425 794.519 597.263 800.708C591.1 806.897 583.556 809.314 576.863 810.058L557.844 791.039Z" fill="#5A16CA"/>
<path opacity="0.2" d="M746.65 801.709C744.279 799.349 742.396 796.544 741.11 793.456C739.824 790.368 739.159 787.056 739.154 783.711C739.149 780.365 739.804 777.051 741.081 773.959C742.358 770.867 744.233 768.057 746.597 765.69C748.959 768.051 750.832 770.854 752.108 773.94C753.385 777.026 754.039 780.334 754.034 783.673C754.038 787.016 753.384 790.328 752.107 793.418C750.831 796.508 748.959 799.316 746.597 801.682L746.65 801.709Z" fill="#5A16CA"/>
<path opacity="0.2" d="M782.775 801.709C780.404 799.349 778.521 796.544 777.235 793.456C775.949 790.368 775.284 787.056 775.279 783.711C775.274 780.365 775.929 777.051 777.206 773.959C778.483 770.867 780.358 768.057 782.722 765.69C787.482 770.469 790.155 776.94 790.155 783.686C790.155 790.432 787.482 796.903 782.722 801.682L782.775 801.709Z" fill="#5A16CA"/>
<path d="M764.686 809.173C778.769 809.173 790.186 797.756 790.186 783.673C790.186 769.59 778.769 758.173 764.686 758.173C750.602 758.173 739.186 769.59 739.186 783.673C739.186 797.756 750.602 809.173 764.686 809.173Z" stroke="#5A16CA" stroke-width="2" stroke-linecap="round" stroke-linejoin="round"/>
<path d="M746.623 765.664C751.391 770.444 754.066 776.922 754.061 783.673C754.066 790.425 751.391 796.902 746.623 801.683" stroke="#5A16CA" stroke-width="2" stroke-linecap="round" stroke-linejoin="round"/>
<path d="M782.749 765.664C777.986 770.448 775.312 776.923 775.312 783.673C775.312 790.423 777.986 796.899 782.749 801.683" stroke="#5A16CA" stroke-width="2" stroke-linecap="round" stroke-linejoin="round"/>
<path d="M739.186 783.673H790.186" stroke="#5A16CA" stroke-width="2" stroke-linecap="round" stroke-linejoin="round"/>
<path d="M764.686 758.173V809.173" stroke="#5A16CA" stroke-width="2" stroke-linecap="round" stroke-linejoin="round"/>
<path opacity="0.2" d="M928.607 799.709C926.236 797.349 924.353 794.544 923.067 791.456C921.781 788.368 921.116 785.056 921.111 781.711C921.106 778.365 921.761 775.051 923.038 771.959C924.315 768.867 926.19 766.057 928.554 763.69C930.916 766.051 932.789 768.854 934.065 771.94C935.342 775.026 935.996 778.334 935.991 781.673C935.995 785.016 935.341 788.328 934.064 791.418C932.788 794.508 930.916 797.316 928.554 799.682L928.607 799.709Z" fill="#5A16CA"/>
<path opacity="0.2" d="M964.732 799.709C962.361 797.349 960.478 794.544 959.192 791.456C957.906 788.368 957.241 785.056 957.236 781.711C957.231 778.365 957.886 775.051 959.163 771.959C960.44 768.867 962.315 766.057 964.679 763.69C969.439 768.469 972.112 774.94 972.112 781.686C972.112 788.432 969.439 794.903 964.679 799.682L964.732 799.709Z" fill="#5A16CA"/>
<path d="M946.643 807.173C960.726 807.173 972.143 795.756 972.143 781.673C972.143 767.59 960.726 756.173 946.643 756.173C932.559 756.173 921.143 767.59 921.143 781.673C921.143 795.756 932.559 807.173 946.643 807.173Z" stroke="#5A16CA" stroke-width="2" stroke-linecap="round" stroke-linejoin="round"/>
<path d="M957.586 777.689C957.806 776.29 958.144 774.913 958.595 773.572" stroke="#5A16CA" stroke-width="2" stroke-linecap="round" stroke-linejoin="round"/>
<path d="M958.595 789.775C958.144 788.433 957.806 787.056 957.586 785.657" stroke="#5A16CA" stroke-width="2" stroke-linecap="round" stroke-linejoin="round"/>
<path d="M935.699 777.689C935.479 776.29 935.141 774.913 934.689 773.572" stroke="#5A16CA" stroke-width="2" stroke-linecap="round" stroke-linejoin="round"/>
<path d="M934.689 789.775C935.141 788.433 935.479 787.056 935.699 785.657" stroke="#5A16CA" stroke-width="2" stroke-linecap="round" stroke-linejoin="round"/>
<path d="M962.262 766.506C963.011 765.504 963.827 764.555 964.705 763.664" stroke="#5A16CA" stroke-width="2" stroke-linecap="round" stroke-linejoin="round"/>
<path d="M964.705 799.683C963.834 798.786 963.018 797.837 962.262 796.84" stroke="#5A16CA" stroke-width="2" stroke-linecap="round" stroke-linejoin="round"/>
<path d="M928.58 799.683C929.452 798.786 930.268 797.837 931.024 796.84" stroke="#5A16CA" stroke-width="2" stroke-linecap="round" stroke-linejoin="round"/>
<path d="M931.024 766.506C930.275 765.504 929.458 764.555 928.58 763.664" stroke="#5A16CA" stroke-width="2" stroke-linecap="round" stroke-linejoin="round"/>
<path d="M771.061 175.673L751.936 139.548L732.811 175.673" stroke="#5A16CA" stroke-width="2" stroke-linecap="round" stroke-linejoin="round"/>
<path d="M785.936 176.444C790.63 176.444 794.436 173.114 794.436 169.006C794.436 164.898 790.63 161.569 785.936 161.569C781.241 161.569 777.436 164.898 777.436 169.006C777.436 173.114 781.241 176.444 785.936 176.444Z" stroke="#5A16CA" stroke-width="2" stroke-linecap="round" stroke-linejoin="round"/>
<path d="M779.561 154.53C781.273 152.886 783.562 151.98 785.936 152.006C790.637 152.006 794.436 155.326 794.436 159.444V175.673" stroke="#5A16CA" stroke-width="2" stroke-linecap="round" stroke-linejoin="round"/>
<path d="M765.429 165.048H738.441" stroke="#5A16CA" stroke-width="2" stroke-linecap="round" stroke-linejoin="round"/>
<path opacity="0.2" d="M953.018 43.1736H963.643C966.461 43.1736 969.163 42.0542 971.156 40.0616C973.148 38.069 974.268 35.3665 974.268 32.5486C974.268 29.7307 973.148 27.0281 971.156 25.0356C969.163 23.043 966.461 21.9236 963.643 21.9236H953.018V43.1736Z" fill="#5A16CA"/>
<path d="M953.018 21.9236V54.7814C953.014 55.1345 953.1 55.4828 953.268 55.7939C953.435 56.105 953.678 56.3689 953.974 56.5611L956.896 58.5001C957.179 58.6891 957.503 58.8074 957.841 58.8449C958.18 58.8824 958.522 58.8381 958.84 58.7158C959.157 58.5934 959.441 58.3966 959.666 58.1418C959.892 57.887 960.053 57.5818 960.136 57.2517L963.643 43.1736" stroke="#5A16CA" stroke-width="2" stroke-linecap="round" stroke-linejoin="round"/>
<path d="M963.643 43.1737C966.461 43.1737 969.163 42.0543 971.156 40.0617C973.148 38.0691 974.268 35.3666 974.268 32.5487C974.268 29.7308 973.148 27.0283 971.156 25.0357C969.163 23.0431 966.461 21.9237 963.643 21.9237H953.018C953.018 21.9237 938.541 21.9237 924.622 10.2628C924.313 10.0066 923.937 9.84341 923.538 9.79222C923.14 9.74103 922.735 9.80389 922.37 9.97351C922.006 10.1431 921.697 10.4126 921.48 10.7506C921.263 11.0886 921.146 11.4812 921.143 11.8831V53.2143C921.146 53.6161 921.263 54.0088 921.48 54.3468C921.697 54.6848 922.006 54.9542 922.37 55.1239C922.735 55.2935 923.14 55.3564 923.538 55.3052C923.937 55.254 924.313 55.0908 924.622 54.8346C938.541 43.1737 953.018 43.1737 953.018 43.1737H963.643Z" stroke="#5A16CA" stroke-width="2" stroke-linecap="round" stroke-linejoin="round"/>
<path opacity="0.2" d="M751.936 38.9236V49.5486C751.936 50.1122 752.159 50.6527 752.558 51.0512C752.956 51.4497 753.497 51.6736 754.061 51.6736H779.667L790.186 60.1736V26.1736C790.186 25.61 789.962 25.0695 789.563 24.671C789.165 24.2725 788.624 24.0486 788.061 24.0486H777.436V36.7986C777.436 37.3622 777.212 37.9027 776.813 38.3012C776.415 38.6997 775.874 38.9236 775.311 38.9236H751.936Z" fill="#5A16CA"/>
<path d="M749.704 38.9236L739.186 47.4236V13.4236C739.186 12.86 739.409 12.3195 739.808 11.921C740.206 11.5225 740.747 11.2986 741.311 11.2986H775.311C775.874 11.2986 776.415 11.5225 776.813 11.921C777.212 12.3195 777.436 12.86 777.436 13.4236V36.7986C777.436 37.3622 777.212 37.9027 776.813 38.3012C776.415 38.6997 775.874 38.9236 775.311 38.9236H749.704Z" stroke="#5A16CA" stroke-width="2" stroke-linecap="round" stroke-linejoin="round"/>
<path d="M751.936 38.9236V49.5486C751.936 50.1122 752.159 50.6527 752.558 51.0512C752.956 51.4497 753.497 51.6736 754.061 51.6736H779.667L790.186 60.1736V26.1736C790.186 25.61 789.962 25.0695 789.563 24.671C789.165 24.2725 788.624 24.0486 788.061 24.0486H777.436" stroke="#5A16CA" stroke-width="2" stroke-linecap="round" stroke-linejoin="round"/>
</svg>
